G04 #@! TF.GenerationSoftware,KiCad,Pcbnew,8.0.9-8.0.9-0~ubuntu24.04.1*
G04 #@! TF.CreationDate,2025-10-28T13:37:42-07:00*
G04 #@! TF.ProjectId,PoNS,506f4e53-2e6b-4696-9361-645f70636258,rev?*
G04 #@! TF.SameCoordinates,Original*
G04 #@! TF.FileFunction,Soldermask,Top*
G04 #@! TF.FilePolarity,Negative*
%FSLAX46Y46*%
G04 Gerber Fmt 4.6, Leading zero omitted, Abs format (unit mm)*
G04 Created by KiCad (PCBNEW 8.0.9-8.0.9-0~ubuntu24.04.1) date 2025-10-28 13:37:42*
%MOMM*%
%LPD*%
G01*
G04 APERTURE LIST*
G04 Aperture macros list*
%AMRoundRect*
0 Rectangle with rounded corners*
0 $1 Rounding radius*
0 $2 $3 $4 $5 $6 $7 $8 $9 X,Y pos of 4 corners*
0 Add a 4 corners polygon primitive as box body*
4,1,4,$2,$3,$4,$5,$6,$7,$8,$9,$2,$3,0*
0 Add four circle primitives for the rounded corners*
1,1,$1+$1,$2,$3*
1,1,$1+$1,$4,$5*
1,1,$1+$1,$6,$7*
1,1,$1+$1,$8,$9*
0 Add four rect primitives between the rounded corners*
20,1,$1+$1,$2,$3,$4,$5,0*
20,1,$1+$1,$4,$5,$6,$7,0*
20,1,$1+$1,$6,$7,$8,$9,0*
20,1,$1+$1,$8,$9,$2,$3,0*%
G04 Aperture macros list end*
%ADD10R,0.889000X0.889000*%
%ADD11RoundRect,0.249999X-1.025001X-1.025001X1.025001X-1.025001X1.025001X1.025001X-1.025001X1.025001X0*%
%ADD12R,1.016000X1.397000*%
%ADD13RoundRect,0.075000X-0.075000X-0.662500X0.075000X-0.662500X0.075000X0.662500X-0.075000X0.662500X0*%
%ADD14RoundRect,0.075000X-0.662500X-0.075000X0.662500X-0.075000X0.662500X0.075000X-0.662500X0.075000X0*%
%ADD15R,1.000000X1.000000*%
%ADD16R,1.905000X1.905000*%
%ADD17C,1.905000*%
%ADD18R,0.900000X0.900000*%
%ADD19C,1.651000*%
%ADD20R,1.651000X1.651000*%
%ADD21R,1.600000X1.400000*%
%ADD22O,0.900000X1.600000*%
%ADD23R,1.900000X1.900000*%
%ADD24R,0.400000X1.350000*%
%ADD25O,1.397000X2.413000*%
%ADD26R,0.726440X0.299720*%
%ADD27R,1.198880X1.016000*%
%ADD28R,1.270000X0.889000*%
G04 APERTURE END LIST*
D10*
X154871822Y-72485199D03*
X154871822Y-74009199D03*
D11*
X149352000Y-66446400D03*
X149352000Y-62788800D03*
D12*
X144907000Y-76301600D03*
X146685000Y-76301600D03*
D13*
X142932900Y-80018300D03*
X143432900Y-80018300D03*
X143932900Y-80018300D03*
X144432900Y-80018300D03*
X144932900Y-80018300D03*
X145432900Y-80018300D03*
X145932900Y-80018300D03*
X146432900Y-80018300D03*
X146932900Y-80018300D03*
X147432900Y-80018300D03*
X147932900Y-80018300D03*
X148432900Y-80018300D03*
X148932900Y-80018300D03*
X149432900Y-80018300D03*
X149932900Y-80018300D03*
X150432900Y-80018300D03*
X150932900Y-80018300D03*
X151432900Y-80018300D03*
X151932900Y-80018300D03*
X152432900Y-80018300D03*
X152932900Y-80018300D03*
X153432900Y-80018300D03*
X153932900Y-80018300D03*
X154432900Y-80018300D03*
X154932900Y-80018300D03*
D14*
X156595400Y-81680800D03*
X156595400Y-82180800D03*
X156595400Y-82680800D03*
X156595400Y-83180800D03*
X156595400Y-83680800D03*
X156595400Y-84180800D03*
X156595400Y-84680800D03*
X156595400Y-85180800D03*
X156595400Y-85680800D03*
X156595400Y-86180800D03*
X156595400Y-86680800D03*
X156595400Y-87180800D03*
X156595400Y-87680800D03*
X156595400Y-88180800D03*
X156595400Y-88680800D03*
X156595400Y-89180800D03*
X156595400Y-89680800D03*
X156595400Y-90180800D03*
X156595400Y-90680800D03*
X156595400Y-91180800D03*
X156595400Y-91680800D03*
X156595400Y-92180800D03*
X156595400Y-92680800D03*
X156595400Y-93180800D03*
X156595400Y-93680800D03*
D13*
X154932900Y-95343300D03*
X154432900Y-95343300D03*
X153932900Y-95343300D03*
X153432900Y-95343300D03*
X152932900Y-95343300D03*
X152432900Y-95343300D03*
X151932900Y-95343300D03*
X151432900Y-95343300D03*
X150932900Y-95343300D03*
X150432900Y-95343300D03*
X149932900Y-95343300D03*
X149432900Y-95343300D03*
X148932900Y-95343300D03*
X148432900Y-95343300D03*
X147932900Y-95343300D03*
X147432900Y-95343300D03*
X146932900Y-95343300D03*
X146432900Y-95343300D03*
X145932900Y-95343300D03*
X145432900Y-95343300D03*
X144932900Y-95343300D03*
X144432900Y-95343300D03*
X143932900Y-95343300D03*
X143432900Y-95343300D03*
X142932900Y-95343300D03*
D14*
X141270400Y-93680800D03*
X141270400Y-93180800D03*
X141270400Y-92680800D03*
X141270400Y-92180800D03*
X141270400Y-91680800D03*
X141270400Y-91180800D03*
X141270400Y-90680800D03*
X141270400Y-90180800D03*
X141270400Y-89680800D03*
X141270400Y-89180800D03*
X141270400Y-88680800D03*
X141270400Y-88180800D03*
X141270400Y-87680800D03*
X141270400Y-87180800D03*
X141270400Y-86680800D03*
X141270400Y-86180800D03*
X141270400Y-85680800D03*
X141270400Y-85180800D03*
X141270400Y-84680800D03*
X141270400Y-84180800D03*
X141270400Y-83680800D03*
X141270400Y-83180800D03*
X141270400Y-82680800D03*
X141270400Y-82180800D03*
X141270400Y-81680800D03*
D15*
X145592800Y-118465600D03*
X149656800Y-118465600D03*
X147624800Y-118465600D03*
X151688800Y-118465600D03*
X151688800Y-134721600D03*
X155752800Y-134721600D03*
X153720800Y-132689600D03*
X143560800Y-130657600D03*
X147624800Y-134721600D03*
X147624800Y-132689600D03*
X153720800Y-126593600D03*
X141528800Y-124561600D03*
X147624800Y-120497600D03*
X151688800Y-124561600D03*
X149656800Y-126593600D03*
X145592800Y-124561600D03*
X147624800Y-124561600D03*
X149656800Y-132689600D03*
X143560800Y-126593600D03*
X153720800Y-136753600D03*
X155752800Y-120497600D03*
X147624800Y-122529600D03*
X149656800Y-122529600D03*
X147624800Y-128625600D03*
X145592800Y-136753600D03*
X155752800Y-132689600D03*
X149656800Y-130657600D03*
X149656800Y-128625600D03*
X141528800Y-132689600D03*
X155752800Y-128625600D03*
X143560800Y-128625600D03*
X153720800Y-122529600D03*
X145592800Y-122529600D03*
X151688800Y-136753600D03*
X143560800Y-136753600D03*
X145592800Y-134721600D03*
X151688800Y-128625600D03*
X141528800Y-136753600D03*
X143560800Y-134721600D03*
X141528800Y-130657600D03*
X141528800Y-122529600D03*
X149656800Y-124561600D03*
X141528800Y-126593600D03*
X153720800Y-128625600D03*
X141528800Y-134721600D03*
X147624800Y-130657600D03*
X153720800Y-134721600D03*
X145592800Y-128625600D03*
X148640800Y-136753600D03*
X155752800Y-124561600D03*
X155752800Y-122529600D03*
X143560800Y-122529600D03*
X155752800Y-136753600D03*
X151688800Y-122529600D03*
X151688800Y-120497600D03*
X151688800Y-126593600D03*
X145592800Y-132689600D03*
X151688800Y-130657600D03*
X155752800Y-126593600D03*
X141528800Y-120497600D03*
X149656800Y-120497600D03*
X145592800Y-120497600D03*
X143560800Y-124561600D03*
X143560800Y-132689600D03*
X153720800Y-130657600D03*
X143560800Y-120497600D03*
X141528800Y-128625600D03*
X153720800Y-124561600D03*
X145592800Y-126593600D03*
X151688800Y-132689600D03*
X145592800Y-130657600D03*
X155752800Y-130657600D03*
X149656800Y-134721600D03*
X153720800Y-120497600D03*
X147624800Y-126593600D03*
D10*
X139496800Y-81838800D03*
X139496800Y-83362800D03*
D16*
X142773400Y-75819000D03*
D17*
X138455400Y-75819000D03*
X138455400Y-69453000D03*
X142773400Y-69453000D03*
D16*
X160655000Y-76022200D03*
D17*
X156337000Y-76022200D03*
X156337000Y-69656200D03*
X160655000Y-69656200D03*
D10*
X160934400Y-78689200D03*
X160934400Y-80213200D03*
D18*
X138176000Y-86410800D03*
X138176000Y-84886800D03*
X160528000Y-73660000D03*
X160528000Y-72136000D03*
D19*
X153111200Y-62890400D03*
X155651200Y-62890400D03*
X158191200Y-62890400D03*
D20*
X160731200Y-62890400D03*
D21*
X138493900Y-64420420D03*
D22*
X138393900Y-62166500D03*
D23*
X140493900Y-62166500D03*
X142893900Y-62166500D03*
D22*
X144993900Y-62166500D03*
D21*
X145093900Y-64420420D03*
D24*
X140395960Y-64841500D03*
X141046200Y-64841500D03*
X141693900Y-64841500D03*
X142341600Y-64841500D03*
X142991840Y-64841500D03*
D25*
X151180800Y-72542400D03*
D26*
X149768560Y-73291700D03*
X149768560Y-72791320D03*
X149768560Y-72293480D03*
X149768560Y-71793100D03*
X152593040Y-71793100D03*
X152593040Y-72293480D03*
X152593040Y-72791320D03*
X152593040Y-73291700D03*
D27*
X156310885Y-72529405D03*
X158429245Y-71579445D03*
X158429245Y-73479365D03*
D28*
X145288000Y-71856600D03*
X145288000Y-73634600D03*
X141833600Y-71856600D03*
X141833600Y-73634600D03*
X138379200Y-71856600D03*
X138379200Y-73634600D03*
D10*
X145135600Y-68681600D03*
X146659600Y-68681600D03*
X145237200Y-70205600D03*
X146761200Y-70205600D03*
M02*
