G04 #@! TF.GenerationSoftware,KiCad,Pcbnew,8.0.9-8.0.9-0~ubuntu24.04.1*
G04 #@! TF.CreationDate,2025-10-28T13:37:41-07:00*
G04 #@! TF.ProjectId,PoNS,506f4e53-2e6b-4696-9361-645f70636258,rev?*
G04 #@! TF.SameCoordinates,Original*
G04 #@! TF.FileFunction,Legend,Top*
G04 #@! TF.FilePolarity,Positive*
%FSLAX46Y46*%
G04 Gerber Fmt 4.6, Leading zero omitted, Abs format (unit mm)*
G04 Created by KiCad (PCBNEW 8.0.9-8.0.9-0~ubuntu24.04.1) date 2025-10-28 13:37:41*
%MOMM*%
%LPD*%
G01*
G04 APERTURE LIST*
%ADD10C,0.150000*%
%ADD11C,0.300000*%
%ADD12C,0.101600*%
%ADD13C,0.127000*%
%ADD14C,0.120000*%
%ADD15C,0.100000*%
%ADD16C,0.066040*%
G04 APERTURE END LIST*
D10*
X157634780Y-64543276D02*
X158634780Y-64543276D01*
X158634780Y-64543276D02*
X158634780Y-64924228D01*
X158634780Y-64924228D02*
X158587161Y-65019466D01*
X158587161Y-65019466D02*
X158539542Y-65067085D01*
X158539542Y-65067085D02*
X158444304Y-65114704D01*
X158444304Y-65114704D02*
X158301447Y-65114704D01*
X158301447Y-65114704D02*
X158206209Y-65067085D01*
X158206209Y-65067085D02*
X158158590Y-65019466D01*
X158158590Y-65019466D02*
X158110971Y-64924228D01*
X158110971Y-64924228D02*
X158110971Y-64543276D01*
X157634780Y-65543276D02*
X158634780Y-65543276D01*
X158634780Y-65543276D02*
X158634780Y-65781371D01*
X158634780Y-65781371D02*
X158587161Y-65924228D01*
X158587161Y-65924228D02*
X158491923Y-66019466D01*
X158491923Y-66019466D02*
X158396685Y-66067085D01*
X158396685Y-66067085D02*
X158206209Y-66114704D01*
X158206209Y-66114704D02*
X158063352Y-66114704D01*
X158063352Y-66114704D02*
X157872876Y-66067085D01*
X157872876Y-66067085D02*
X157777638Y-66019466D01*
X157777638Y-66019466D02*
X157682400Y-65924228D01*
X157682400Y-65924228D02*
X157634780Y-65781371D01*
X157634780Y-65781371D02*
X157634780Y-65543276D01*
X157634780Y-66543276D02*
X158634780Y-66543276D01*
X157634780Y-67019466D02*
X158634780Y-67019466D01*
X158634780Y-67019466D02*
X158634780Y-67257561D01*
X158634780Y-67257561D02*
X158587161Y-67400418D01*
X158587161Y-67400418D02*
X158491923Y-67495656D01*
X158491923Y-67495656D02*
X158396685Y-67543275D01*
X158396685Y-67543275D02*
X158206209Y-67590894D01*
X158206209Y-67590894D02*
X158063352Y-67590894D01*
X158063352Y-67590894D02*
X157872876Y-67543275D01*
X157872876Y-67543275D02*
X157777638Y-67495656D01*
X157777638Y-67495656D02*
X157682400Y-67400418D01*
X157682400Y-67400418D02*
X157634780Y-67257561D01*
X157634780Y-67257561D02*
X157634780Y-67019466D01*
X157920495Y-67971847D02*
X157920495Y-68448037D01*
X157634780Y-67876609D02*
X158634780Y-68209942D01*
X158634780Y-68209942D02*
X157634780Y-68543275D01*
X158634780Y-68733752D02*
X158634780Y-69305180D01*
X157634780Y-69019466D02*
X158634780Y-69019466D01*
X154383580Y-64448038D02*
X155383580Y-64448038D01*
X155383580Y-64448038D02*
X155383580Y-64828990D01*
X155383580Y-64828990D02*
X155335961Y-64924228D01*
X155335961Y-64924228D02*
X155288342Y-64971847D01*
X155288342Y-64971847D02*
X155193104Y-65019466D01*
X155193104Y-65019466D02*
X155050247Y-65019466D01*
X155050247Y-65019466D02*
X154955009Y-64971847D01*
X154955009Y-64971847D02*
X154907390Y-64924228D01*
X154907390Y-64924228D02*
X154859771Y-64828990D01*
X154859771Y-64828990D02*
X154859771Y-64448038D01*
X154383580Y-65448038D02*
X155383580Y-65448038D01*
X155383580Y-65448038D02*
X155383580Y-65686133D01*
X155383580Y-65686133D02*
X155335961Y-65828990D01*
X155335961Y-65828990D02*
X155240723Y-65924228D01*
X155240723Y-65924228D02*
X155145485Y-65971847D01*
X155145485Y-65971847D02*
X154955009Y-66019466D01*
X154955009Y-66019466D02*
X154812152Y-66019466D01*
X154812152Y-66019466D02*
X154621676Y-65971847D01*
X154621676Y-65971847D02*
X154526438Y-65924228D01*
X154526438Y-65924228D02*
X154431200Y-65828990D01*
X154431200Y-65828990D02*
X154383580Y-65686133D01*
X154383580Y-65686133D02*
X154383580Y-65448038D01*
X154383580Y-66448038D02*
X155383580Y-66448038D01*
X154478819Y-67495656D02*
X154431200Y-67448037D01*
X154431200Y-67448037D02*
X154383580Y-67305180D01*
X154383580Y-67305180D02*
X154383580Y-67209942D01*
X154383580Y-67209942D02*
X154431200Y-67067085D01*
X154431200Y-67067085D02*
X154526438Y-66971847D01*
X154526438Y-66971847D02*
X154621676Y-66924228D01*
X154621676Y-66924228D02*
X154812152Y-66876609D01*
X154812152Y-66876609D02*
X154955009Y-66876609D01*
X154955009Y-66876609D02*
X155145485Y-66924228D01*
X155145485Y-66924228D02*
X155240723Y-66971847D01*
X155240723Y-66971847D02*
X155335961Y-67067085D01*
X155335961Y-67067085D02*
X155383580Y-67209942D01*
X155383580Y-67209942D02*
X155383580Y-67305180D01*
X155383580Y-67305180D02*
X155335961Y-67448037D01*
X155335961Y-67448037D02*
X155288342Y-67495656D01*
X154383580Y-68400418D02*
X154383580Y-67924228D01*
X154383580Y-67924228D02*
X155383580Y-67924228D01*
X154383580Y-68733752D02*
X155383580Y-68733752D01*
X154383580Y-69305180D02*
X154955009Y-68876609D01*
X155383580Y-69305180D02*
X154812152Y-68733752D01*
X161330361Y-65074895D02*
X161377980Y-64979657D01*
X161377980Y-64979657D02*
X161377980Y-64836800D01*
X161377980Y-64836800D02*
X161330361Y-64693943D01*
X161330361Y-64693943D02*
X161235123Y-64598705D01*
X161235123Y-64598705D02*
X161139885Y-64551086D01*
X161139885Y-64551086D02*
X160949409Y-64503467D01*
X160949409Y-64503467D02*
X160806552Y-64503467D01*
X160806552Y-64503467D02*
X160616076Y-64551086D01*
X160616076Y-64551086D02*
X160520838Y-64598705D01*
X160520838Y-64598705D02*
X160425600Y-64693943D01*
X160425600Y-64693943D02*
X160377980Y-64836800D01*
X160377980Y-64836800D02*
X160377980Y-64932038D01*
X160377980Y-64932038D02*
X160425600Y-65074895D01*
X160425600Y-65074895D02*
X160473219Y-65122514D01*
X160473219Y-65122514D02*
X160806552Y-65122514D01*
X160806552Y-65122514D02*
X160806552Y-64932038D01*
X160377980Y-65551086D02*
X161377980Y-65551086D01*
X161377980Y-65551086D02*
X160377980Y-66122514D01*
X160377980Y-66122514D02*
X161377980Y-66122514D01*
X160377980Y-66598705D02*
X161377980Y-66598705D01*
X161377980Y-66598705D02*
X161377980Y-66836800D01*
X161377980Y-66836800D02*
X161330361Y-66979657D01*
X161330361Y-66979657D02*
X161235123Y-67074895D01*
X161235123Y-67074895D02*
X161139885Y-67122514D01*
X161139885Y-67122514D02*
X160949409Y-67170133D01*
X160949409Y-67170133D02*
X160806552Y-67170133D01*
X160806552Y-67170133D02*
X160616076Y-67122514D01*
X160616076Y-67122514D02*
X160520838Y-67074895D01*
X160520838Y-67074895D02*
X160425600Y-66979657D01*
X160425600Y-66979657D02*
X160377980Y-66836800D01*
X160377980Y-66836800D02*
X160377980Y-66598705D01*
X153453180Y-64544724D02*
X153453180Y-65163771D01*
X153453180Y-65163771D02*
X153072228Y-64830438D01*
X153072228Y-64830438D02*
X153072228Y-64973295D01*
X153072228Y-64973295D02*
X153024609Y-65068533D01*
X153024609Y-65068533D02*
X152976990Y-65116152D01*
X152976990Y-65116152D02*
X152881752Y-65163771D01*
X152881752Y-65163771D02*
X152643657Y-65163771D01*
X152643657Y-65163771D02*
X152548419Y-65116152D01*
X152548419Y-65116152D02*
X152500800Y-65068533D01*
X152500800Y-65068533D02*
X152453180Y-64973295D01*
X152453180Y-64973295D02*
X152453180Y-64687581D01*
X152453180Y-64687581D02*
X152500800Y-64592343D01*
X152500800Y-64592343D02*
X152548419Y-64544724D01*
X153119847Y-65497105D02*
X152453180Y-65735200D01*
X152453180Y-65735200D02*
X153119847Y-65973295D01*
X153453180Y-66259010D02*
X153453180Y-66878057D01*
X153453180Y-66878057D02*
X153072228Y-66544724D01*
X153072228Y-66544724D02*
X153072228Y-66687581D01*
X153072228Y-66687581D02*
X153024609Y-66782819D01*
X153024609Y-66782819D02*
X152976990Y-66830438D01*
X152976990Y-66830438D02*
X152881752Y-66878057D01*
X152881752Y-66878057D02*
X152643657Y-66878057D01*
X152643657Y-66878057D02*
X152548419Y-66830438D01*
X152548419Y-66830438D02*
X152500800Y-66782819D01*
X152500800Y-66782819D02*
X152453180Y-66687581D01*
X152453180Y-66687581D02*
X152453180Y-66401867D01*
X152453180Y-66401867D02*
X152500800Y-66306629D01*
X152500800Y-66306629D02*
X152548419Y-66259010D01*
D11*
X147383428Y-66451700D02*
X146240571Y-66451700D01*
X146240571Y-62895700D02*
X147383429Y-62895700D01*
X146812000Y-63467128D02*
X146812000Y-62324271D01*
D10*
X153826641Y-73413865D02*
X153350450Y-73747198D01*
X153826641Y-73985293D02*
X152826641Y-73985293D01*
X152826641Y-73985293D02*
X152826641Y-73604341D01*
X152826641Y-73604341D02*
X152874260Y-73509103D01*
X152874260Y-73509103D02*
X152921879Y-73461484D01*
X152921879Y-73461484D02*
X153017117Y-73413865D01*
X153017117Y-73413865D02*
X153159974Y-73413865D01*
X153159974Y-73413865D02*
X153255212Y-73461484D01*
X153255212Y-73461484D02*
X153302831Y-73509103D01*
X153302831Y-73509103D02*
X153350450Y-73604341D01*
X153350450Y-73604341D02*
X153350450Y-73985293D01*
X152826641Y-72556722D02*
X152826641Y-72747198D01*
X152826641Y-72747198D02*
X152874260Y-72842436D01*
X152874260Y-72842436D02*
X152921879Y-72890055D01*
X152921879Y-72890055D02*
X153064736Y-72985293D01*
X153064736Y-72985293D02*
X153255212Y-73032912D01*
X153255212Y-73032912D02*
X153636164Y-73032912D01*
X153636164Y-73032912D02*
X153731402Y-72985293D01*
X153731402Y-72985293D02*
X153779022Y-72937674D01*
X153779022Y-72937674D02*
X153826641Y-72842436D01*
X153826641Y-72842436D02*
X153826641Y-72651960D01*
X153826641Y-72651960D02*
X153779022Y-72556722D01*
X153779022Y-72556722D02*
X153731402Y-72509103D01*
X153731402Y-72509103D02*
X153636164Y-72461484D01*
X153636164Y-72461484D02*
X153398069Y-72461484D01*
X153398069Y-72461484D02*
X153302831Y-72509103D01*
X153302831Y-72509103D02*
X153255212Y-72556722D01*
X153255212Y-72556722D02*
X153207593Y-72651960D01*
X153207593Y-72651960D02*
X153207593Y-72842436D01*
X153207593Y-72842436D02*
X153255212Y-72937674D01*
X153255212Y-72937674D02*
X153302831Y-72985293D01*
X153302831Y-72985293D02*
X153398069Y-73032912D01*
X147613905Y-63431219D02*
X148185333Y-63431219D01*
X147899619Y-64431219D02*
X147899619Y-63431219D01*
X148518667Y-64431219D02*
X148518667Y-63431219D01*
X148518667Y-63431219D02*
X148899619Y-63431219D01*
X148899619Y-63431219D02*
X148994857Y-63478838D01*
X148994857Y-63478838D02*
X149042476Y-63526457D01*
X149042476Y-63526457D02*
X149090095Y-63621695D01*
X149090095Y-63621695D02*
X149090095Y-63764552D01*
X149090095Y-63764552D02*
X149042476Y-63859790D01*
X149042476Y-63859790D02*
X148994857Y-63907409D01*
X148994857Y-63907409D02*
X148899619Y-63955028D01*
X148899619Y-63955028D02*
X148518667Y-63955028D01*
X149423429Y-63431219D02*
X150090095Y-63431219D01*
X150090095Y-63431219D02*
X149661524Y-64431219D01*
X150423429Y-63526457D02*
X150471048Y-63478838D01*
X150471048Y-63478838D02*
X150566286Y-63431219D01*
X150566286Y-63431219D02*
X150804381Y-63431219D01*
X150804381Y-63431219D02*
X150899619Y-63478838D01*
X150899619Y-63478838D02*
X150947238Y-63526457D01*
X150947238Y-63526457D02*
X150994857Y-63621695D01*
X150994857Y-63621695D02*
X150994857Y-63716933D01*
X150994857Y-63716933D02*
X150947238Y-63859790D01*
X150947238Y-63859790D02*
X150375810Y-64431219D01*
X150375810Y-64431219D02*
X150994857Y-64431219D01*
X148090095Y-59773619D02*
X148661523Y-59773619D01*
X148375809Y-60773619D02*
X148375809Y-59773619D01*
X148994857Y-60773619D02*
X148994857Y-59773619D01*
X148994857Y-59773619D02*
X149375809Y-59773619D01*
X149375809Y-59773619D02*
X149471047Y-59821238D01*
X149471047Y-59821238D02*
X149518666Y-59868857D01*
X149518666Y-59868857D02*
X149566285Y-59964095D01*
X149566285Y-59964095D02*
X149566285Y-60106952D01*
X149566285Y-60106952D02*
X149518666Y-60202190D01*
X149518666Y-60202190D02*
X149471047Y-60249809D01*
X149471047Y-60249809D02*
X149375809Y-60297428D01*
X149375809Y-60297428D02*
X148994857Y-60297428D01*
X149899619Y-59773619D02*
X150566285Y-59773619D01*
X150566285Y-59773619D02*
X150137714Y-60773619D01*
X145629333Y-78456419D02*
X145296000Y-77980228D01*
X145057905Y-78456419D02*
X145057905Y-77456419D01*
X145057905Y-77456419D02*
X145438857Y-77456419D01*
X145438857Y-77456419D02*
X145534095Y-77504038D01*
X145534095Y-77504038D02*
X145581714Y-77551657D01*
X145581714Y-77551657D02*
X145629333Y-77646895D01*
X145629333Y-77646895D02*
X145629333Y-77789752D01*
X145629333Y-77789752D02*
X145581714Y-77884990D01*
X145581714Y-77884990D02*
X145534095Y-77932609D01*
X145534095Y-77932609D02*
X145438857Y-77980228D01*
X145438857Y-77980228D02*
X145057905Y-77980228D01*
X146581714Y-78456419D02*
X146010286Y-78456419D01*
X146296000Y-78456419D02*
X146296000Y-77456419D01*
X146296000Y-77456419D02*
X146200762Y-77599276D01*
X146200762Y-77599276D02*
X146105524Y-77694514D01*
X146105524Y-77694514D02*
X146010286Y-77742133D01*
X148170995Y-77785619D02*
X148170995Y-78595142D01*
X148170995Y-78595142D02*
X148218614Y-78690380D01*
X148218614Y-78690380D02*
X148266233Y-78738000D01*
X148266233Y-78738000D02*
X148361471Y-78785619D01*
X148361471Y-78785619D02*
X148551947Y-78785619D01*
X148551947Y-78785619D02*
X148647185Y-78738000D01*
X148647185Y-78738000D02*
X148694804Y-78690380D01*
X148694804Y-78690380D02*
X148742423Y-78595142D01*
X148742423Y-78595142D02*
X148742423Y-77785619D01*
X149742423Y-78785619D02*
X149170995Y-78785619D01*
X149456709Y-78785619D02*
X149456709Y-77785619D01*
X149456709Y-77785619D02*
X149361471Y-77928476D01*
X149361471Y-77928476D02*
X149266233Y-78023714D01*
X149266233Y-78023714D02*
X149170995Y-78071333D01*
X143854705Y-116472419D02*
X144426133Y-116472419D01*
X144140419Y-117472419D02*
X144140419Y-116472419D01*
X144759467Y-117472419D02*
X144759467Y-116472419D01*
X144759467Y-116472419D02*
X145140419Y-116472419D01*
X145140419Y-116472419D02*
X145235657Y-116520038D01*
X145235657Y-116520038D02*
X145283276Y-116567657D01*
X145283276Y-116567657D02*
X145330895Y-116662895D01*
X145330895Y-116662895D02*
X145330895Y-116805752D01*
X145330895Y-116805752D02*
X145283276Y-116900990D01*
X145283276Y-116900990D02*
X145235657Y-116948609D01*
X145235657Y-116948609D02*
X145140419Y-116996228D01*
X145140419Y-116996228D02*
X144759467Y-116996228D01*
X145711848Y-116567657D02*
X145759467Y-116520038D01*
X145759467Y-116520038D02*
X145854705Y-116472419D01*
X145854705Y-116472419D02*
X146092800Y-116472419D01*
X146092800Y-116472419D02*
X146188038Y-116520038D01*
X146188038Y-116520038D02*
X146235657Y-116567657D01*
X146235657Y-116567657D02*
X146283276Y-116662895D01*
X146283276Y-116662895D02*
X146283276Y-116758133D01*
X146283276Y-116758133D02*
X146235657Y-116900990D01*
X146235657Y-116900990D02*
X145664229Y-117472419D01*
X145664229Y-117472419D02*
X146283276Y-117472419D01*
X146902324Y-116472419D02*
X146997562Y-116472419D01*
X146997562Y-116472419D02*
X147092800Y-116520038D01*
X147092800Y-116520038D02*
X147140419Y-116567657D01*
X147140419Y-116567657D02*
X147188038Y-116662895D01*
X147188038Y-116662895D02*
X147235657Y-116853371D01*
X147235657Y-116853371D02*
X147235657Y-117091466D01*
X147235657Y-117091466D02*
X147188038Y-117281942D01*
X147188038Y-117281942D02*
X147140419Y-117377180D01*
X147140419Y-117377180D02*
X147092800Y-117424800D01*
X147092800Y-117424800D02*
X146997562Y-117472419D01*
X146997562Y-117472419D02*
X146902324Y-117472419D01*
X146902324Y-117472419D02*
X146807086Y-117424800D01*
X146807086Y-117424800D02*
X146759467Y-117377180D01*
X146759467Y-117377180D02*
X146711848Y-117281942D01*
X146711848Y-117281942D02*
X146664229Y-117091466D01*
X146664229Y-117091466D02*
X146664229Y-116853371D01*
X146664229Y-116853371D02*
X146711848Y-116662895D01*
X146711848Y-116662895D02*
X146759467Y-116567657D01*
X146759467Y-116567657D02*
X146807086Y-116520038D01*
X146807086Y-116520038D02*
X146902324Y-116472419D01*
X148394895Y-116472419D02*
X148966323Y-116472419D01*
X148680609Y-117472419D02*
X148680609Y-116472419D01*
X149299657Y-117472419D02*
X149299657Y-116472419D01*
X149299657Y-116472419D02*
X149680609Y-116472419D01*
X149680609Y-116472419D02*
X149775847Y-116520038D01*
X149775847Y-116520038D02*
X149823466Y-116567657D01*
X149823466Y-116567657D02*
X149871085Y-116662895D01*
X149871085Y-116662895D02*
X149871085Y-116805752D01*
X149871085Y-116805752D02*
X149823466Y-116900990D01*
X149823466Y-116900990D02*
X149775847Y-116948609D01*
X149775847Y-116948609D02*
X149680609Y-116996228D01*
X149680609Y-116996228D02*
X149299657Y-116996228D01*
X150823466Y-117472419D02*
X150252038Y-117472419D01*
X150537752Y-117472419D02*
X150537752Y-116472419D01*
X150537752Y-116472419D02*
X150442514Y-116615276D01*
X150442514Y-116615276D02*
X150347276Y-116710514D01*
X150347276Y-116710514D02*
X150252038Y-116758133D01*
X145886705Y-116472419D02*
X146458133Y-116472419D01*
X146172419Y-117472419D02*
X146172419Y-116472419D01*
X146791467Y-117472419D02*
X146791467Y-116472419D01*
X146791467Y-116472419D02*
X147172419Y-116472419D01*
X147172419Y-116472419D02*
X147267657Y-116520038D01*
X147267657Y-116520038D02*
X147315276Y-116567657D01*
X147315276Y-116567657D02*
X147362895Y-116662895D01*
X147362895Y-116662895D02*
X147362895Y-116805752D01*
X147362895Y-116805752D02*
X147315276Y-116900990D01*
X147315276Y-116900990D02*
X147267657Y-116948609D01*
X147267657Y-116948609D02*
X147172419Y-116996228D01*
X147172419Y-116996228D02*
X146791467Y-116996228D01*
X147696229Y-116472419D02*
X148362895Y-116472419D01*
X148362895Y-116472419D02*
X147934324Y-117472419D01*
X148648610Y-116472419D02*
X149315276Y-116472419D01*
X149315276Y-116472419D02*
X148886705Y-117472419D01*
X150426895Y-116472419D02*
X150998323Y-116472419D01*
X150712609Y-117472419D02*
X150712609Y-116472419D01*
X151331657Y-117472419D02*
X151331657Y-116472419D01*
X151331657Y-116472419D02*
X151712609Y-116472419D01*
X151712609Y-116472419D02*
X151807847Y-116520038D01*
X151807847Y-116520038D02*
X151855466Y-116567657D01*
X151855466Y-116567657D02*
X151903085Y-116662895D01*
X151903085Y-116662895D02*
X151903085Y-116805752D01*
X151903085Y-116805752D02*
X151855466Y-116900990D01*
X151855466Y-116900990D02*
X151807847Y-116948609D01*
X151807847Y-116948609D02*
X151712609Y-116996228D01*
X151712609Y-116996228D02*
X151331657Y-116996228D01*
X152284038Y-116567657D02*
X152331657Y-116520038D01*
X152331657Y-116520038D02*
X152426895Y-116472419D01*
X152426895Y-116472419D02*
X152664990Y-116472419D01*
X152664990Y-116472419D02*
X152760228Y-116520038D01*
X152760228Y-116520038D02*
X152807847Y-116567657D01*
X152807847Y-116567657D02*
X152855466Y-116662895D01*
X152855466Y-116662895D02*
X152855466Y-116758133D01*
X152855466Y-116758133D02*
X152807847Y-116900990D01*
X152807847Y-116900990D02*
X152236419Y-117472419D01*
X152236419Y-117472419D02*
X152855466Y-117472419D01*
X149950705Y-132728419D02*
X150522133Y-132728419D01*
X150236419Y-133728419D02*
X150236419Y-132728419D01*
X150855467Y-133728419D02*
X150855467Y-132728419D01*
X150855467Y-132728419D02*
X151236419Y-132728419D01*
X151236419Y-132728419D02*
X151331657Y-132776038D01*
X151331657Y-132776038D02*
X151379276Y-132823657D01*
X151379276Y-132823657D02*
X151426895Y-132918895D01*
X151426895Y-132918895D02*
X151426895Y-133061752D01*
X151426895Y-133061752D02*
X151379276Y-133156990D01*
X151379276Y-133156990D02*
X151331657Y-133204609D01*
X151331657Y-133204609D02*
X151236419Y-133252228D01*
X151236419Y-133252228D02*
X150855467Y-133252228D01*
X152284038Y-133061752D02*
X152284038Y-133728419D01*
X152045943Y-132680800D02*
X151807848Y-133395085D01*
X151807848Y-133395085D02*
X152426895Y-133395085D01*
X152950705Y-133156990D02*
X152855467Y-133109371D01*
X152855467Y-133109371D02*
X152807848Y-133061752D01*
X152807848Y-133061752D02*
X152760229Y-132966514D01*
X152760229Y-132966514D02*
X152760229Y-132918895D01*
X152760229Y-132918895D02*
X152807848Y-132823657D01*
X152807848Y-132823657D02*
X152855467Y-132776038D01*
X152855467Y-132776038D02*
X152950705Y-132728419D01*
X152950705Y-132728419D02*
X153141181Y-132728419D01*
X153141181Y-132728419D02*
X153236419Y-132776038D01*
X153236419Y-132776038D02*
X153284038Y-132823657D01*
X153284038Y-132823657D02*
X153331657Y-132918895D01*
X153331657Y-132918895D02*
X153331657Y-132966514D01*
X153331657Y-132966514D02*
X153284038Y-133061752D01*
X153284038Y-133061752D02*
X153236419Y-133109371D01*
X153236419Y-133109371D02*
X153141181Y-133156990D01*
X153141181Y-133156990D02*
X152950705Y-133156990D01*
X152950705Y-133156990D02*
X152855467Y-133204609D01*
X152855467Y-133204609D02*
X152807848Y-133252228D01*
X152807848Y-133252228D02*
X152760229Y-133347466D01*
X152760229Y-133347466D02*
X152760229Y-133537942D01*
X152760229Y-133537942D02*
X152807848Y-133633180D01*
X152807848Y-133633180D02*
X152855467Y-133680800D01*
X152855467Y-133680800D02*
X152950705Y-133728419D01*
X152950705Y-133728419D02*
X153141181Y-133728419D01*
X153141181Y-133728419D02*
X153236419Y-133680800D01*
X153236419Y-133680800D02*
X153284038Y-133633180D01*
X153284038Y-133633180D02*
X153331657Y-133537942D01*
X153331657Y-133537942D02*
X153331657Y-133347466D01*
X153331657Y-133347466D02*
X153284038Y-133252228D01*
X153284038Y-133252228D02*
X153236419Y-133204609D01*
X153236419Y-133204609D02*
X153141181Y-133156990D01*
X154014705Y-132728419D02*
X154586133Y-132728419D01*
X154300419Y-133728419D02*
X154300419Y-132728419D01*
X154919467Y-133728419D02*
X154919467Y-132728419D01*
X154919467Y-132728419D02*
X155300419Y-132728419D01*
X155300419Y-132728419D02*
X155395657Y-132776038D01*
X155395657Y-132776038D02*
X155443276Y-132823657D01*
X155443276Y-132823657D02*
X155490895Y-132918895D01*
X155490895Y-132918895D02*
X155490895Y-133061752D01*
X155490895Y-133061752D02*
X155443276Y-133156990D01*
X155443276Y-133156990D02*
X155395657Y-133204609D01*
X155395657Y-133204609D02*
X155300419Y-133252228D01*
X155300419Y-133252228D02*
X154919467Y-133252228D01*
X155824229Y-132728419D02*
X156443276Y-132728419D01*
X156443276Y-132728419D02*
X156109943Y-133109371D01*
X156109943Y-133109371D02*
X156252800Y-133109371D01*
X156252800Y-133109371D02*
X156348038Y-133156990D01*
X156348038Y-133156990D02*
X156395657Y-133204609D01*
X156395657Y-133204609D02*
X156443276Y-133299847D01*
X156443276Y-133299847D02*
X156443276Y-133537942D01*
X156443276Y-133537942D02*
X156395657Y-133633180D01*
X156395657Y-133633180D02*
X156348038Y-133680800D01*
X156348038Y-133680800D02*
X156252800Y-133728419D01*
X156252800Y-133728419D02*
X155967086Y-133728419D01*
X155967086Y-133728419D02*
X155871848Y-133680800D01*
X155871848Y-133680800D02*
X155824229Y-133633180D01*
X157014705Y-133156990D02*
X156919467Y-133109371D01*
X156919467Y-133109371D02*
X156871848Y-133061752D01*
X156871848Y-133061752D02*
X156824229Y-132966514D01*
X156824229Y-132966514D02*
X156824229Y-132918895D01*
X156824229Y-132918895D02*
X156871848Y-132823657D01*
X156871848Y-132823657D02*
X156919467Y-132776038D01*
X156919467Y-132776038D02*
X157014705Y-132728419D01*
X157014705Y-132728419D02*
X157205181Y-132728419D01*
X157205181Y-132728419D02*
X157300419Y-132776038D01*
X157300419Y-132776038D02*
X157348038Y-132823657D01*
X157348038Y-132823657D02*
X157395657Y-132918895D01*
X157395657Y-132918895D02*
X157395657Y-132966514D01*
X157395657Y-132966514D02*
X157348038Y-133061752D01*
X157348038Y-133061752D02*
X157300419Y-133109371D01*
X157300419Y-133109371D02*
X157205181Y-133156990D01*
X157205181Y-133156990D02*
X157014705Y-133156990D01*
X157014705Y-133156990D02*
X156919467Y-133204609D01*
X156919467Y-133204609D02*
X156871848Y-133252228D01*
X156871848Y-133252228D02*
X156824229Y-133347466D01*
X156824229Y-133347466D02*
X156824229Y-133537942D01*
X156824229Y-133537942D02*
X156871848Y-133633180D01*
X156871848Y-133633180D02*
X156919467Y-133680800D01*
X156919467Y-133680800D02*
X157014705Y-133728419D01*
X157014705Y-133728419D02*
X157205181Y-133728419D01*
X157205181Y-133728419D02*
X157300419Y-133680800D01*
X157300419Y-133680800D02*
X157348038Y-133633180D01*
X157348038Y-133633180D02*
X157395657Y-133537942D01*
X157395657Y-133537942D02*
X157395657Y-133347466D01*
X157395657Y-133347466D02*
X157348038Y-133252228D01*
X157348038Y-133252228D02*
X157300419Y-133204609D01*
X157300419Y-133204609D02*
X157205181Y-133156990D01*
X151982705Y-130696419D02*
X152554133Y-130696419D01*
X152268419Y-131696419D02*
X152268419Y-130696419D01*
X152887467Y-131696419D02*
X152887467Y-130696419D01*
X152887467Y-130696419D02*
X153268419Y-130696419D01*
X153268419Y-130696419D02*
X153363657Y-130744038D01*
X153363657Y-130744038D02*
X153411276Y-130791657D01*
X153411276Y-130791657D02*
X153458895Y-130886895D01*
X153458895Y-130886895D02*
X153458895Y-131029752D01*
X153458895Y-131029752D02*
X153411276Y-131124990D01*
X153411276Y-131124990D02*
X153363657Y-131172609D01*
X153363657Y-131172609D02*
X153268419Y-131220228D01*
X153268419Y-131220228D02*
X152887467Y-131220228D01*
X154316038Y-131029752D02*
X154316038Y-131696419D01*
X154077943Y-130648800D02*
X153839848Y-131363085D01*
X153839848Y-131363085D02*
X154458895Y-131363085D01*
X155268419Y-131029752D02*
X155268419Y-131696419D01*
X155030324Y-130648800D02*
X154792229Y-131363085D01*
X154792229Y-131363085D02*
X155411276Y-131363085D01*
X141822705Y-128664419D02*
X142394133Y-128664419D01*
X142108419Y-129664419D02*
X142108419Y-128664419D01*
X142727467Y-129664419D02*
X142727467Y-128664419D01*
X142727467Y-128664419D02*
X143108419Y-128664419D01*
X143108419Y-128664419D02*
X143203657Y-128712038D01*
X143203657Y-128712038D02*
X143251276Y-128759657D01*
X143251276Y-128759657D02*
X143298895Y-128854895D01*
X143298895Y-128854895D02*
X143298895Y-128997752D01*
X143298895Y-128997752D02*
X143251276Y-129092990D01*
X143251276Y-129092990D02*
X143203657Y-129140609D01*
X143203657Y-129140609D02*
X143108419Y-129188228D01*
X143108419Y-129188228D02*
X142727467Y-129188228D01*
X144156038Y-128997752D02*
X144156038Y-129664419D01*
X143917943Y-128616800D02*
X143679848Y-129331085D01*
X143679848Y-129331085D02*
X144298895Y-129331085D01*
X145156038Y-128664419D02*
X144679848Y-128664419D01*
X144679848Y-128664419D02*
X144632229Y-129140609D01*
X144632229Y-129140609D02*
X144679848Y-129092990D01*
X144679848Y-129092990D02*
X144775086Y-129045371D01*
X144775086Y-129045371D02*
X145013181Y-129045371D01*
X145013181Y-129045371D02*
X145108419Y-129092990D01*
X145108419Y-129092990D02*
X145156038Y-129140609D01*
X145156038Y-129140609D02*
X145203657Y-129235847D01*
X145203657Y-129235847D02*
X145203657Y-129473942D01*
X145203657Y-129473942D02*
X145156038Y-129569180D01*
X145156038Y-129569180D02*
X145108419Y-129616800D01*
X145108419Y-129616800D02*
X145013181Y-129664419D01*
X145013181Y-129664419D02*
X144775086Y-129664419D01*
X144775086Y-129664419D02*
X144679848Y-129616800D01*
X144679848Y-129616800D02*
X144632229Y-129569180D01*
X145886705Y-132728419D02*
X146458133Y-132728419D01*
X146172419Y-133728419D02*
X146172419Y-132728419D01*
X146791467Y-133728419D02*
X146791467Y-132728419D01*
X146791467Y-132728419D02*
X147172419Y-132728419D01*
X147172419Y-132728419D02*
X147267657Y-132776038D01*
X147267657Y-132776038D02*
X147315276Y-132823657D01*
X147315276Y-132823657D02*
X147362895Y-132918895D01*
X147362895Y-132918895D02*
X147362895Y-133061752D01*
X147362895Y-133061752D02*
X147315276Y-133156990D01*
X147315276Y-133156990D02*
X147267657Y-133204609D01*
X147267657Y-133204609D02*
X147172419Y-133252228D01*
X147172419Y-133252228D02*
X146791467Y-133252228D01*
X148267657Y-132728419D02*
X147791467Y-132728419D01*
X147791467Y-132728419D02*
X147743848Y-133204609D01*
X147743848Y-133204609D02*
X147791467Y-133156990D01*
X147791467Y-133156990D02*
X147886705Y-133109371D01*
X147886705Y-133109371D02*
X148124800Y-133109371D01*
X148124800Y-133109371D02*
X148220038Y-133156990D01*
X148220038Y-133156990D02*
X148267657Y-133204609D01*
X148267657Y-133204609D02*
X148315276Y-133299847D01*
X148315276Y-133299847D02*
X148315276Y-133537942D01*
X148315276Y-133537942D02*
X148267657Y-133633180D01*
X148267657Y-133633180D02*
X148220038Y-133680800D01*
X148220038Y-133680800D02*
X148124800Y-133728419D01*
X148124800Y-133728419D02*
X147886705Y-133728419D01*
X147886705Y-133728419D02*
X147791467Y-133680800D01*
X147791467Y-133680800D02*
X147743848Y-133633180D01*
X148886705Y-133156990D02*
X148791467Y-133109371D01*
X148791467Y-133109371D02*
X148743848Y-133061752D01*
X148743848Y-133061752D02*
X148696229Y-132966514D01*
X148696229Y-132966514D02*
X148696229Y-132918895D01*
X148696229Y-132918895D02*
X148743848Y-132823657D01*
X148743848Y-132823657D02*
X148791467Y-132776038D01*
X148791467Y-132776038D02*
X148886705Y-132728419D01*
X148886705Y-132728419D02*
X149077181Y-132728419D01*
X149077181Y-132728419D02*
X149172419Y-132776038D01*
X149172419Y-132776038D02*
X149220038Y-132823657D01*
X149220038Y-132823657D02*
X149267657Y-132918895D01*
X149267657Y-132918895D02*
X149267657Y-132966514D01*
X149267657Y-132966514D02*
X149220038Y-133061752D01*
X149220038Y-133061752D02*
X149172419Y-133109371D01*
X149172419Y-133109371D02*
X149077181Y-133156990D01*
X149077181Y-133156990D02*
X148886705Y-133156990D01*
X148886705Y-133156990D02*
X148791467Y-133204609D01*
X148791467Y-133204609D02*
X148743848Y-133252228D01*
X148743848Y-133252228D02*
X148696229Y-133347466D01*
X148696229Y-133347466D02*
X148696229Y-133537942D01*
X148696229Y-133537942D02*
X148743848Y-133633180D01*
X148743848Y-133633180D02*
X148791467Y-133680800D01*
X148791467Y-133680800D02*
X148886705Y-133728419D01*
X148886705Y-133728419D02*
X149077181Y-133728419D01*
X149077181Y-133728419D02*
X149172419Y-133680800D01*
X149172419Y-133680800D02*
X149220038Y-133633180D01*
X149220038Y-133633180D02*
X149267657Y-133537942D01*
X149267657Y-133537942D02*
X149267657Y-133347466D01*
X149267657Y-133347466D02*
X149220038Y-133252228D01*
X149220038Y-133252228D02*
X149172419Y-133204609D01*
X149172419Y-133204609D02*
X149077181Y-133156990D01*
X145886705Y-130696419D02*
X146458133Y-130696419D01*
X146172419Y-131696419D02*
X146172419Y-130696419D01*
X146791467Y-131696419D02*
X146791467Y-130696419D01*
X146791467Y-130696419D02*
X147172419Y-130696419D01*
X147172419Y-130696419D02*
X147267657Y-130744038D01*
X147267657Y-130744038D02*
X147315276Y-130791657D01*
X147315276Y-130791657D02*
X147362895Y-130886895D01*
X147362895Y-130886895D02*
X147362895Y-131029752D01*
X147362895Y-131029752D02*
X147315276Y-131124990D01*
X147315276Y-131124990D02*
X147267657Y-131172609D01*
X147267657Y-131172609D02*
X147172419Y-131220228D01*
X147172419Y-131220228D02*
X146791467Y-131220228D01*
X148267657Y-130696419D02*
X147791467Y-130696419D01*
X147791467Y-130696419D02*
X147743848Y-131172609D01*
X147743848Y-131172609D02*
X147791467Y-131124990D01*
X147791467Y-131124990D02*
X147886705Y-131077371D01*
X147886705Y-131077371D02*
X148124800Y-131077371D01*
X148124800Y-131077371D02*
X148220038Y-131124990D01*
X148220038Y-131124990D02*
X148267657Y-131172609D01*
X148267657Y-131172609D02*
X148315276Y-131267847D01*
X148315276Y-131267847D02*
X148315276Y-131505942D01*
X148315276Y-131505942D02*
X148267657Y-131601180D01*
X148267657Y-131601180D02*
X148220038Y-131648800D01*
X148220038Y-131648800D02*
X148124800Y-131696419D01*
X148124800Y-131696419D02*
X147886705Y-131696419D01*
X147886705Y-131696419D02*
X147791467Y-131648800D01*
X147791467Y-131648800D02*
X147743848Y-131601180D01*
X148791467Y-131696419D02*
X148981943Y-131696419D01*
X148981943Y-131696419D02*
X149077181Y-131648800D01*
X149077181Y-131648800D02*
X149124800Y-131601180D01*
X149124800Y-131601180D02*
X149220038Y-131458323D01*
X149220038Y-131458323D02*
X149267657Y-131267847D01*
X149267657Y-131267847D02*
X149267657Y-130886895D01*
X149267657Y-130886895D02*
X149220038Y-130791657D01*
X149220038Y-130791657D02*
X149172419Y-130744038D01*
X149172419Y-130744038D02*
X149077181Y-130696419D01*
X149077181Y-130696419D02*
X148886705Y-130696419D01*
X148886705Y-130696419D02*
X148791467Y-130744038D01*
X148791467Y-130744038D02*
X148743848Y-130791657D01*
X148743848Y-130791657D02*
X148696229Y-130886895D01*
X148696229Y-130886895D02*
X148696229Y-131124990D01*
X148696229Y-131124990D02*
X148743848Y-131220228D01*
X148743848Y-131220228D02*
X148791467Y-131267847D01*
X148791467Y-131267847D02*
X148886705Y-131315466D01*
X148886705Y-131315466D02*
X149077181Y-131315466D01*
X149077181Y-131315466D02*
X149172419Y-131267847D01*
X149172419Y-131267847D02*
X149220038Y-131220228D01*
X149220038Y-131220228D02*
X149267657Y-131124990D01*
X151982705Y-124600419D02*
X152554133Y-124600419D01*
X152268419Y-125600419D02*
X152268419Y-124600419D01*
X152887467Y-125600419D02*
X152887467Y-124600419D01*
X152887467Y-124600419D02*
X153268419Y-124600419D01*
X153268419Y-124600419D02*
X153363657Y-124648038D01*
X153363657Y-124648038D02*
X153411276Y-124695657D01*
X153411276Y-124695657D02*
X153458895Y-124790895D01*
X153458895Y-124790895D02*
X153458895Y-124933752D01*
X153458895Y-124933752D02*
X153411276Y-125028990D01*
X153411276Y-125028990D02*
X153363657Y-125076609D01*
X153363657Y-125076609D02*
X153268419Y-125124228D01*
X153268419Y-125124228D02*
X152887467Y-125124228D01*
X153792229Y-124600419D02*
X154411276Y-124600419D01*
X154411276Y-124600419D02*
X154077943Y-124981371D01*
X154077943Y-124981371D02*
X154220800Y-124981371D01*
X154220800Y-124981371D02*
X154316038Y-125028990D01*
X154316038Y-125028990D02*
X154363657Y-125076609D01*
X154363657Y-125076609D02*
X154411276Y-125171847D01*
X154411276Y-125171847D02*
X154411276Y-125409942D01*
X154411276Y-125409942D02*
X154363657Y-125505180D01*
X154363657Y-125505180D02*
X154316038Y-125552800D01*
X154316038Y-125552800D02*
X154220800Y-125600419D01*
X154220800Y-125600419D02*
X153935086Y-125600419D01*
X153935086Y-125600419D02*
X153839848Y-125552800D01*
X153839848Y-125552800D02*
X153792229Y-125505180D01*
X154792229Y-124695657D02*
X154839848Y-124648038D01*
X154839848Y-124648038D02*
X154935086Y-124600419D01*
X154935086Y-124600419D02*
X155173181Y-124600419D01*
X155173181Y-124600419D02*
X155268419Y-124648038D01*
X155268419Y-124648038D02*
X155316038Y-124695657D01*
X155316038Y-124695657D02*
X155363657Y-124790895D01*
X155363657Y-124790895D02*
X155363657Y-124886133D01*
X155363657Y-124886133D02*
X155316038Y-125028990D01*
X155316038Y-125028990D02*
X154744610Y-125600419D01*
X154744610Y-125600419D02*
X155363657Y-125600419D01*
X140266895Y-122568419D02*
X140838323Y-122568419D01*
X140552609Y-123568419D02*
X140552609Y-122568419D01*
X141171657Y-123568419D02*
X141171657Y-122568419D01*
X141171657Y-122568419D02*
X141552609Y-122568419D01*
X141552609Y-122568419D02*
X141647847Y-122616038D01*
X141647847Y-122616038D02*
X141695466Y-122663657D01*
X141695466Y-122663657D02*
X141743085Y-122758895D01*
X141743085Y-122758895D02*
X141743085Y-122901752D01*
X141743085Y-122901752D02*
X141695466Y-122996990D01*
X141695466Y-122996990D02*
X141647847Y-123044609D01*
X141647847Y-123044609D02*
X141552609Y-123092228D01*
X141552609Y-123092228D02*
X141171657Y-123092228D01*
X142647847Y-122568419D02*
X142171657Y-122568419D01*
X142171657Y-122568419D02*
X142124038Y-123044609D01*
X142124038Y-123044609D02*
X142171657Y-122996990D01*
X142171657Y-122996990D02*
X142266895Y-122949371D01*
X142266895Y-122949371D02*
X142504990Y-122949371D01*
X142504990Y-122949371D02*
X142600228Y-122996990D01*
X142600228Y-122996990D02*
X142647847Y-123044609D01*
X142647847Y-123044609D02*
X142695466Y-123139847D01*
X142695466Y-123139847D02*
X142695466Y-123377942D01*
X142695466Y-123377942D02*
X142647847Y-123473180D01*
X142647847Y-123473180D02*
X142600228Y-123520800D01*
X142600228Y-123520800D02*
X142504990Y-123568419D01*
X142504990Y-123568419D02*
X142266895Y-123568419D01*
X142266895Y-123568419D02*
X142171657Y-123520800D01*
X142171657Y-123520800D02*
X142124038Y-123473180D01*
X145886705Y-118504419D02*
X146458133Y-118504419D01*
X146172419Y-119504419D02*
X146172419Y-118504419D01*
X146791467Y-119504419D02*
X146791467Y-118504419D01*
X146791467Y-118504419D02*
X147172419Y-118504419D01*
X147172419Y-118504419D02*
X147267657Y-118552038D01*
X147267657Y-118552038D02*
X147315276Y-118599657D01*
X147315276Y-118599657D02*
X147362895Y-118694895D01*
X147362895Y-118694895D02*
X147362895Y-118837752D01*
X147362895Y-118837752D02*
X147315276Y-118932990D01*
X147315276Y-118932990D02*
X147267657Y-118980609D01*
X147267657Y-118980609D02*
X147172419Y-119028228D01*
X147172419Y-119028228D02*
X146791467Y-119028228D01*
X148315276Y-119504419D02*
X147743848Y-119504419D01*
X148029562Y-119504419D02*
X148029562Y-118504419D01*
X148029562Y-118504419D02*
X147934324Y-118647276D01*
X147934324Y-118647276D02*
X147839086Y-118742514D01*
X147839086Y-118742514D02*
X147743848Y-118790133D01*
X149172419Y-118504419D02*
X148981943Y-118504419D01*
X148981943Y-118504419D02*
X148886705Y-118552038D01*
X148886705Y-118552038D02*
X148839086Y-118599657D01*
X148839086Y-118599657D02*
X148743848Y-118742514D01*
X148743848Y-118742514D02*
X148696229Y-118932990D01*
X148696229Y-118932990D02*
X148696229Y-119313942D01*
X148696229Y-119313942D02*
X148743848Y-119409180D01*
X148743848Y-119409180D02*
X148791467Y-119456800D01*
X148791467Y-119456800D02*
X148886705Y-119504419D01*
X148886705Y-119504419D02*
X149077181Y-119504419D01*
X149077181Y-119504419D02*
X149172419Y-119456800D01*
X149172419Y-119456800D02*
X149220038Y-119409180D01*
X149220038Y-119409180D02*
X149267657Y-119313942D01*
X149267657Y-119313942D02*
X149267657Y-119075847D01*
X149267657Y-119075847D02*
X149220038Y-118980609D01*
X149220038Y-118980609D02*
X149172419Y-118932990D01*
X149172419Y-118932990D02*
X149077181Y-118885371D01*
X149077181Y-118885371D02*
X148886705Y-118885371D01*
X148886705Y-118885371D02*
X148791467Y-118932990D01*
X148791467Y-118932990D02*
X148743848Y-118980609D01*
X148743848Y-118980609D02*
X148696229Y-119075847D01*
X149950705Y-122568419D02*
X150522133Y-122568419D01*
X150236419Y-123568419D02*
X150236419Y-122568419D01*
X150855467Y-123568419D02*
X150855467Y-122568419D01*
X150855467Y-122568419D02*
X151236419Y-122568419D01*
X151236419Y-122568419D02*
X151331657Y-122616038D01*
X151331657Y-122616038D02*
X151379276Y-122663657D01*
X151379276Y-122663657D02*
X151426895Y-122758895D01*
X151426895Y-122758895D02*
X151426895Y-122901752D01*
X151426895Y-122901752D02*
X151379276Y-122996990D01*
X151379276Y-122996990D02*
X151331657Y-123044609D01*
X151331657Y-123044609D02*
X151236419Y-123092228D01*
X151236419Y-123092228D02*
X150855467Y-123092228D01*
X151807848Y-122663657D02*
X151855467Y-122616038D01*
X151855467Y-122616038D02*
X151950705Y-122568419D01*
X151950705Y-122568419D02*
X152188800Y-122568419D01*
X152188800Y-122568419D02*
X152284038Y-122616038D01*
X152284038Y-122616038D02*
X152331657Y-122663657D01*
X152331657Y-122663657D02*
X152379276Y-122758895D01*
X152379276Y-122758895D02*
X152379276Y-122854133D01*
X152379276Y-122854133D02*
X152331657Y-122996990D01*
X152331657Y-122996990D02*
X151760229Y-123568419D01*
X151760229Y-123568419D02*
X152379276Y-123568419D01*
X152712610Y-122568419D02*
X153379276Y-122568419D01*
X153379276Y-122568419D02*
X152950705Y-123568419D01*
X147918705Y-124600419D02*
X148490133Y-124600419D01*
X148204419Y-125600419D02*
X148204419Y-124600419D01*
X148823467Y-125600419D02*
X148823467Y-124600419D01*
X148823467Y-124600419D02*
X149204419Y-124600419D01*
X149204419Y-124600419D02*
X149299657Y-124648038D01*
X149299657Y-124648038D02*
X149347276Y-124695657D01*
X149347276Y-124695657D02*
X149394895Y-124790895D01*
X149394895Y-124790895D02*
X149394895Y-124933752D01*
X149394895Y-124933752D02*
X149347276Y-125028990D01*
X149347276Y-125028990D02*
X149299657Y-125076609D01*
X149299657Y-125076609D02*
X149204419Y-125124228D01*
X149204419Y-125124228D02*
X148823467Y-125124228D01*
X149775848Y-124695657D02*
X149823467Y-124648038D01*
X149823467Y-124648038D02*
X149918705Y-124600419D01*
X149918705Y-124600419D02*
X150156800Y-124600419D01*
X150156800Y-124600419D02*
X150252038Y-124648038D01*
X150252038Y-124648038D02*
X150299657Y-124695657D01*
X150299657Y-124695657D02*
X150347276Y-124790895D01*
X150347276Y-124790895D02*
X150347276Y-124886133D01*
X150347276Y-124886133D02*
X150299657Y-125028990D01*
X150299657Y-125028990D02*
X149728229Y-125600419D01*
X149728229Y-125600419D02*
X150347276Y-125600419D01*
X151204419Y-124933752D02*
X151204419Y-125600419D01*
X150966324Y-124552800D02*
X150728229Y-125267085D01*
X150728229Y-125267085D02*
X151347276Y-125267085D01*
X143854705Y-122568419D02*
X144426133Y-122568419D01*
X144140419Y-123568419D02*
X144140419Y-122568419D01*
X144759467Y-123568419D02*
X144759467Y-122568419D01*
X144759467Y-122568419D02*
X145140419Y-122568419D01*
X145140419Y-122568419D02*
X145235657Y-122616038D01*
X145235657Y-122616038D02*
X145283276Y-122663657D01*
X145283276Y-122663657D02*
X145330895Y-122758895D01*
X145330895Y-122758895D02*
X145330895Y-122901752D01*
X145330895Y-122901752D02*
X145283276Y-122996990D01*
X145283276Y-122996990D02*
X145235657Y-123044609D01*
X145235657Y-123044609D02*
X145140419Y-123092228D01*
X145140419Y-123092228D02*
X144759467Y-123092228D01*
X146283276Y-123568419D02*
X145711848Y-123568419D01*
X145997562Y-123568419D02*
X145997562Y-122568419D01*
X145997562Y-122568419D02*
X145902324Y-122711276D01*
X145902324Y-122711276D02*
X145807086Y-122806514D01*
X145807086Y-122806514D02*
X145711848Y-122854133D01*
X147140419Y-122901752D02*
X147140419Y-123568419D01*
X146902324Y-122520800D02*
X146664229Y-123235085D01*
X146664229Y-123235085D02*
X147283276Y-123235085D01*
X145886705Y-122568419D02*
X146458133Y-122568419D01*
X146172419Y-123568419D02*
X146172419Y-122568419D01*
X146791467Y-123568419D02*
X146791467Y-122568419D01*
X146791467Y-122568419D02*
X147172419Y-122568419D01*
X147172419Y-122568419D02*
X147267657Y-122616038D01*
X147267657Y-122616038D02*
X147315276Y-122663657D01*
X147315276Y-122663657D02*
X147362895Y-122758895D01*
X147362895Y-122758895D02*
X147362895Y-122901752D01*
X147362895Y-122901752D02*
X147315276Y-122996990D01*
X147315276Y-122996990D02*
X147267657Y-123044609D01*
X147267657Y-123044609D02*
X147172419Y-123092228D01*
X147172419Y-123092228D02*
X146791467Y-123092228D01*
X148315276Y-123568419D02*
X147743848Y-123568419D01*
X148029562Y-123568419D02*
X148029562Y-122568419D01*
X148029562Y-122568419D02*
X147934324Y-122711276D01*
X147934324Y-122711276D02*
X147839086Y-122806514D01*
X147839086Y-122806514D02*
X147743848Y-122854133D01*
X148886705Y-122996990D02*
X148791467Y-122949371D01*
X148791467Y-122949371D02*
X148743848Y-122901752D01*
X148743848Y-122901752D02*
X148696229Y-122806514D01*
X148696229Y-122806514D02*
X148696229Y-122758895D01*
X148696229Y-122758895D02*
X148743848Y-122663657D01*
X148743848Y-122663657D02*
X148791467Y-122616038D01*
X148791467Y-122616038D02*
X148886705Y-122568419D01*
X148886705Y-122568419D02*
X149077181Y-122568419D01*
X149077181Y-122568419D02*
X149172419Y-122616038D01*
X149172419Y-122616038D02*
X149220038Y-122663657D01*
X149220038Y-122663657D02*
X149267657Y-122758895D01*
X149267657Y-122758895D02*
X149267657Y-122806514D01*
X149267657Y-122806514D02*
X149220038Y-122901752D01*
X149220038Y-122901752D02*
X149172419Y-122949371D01*
X149172419Y-122949371D02*
X149077181Y-122996990D01*
X149077181Y-122996990D02*
X148886705Y-122996990D01*
X148886705Y-122996990D02*
X148791467Y-123044609D01*
X148791467Y-123044609D02*
X148743848Y-123092228D01*
X148743848Y-123092228D02*
X148696229Y-123187466D01*
X148696229Y-123187466D02*
X148696229Y-123377942D01*
X148696229Y-123377942D02*
X148743848Y-123473180D01*
X148743848Y-123473180D02*
X148791467Y-123520800D01*
X148791467Y-123520800D02*
X148886705Y-123568419D01*
X148886705Y-123568419D02*
X149077181Y-123568419D01*
X149077181Y-123568419D02*
X149172419Y-123520800D01*
X149172419Y-123520800D02*
X149220038Y-123473180D01*
X149220038Y-123473180D02*
X149267657Y-123377942D01*
X149267657Y-123377942D02*
X149267657Y-123187466D01*
X149267657Y-123187466D02*
X149220038Y-123092228D01*
X149220038Y-123092228D02*
X149172419Y-123044609D01*
X149172419Y-123044609D02*
X149077181Y-122996990D01*
X147918705Y-130696419D02*
X148490133Y-130696419D01*
X148204419Y-131696419D02*
X148204419Y-130696419D01*
X148823467Y-131696419D02*
X148823467Y-130696419D01*
X148823467Y-130696419D02*
X149204419Y-130696419D01*
X149204419Y-130696419D02*
X149299657Y-130744038D01*
X149299657Y-130744038D02*
X149347276Y-130791657D01*
X149347276Y-130791657D02*
X149394895Y-130886895D01*
X149394895Y-130886895D02*
X149394895Y-131029752D01*
X149394895Y-131029752D02*
X149347276Y-131124990D01*
X149347276Y-131124990D02*
X149299657Y-131172609D01*
X149299657Y-131172609D02*
X149204419Y-131220228D01*
X149204419Y-131220228D02*
X148823467Y-131220228D01*
X150299657Y-130696419D02*
X149823467Y-130696419D01*
X149823467Y-130696419D02*
X149775848Y-131172609D01*
X149775848Y-131172609D02*
X149823467Y-131124990D01*
X149823467Y-131124990D02*
X149918705Y-131077371D01*
X149918705Y-131077371D02*
X150156800Y-131077371D01*
X150156800Y-131077371D02*
X150252038Y-131124990D01*
X150252038Y-131124990D02*
X150299657Y-131172609D01*
X150299657Y-131172609D02*
X150347276Y-131267847D01*
X150347276Y-131267847D02*
X150347276Y-131505942D01*
X150347276Y-131505942D02*
X150299657Y-131601180D01*
X150299657Y-131601180D02*
X150252038Y-131648800D01*
X150252038Y-131648800D02*
X150156800Y-131696419D01*
X150156800Y-131696419D02*
X149918705Y-131696419D01*
X149918705Y-131696419D02*
X149823467Y-131648800D01*
X149823467Y-131648800D02*
X149775848Y-131601180D01*
X151204419Y-131029752D02*
X151204419Y-131696419D01*
X150966324Y-130648800D02*
X150728229Y-131363085D01*
X150728229Y-131363085D02*
X151347276Y-131363085D01*
X141822705Y-124600419D02*
X142394133Y-124600419D01*
X142108419Y-125600419D02*
X142108419Y-124600419D01*
X142727467Y-125600419D02*
X142727467Y-124600419D01*
X142727467Y-124600419D02*
X143108419Y-124600419D01*
X143108419Y-124600419D02*
X143203657Y-124648038D01*
X143203657Y-124648038D02*
X143251276Y-124695657D01*
X143251276Y-124695657D02*
X143298895Y-124790895D01*
X143298895Y-124790895D02*
X143298895Y-124933752D01*
X143298895Y-124933752D02*
X143251276Y-125028990D01*
X143251276Y-125028990D02*
X143203657Y-125076609D01*
X143203657Y-125076609D02*
X143108419Y-125124228D01*
X143108419Y-125124228D02*
X142727467Y-125124228D01*
X144251276Y-125600419D02*
X143679848Y-125600419D01*
X143965562Y-125600419D02*
X143965562Y-124600419D01*
X143965562Y-124600419D02*
X143870324Y-124743276D01*
X143870324Y-124743276D02*
X143775086Y-124838514D01*
X143775086Y-124838514D02*
X143679848Y-124886133D01*
X145203657Y-125600419D02*
X144632229Y-125600419D01*
X144917943Y-125600419D02*
X144917943Y-124600419D01*
X144917943Y-124600419D02*
X144822705Y-124743276D01*
X144822705Y-124743276D02*
X144727467Y-124838514D01*
X144727467Y-124838514D02*
X144632229Y-124886133D01*
X151982705Y-134760419D02*
X152554133Y-134760419D01*
X152268419Y-135760419D02*
X152268419Y-134760419D01*
X152887467Y-135760419D02*
X152887467Y-134760419D01*
X152887467Y-134760419D02*
X153268419Y-134760419D01*
X153268419Y-134760419D02*
X153363657Y-134808038D01*
X153363657Y-134808038D02*
X153411276Y-134855657D01*
X153411276Y-134855657D02*
X153458895Y-134950895D01*
X153458895Y-134950895D02*
X153458895Y-135093752D01*
X153458895Y-135093752D02*
X153411276Y-135188990D01*
X153411276Y-135188990D02*
X153363657Y-135236609D01*
X153363657Y-135236609D02*
X153268419Y-135284228D01*
X153268419Y-135284228D02*
X152887467Y-135284228D01*
X154316038Y-135093752D02*
X154316038Y-135760419D01*
X154077943Y-134712800D02*
X153839848Y-135427085D01*
X153839848Y-135427085D02*
X154458895Y-135427085D01*
X154792229Y-134855657D02*
X154839848Y-134808038D01*
X154839848Y-134808038D02*
X154935086Y-134760419D01*
X154935086Y-134760419D02*
X155173181Y-134760419D01*
X155173181Y-134760419D02*
X155268419Y-134808038D01*
X155268419Y-134808038D02*
X155316038Y-134855657D01*
X155316038Y-134855657D02*
X155363657Y-134950895D01*
X155363657Y-134950895D02*
X155363657Y-135046133D01*
X155363657Y-135046133D02*
X155316038Y-135188990D01*
X155316038Y-135188990D02*
X154744610Y-135760419D01*
X154744610Y-135760419D02*
X155363657Y-135760419D01*
X154014705Y-118504419D02*
X154586133Y-118504419D01*
X154300419Y-119504419D02*
X154300419Y-118504419D01*
X154919467Y-119504419D02*
X154919467Y-118504419D01*
X154919467Y-118504419D02*
X155300419Y-118504419D01*
X155300419Y-118504419D02*
X155395657Y-118552038D01*
X155395657Y-118552038D02*
X155443276Y-118599657D01*
X155443276Y-118599657D02*
X155490895Y-118694895D01*
X155490895Y-118694895D02*
X155490895Y-118837752D01*
X155490895Y-118837752D02*
X155443276Y-118932990D01*
X155443276Y-118932990D02*
X155395657Y-118980609D01*
X155395657Y-118980609D02*
X155300419Y-119028228D01*
X155300419Y-119028228D02*
X154919467Y-119028228D01*
X155824229Y-118504419D02*
X156443276Y-118504419D01*
X156443276Y-118504419D02*
X156109943Y-118885371D01*
X156109943Y-118885371D02*
X156252800Y-118885371D01*
X156252800Y-118885371D02*
X156348038Y-118932990D01*
X156348038Y-118932990D02*
X156395657Y-118980609D01*
X156395657Y-118980609D02*
X156443276Y-119075847D01*
X156443276Y-119075847D02*
X156443276Y-119313942D01*
X156443276Y-119313942D02*
X156395657Y-119409180D01*
X156395657Y-119409180D02*
X156348038Y-119456800D01*
X156348038Y-119456800D02*
X156252800Y-119504419D01*
X156252800Y-119504419D02*
X155967086Y-119504419D01*
X155967086Y-119504419D02*
X155871848Y-119456800D01*
X155871848Y-119456800D02*
X155824229Y-119409180D01*
X156776610Y-118504419D02*
X157395657Y-118504419D01*
X157395657Y-118504419D02*
X157062324Y-118885371D01*
X157062324Y-118885371D02*
X157205181Y-118885371D01*
X157205181Y-118885371D02*
X157300419Y-118932990D01*
X157300419Y-118932990D02*
X157348038Y-118980609D01*
X157348038Y-118980609D02*
X157395657Y-119075847D01*
X157395657Y-119075847D02*
X157395657Y-119313942D01*
X157395657Y-119313942D02*
X157348038Y-119409180D01*
X157348038Y-119409180D02*
X157300419Y-119456800D01*
X157300419Y-119456800D02*
X157205181Y-119504419D01*
X157205181Y-119504419D02*
X156919467Y-119504419D01*
X156919467Y-119504419D02*
X156824229Y-119456800D01*
X156824229Y-119456800D02*
X156776610Y-119409180D01*
X145886705Y-120536419D02*
X146458133Y-120536419D01*
X146172419Y-121536419D02*
X146172419Y-120536419D01*
X146791467Y-121536419D02*
X146791467Y-120536419D01*
X146791467Y-120536419D02*
X147172419Y-120536419D01*
X147172419Y-120536419D02*
X147267657Y-120584038D01*
X147267657Y-120584038D02*
X147315276Y-120631657D01*
X147315276Y-120631657D02*
X147362895Y-120726895D01*
X147362895Y-120726895D02*
X147362895Y-120869752D01*
X147362895Y-120869752D02*
X147315276Y-120964990D01*
X147315276Y-120964990D02*
X147267657Y-121012609D01*
X147267657Y-121012609D02*
X147172419Y-121060228D01*
X147172419Y-121060228D02*
X146791467Y-121060228D01*
X148315276Y-121536419D02*
X147743848Y-121536419D01*
X148029562Y-121536419D02*
X148029562Y-120536419D01*
X148029562Y-120536419D02*
X147934324Y-120679276D01*
X147934324Y-120679276D02*
X147839086Y-120774514D01*
X147839086Y-120774514D02*
X147743848Y-120822133D01*
X148648610Y-120536419D02*
X149315276Y-120536419D01*
X149315276Y-120536419D02*
X148886705Y-121536419D01*
X147918705Y-120536419D02*
X148490133Y-120536419D01*
X148204419Y-121536419D02*
X148204419Y-120536419D01*
X148823467Y-121536419D02*
X148823467Y-120536419D01*
X148823467Y-120536419D02*
X149204419Y-120536419D01*
X149204419Y-120536419D02*
X149299657Y-120584038D01*
X149299657Y-120584038D02*
X149347276Y-120631657D01*
X149347276Y-120631657D02*
X149394895Y-120726895D01*
X149394895Y-120726895D02*
X149394895Y-120869752D01*
X149394895Y-120869752D02*
X149347276Y-120964990D01*
X149347276Y-120964990D02*
X149299657Y-121012609D01*
X149299657Y-121012609D02*
X149204419Y-121060228D01*
X149204419Y-121060228D02*
X148823467Y-121060228D01*
X149775848Y-120631657D02*
X149823467Y-120584038D01*
X149823467Y-120584038D02*
X149918705Y-120536419D01*
X149918705Y-120536419D02*
X150156800Y-120536419D01*
X150156800Y-120536419D02*
X150252038Y-120584038D01*
X150252038Y-120584038D02*
X150299657Y-120631657D01*
X150299657Y-120631657D02*
X150347276Y-120726895D01*
X150347276Y-120726895D02*
X150347276Y-120822133D01*
X150347276Y-120822133D02*
X150299657Y-120964990D01*
X150299657Y-120964990D02*
X149728229Y-121536419D01*
X149728229Y-121536419D02*
X150347276Y-121536419D01*
X150728229Y-120631657D02*
X150775848Y-120584038D01*
X150775848Y-120584038D02*
X150871086Y-120536419D01*
X150871086Y-120536419D02*
X151109181Y-120536419D01*
X151109181Y-120536419D02*
X151204419Y-120584038D01*
X151204419Y-120584038D02*
X151252038Y-120631657D01*
X151252038Y-120631657D02*
X151299657Y-120726895D01*
X151299657Y-120726895D02*
X151299657Y-120822133D01*
X151299657Y-120822133D02*
X151252038Y-120964990D01*
X151252038Y-120964990D02*
X150680610Y-121536419D01*
X150680610Y-121536419D02*
X151299657Y-121536419D01*
X145886705Y-126632419D02*
X146458133Y-126632419D01*
X146172419Y-127632419D02*
X146172419Y-126632419D01*
X146791467Y-127632419D02*
X146791467Y-126632419D01*
X146791467Y-126632419D02*
X147172419Y-126632419D01*
X147172419Y-126632419D02*
X147267657Y-126680038D01*
X147267657Y-126680038D02*
X147315276Y-126727657D01*
X147315276Y-126727657D02*
X147362895Y-126822895D01*
X147362895Y-126822895D02*
X147362895Y-126965752D01*
X147362895Y-126965752D02*
X147315276Y-127060990D01*
X147315276Y-127060990D02*
X147267657Y-127108609D01*
X147267657Y-127108609D02*
X147172419Y-127156228D01*
X147172419Y-127156228D02*
X146791467Y-127156228D01*
X148267657Y-126632419D02*
X147791467Y-126632419D01*
X147791467Y-126632419D02*
X147743848Y-127108609D01*
X147743848Y-127108609D02*
X147791467Y-127060990D01*
X147791467Y-127060990D02*
X147886705Y-127013371D01*
X147886705Y-127013371D02*
X148124800Y-127013371D01*
X148124800Y-127013371D02*
X148220038Y-127060990D01*
X148220038Y-127060990D02*
X148267657Y-127108609D01*
X148267657Y-127108609D02*
X148315276Y-127203847D01*
X148315276Y-127203847D02*
X148315276Y-127441942D01*
X148315276Y-127441942D02*
X148267657Y-127537180D01*
X148267657Y-127537180D02*
X148220038Y-127584800D01*
X148220038Y-127584800D02*
X148124800Y-127632419D01*
X148124800Y-127632419D02*
X147886705Y-127632419D01*
X147886705Y-127632419D02*
X147791467Y-127584800D01*
X147791467Y-127584800D02*
X147743848Y-127537180D01*
X149172419Y-126632419D02*
X148981943Y-126632419D01*
X148981943Y-126632419D02*
X148886705Y-126680038D01*
X148886705Y-126680038D02*
X148839086Y-126727657D01*
X148839086Y-126727657D02*
X148743848Y-126870514D01*
X148743848Y-126870514D02*
X148696229Y-127060990D01*
X148696229Y-127060990D02*
X148696229Y-127441942D01*
X148696229Y-127441942D02*
X148743848Y-127537180D01*
X148743848Y-127537180D02*
X148791467Y-127584800D01*
X148791467Y-127584800D02*
X148886705Y-127632419D01*
X148886705Y-127632419D02*
X149077181Y-127632419D01*
X149077181Y-127632419D02*
X149172419Y-127584800D01*
X149172419Y-127584800D02*
X149220038Y-127537180D01*
X149220038Y-127537180D02*
X149267657Y-127441942D01*
X149267657Y-127441942D02*
X149267657Y-127203847D01*
X149267657Y-127203847D02*
X149220038Y-127108609D01*
X149220038Y-127108609D02*
X149172419Y-127060990D01*
X149172419Y-127060990D02*
X149077181Y-127013371D01*
X149077181Y-127013371D02*
X148886705Y-127013371D01*
X148886705Y-127013371D02*
X148791467Y-127060990D01*
X148791467Y-127060990D02*
X148743848Y-127108609D01*
X148743848Y-127108609D02*
X148696229Y-127203847D01*
X143854705Y-134760419D02*
X144426133Y-134760419D01*
X144140419Y-135760419D02*
X144140419Y-134760419D01*
X144759467Y-135760419D02*
X144759467Y-134760419D01*
X144759467Y-134760419D02*
X145140419Y-134760419D01*
X145140419Y-134760419D02*
X145235657Y-134808038D01*
X145235657Y-134808038D02*
X145283276Y-134855657D01*
X145283276Y-134855657D02*
X145330895Y-134950895D01*
X145330895Y-134950895D02*
X145330895Y-135093752D01*
X145330895Y-135093752D02*
X145283276Y-135188990D01*
X145283276Y-135188990D02*
X145235657Y-135236609D01*
X145235657Y-135236609D02*
X145140419Y-135284228D01*
X145140419Y-135284228D02*
X144759467Y-135284228D01*
X146235657Y-134760419D02*
X145759467Y-134760419D01*
X145759467Y-134760419D02*
X145711848Y-135236609D01*
X145711848Y-135236609D02*
X145759467Y-135188990D01*
X145759467Y-135188990D02*
X145854705Y-135141371D01*
X145854705Y-135141371D02*
X146092800Y-135141371D01*
X146092800Y-135141371D02*
X146188038Y-135188990D01*
X146188038Y-135188990D02*
X146235657Y-135236609D01*
X146235657Y-135236609D02*
X146283276Y-135331847D01*
X146283276Y-135331847D02*
X146283276Y-135569942D01*
X146283276Y-135569942D02*
X146235657Y-135665180D01*
X146235657Y-135665180D02*
X146188038Y-135712800D01*
X146188038Y-135712800D02*
X146092800Y-135760419D01*
X146092800Y-135760419D02*
X145854705Y-135760419D01*
X145854705Y-135760419D02*
X145759467Y-135712800D01*
X145759467Y-135712800D02*
X145711848Y-135665180D01*
X146616610Y-134760419D02*
X147283276Y-134760419D01*
X147283276Y-134760419D02*
X146854705Y-135760419D01*
X154014705Y-130696419D02*
X154586133Y-130696419D01*
X154300419Y-131696419D02*
X154300419Y-130696419D01*
X154919467Y-131696419D02*
X154919467Y-130696419D01*
X154919467Y-130696419D02*
X155300419Y-130696419D01*
X155300419Y-130696419D02*
X155395657Y-130744038D01*
X155395657Y-130744038D02*
X155443276Y-130791657D01*
X155443276Y-130791657D02*
X155490895Y-130886895D01*
X155490895Y-130886895D02*
X155490895Y-131029752D01*
X155490895Y-131029752D02*
X155443276Y-131124990D01*
X155443276Y-131124990D02*
X155395657Y-131172609D01*
X155395657Y-131172609D02*
X155300419Y-131220228D01*
X155300419Y-131220228D02*
X154919467Y-131220228D01*
X155824229Y-130696419D02*
X156443276Y-130696419D01*
X156443276Y-130696419D02*
X156109943Y-131077371D01*
X156109943Y-131077371D02*
X156252800Y-131077371D01*
X156252800Y-131077371D02*
X156348038Y-131124990D01*
X156348038Y-131124990D02*
X156395657Y-131172609D01*
X156395657Y-131172609D02*
X156443276Y-131267847D01*
X156443276Y-131267847D02*
X156443276Y-131505942D01*
X156443276Y-131505942D02*
X156395657Y-131601180D01*
X156395657Y-131601180D02*
X156348038Y-131648800D01*
X156348038Y-131648800D02*
X156252800Y-131696419D01*
X156252800Y-131696419D02*
X155967086Y-131696419D01*
X155967086Y-131696419D02*
X155871848Y-131648800D01*
X155871848Y-131648800D02*
X155824229Y-131601180D01*
X156919467Y-131696419D02*
X157109943Y-131696419D01*
X157109943Y-131696419D02*
X157205181Y-131648800D01*
X157205181Y-131648800D02*
X157252800Y-131601180D01*
X157252800Y-131601180D02*
X157348038Y-131458323D01*
X157348038Y-131458323D02*
X157395657Y-131267847D01*
X157395657Y-131267847D02*
X157395657Y-130886895D01*
X157395657Y-130886895D02*
X157348038Y-130791657D01*
X157348038Y-130791657D02*
X157300419Y-130744038D01*
X157300419Y-130744038D02*
X157205181Y-130696419D01*
X157205181Y-130696419D02*
X157014705Y-130696419D01*
X157014705Y-130696419D02*
X156919467Y-130744038D01*
X156919467Y-130744038D02*
X156871848Y-130791657D01*
X156871848Y-130791657D02*
X156824229Y-130886895D01*
X156824229Y-130886895D02*
X156824229Y-131124990D01*
X156824229Y-131124990D02*
X156871848Y-131220228D01*
X156871848Y-131220228D02*
X156919467Y-131267847D01*
X156919467Y-131267847D02*
X157014705Y-131315466D01*
X157014705Y-131315466D02*
X157205181Y-131315466D01*
X157205181Y-131315466D02*
X157300419Y-131267847D01*
X157300419Y-131267847D02*
X157348038Y-131220228D01*
X157348038Y-131220228D02*
X157395657Y-131124990D01*
X147918705Y-128664419D02*
X148490133Y-128664419D01*
X148204419Y-129664419D02*
X148204419Y-128664419D01*
X148823467Y-129664419D02*
X148823467Y-128664419D01*
X148823467Y-128664419D02*
X149204419Y-128664419D01*
X149204419Y-128664419D02*
X149299657Y-128712038D01*
X149299657Y-128712038D02*
X149347276Y-128759657D01*
X149347276Y-128759657D02*
X149394895Y-128854895D01*
X149394895Y-128854895D02*
X149394895Y-128997752D01*
X149394895Y-128997752D02*
X149347276Y-129092990D01*
X149347276Y-129092990D02*
X149299657Y-129140609D01*
X149299657Y-129140609D02*
X149204419Y-129188228D01*
X149204419Y-129188228D02*
X148823467Y-129188228D01*
X150252038Y-128664419D02*
X150061562Y-128664419D01*
X150061562Y-128664419D02*
X149966324Y-128712038D01*
X149966324Y-128712038D02*
X149918705Y-128759657D01*
X149918705Y-128759657D02*
X149823467Y-128902514D01*
X149823467Y-128902514D02*
X149775848Y-129092990D01*
X149775848Y-129092990D02*
X149775848Y-129473942D01*
X149775848Y-129473942D02*
X149823467Y-129569180D01*
X149823467Y-129569180D02*
X149871086Y-129616800D01*
X149871086Y-129616800D02*
X149966324Y-129664419D01*
X149966324Y-129664419D02*
X150156800Y-129664419D01*
X150156800Y-129664419D02*
X150252038Y-129616800D01*
X150252038Y-129616800D02*
X150299657Y-129569180D01*
X150299657Y-129569180D02*
X150347276Y-129473942D01*
X150347276Y-129473942D02*
X150347276Y-129235847D01*
X150347276Y-129235847D02*
X150299657Y-129140609D01*
X150299657Y-129140609D02*
X150252038Y-129092990D01*
X150252038Y-129092990D02*
X150156800Y-129045371D01*
X150156800Y-129045371D02*
X149966324Y-129045371D01*
X149966324Y-129045371D02*
X149871086Y-129092990D01*
X149871086Y-129092990D02*
X149823467Y-129140609D01*
X149823467Y-129140609D02*
X149775848Y-129235847D01*
X150966324Y-128664419D02*
X151061562Y-128664419D01*
X151061562Y-128664419D02*
X151156800Y-128712038D01*
X151156800Y-128712038D02*
X151204419Y-128759657D01*
X151204419Y-128759657D02*
X151252038Y-128854895D01*
X151252038Y-128854895D02*
X151299657Y-129045371D01*
X151299657Y-129045371D02*
X151299657Y-129283466D01*
X151299657Y-129283466D02*
X151252038Y-129473942D01*
X151252038Y-129473942D02*
X151204419Y-129569180D01*
X151204419Y-129569180D02*
X151156800Y-129616800D01*
X151156800Y-129616800D02*
X151061562Y-129664419D01*
X151061562Y-129664419D02*
X150966324Y-129664419D01*
X150966324Y-129664419D02*
X150871086Y-129616800D01*
X150871086Y-129616800D02*
X150823467Y-129569180D01*
X150823467Y-129569180D02*
X150775848Y-129473942D01*
X150775848Y-129473942D02*
X150728229Y-129283466D01*
X150728229Y-129283466D02*
X150728229Y-129045371D01*
X150728229Y-129045371D02*
X150775848Y-128854895D01*
X150775848Y-128854895D02*
X150823467Y-128759657D01*
X150823467Y-128759657D02*
X150871086Y-128712038D01*
X150871086Y-128712038D02*
X150966324Y-128664419D01*
X147918705Y-126632419D02*
X148490133Y-126632419D01*
X148204419Y-127632419D02*
X148204419Y-126632419D01*
X148823467Y-127632419D02*
X148823467Y-126632419D01*
X148823467Y-126632419D02*
X149204419Y-126632419D01*
X149204419Y-126632419D02*
X149299657Y-126680038D01*
X149299657Y-126680038D02*
X149347276Y-126727657D01*
X149347276Y-126727657D02*
X149394895Y-126822895D01*
X149394895Y-126822895D02*
X149394895Y-126965752D01*
X149394895Y-126965752D02*
X149347276Y-127060990D01*
X149347276Y-127060990D02*
X149299657Y-127108609D01*
X149299657Y-127108609D02*
X149204419Y-127156228D01*
X149204419Y-127156228D02*
X148823467Y-127156228D01*
X150252038Y-126632419D02*
X150061562Y-126632419D01*
X150061562Y-126632419D02*
X149966324Y-126680038D01*
X149966324Y-126680038D02*
X149918705Y-126727657D01*
X149918705Y-126727657D02*
X149823467Y-126870514D01*
X149823467Y-126870514D02*
X149775848Y-127060990D01*
X149775848Y-127060990D02*
X149775848Y-127441942D01*
X149775848Y-127441942D02*
X149823467Y-127537180D01*
X149823467Y-127537180D02*
X149871086Y-127584800D01*
X149871086Y-127584800D02*
X149966324Y-127632419D01*
X149966324Y-127632419D02*
X150156800Y-127632419D01*
X150156800Y-127632419D02*
X150252038Y-127584800D01*
X150252038Y-127584800D02*
X150299657Y-127537180D01*
X150299657Y-127537180D02*
X150347276Y-127441942D01*
X150347276Y-127441942D02*
X150347276Y-127203847D01*
X150347276Y-127203847D02*
X150299657Y-127108609D01*
X150299657Y-127108609D02*
X150252038Y-127060990D01*
X150252038Y-127060990D02*
X150156800Y-127013371D01*
X150156800Y-127013371D02*
X149966324Y-127013371D01*
X149966324Y-127013371D02*
X149871086Y-127060990D01*
X149871086Y-127060990D02*
X149823467Y-127108609D01*
X149823467Y-127108609D02*
X149775848Y-127203847D01*
X151299657Y-127632419D02*
X150728229Y-127632419D01*
X151013943Y-127632419D02*
X151013943Y-126632419D01*
X151013943Y-126632419D02*
X150918705Y-126775276D01*
X150918705Y-126775276D02*
X150823467Y-126870514D01*
X150823467Y-126870514D02*
X150728229Y-126918133D01*
X139790705Y-130696419D02*
X140362133Y-130696419D01*
X140076419Y-131696419D02*
X140076419Y-130696419D01*
X140695467Y-131696419D02*
X140695467Y-130696419D01*
X140695467Y-130696419D02*
X141076419Y-130696419D01*
X141076419Y-130696419D02*
X141171657Y-130744038D01*
X141171657Y-130744038D02*
X141219276Y-130791657D01*
X141219276Y-130791657D02*
X141266895Y-130886895D01*
X141266895Y-130886895D02*
X141266895Y-131029752D01*
X141266895Y-131029752D02*
X141219276Y-131124990D01*
X141219276Y-131124990D02*
X141171657Y-131172609D01*
X141171657Y-131172609D02*
X141076419Y-131220228D01*
X141076419Y-131220228D02*
X140695467Y-131220228D01*
X141600229Y-130696419D02*
X142266895Y-130696419D01*
X142266895Y-130696419D02*
X141838324Y-131696419D01*
X143076419Y-131029752D02*
X143076419Y-131696419D01*
X142838324Y-130648800D02*
X142600229Y-131363085D01*
X142600229Y-131363085D02*
X143219276Y-131363085D01*
X154014705Y-126632419D02*
X154586133Y-126632419D01*
X154300419Y-127632419D02*
X154300419Y-126632419D01*
X154919467Y-127632419D02*
X154919467Y-126632419D01*
X154919467Y-126632419D02*
X155300419Y-126632419D01*
X155300419Y-126632419D02*
X155395657Y-126680038D01*
X155395657Y-126680038D02*
X155443276Y-126727657D01*
X155443276Y-126727657D02*
X155490895Y-126822895D01*
X155490895Y-126822895D02*
X155490895Y-126965752D01*
X155490895Y-126965752D02*
X155443276Y-127060990D01*
X155443276Y-127060990D02*
X155395657Y-127108609D01*
X155395657Y-127108609D02*
X155300419Y-127156228D01*
X155300419Y-127156228D02*
X154919467Y-127156228D01*
X155824229Y-126632419D02*
X156490895Y-126632419D01*
X156490895Y-126632419D02*
X156062324Y-127632419D01*
X157300419Y-126632419D02*
X157109943Y-126632419D01*
X157109943Y-126632419D02*
X157014705Y-126680038D01*
X157014705Y-126680038D02*
X156967086Y-126727657D01*
X156967086Y-126727657D02*
X156871848Y-126870514D01*
X156871848Y-126870514D02*
X156824229Y-127060990D01*
X156824229Y-127060990D02*
X156824229Y-127441942D01*
X156824229Y-127441942D02*
X156871848Y-127537180D01*
X156871848Y-127537180D02*
X156919467Y-127584800D01*
X156919467Y-127584800D02*
X157014705Y-127632419D01*
X157014705Y-127632419D02*
X157205181Y-127632419D01*
X157205181Y-127632419D02*
X157300419Y-127584800D01*
X157300419Y-127584800D02*
X157348038Y-127537180D01*
X157348038Y-127537180D02*
X157395657Y-127441942D01*
X157395657Y-127441942D02*
X157395657Y-127203847D01*
X157395657Y-127203847D02*
X157348038Y-127108609D01*
X157348038Y-127108609D02*
X157300419Y-127060990D01*
X157300419Y-127060990D02*
X157205181Y-127013371D01*
X157205181Y-127013371D02*
X157014705Y-127013371D01*
X157014705Y-127013371D02*
X156919467Y-127060990D01*
X156919467Y-127060990D02*
X156871848Y-127108609D01*
X156871848Y-127108609D02*
X156824229Y-127203847D01*
X141822705Y-126632419D02*
X142394133Y-126632419D01*
X142108419Y-127632419D02*
X142108419Y-126632419D01*
X142727467Y-127632419D02*
X142727467Y-126632419D01*
X142727467Y-126632419D02*
X143108419Y-126632419D01*
X143108419Y-126632419D02*
X143203657Y-126680038D01*
X143203657Y-126680038D02*
X143251276Y-126727657D01*
X143251276Y-126727657D02*
X143298895Y-126822895D01*
X143298895Y-126822895D02*
X143298895Y-126965752D01*
X143298895Y-126965752D02*
X143251276Y-127060990D01*
X143251276Y-127060990D02*
X143203657Y-127108609D01*
X143203657Y-127108609D02*
X143108419Y-127156228D01*
X143108419Y-127156228D02*
X142727467Y-127156228D01*
X144156038Y-126965752D02*
X144156038Y-127632419D01*
X143917943Y-126584800D02*
X143679848Y-127299085D01*
X143679848Y-127299085D02*
X144298895Y-127299085D01*
X145108419Y-126632419D02*
X144917943Y-126632419D01*
X144917943Y-126632419D02*
X144822705Y-126680038D01*
X144822705Y-126680038D02*
X144775086Y-126727657D01*
X144775086Y-126727657D02*
X144679848Y-126870514D01*
X144679848Y-126870514D02*
X144632229Y-127060990D01*
X144632229Y-127060990D02*
X144632229Y-127441942D01*
X144632229Y-127441942D02*
X144679848Y-127537180D01*
X144679848Y-127537180D02*
X144727467Y-127584800D01*
X144727467Y-127584800D02*
X144822705Y-127632419D01*
X144822705Y-127632419D02*
X145013181Y-127632419D01*
X145013181Y-127632419D02*
X145108419Y-127584800D01*
X145108419Y-127584800D02*
X145156038Y-127537180D01*
X145156038Y-127537180D02*
X145203657Y-127441942D01*
X145203657Y-127441942D02*
X145203657Y-127203847D01*
X145203657Y-127203847D02*
X145156038Y-127108609D01*
X145156038Y-127108609D02*
X145108419Y-127060990D01*
X145108419Y-127060990D02*
X145013181Y-127013371D01*
X145013181Y-127013371D02*
X144822705Y-127013371D01*
X144822705Y-127013371D02*
X144727467Y-127060990D01*
X144727467Y-127060990D02*
X144679848Y-127108609D01*
X144679848Y-127108609D02*
X144632229Y-127203847D01*
X151982705Y-120536419D02*
X152554133Y-120536419D01*
X152268419Y-121536419D02*
X152268419Y-120536419D01*
X152887467Y-121536419D02*
X152887467Y-120536419D01*
X152887467Y-120536419D02*
X153268419Y-120536419D01*
X153268419Y-120536419D02*
X153363657Y-120584038D01*
X153363657Y-120584038D02*
X153411276Y-120631657D01*
X153411276Y-120631657D02*
X153458895Y-120726895D01*
X153458895Y-120726895D02*
X153458895Y-120869752D01*
X153458895Y-120869752D02*
X153411276Y-120964990D01*
X153411276Y-120964990D02*
X153363657Y-121012609D01*
X153363657Y-121012609D02*
X153268419Y-121060228D01*
X153268419Y-121060228D02*
X152887467Y-121060228D01*
X153792229Y-120536419D02*
X154411276Y-120536419D01*
X154411276Y-120536419D02*
X154077943Y-120917371D01*
X154077943Y-120917371D02*
X154220800Y-120917371D01*
X154220800Y-120917371D02*
X154316038Y-120964990D01*
X154316038Y-120964990D02*
X154363657Y-121012609D01*
X154363657Y-121012609D02*
X154411276Y-121107847D01*
X154411276Y-121107847D02*
X154411276Y-121345942D01*
X154411276Y-121345942D02*
X154363657Y-121441180D01*
X154363657Y-121441180D02*
X154316038Y-121488800D01*
X154316038Y-121488800D02*
X154220800Y-121536419D01*
X154220800Y-121536419D02*
X153935086Y-121536419D01*
X153935086Y-121536419D02*
X153839848Y-121488800D01*
X153839848Y-121488800D02*
X153792229Y-121441180D01*
X155030324Y-120536419D02*
X155125562Y-120536419D01*
X155125562Y-120536419D02*
X155220800Y-120584038D01*
X155220800Y-120584038D02*
X155268419Y-120631657D01*
X155268419Y-120631657D02*
X155316038Y-120726895D01*
X155316038Y-120726895D02*
X155363657Y-120917371D01*
X155363657Y-120917371D02*
X155363657Y-121155466D01*
X155363657Y-121155466D02*
X155316038Y-121345942D01*
X155316038Y-121345942D02*
X155268419Y-121441180D01*
X155268419Y-121441180D02*
X155220800Y-121488800D01*
X155220800Y-121488800D02*
X155125562Y-121536419D01*
X155125562Y-121536419D02*
X155030324Y-121536419D01*
X155030324Y-121536419D02*
X154935086Y-121488800D01*
X154935086Y-121488800D02*
X154887467Y-121441180D01*
X154887467Y-121441180D02*
X154839848Y-121345942D01*
X154839848Y-121345942D02*
X154792229Y-121155466D01*
X154792229Y-121155466D02*
X154792229Y-120917371D01*
X154792229Y-120917371D02*
X154839848Y-120726895D01*
X154839848Y-120726895D02*
X154887467Y-120631657D01*
X154887467Y-120631657D02*
X154935086Y-120584038D01*
X154935086Y-120584038D02*
X155030324Y-120536419D01*
X143854705Y-120536419D02*
X144426133Y-120536419D01*
X144140419Y-121536419D02*
X144140419Y-120536419D01*
X144759467Y-121536419D02*
X144759467Y-120536419D01*
X144759467Y-120536419D02*
X145140419Y-120536419D01*
X145140419Y-120536419D02*
X145235657Y-120584038D01*
X145235657Y-120584038D02*
X145283276Y-120631657D01*
X145283276Y-120631657D02*
X145330895Y-120726895D01*
X145330895Y-120726895D02*
X145330895Y-120869752D01*
X145330895Y-120869752D02*
X145283276Y-120964990D01*
X145283276Y-120964990D02*
X145235657Y-121012609D01*
X145235657Y-121012609D02*
X145140419Y-121060228D01*
X145140419Y-121060228D02*
X144759467Y-121060228D01*
X146283276Y-121536419D02*
X145711848Y-121536419D01*
X145997562Y-121536419D02*
X145997562Y-120536419D01*
X145997562Y-120536419D02*
X145902324Y-120679276D01*
X145902324Y-120679276D02*
X145807086Y-120774514D01*
X145807086Y-120774514D02*
X145711848Y-120822133D01*
X146616610Y-120536419D02*
X147235657Y-120536419D01*
X147235657Y-120536419D02*
X146902324Y-120917371D01*
X146902324Y-120917371D02*
X147045181Y-120917371D01*
X147045181Y-120917371D02*
X147140419Y-120964990D01*
X147140419Y-120964990D02*
X147188038Y-121012609D01*
X147188038Y-121012609D02*
X147235657Y-121107847D01*
X147235657Y-121107847D02*
X147235657Y-121345942D01*
X147235657Y-121345942D02*
X147188038Y-121441180D01*
X147188038Y-121441180D02*
X147140419Y-121488800D01*
X147140419Y-121488800D02*
X147045181Y-121536419D01*
X147045181Y-121536419D02*
X146759467Y-121536419D01*
X146759467Y-121536419D02*
X146664229Y-121488800D01*
X146664229Y-121488800D02*
X146616610Y-121441180D01*
X149950705Y-134760419D02*
X150522133Y-134760419D01*
X150236419Y-135760419D02*
X150236419Y-134760419D01*
X150855467Y-135760419D02*
X150855467Y-134760419D01*
X150855467Y-134760419D02*
X151236419Y-134760419D01*
X151236419Y-134760419D02*
X151331657Y-134808038D01*
X151331657Y-134808038D02*
X151379276Y-134855657D01*
X151379276Y-134855657D02*
X151426895Y-134950895D01*
X151426895Y-134950895D02*
X151426895Y-135093752D01*
X151426895Y-135093752D02*
X151379276Y-135188990D01*
X151379276Y-135188990D02*
X151331657Y-135236609D01*
X151331657Y-135236609D02*
X151236419Y-135284228D01*
X151236419Y-135284228D02*
X150855467Y-135284228D01*
X152284038Y-135093752D02*
X152284038Y-135760419D01*
X152045943Y-134712800D02*
X151807848Y-135427085D01*
X151807848Y-135427085D02*
X152426895Y-135427085D01*
X152712610Y-134760419D02*
X153379276Y-134760419D01*
X153379276Y-134760419D02*
X152950705Y-135760419D01*
X141822705Y-134760419D02*
X142394133Y-134760419D01*
X142108419Y-135760419D02*
X142108419Y-134760419D01*
X142727467Y-135760419D02*
X142727467Y-134760419D01*
X142727467Y-134760419D02*
X143108419Y-134760419D01*
X143108419Y-134760419D02*
X143203657Y-134808038D01*
X143203657Y-134808038D02*
X143251276Y-134855657D01*
X143251276Y-134855657D02*
X143298895Y-134950895D01*
X143298895Y-134950895D02*
X143298895Y-135093752D01*
X143298895Y-135093752D02*
X143251276Y-135188990D01*
X143251276Y-135188990D02*
X143203657Y-135236609D01*
X143203657Y-135236609D02*
X143108419Y-135284228D01*
X143108419Y-135284228D02*
X142727467Y-135284228D01*
X144156038Y-134760419D02*
X143965562Y-134760419D01*
X143965562Y-134760419D02*
X143870324Y-134808038D01*
X143870324Y-134808038D02*
X143822705Y-134855657D01*
X143822705Y-134855657D02*
X143727467Y-134998514D01*
X143727467Y-134998514D02*
X143679848Y-135188990D01*
X143679848Y-135188990D02*
X143679848Y-135569942D01*
X143679848Y-135569942D02*
X143727467Y-135665180D01*
X143727467Y-135665180D02*
X143775086Y-135712800D01*
X143775086Y-135712800D02*
X143870324Y-135760419D01*
X143870324Y-135760419D02*
X144060800Y-135760419D01*
X144060800Y-135760419D02*
X144156038Y-135712800D01*
X144156038Y-135712800D02*
X144203657Y-135665180D01*
X144203657Y-135665180D02*
X144251276Y-135569942D01*
X144251276Y-135569942D02*
X144251276Y-135331847D01*
X144251276Y-135331847D02*
X144203657Y-135236609D01*
X144203657Y-135236609D02*
X144156038Y-135188990D01*
X144156038Y-135188990D02*
X144060800Y-135141371D01*
X144060800Y-135141371D02*
X143870324Y-135141371D01*
X143870324Y-135141371D02*
X143775086Y-135188990D01*
X143775086Y-135188990D02*
X143727467Y-135236609D01*
X143727467Y-135236609D02*
X143679848Y-135331847D01*
X144632229Y-134855657D02*
X144679848Y-134808038D01*
X144679848Y-134808038D02*
X144775086Y-134760419D01*
X144775086Y-134760419D02*
X145013181Y-134760419D01*
X145013181Y-134760419D02*
X145108419Y-134808038D01*
X145108419Y-134808038D02*
X145156038Y-134855657D01*
X145156038Y-134855657D02*
X145203657Y-134950895D01*
X145203657Y-134950895D02*
X145203657Y-135046133D01*
X145203657Y-135046133D02*
X145156038Y-135188990D01*
X145156038Y-135188990D02*
X144584610Y-135760419D01*
X144584610Y-135760419D02*
X145203657Y-135760419D01*
X143854705Y-132728419D02*
X144426133Y-132728419D01*
X144140419Y-133728419D02*
X144140419Y-132728419D01*
X144759467Y-133728419D02*
X144759467Y-132728419D01*
X144759467Y-132728419D02*
X145140419Y-132728419D01*
X145140419Y-132728419D02*
X145235657Y-132776038D01*
X145235657Y-132776038D02*
X145283276Y-132823657D01*
X145283276Y-132823657D02*
X145330895Y-132918895D01*
X145330895Y-132918895D02*
X145330895Y-133061752D01*
X145330895Y-133061752D02*
X145283276Y-133156990D01*
X145283276Y-133156990D02*
X145235657Y-133204609D01*
X145235657Y-133204609D02*
X145140419Y-133252228D01*
X145140419Y-133252228D02*
X144759467Y-133252228D01*
X146188038Y-132728419D02*
X145997562Y-132728419D01*
X145997562Y-132728419D02*
X145902324Y-132776038D01*
X145902324Y-132776038D02*
X145854705Y-132823657D01*
X145854705Y-132823657D02*
X145759467Y-132966514D01*
X145759467Y-132966514D02*
X145711848Y-133156990D01*
X145711848Y-133156990D02*
X145711848Y-133537942D01*
X145711848Y-133537942D02*
X145759467Y-133633180D01*
X145759467Y-133633180D02*
X145807086Y-133680800D01*
X145807086Y-133680800D02*
X145902324Y-133728419D01*
X145902324Y-133728419D02*
X146092800Y-133728419D01*
X146092800Y-133728419D02*
X146188038Y-133680800D01*
X146188038Y-133680800D02*
X146235657Y-133633180D01*
X146235657Y-133633180D02*
X146283276Y-133537942D01*
X146283276Y-133537942D02*
X146283276Y-133299847D01*
X146283276Y-133299847D02*
X146235657Y-133204609D01*
X146235657Y-133204609D02*
X146188038Y-133156990D01*
X146188038Y-133156990D02*
X146092800Y-133109371D01*
X146092800Y-133109371D02*
X145902324Y-133109371D01*
X145902324Y-133109371D02*
X145807086Y-133156990D01*
X145807086Y-133156990D02*
X145759467Y-133204609D01*
X145759467Y-133204609D02*
X145711848Y-133299847D01*
X146616610Y-132728419D02*
X147235657Y-132728419D01*
X147235657Y-132728419D02*
X146902324Y-133109371D01*
X146902324Y-133109371D02*
X147045181Y-133109371D01*
X147045181Y-133109371D02*
X147140419Y-133156990D01*
X147140419Y-133156990D02*
X147188038Y-133204609D01*
X147188038Y-133204609D02*
X147235657Y-133299847D01*
X147235657Y-133299847D02*
X147235657Y-133537942D01*
X147235657Y-133537942D02*
X147188038Y-133633180D01*
X147188038Y-133633180D02*
X147140419Y-133680800D01*
X147140419Y-133680800D02*
X147045181Y-133728419D01*
X147045181Y-133728419D02*
X146759467Y-133728419D01*
X146759467Y-133728419D02*
X146664229Y-133680800D01*
X146664229Y-133680800D02*
X146616610Y-133633180D01*
X149950705Y-126632419D02*
X150522133Y-126632419D01*
X150236419Y-127632419D02*
X150236419Y-126632419D01*
X150855467Y-127632419D02*
X150855467Y-126632419D01*
X150855467Y-126632419D02*
X151236419Y-126632419D01*
X151236419Y-126632419D02*
X151331657Y-126680038D01*
X151331657Y-126680038D02*
X151379276Y-126727657D01*
X151379276Y-126727657D02*
X151426895Y-126822895D01*
X151426895Y-126822895D02*
X151426895Y-126965752D01*
X151426895Y-126965752D02*
X151379276Y-127060990D01*
X151379276Y-127060990D02*
X151331657Y-127108609D01*
X151331657Y-127108609D02*
X151236419Y-127156228D01*
X151236419Y-127156228D02*
X150855467Y-127156228D01*
X152284038Y-126632419D02*
X152093562Y-126632419D01*
X152093562Y-126632419D02*
X151998324Y-126680038D01*
X151998324Y-126680038D02*
X151950705Y-126727657D01*
X151950705Y-126727657D02*
X151855467Y-126870514D01*
X151855467Y-126870514D02*
X151807848Y-127060990D01*
X151807848Y-127060990D02*
X151807848Y-127441942D01*
X151807848Y-127441942D02*
X151855467Y-127537180D01*
X151855467Y-127537180D02*
X151903086Y-127584800D01*
X151903086Y-127584800D02*
X151998324Y-127632419D01*
X151998324Y-127632419D02*
X152188800Y-127632419D01*
X152188800Y-127632419D02*
X152284038Y-127584800D01*
X152284038Y-127584800D02*
X152331657Y-127537180D01*
X152331657Y-127537180D02*
X152379276Y-127441942D01*
X152379276Y-127441942D02*
X152379276Y-127203847D01*
X152379276Y-127203847D02*
X152331657Y-127108609D01*
X152331657Y-127108609D02*
X152284038Y-127060990D01*
X152284038Y-127060990D02*
X152188800Y-127013371D01*
X152188800Y-127013371D02*
X151998324Y-127013371D01*
X151998324Y-127013371D02*
X151903086Y-127060990D01*
X151903086Y-127060990D02*
X151855467Y-127108609D01*
X151855467Y-127108609D02*
X151807848Y-127203847D01*
X153236419Y-126632419D02*
X153045943Y-126632419D01*
X153045943Y-126632419D02*
X152950705Y-126680038D01*
X152950705Y-126680038D02*
X152903086Y-126727657D01*
X152903086Y-126727657D02*
X152807848Y-126870514D01*
X152807848Y-126870514D02*
X152760229Y-127060990D01*
X152760229Y-127060990D02*
X152760229Y-127441942D01*
X152760229Y-127441942D02*
X152807848Y-127537180D01*
X152807848Y-127537180D02*
X152855467Y-127584800D01*
X152855467Y-127584800D02*
X152950705Y-127632419D01*
X152950705Y-127632419D02*
X153141181Y-127632419D01*
X153141181Y-127632419D02*
X153236419Y-127584800D01*
X153236419Y-127584800D02*
X153284038Y-127537180D01*
X153284038Y-127537180D02*
X153331657Y-127441942D01*
X153331657Y-127441942D02*
X153331657Y-127203847D01*
X153331657Y-127203847D02*
X153284038Y-127108609D01*
X153284038Y-127108609D02*
X153236419Y-127060990D01*
X153236419Y-127060990D02*
X153141181Y-127013371D01*
X153141181Y-127013371D02*
X152950705Y-127013371D01*
X152950705Y-127013371D02*
X152855467Y-127060990D01*
X152855467Y-127060990D02*
X152807848Y-127108609D01*
X152807848Y-127108609D02*
X152760229Y-127203847D01*
X139790705Y-134760419D02*
X140362133Y-134760419D01*
X140076419Y-135760419D02*
X140076419Y-134760419D01*
X140695467Y-135760419D02*
X140695467Y-134760419D01*
X140695467Y-134760419D02*
X141076419Y-134760419D01*
X141076419Y-134760419D02*
X141171657Y-134808038D01*
X141171657Y-134808038D02*
X141219276Y-134855657D01*
X141219276Y-134855657D02*
X141266895Y-134950895D01*
X141266895Y-134950895D02*
X141266895Y-135093752D01*
X141266895Y-135093752D02*
X141219276Y-135188990D01*
X141219276Y-135188990D02*
X141171657Y-135236609D01*
X141171657Y-135236609D02*
X141076419Y-135284228D01*
X141076419Y-135284228D02*
X140695467Y-135284228D01*
X142124038Y-134760419D02*
X141933562Y-134760419D01*
X141933562Y-134760419D02*
X141838324Y-134808038D01*
X141838324Y-134808038D02*
X141790705Y-134855657D01*
X141790705Y-134855657D02*
X141695467Y-134998514D01*
X141695467Y-134998514D02*
X141647848Y-135188990D01*
X141647848Y-135188990D02*
X141647848Y-135569942D01*
X141647848Y-135569942D02*
X141695467Y-135665180D01*
X141695467Y-135665180D02*
X141743086Y-135712800D01*
X141743086Y-135712800D02*
X141838324Y-135760419D01*
X141838324Y-135760419D02*
X142028800Y-135760419D01*
X142028800Y-135760419D02*
X142124038Y-135712800D01*
X142124038Y-135712800D02*
X142171657Y-135665180D01*
X142171657Y-135665180D02*
X142219276Y-135569942D01*
X142219276Y-135569942D02*
X142219276Y-135331847D01*
X142219276Y-135331847D02*
X142171657Y-135236609D01*
X142171657Y-135236609D02*
X142124038Y-135188990D01*
X142124038Y-135188990D02*
X142028800Y-135141371D01*
X142028800Y-135141371D02*
X141838324Y-135141371D01*
X141838324Y-135141371D02*
X141743086Y-135188990D01*
X141743086Y-135188990D02*
X141695467Y-135236609D01*
X141695467Y-135236609D02*
X141647848Y-135331847D01*
X142552610Y-134760419D02*
X143219276Y-134760419D01*
X143219276Y-134760419D02*
X142790705Y-135760419D01*
X141822705Y-132728419D02*
X142394133Y-132728419D01*
X142108419Y-133728419D02*
X142108419Y-132728419D01*
X142727467Y-133728419D02*
X142727467Y-132728419D01*
X142727467Y-132728419D02*
X143108419Y-132728419D01*
X143108419Y-132728419D02*
X143203657Y-132776038D01*
X143203657Y-132776038D02*
X143251276Y-132823657D01*
X143251276Y-132823657D02*
X143298895Y-132918895D01*
X143298895Y-132918895D02*
X143298895Y-133061752D01*
X143298895Y-133061752D02*
X143251276Y-133156990D01*
X143251276Y-133156990D02*
X143203657Y-133204609D01*
X143203657Y-133204609D02*
X143108419Y-133252228D01*
X143108419Y-133252228D02*
X142727467Y-133252228D01*
X144156038Y-132728419D02*
X143965562Y-132728419D01*
X143965562Y-132728419D02*
X143870324Y-132776038D01*
X143870324Y-132776038D02*
X143822705Y-132823657D01*
X143822705Y-132823657D02*
X143727467Y-132966514D01*
X143727467Y-132966514D02*
X143679848Y-133156990D01*
X143679848Y-133156990D02*
X143679848Y-133537942D01*
X143679848Y-133537942D02*
X143727467Y-133633180D01*
X143727467Y-133633180D02*
X143775086Y-133680800D01*
X143775086Y-133680800D02*
X143870324Y-133728419D01*
X143870324Y-133728419D02*
X144060800Y-133728419D01*
X144060800Y-133728419D02*
X144156038Y-133680800D01*
X144156038Y-133680800D02*
X144203657Y-133633180D01*
X144203657Y-133633180D02*
X144251276Y-133537942D01*
X144251276Y-133537942D02*
X144251276Y-133299847D01*
X144251276Y-133299847D02*
X144203657Y-133204609D01*
X144203657Y-133204609D02*
X144156038Y-133156990D01*
X144156038Y-133156990D02*
X144060800Y-133109371D01*
X144060800Y-133109371D02*
X143870324Y-133109371D01*
X143870324Y-133109371D02*
X143775086Y-133156990D01*
X143775086Y-133156990D02*
X143727467Y-133204609D01*
X143727467Y-133204609D02*
X143679848Y-133299847D01*
X144822705Y-133156990D02*
X144727467Y-133109371D01*
X144727467Y-133109371D02*
X144679848Y-133061752D01*
X144679848Y-133061752D02*
X144632229Y-132966514D01*
X144632229Y-132966514D02*
X144632229Y-132918895D01*
X144632229Y-132918895D02*
X144679848Y-132823657D01*
X144679848Y-132823657D02*
X144727467Y-132776038D01*
X144727467Y-132776038D02*
X144822705Y-132728419D01*
X144822705Y-132728419D02*
X145013181Y-132728419D01*
X145013181Y-132728419D02*
X145108419Y-132776038D01*
X145108419Y-132776038D02*
X145156038Y-132823657D01*
X145156038Y-132823657D02*
X145203657Y-132918895D01*
X145203657Y-132918895D02*
X145203657Y-132966514D01*
X145203657Y-132966514D02*
X145156038Y-133061752D01*
X145156038Y-133061752D02*
X145108419Y-133109371D01*
X145108419Y-133109371D02*
X145013181Y-133156990D01*
X145013181Y-133156990D02*
X144822705Y-133156990D01*
X144822705Y-133156990D02*
X144727467Y-133204609D01*
X144727467Y-133204609D02*
X144679848Y-133252228D01*
X144679848Y-133252228D02*
X144632229Y-133347466D01*
X144632229Y-133347466D02*
X144632229Y-133537942D01*
X144632229Y-133537942D02*
X144679848Y-133633180D01*
X144679848Y-133633180D02*
X144727467Y-133680800D01*
X144727467Y-133680800D02*
X144822705Y-133728419D01*
X144822705Y-133728419D02*
X145013181Y-133728419D01*
X145013181Y-133728419D02*
X145108419Y-133680800D01*
X145108419Y-133680800D02*
X145156038Y-133633180D01*
X145156038Y-133633180D02*
X145203657Y-133537942D01*
X145203657Y-133537942D02*
X145203657Y-133347466D01*
X145203657Y-133347466D02*
X145156038Y-133252228D01*
X145156038Y-133252228D02*
X145108419Y-133204609D01*
X145108419Y-133204609D02*
X145013181Y-133156990D01*
X139790705Y-128664419D02*
X140362133Y-128664419D01*
X140076419Y-129664419D02*
X140076419Y-128664419D01*
X140695467Y-129664419D02*
X140695467Y-128664419D01*
X140695467Y-128664419D02*
X141076419Y-128664419D01*
X141076419Y-128664419D02*
X141171657Y-128712038D01*
X141171657Y-128712038D02*
X141219276Y-128759657D01*
X141219276Y-128759657D02*
X141266895Y-128854895D01*
X141266895Y-128854895D02*
X141266895Y-128997752D01*
X141266895Y-128997752D02*
X141219276Y-129092990D01*
X141219276Y-129092990D02*
X141171657Y-129140609D01*
X141171657Y-129140609D02*
X141076419Y-129188228D01*
X141076419Y-129188228D02*
X140695467Y-129188228D01*
X142124038Y-128997752D02*
X142124038Y-129664419D01*
X141885943Y-128616800D02*
X141647848Y-129331085D01*
X141647848Y-129331085D02*
X142266895Y-129331085D01*
X142838324Y-128664419D02*
X142933562Y-128664419D01*
X142933562Y-128664419D02*
X143028800Y-128712038D01*
X143028800Y-128712038D02*
X143076419Y-128759657D01*
X143076419Y-128759657D02*
X143124038Y-128854895D01*
X143124038Y-128854895D02*
X143171657Y-129045371D01*
X143171657Y-129045371D02*
X143171657Y-129283466D01*
X143171657Y-129283466D02*
X143124038Y-129473942D01*
X143124038Y-129473942D02*
X143076419Y-129569180D01*
X143076419Y-129569180D02*
X143028800Y-129616800D01*
X143028800Y-129616800D02*
X142933562Y-129664419D01*
X142933562Y-129664419D02*
X142838324Y-129664419D01*
X142838324Y-129664419D02*
X142743086Y-129616800D01*
X142743086Y-129616800D02*
X142695467Y-129569180D01*
X142695467Y-129569180D02*
X142647848Y-129473942D01*
X142647848Y-129473942D02*
X142600229Y-129283466D01*
X142600229Y-129283466D02*
X142600229Y-129045371D01*
X142600229Y-129045371D02*
X142647848Y-128854895D01*
X142647848Y-128854895D02*
X142695467Y-128759657D01*
X142695467Y-128759657D02*
X142743086Y-128712038D01*
X142743086Y-128712038D02*
X142838324Y-128664419D01*
X140266895Y-120536419D02*
X140838323Y-120536419D01*
X140552609Y-121536419D02*
X140552609Y-120536419D01*
X141171657Y-121536419D02*
X141171657Y-120536419D01*
X141171657Y-120536419D02*
X141552609Y-120536419D01*
X141552609Y-120536419D02*
X141647847Y-120584038D01*
X141647847Y-120584038D02*
X141695466Y-120631657D01*
X141695466Y-120631657D02*
X141743085Y-120726895D01*
X141743085Y-120726895D02*
X141743085Y-120869752D01*
X141743085Y-120869752D02*
X141695466Y-120964990D01*
X141695466Y-120964990D02*
X141647847Y-121012609D01*
X141647847Y-121012609D02*
X141552609Y-121060228D01*
X141552609Y-121060228D02*
X141171657Y-121060228D01*
X142600228Y-120869752D02*
X142600228Y-121536419D01*
X142362133Y-120488800D02*
X142124038Y-121203085D01*
X142124038Y-121203085D02*
X142743085Y-121203085D01*
X147918705Y-122568419D02*
X148490133Y-122568419D01*
X148204419Y-123568419D02*
X148204419Y-122568419D01*
X148823467Y-123568419D02*
X148823467Y-122568419D01*
X148823467Y-122568419D02*
X149204419Y-122568419D01*
X149204419Y-122568419D02*
X149299657Y-122616038D01*
X149299657Y-122616038D02*
X149347276Y-122663657D01*
X149347276Y-122663657D02*
X149394895Y-122758895D01*
X149394895Y-122758895D02*
X149394895Y-122901752D01*
X149394895Y-122901752D02*
X149347276Y-122996990D01*
X149347276Y-122996990D02*
X149299657Y-123044609D01*
X149299657Y-123044609D02*
X149204419Y-123092228D01*
X149204419Y-123092228D02*
X148823467Y-123092228D01*
X149775848Y-122663657D02*
X149823467Y-122616038D01*
X149823467Y-122616038D02*
X149918705Y-122568419D01*
X149918705Y-122568419D02*
X150156800Y-122568419D01*
X150156800Y-122568419D02*
X150252038Y-122616038D01*
X150252038Y-122616038D02*
X150299657Y-122663657D01*
X150299657Y-122663657D02*
X150347276Y-122758895D01*
X150347276Y-122758895D02*
X150347276Y-122854133D01*
X150347276Y-122854133D02*
X150299657Y-122996990D01*
X150299657Y-122996990D02*
X149728229Y-123568419D01*
X149728229Y-123568419D02*
X150347276Y-123568419D01*
X150680610Y-122568419D02*
X151299657Y-122568419D01*
X151299657Y-122568419D02*
X150966324Y-122949371D01*
X150966324Y-122949371D02*
X151109181Y-122949371D01*
X151109181Y-122949371D02*
X151204419Y-122996990D01*
X151204419Y-122996990D02*
X151252038Y-123044609D01*
X151252038Y-123044609D02*
X151299657Y-123139847D01*
X151299657Y-123139847D02*
X151299657Y-123377942D01*
X151299657Y-123377942D02*
X151252038Y-123473180D01*
X151252038Y-123473180D02*
X151204419Y-123520800D01*
X151204419Y-123520800D02*
X151109181Y-123568419D01*
X151109181Y-123568419D02*
X150823467Y-123568419D01*
X150823467Y-123568419D02*
X150728229Y-123520800D01*
X150728229Y-123520800D02*
X150680610Y-123473180D01*
X140266895Y-124600419D02*
X140838323Y-124600419D01*
X140552609Y-125600419D02*
X140552609Y-124600419D01*
X141171657Y-125600419D02*
X141171657Y-124600419D01*
X141171657Y-124600419D02*
X141552609Y-124600419D01*
X141552609Y-124600419D02*
X141647847Y-124648038D01*
X141647847Y-124648038D02*
X141695466Y-124695657D01*
X141695466Y-124695657D02*
X141743085Y-124790895D01*
X141743085Y-124790895D02*
X141743085Y-124933752D01*
X141743085Y-124933752D02*
X141695466Y-125028990D01*
X141695466Y-125028990D02*
X141647847Y-125076609D01*
X141647847Y-125076609D02*
X141552609Y-125124228D01*
X141552609Y-125124228D02*
X141171657Y-125124228D01*
X142600228Y-124600419D02*
X142409752Y-124600419D01*
X142409752Y-124600419D02*
X142314514Y-124648038D01*
X142314514Y-124648038D02*
X142266895Y-124695657D01*
X142266895Y-124695657D02*
X142171657Y-124838514D01*
X142171657Y-124838514D02*
X142124038Y-125028990D01*
X142124038Y-125028990D02*
X142124038Y-125409942D01*
X142124038Y-125409942D02*
X142171657Y-125505180D01*
X142171657Y-125505180D02*
X142219276Y-125552800D01*
X142219276Y-125552800D02*
X142314514Y-125600419D01*
X142314514Y-125600419D02*
X142504990Y-125600419D01*
X142504990Y-125600419D02*
X142600228Y-125552800D01*
X142600228Y-125552800D02*
X142647847Y-125505180D01*
X142647847Y-125505180D02*
X142695466Y-125409942D01*
X142695466Y-125409942D02*
X142695466Y-125171847D01*
X142695466Y-125171847D02*
X142647847Y-125076609D01*
X142647847Y-125076609D02*
X142600228Y-125028990D01*
X142600228Y-125028990D02*
X142504990Y-124981371D01*
X142504990Y-124981371D02*
X142314514Y-124981371D01*
X142314514Y-124981371D02*
X142219276Y-125028990D01*
X142219276Y-125028990D02*
X142171657Y-125076609D01*
X142171657Y-125076609D02*
X142124038Y-125171847D01*
X151982705Y-126632419D02*
X152554133Y-126632419D01*
X152268419Y-127632419D02*
X152268419Y-126632419D01*
X152887467Y-127632419D02*
X152887467Y-126632419D01*
X152887467Y-126632419D02*
X153268419Y-126632419D01*
X153268419Y-126632419D02*
X153363657Y-126680038D01*
X153363657Y-126680038D02*
X153411276Y-126727657D01*
X153411276Y-126727657D02*
X153458895Y-126822895D01*
X153458895Y-126822895D02*
X153458895Y-126965752D01*
X153458895Y-126965752D02*
X153411276Y-127060990D01*
X153411276Y-127060990D02*
X153363657Y-127108609D01*
X153363657Y-127108609D02*
X153268419Y-127156228D01*
X153268419Y-127156228D02*
X152887467Y-127156228D01*
X153792229Y-126632419D02*
X154458895Y-126632419D01*
X154458895Y-126632419D02*
X154030324Y-127632419D01*
X155363657Y-127632419D02*
X154792229Y-127632419D01*
X155077943Y-127632419D02*
X155077943Y-126632419D01*
X155077943Y-126632419D02*
X154982705Y-126775276D01*
X154982705Y-126775276D02*
X154887467Y-126870514D01*
X154887467Y-126870514D02*
X154792229Y-126918133D01*
X139790705Y-132728419D02*
X140362133Y-132728419D01*
X140076419Y-133728419D02*
X140076419Y-132728419D01*
X140695467Y-133728419D02*
X140695467Y-132728419D01*
X140695467Y-132728419D02*
X141076419Y-132728419D01*
X141076419Y-132728419D02*
X141171657Y-132776038D01*
X141171657Y-132776038D02*
X141219276Y-132823657D01*
X141219276Y-132823657D02*
X141266895Y-132918895D01*
X141266895Y-132918895D02*
X141266895Y-133061752D01*
X141266895Y-133061752D02*
X141219276Y-133156990D01*
X141219276Y-133156990D02*
X141171657Y-133204609D01*
X141171657Y-133204609D02*
X141076419Y-133252228D01*
X141076419Y-133252228D02*
X140695467Y-133252228D01*
X141600229Y-132728419D02*
X142266895Y-132728419D01*
X142266895Y-132728419D02*
X141838324Y-133728419D01*
X142552610Y-132728419D02*
X143171657Y-132728419D01*
X143171657Y-132728419D02*
X142838324Y-133109371D01*
X142838324Y-133109371D02*
X142981181Y-133109371D01*
X142981181Y-133109371D02*
X143076419Y-133156990D01*
X143076419Y-133156990D02*
X143124038Y-133204609D01*
X143124038Y-133204609D02*
X143171657Y-133299847D01*
X143171657Y-133299847D02*
X143171657Y-133537942D01*
X143171657Y-133537942D02*
X143124038Y-133633180D01*
X143124038Y-133633180D02*
X143076419Y-133680800D01*
X143076419Y-133680800D02*
X142981181Y-133728419D01*
X142981181Y-133728419D02*
X142695467Y-133728419D01*
X142695467Y-133728419D02*
X142600229Y-133680800D01*
X142600229Y-133680800D02*
X142552610Y-133633180D01*
X145886705Y-128664419D02*
X146458133Y-128664419D01*
X146172419Y-129664419D02*
X146172419Y-128664419D01*
X146791467Y-129664419D02*
X146791467Y-128664419D01*
X146791467Y-128664419D02*
X147172419Y-128664419D01*
X147172419Y-128664419D02*
X147267657Y-128712038D01*
X147267657Y-128712038D02*
X147315276Y-128759657D01*
X147315276Y-128759657D02*
X147362895Y-128854895D01*
X147362895Y-128854895D02*
X147362895Y-128997752D01*
X147362895Y-128997752D02*
X147315276Y-129092990D01*
X147315276Y-129092990D02*
X147267657Y-129140609D01*
X147267657Y-129140609D02*
X147172419Y-129188228D01*
X147172419Y-129188228D02*
X146791467Y-129188228D01*
X148267657Y-128664419D02*
X147791467Y-128664419D01*
X147791467Y-128664419D02*
X147743848Y-129140609D01*
X147743848Y-129140609D02*
X147791467Y-129092990D01*
X147791467Y-129092990D02*
X147886705Y-129045371D01*
X147886705Y-129045371D02*
X148124800Y-129045371D01*
X148124800Y-129045371D02*
X148220038Y-129092990D01*
X148220038Y-129092990D02*
X148267657Y-129140609D01*
X148267657Y-129140609D02*
X148315276Y-129235847D01*
X148315276Y-129235847D02*
X148315276Y-129473942D01*
X148315276Y-129473942D02*
X148267657Y-129569180D01*
X148267657Y-129569180D02*
X148220038Y-129616800D01*
X148220038Y-129616800D02*
X148124800Y-129664419D01*
X148124800Y-129664419D02*
X147886705Y-129664419D01*
X147886705Y-129664419D02*
X147791467Y-129616800D01*
X147791467Y-129616800D02*
X147743848Y-129569180D01*
X149220038Y-128664419D02*
X148743848Y-128664419D01*
X148743848Y-128664419D02*
X148696229Y-129140609D01*
X148696229Y-129140609D02*
X148743848Y-129092990D01*
X148743848Y-129092990D02*
X148839086Y-129045371D01*
X148839086Y-129045371D02*
X149077181Y-129045371D01*
X149077181Y-129045371D02*
X149172419Y-129092990D01*
X149172419Y-129092990D02*
X149220038Y-129140609D01*
X149220038Y-129140609D02*
X149267657Y-129235847D01*
X149267657Y-129235847D02*
X149267657Y-129473942D01*
X149267657Y-129473942D02*
X149220038Y-129569180D01*
X149220038Y-129569180D02*
X149172419Y-129616800D01*
X149172419Y-129616800D02*
X149077181Y-129664419D01*
X149077181Y-129664419D02*
X148839086Y-129664419D01*
X148839086Y-129664419D02*
X148743848Y-129616800D01*
X148743848Y-129616800D02*
X148696229Y-129569180D01*
X151982705Y-132728419D02*
X152554133Y-132728419D01*
X152268419Y-133728419D02*
X152268419Y-132728419D01*
X152887467Y-133728419D02*
X152887467Y-132728419D01*
X152887467Y-132728419D02*
X153268419Y-132728419D01*
X153268419Y-132728419D02*
X153363657Y-132776038D01*
X153363657Y-132776038D02*
X153411276Y-132823657D01*
X153411276Y-132823657D02*
X153458895Y-132918895D01*
X153458895Y-132918895D02*
X153458895Y-133061752D01*
X153458895Y-133061752D02*
X153411276Y-133156990D01*
X153411276Y-133156990D02*
X153363657Y-133204609D01*
X153363657Y-133204609D02*
X153268419Y-133252228D01*
X153268419Y-133252228D02*
X152887467Y-133252228D01*
X154316038Y-133061752D02*
X154316038Y-133728419D01*
X154077943Y-132680800D02*
X153839848Y-133395085D01*
X153839848Y-133395085D02*
X154458895Y-133395085D01*
X154744610Y-132728419D02*
X155363657Y-132728419D01*
X155363657Y-132728419D02*
X155030324Y-133109371D01*
X155030324Y-133109371D02*
X155173181Y-133109371D01*
X155173181Y-133109371D02*
X155268419Y-133156990D01*
X155268419Y-133156990D02*
X155316038Y-133204609D01*
X155316038Y-133204609D02*
X155363657Y-133299847D01*
X155363657Y-133299847D02*
X155363657Y-133537942D01*
X155363657Y-133537942D02*
X155316038Y-133633180D01*
X155316038Y-133633180D02*
X155268419Y-133680800D01*
X155268419Y-133680800D02*
X155173181Y-133728419D01*
X155173181Y-133728419D02*
X154887467Y-133728419D01*
X154887467Y-133728419D02*
X154792229Y-133680800D01*
X154792229Y-133680800D02*
X154744610Y-133633180D01*
X143854705Y-126632419D02*
X144426133Y-126632419D01*
X144140419Y-127632419D02*
X144140419Y-126632419D01*
X144759467Y-127632419D02*
X144759467Y-126632419D01*
X144759467Y-126632419D02*
X145140419Y-126632419D01*
X145140419Y-126632419D02*
X145235657Y-126680038D01*
X145235657Y-126680038D02*
X145283276Y-126727657D01*
X145283276Y-126727657D02*
X145330895Y-126822895D01*
X145330895Y-126822895D02*
X145330895Y-126965752D01*
X145330895Y-126965752D02*
X145283276Y-127060990D01*
X145283276Y-127060990D02*
X145235657Y-127108609D01*
X145235657Y-127108609D02*
X145140419Y-127156228D01*
X145140419Y-127156228D02*
X144759467Y-127156228D01*
X146235657Y-126632419D02*
X145759467Y-126632419D01*
X145759467Y-126632419D02*
X145711848Y-127108609D01*
X145711848Y-127108609D02*
X145759467Y-127060990D01*
X145759467Y-127060990D02*
X145854705Y-127013371D01*
X145854705Y-127013371D02*
X146092800Y-127013371D01*
X146092800Y-127013371D02*
X146188038Y-127060990D01*
X146188038Y-127060990D02*
X146235657Y-127108609D01*
X146235657Y-127108609D02*
X146283276Y-127203847D01*
X146283276Y-127203847D02*
X146283276Y-127441942D01*
X146283276Y-127441942D02*
X146235657Y-127537180D01*
X146235657Y-127537180D02*
X146188038Y-127584800D01*
X146188038Y-127584800D02*
X146092800Y-127632419D01*
X146092800Y-127632419D02*
X145854705Y-127632419D01*
X145854705Y-127632419D02*
X145759467Y-127584800D01*
X145759467Y-127584800D02*
X145711848Y-127537180D01*
X147235657Y-127632419D02*
X146664229Y-127632419D01*
X146949943Y-127632419D02*
X146949943Y-126632419D01*
X146949943Y-126632419D02*
X146854705Y-126775276D01*
X146854705Y-126775276D02*
X146759467Y-126870514D01*
X146759467Y-126870514D02*
X146664229Y-126918133D01*
X146902705Y-134760419D02*
X147474133Y-134760419D01*
X147188419Y-135760419D02*
X147188419Y-134760419D01*
X147807467Y-135760419D02*
X147807467Y-134760419D01*
X147807467Y-134760419D02*
X148188419Y-134760419D01*
X148188419Y-134760419D02*
X148283657Y-134808038D01*
X148283657Y-134808038D02*
X148331276Y-134855657D01*
X148331276Y-134855657D02*
X148378895Y-134950895D01*
X148378895Y-134950895D02*
X148378895Y-135093752D01*
X148378895Y-135093752D02*
X148331276Y-135188990D01*
X148331276Y-135188990D02*
X148283657Y-135236609D01*
X148283657Y-135236609D02*
X148188419Y-135284228D01*
X148188419Y-135284228D02*
X147807467Y-135284228D01*
X149283657Y-134760419D02*
X148807467Y-134760419D01*
X148807467Y-134760419D02*
X148759848Y-135236609D01*
X148759848Y-135236609D02*
X148807467Y-135188990D01*
X148807467Y-135188990D02*
X148902705Y-135141371D01*
X148902705Y-135141371D02*
X149140800Y-135141371D01*
X149140800Y-135141371D02*
X149236038Y-135188990D01*
X149236038Y-135188990D02*
X149283657Y-135236609D01*
X149283657Y-135236609D02*
X149331276Y-135331847D01*
X149331276Y-135331847D02*
X149331276Y-135569942D01*
X149331276Y-135569942D02*
X149283657Y-135665180D01*
X149283657Y-135665180D02*
X149236038Y-135712800D01*
X149236038Y-135712800D02*
X149140800Y-135760419D01*
X149140800Y-135760419D02*
X148902705Y-135760419D01*
X148902705Y-135760419D02*
X148807467Y-135712800D01*
X148807467Y-135712800D02*
X148759848Y-135665180D01*
X149712229Y-134855657D02*
X149759848Y-134808038D01*
X149759848Y-134808038D02*
X149855086Y-134760419D01*
X149855086Y-134760419D02*
X150093181Y-134760419D01*
X150093181Y-134760419D02*
X150188419Y-134808038D01*
X150188419Y-134808038D02*
X150236038Y-134855657D01*
X150236038Y-134855657D02*
X150283657Y-134950895D01*
X150283657Y-134950895D02*
X150283657Y-135046133D01*
X150283657Y-135046133D02*
X150236038Y-135188990D01*
X150236038Y-135188990D02*
X149664610Y-135760419D01*
X149664610Y-135760419D02*
X150283657Y-135760419D01*
X154014705Y-122568419D02*
X154586133Y-122568419D01*
X154300419Y-123568419D02*
X154300419Y-122568419D01*
X154919467Y-123568419D02*
X154919467Y-122568419D01*
X154919467Y-122568419D02*
X155300419Y-122568419D01*
X155300419Y-122568419D02*
X155395657Y-122616038D01*
X155395657Y-122616038D02*
X155443276Y-122663657D01*
X155443276Y-122663657D02*
X155490895Y-122758895D01*
X155490895Y-122758895D02*
X155490895Y-122901752D01*
X155490895Y-122901752D02*
X155443276Y-122996990D01*
X155443276Y-122996990D02*
X155395657Y-123044609D01*
X155395657Y-123044609D02*
X155300419Y-123092228D01*
X155300419Y-123092228D02*
X154919467Y-123092228D01*
X155824229Y-122568419D02*
X156443276Y-122568419D01*
X156443276Y-122568419D02*
X156109943Y-122949371D01*
X156109943Y-122949371D02*
X156252800Y-122949371D01*
X156252800Y-122949371D02*
X156348038Y-122996990D01*
X156348038Y-122996990D02*
X156395657Y-123044609D01*
X156395657Y-123044609D02*
X156443276Y-123139847D01*
X156443276Y-123139847D02*
X156443276Y-123377942D01*
X156443276Y-123377942D02*
X156395657Y-123473180D01*
X156395657Y-123473180D02*
X156348038Y-123520800D01*
X156348038Y-123520800D02*
X156252800Y-123568419D01*
X156252800Y-123568419D02*
X155967086Y-123568419D01*
X155967086Y-123568419D02*
X155871848Y-123520800D01*
X155871848Y-123520800D02*
X155824229Y-123473180D01*
X157348038Y-122568419D02*
X156871848Y-122568419D01*
X156871848Y-122568419D02*
X156824229Y-123044609D01*
X156824229Y-123044609D02*
X156871848Y-122996990D01*
X156871848Y-122996990D02*
X156967086Y-122949371D01*
X156967086Y-122949371D02*
X157205181Y-122949371D01*
X157205181Y-122949371D02*
X157300419Y-122996990D01*
X157300419Y-122996990D02*
X157348038Y-123044609D01*
X157348038Y-123044609D02*
X157395657Y-123139847D01*
X157395657Y-123139847D02*
X157395657Y-123377942D01*
X157395657Y-123377942D02*
X157348038Y-123473180D01*
X157348038Y-123473180D02*
X157300419Y-123520800D01*
X157300419Y-123520800D02*
X157205181Y-123568419D01*
X157205181Y-123568419D02*
X156967086Y-123568419D01*
X156967086Y-123568419D02*
X156871848Y-123520800D01*
X156871848Y-123520800D02*
X156824229Y-123473180D01*
X154014705Y-120536419D02*
X154586133Y-120536419D01*
X154300419Y-121536419D02*
X154300419Y-120536419D01*
X154919467Y-121536419D02*
X154919467Y-120536419D01*
X154919467Y-120536419D02*
X155300419Y-120536419D01*
X155300419Y-120536419D02*
X155395657Y-120584038D01*
X155395657Y-120584038D02*
X155443276Y-120631657D01*
X155443276Y-120631657D02*
X155490895Y-120726895D01*
X155490895Y-120726895D02*
X155490895Y-120869752D01*
X155490895Y-120869752D02*
X155443276Y-120964990D01*
X155443276Y-120964990D02*
X155395657Y-121012609D01*
X155395657Y-121012609D02*
X155300419Y-121060228D01*
X155300419Y-121060228D02*
X154919467Y-121060228D01*
X155824229Y-120536419D02*
X156443276Y-120536419D01*
X156443276Y-120536419D02*
X156109943Y-120917371D01*
X156109943Y-120917371D02*
X156252800Y-120917371D01*
X156252800Y-120917371D02*
X156348038Y-120964990D01*
X156348038Y-120964990D02*
X156395657Y-121012609D01*
X156395657Y-121012609D02*
X156443276Y-121107847D01*
X156443276Y-121107847D02*
X156443276Y-121345942D01*
X156443276Y-121345942D02*
X156395657Y-121441180D01*
X156395657Y-121441180D02*
X156348038Y-121488800D01*
X156348038Y-121488800D02*
X156252800Y-121536419D01*
X156252800Y-121536419D02*
X155967086Y-121536419D01*
X155967086Y-121536419D02*
X155871848Y-121488800D01*
X155871848Y-121488800D02*
X155824229Y-121441180D01*
X157300419Y-120869752D02*
X157300419Y-121536419D01*
X157062324Y-120488800D02*
X156824229Y-121203085D01*
X156824229Y-121203085D02*
X157443276Y-121203085D01*
X142298895Y-120536419D02*
X142870323Y-120536419D01*
X142584609Y-121536419D02*
X142584609Y-120536419D01*
X143203657Y-121536419D02*
X143203657Y-120536419D01*
X143203657Y-120536419D02*
X143584609Y-120536419D01*
X143584609Y-120536419D02*
X143679847Y-120584038D01*
X143679847Y-120584038D02*
X143727466Y-120631657D01*
X143727466Y-120631657D02*
X143775085Y-120726895D01*
X143775085Y-120726895D02*
X143775085Y-120869752D01*
X143775085Y-120869752D02*
X143727466Y-120964990D01*
X143727466Y-120964990D02*
X143679847Y-121012609D01*
X143679847Y-121012609D02*
X143584609Y-121060228D01*
X143584609Y-121060228D02*
X143203657Y-121060228D01*
X144251276Y-121536419D02*
X144441752Y-121536419D01*
X144441752Y-121536419D02*
X144536990Y-121488800D01*
X144536990Y-121488800D02*
X144584609Y-121441180D01*
X144584609Y-121441180D02*
X144679847Y-121298323D01*
X144679847Y-121298323D02*
X144727466Y-121107847D01*
X144727466Y-121107847D02*
X144727466Y-120726895D01*
X144727466Y-120726895D02*
X144679847Y-120631657D01*
X144679847Y-120631657D02*
X144632228Y-120584038D01*
X144632228Y-120584038D02*
X144536990Y-120536419D01*
X144536990Y-120536419D02*
X144346514Y-120536419D01*
X144346514Y-120536419D02*
X144251276Y-120584038D01*
X144251276Y-120584038D02*
X144203657Y-120631657D01*
X144203657Y-120631657D02*
X144156038Y-120726895D01*
X144156038Y-120726895D02*
X144156038Y-120964990D01*
X144156038Y-120964990D02*
X144203657Y-121060228D01*
X144203657Y-121060228D02*
X144251276Y-121107847D01*
X144251276Y-121107847D02*
X144346514Y-121155466D01*
X144346514Y-121155466D02*
X144536990Y-121155466D01*
X144536990Y-121155466D02*
X144632228Y-121107847D01*
X144632228Y-121107847D02*
X144679847Y-121060228D01*
X144679847Y-121060228D02*
X144727466Y-120964990D01*
X154014705Y-134760419D02*
X154586133Y-134760419D01*
X154300419Y-135760419D02*
X154300419Y-134760419D01*
X154919467Y-135760419D02*
X154919467Y-134760419D01*
X154919467Y-134760419D02*
X155300419Y-134760419D01*
X155300419Y-134760419D02*
X155395657Y-134808038D01*
X155395657Y-134808038D02*
X155443276Y-134855657D01*
X155443276Y-134855657D02*
X155490895Y-134950895D01*
X155490895Y-134950895D02*
X155490895Y-135093752D01*
X155490895Y-135093752D02*
X155443276Y-135188990D01*
X155443276Y-135188990D02*
X155395657Y-135236609D01*
X155395657Y-135236609D02*
X155300419Y-135284228D01*
X155300419Y-135284228D02*
X154919467Y-135284228D01*
X155824229Y-134760419D02*
X156443276Y-134760419D01*
X156443276Y-134760419D02*
X156109943Y-135141371D01*
X156109943Y-135141371D02*
X156252800Y-135141371D01*
X156252800Y-135141371D02*
X156348038Y-135188990D01*
X156348038Y-135188990D02*
X156395657Y-135236609D01*
X156395657Y-135236609D02*
X156443276Y-135331847D01*
X156443276Y-135331847D02*
X156443276Y-135569942D01*
X156443276Y-135569942D02*
X156395657Y-135665180D01*
X156395657Y-135665180D02*
X156348038Y-135712800D01*
X156348038Y-135712800D02*
X156252800Y-135760419D01*
X156252800Y-135760419D02*
X155967086Y-135760419D01*
X155967086Y-135760419D02*
X155871848Y-135712800D01*
X155871848Y-135712800D02*
X155824229Y-135665180D01*
X156776610Y-134760419D02*
X157443276Y-134760419D01*
X157443276Y-134760419D02*
X157014705Y-135760419D01*
X149950705Y-120536419D02*
X150522133Y-120536419D01*
X150236419Y-121536419D02*
X150236419Y-120536419D01*
X150855467Y-121536419D02*
X150855467Y-120536419D01*
X150855467Y-120536419D02*
X151236419Y-120536419D01*
X151236419Y-120536419D02*
X151331657Y-120584038D01*
X151331657Y-120584038D02*
X151379276Y-120631657D01*
X151379276Y-120631657D02*
X151426895Y-120726895D01*
X151426895Y-120726895D02*
X151426895Y-120869752D01*
X151426895Y-120869752D02*
X151379276Y-120964990D01*
X151379276Y-120964990D02*
X151331657Y-121012609D01*
X151331657Y-121012609D02*
X151236419Y-121060228D01*
X151236419Y-121060228D02*
X150855467Y-121060228D01*
X151807848Y-120631657D02*
X151855467Y-120584038D01*
X151855467Y-120584038D02*
X151950705Y-120536419D01*
X151950705Y-120536419D02*
X152188800Y-120536419D01*
X152188800Y-120536419D02*
X152284038Y-120584038D01*
X152284038Y-120584038D02*
X152331657Y-120631657D01*
X152331657Y-120631657D02*
X152379276Y-120726895D01*
X152379276Y-120726895D02*
X152379276Y-120822133D01*
X152379276Y-120822133D02*
X152331657Y-120964990D01*
X152331657Y-120964990D02*
X151760229Y-121536419D01*
X151760229Y-121536419D02*
X152379276Y-121536419D01*
X153236419Y-120536419D02*
X153045943Y-120536419D01*
X153045943Y-120536419D02*
X152950705Y-120584038D01*
X152950705Y-120584038D02*
X152903086Y-120631657D01*
X152903086Y-120631657D02*
X152807848Y-120774514D01*
X152807848Y-120774514D02*
X152760229Y-120964990D01*
X152760229Y-120964990D02*
X152760229Y-121345942D01*
X152760229Y-121345942D02*
X152807848Y-121441180D01*
X152807848Y-121441180D02*
X152855467Y-121488800D01*
X152855467Y-121488800D02*
X152950705Y-121536419D01*
X152950705Y-121536419D02*
X153141181Y-121536419D01*
X153141181Y-121536419D02*
X153236419Y-121488800D01*
X153236419Y-121488800D02*
X153284038Y-121441180D01*
X153284038Y-121441180D02*
X153331657Y-121345942D01*
X153331657Y-121345942D02*
X153331657Y-121107847D01*
X153331657Y-121107847D02*
X153284038Y-121012609D01*
X153284038Y-121012609D02*
X153236419Y-120964990D01*
X153236419Y-120964990D02*
X153141181Y-120917371D01*
X153141181Y-120917371D02*
X152950705Y-120917371D01*
X152950705Y-120917371D02*
X152855467Y-120964990D01*
X152855467Y-120964990D02*
X152807848Y-121012609D01*
X152807848Y-121012609D02*
X152760229Y-121107847D01*
X149950705Y-118504419D02*
X150522133Y-118504419D01*
X150236419Y-119504419D02*
X150236419Y-118504419D01*
X150855467Y-119504419D02*
X150855467Y-118504419D01*
X150855467Y-118504419D02*
X151236419Y-118504419D01*
X151236419Y-118504419D02*
X151331657Y-118552038D01*
X151331657Y-118552038D02*
X151379276Y-118599657D01*
X151379276Y-118599657D02*
X151426895Y-118694895D01*
X151426895Y-118694895D02*
X151426895Y-118837752D01*
X151426895Y-118837752D02*
X151379276Y-118932990D01*
X151379276Y-118932990D02*
X151331657Y-118980609D01*
X151331657Y-118980609D02*
X151236419Y-119028228D01*
X151236419Y-119028228D02*
X150855467Y-119028228D01*
X151807848Y-118599657D02*
X151855467Y-118552038D01*
X151855467Y-118552038D02*
X151950705Y-118504419D01*
X151950705Y-118504419D02*
X152188800Y-118504419D01*
X152188800Y-118504419D02*
X152284038Y-118552038D01*
X152284038Y-118552038D02*
X152331657Y-118599657D01*
X152331657Y-118599657D02*
X152379276Y-118694895D01*
X152379276Y-118694895D02*
X152379276Y-118790133D01*
X152379276Y-118790133D02*
X152331657Y-118932990D01*
X152331657Y-118932990D02*
X151760229Y-119504419D01*
X151760229Y-119504419D02*
X152379276Y-119504419D01*
X153284038Y-118504419D02*
X152807848Y-118504419D01*
X152807848Y-118504419D02*
X152760229Y-118980609D01*
X152760229Y-118980609D02*
X152807848Y-118932990D01*
X152807848Y-118932990D02*
X152903086Y-118885371D01*
X152903086Y-118885371D02*
X153141181Y-118885371D01*
X153141181Y-118885371D02*
X153236419Y-118932990D01*
X153236419Y-118932990D02*
X153284038Y-118980609D01*
X153284038Y-118980609D02*
X153331657Y-119075847D01*
X153331657Y-119075847D02*
X153331657Y-119313942D01*
X153331657Y-119313942D02*
X153284038Y-119409180D01*
X153284038Y-119409180D02*
X153236419Y-119456800D01*
X153236419Y-119456800D02*
X153141181Y-119504419D01*
X153141181Y-119504419D02*
X152903086Y-119504419D01*
X152903086Y-119504419D02*
X152807848Y-119456800D01*
X152807848Y-119456800D02*
X152760229Y-119409180D01*
X149950705Y-124600419D02*
X150522133Y-124600419D01*
X150236419Y-125600419D02*
X150236419Y-124600419D01*
X150855467Y-125600419D02*
X150855467Y-124600419D01*
X150855467Y-124600419D02*
X151236419Y-124600419D01*
X151236419Y-124600419D02*
X151331657Y-124648038D01*
X151331657Y-124648038D02*
X151379276Y-124695657D01*
X151379276Y-124695657D02*
X151426895Y-124790895D01*
X151426895Y-124790895D02*
X151426895Y-124933752D01*
X151426895Y-124933752D02*
X151379276Y-125028990D01*
X151379276Y-125028990D02*
X151331657Y-125076609D01*
X151331657Y-125076609D02*
X151236419Y-125124228D01*
X151236419Y-125124228D02*
X150855467Y-125124228D01*
X151807848Y-124695657D02*
X151855467Y-124648038D01*
X151855467Y-124648038D02*
X151950705Y-124600419D01*
X151950705Y-124600419D02*
X152188800Y-124600419D01*
X152188800Y-124600419D02*
X152284038Y-124648038D01*
X152284038Y-124648038D02*
X152331657Y-124695657D01*
X152331657Y-124695657D02*
X152379276Y-124790895D01*
X152379276Y-124790895D02*
X152379276Y-124886133D01*
X152379276Y-124886133D02*
X152331657Y-125028990D01*
X152331657Y-125028990D02*
X151760229Y-125600419D01*
X151760229Y-125600419D02*
X152379276Y-125600419D01*
X152950705Y-125028990D02*
X152855467Y-124981371D01*
X152855467Y-124981371D02*
X152807848Y-124933752D01*
X152807848Y-124933752D02*
X152760229Y-124838514D01*
X152760229Y-124838514D02*
X152760229Y-124790895D01*
X152760229Y-124790895D02*
X152807848Y-124695657D01*
X152807848Y-124695657D02*
X152855467Y-124648038D01*
X152855467Y-124648038D02*
X152950705Y-124600419D01*
X152950705Y-124600419D02*
X153141181Y-124600419D01*
X153141181Y-124600419D02*
X153236419Y-124648038D01*
X153236419Y-124648038D02*
X153284038Y-124695657D01*
X153284038Y-124695657D02*
X153331657Y-124790895D01*
X153331657Y-124790895D02*
X153331657Y-124838514D01*
X153331657Y-124838514D02*
X153284038Y-124933752D01*
X153284038Y-124933752D02*
X153236419Y-124981371D01*
X153236419Y-124981371D02*
X153141181Y-125028990D01*
X153141181Y-125028990D02*
X152950705Y-125028990D01*
X152950705Y-125028990D02*
X152855467Y-125076609D01*
X152855467Y-125076609D02*
X152807848Y-125124228D01*
X152807848Y-125124228D02*
X152760229Y-125219466D01*
X152760229Y-125219466D02*
X152760229Y-125409942D01*
X152760229Y-125409942D02*
X152807848Y-125505180D01*
X152807848Y-125505180D02*
X152855467Y-125552800D01*
X152855467Y-125552800D02*
X152950705Y-125600419D01*
X152950705Y-125600419D02*
X153141181Y-125600419D01*
X153141181Y-125600419D02*
X153236419Y-125552800D01*
X153236419Y-125552800D02*
X153284038Y-125505180D01*
X153284038Y-125505180D02*
X153331657Y-125409942D01*
X153331657Y-125409942D02*
X153331657Y-125219466D01*
X153331657Y-125219466D02*
X153284038Y-125124228D01*
X153284038Y-125124228D02*
X153236419Y-125076609D01*
X153236419Y-125076609D02*
X153141181Y-125028990D01*
X143854705Y-130696419D02*
X144426133Y-130696419D01*
X144140419Y-131696419D02*
X144140419Y-130696419D01*
X144759467Y-131696419D02*
X144759467Y-130696419D01*
X144759467Y-130696419D02*
X145140419Y-130696419D01*
X145140419Y-130696419D02*
X145235657Y-130744038D01*
X145235657Y-130744038D02*
X145283276Y-130791657D01*
X145283276Y-130791657D02*
X145330895Y-130886895D01*
X145330895Y-130886895D02*
X145330895Y-131029752D01*
X145330895Y-131029752D02*
X145283276Y-131124990D01*
X145283276Y-131124990D02*
X145235657Y-131172609D01*
X145235657Y-131172609D02*
X145140419Y-131220228D01*
X145140419Y-131220228D02*
X144759467Y-131220228D01*
X146188038Y-130696419D02*
X145997562Y-130696419D01*
X145997562Y-130696419D02*
X145902324Y-130744038D01*
X145902324Y-130744038D02*
X145854705Y-130791657D01*
X145854705Y-130791657D02*
X145759467Y-130934514D01*
X145759467Y-130934514D02*
X145711848Y-131124990D01*
X145711848Y-131124990D02*
X145711848Y-131505942D01*
X145711848Y-131505942D02*
X145759467Y-131601180D01*
X145759467Y-131601180D02*
X145807086Y-131648800D01*
X145807086Y-131648800D02*
X145902324Y-131696419D01*
X145902324Y-131696419D02*
X146092800Y-131696419D01*
X146092800Y-131696419D02*
X146188038Y-131648800D01*
X146188038Y-131648800D02*
X146235657Y-131601180D01*
X146235657Y-131601180D02*
X146283276Y-131505942D01*
X146283276Y-131505942D02*
X146283276Y-131267847D01*
X146283276Y-131267847D02*
X146235657Y-131172609D01*
X146235657Y-131172609D02*
X146188038Y-131124990D01*
X146188038Y-131124990D02*
X146092800Y-131077371D01*
X146092800Y-131077371D02*
X145902324Y-131077371D01*
X145902324Y-131077371D02*
X145807086Y-131124990D01*
X145807086Y-131124990D02*
X145759467Y-131172609D01*
X145759467Y-131172609D02*
X145711848Y-131267847D01*
X147140419Y-131029752D02*
X147140419Y-131696419D01*
X146902324Y-130648800D02*
X146664229Y-131363085D01*
X146664229Y-131363085D02*
X147283276Y-131363085D01*
X149950705Y-128664419D02*
X150522133Y-128664419D01*
X150236419Y-129664419D02*
X150236419Y-128664419D01*
X150855467Y-129664419D02*
X150855467Y-128664419D01*
X150855467Y-128664419D02*
X151236419Y-128664419D01*
X151236419Y-128664419D02*
X151331657Y-128712038D01*
X151331657Y-128712038D02*
X151379276Y-128759657D01*
X151379276Y-128759657D02*
X151426895Y-128854895D01*
X151426895Y-128854895D02*
X151426895Y-128997752D01*
X151426895Y-128997752D02*
X151379276Y-129092990D01*
X151379276Y-129092990D02*
X151331657Y-129140609D01*
X151331657Y-129140609D02*
X151236419Y-129188228D01*
X151236419Y-129188228D02*
X150855467Y-129188228D01*
X152284038Y-128664419D02*
X152093562Y-128664419D01*
X152093562Y-128664419D02*
X151998324Y-128712038D01*
X151998324Y-128712038D02*
X151950705Y-128759657D01*
X151950705Y-128759657D02*
X151855467Y-128902514D01*
X151855467Y-128902514D02*
X151807848Y-129092990D01*
X151807848Y-129092990D02*
X151807848Y-129473942D01*
X151807848Y-129473942D02*
X151855467Y-129569180D01*
X151855467Y-129569180D02*
X151903086Y-129616800D01*
X151903086Y-129616800D02*
X151998324Y-129664419D01*
X151998324Y-129664419D02*
X152188800Y-129664419D01*
X152188800Y-129664419D02*
X152284038Y-129616800D01*
X152284038Y-129616800D02*
X152331657Y-129569180D01*
X152331657Y-129569180D02*
X152379276Y-129473942D01*
X152379276Y-129473942D02*
X152379276Y-129235847D01*
X152379276Y-129235847D02*
X152331657Y-129140609D01*
X152331657Y-129140609D02*
X152284038Y-129092990D01*
X152284038Y-129092990D02*
X152188800Y-129045371D01*
X152188800Y-129045371D02*
X151998324Y-129045371D01*
X151998324Y-129045371D02*
X151903086Y-129092990D01*
X151903086Y-129092990D02*
X151855467Y-129140609D01*
X151855467Y-129140609D02*
X151807848Y-129235847D01*
X153284038Y-128664419D02*
X152807848Y-128664419D01*
X152807848Y-128664419D02*
X152760229Y-129140609D01*
X152760229Y-129140609D02*
X152807848Y-129092990D01*
X152807848Y-129092990D02*
X152903086Y-129045371D01*
X152903086Y-129045371D02*
X153141181Y-129045371D01*
X153141181Y-129045371D02*
X153236419Y-129092990D01*
X153236419Y-129092990D02*
X153284038Y-129140609D01*
X153284038Y-129140609D02*
X153331657Y-129235847D01*
X153331657Y-129235847D02*
X153331657Y-129473942D01*
X153331657Y-129473942D02*
X153284038Y-129569180D01*
X153284038Y-129569180D02*
X153236419Y-129616800D01*
X153236419Y-129616800D02*
X153141181Y-129664419D01*
X153141181Y-129664419D02*
X152903086Y-129664419D01*
X152903086Y-129664419D02*
X152807848Y-129616800D01*
X152807848Y-129616800D02*
X152760229Y-129569180D01*
X154014705Y-124600419D02*
X154586133Y-124600419D01*
X154300419Y-125600419D02*
X154300419Y-124600419D01*
X154919467Y-125600419D02*
X154919467Y-124600419D01*
X154919467Y-124600419D02*
X155300419Y-124600419D01*
X155300419Y-124600419D02*
X155395657Y-124648038D01*
X155395657Y-124648038D02*
X155443276Y-124695657D01*
X155443276Y-124695657D02*
X155490895Y-124790895D01*
X155490895Y-124790895D02*
X155490895Y-124933752D01*
X155490895Y-124933752D02*
X155443276Y-125028990D01*
X155443276Y-125028990D02*
X155395657Y-125076609D01*
X155395657Y-125076609D02*
X155300419Y-125124228D01*
X155300419Y-125124228D02*
X154919467Y-125124228D01*
X155824229Y-124600419D02*
X156443276Y-124600419D01*
X156443276Y-124600419D02*
X156109943Y-124981371D01*
X156109943Y-124981371D02*
X156252800Y-124981371D01*
X156252800Y-124981371D02*
X156348038Y-125028990D01*
X156348038Y-125028990D02*
X156395657Y-125076609D01*
X156395657Y-125076609D02*
X156443276Y-125171847D01*
X156443276Y-125171847D02*
X156443276Y-125409942D01*
X156443276Y-125409942D02*
X156395657Y-125505180D01*
X156395657Y-125505180D02*
X156348038Y-125552800D01*
X156348038Y-125552800D02*
X156252800Y-125600419D01*
X156252800Y-125600419D02*
X155967086Y-125600419D01*
X155967086Y-125600419D02*
X155871848Y-125552800D01*
X155871848Y-125552800D02*
X155824229Y-125505180D01*
X157300419Y-124600419D02*
X157109943Y-124600419D01*
X157109943Y-124600419D02*
X157014705Y-124648038D01*
X157014705Y-124648038D02*
X156967086Y-124695657D01*
X156967086Y-124695657D02*
X156871848Y-124838514D01*
X156871848Y-124838514D02*
X156824229Y-125028990D01*
X156824229Y-125028990D02*
X156824229Y-125409942D01*
X156824229Y-125409942D02*
X156871848Y-125505180D01*
X156871848Y-125505180D02*
X156919467Y-125552800D01*
X156919467Y-125552800D02*
X157014705Y-125600419D01*
X157014705Y-125600419D02*
X157205181Y-125600419D01*
X157205181Y-125600419D02*
X157300419Y-125552800D01*
X157300419Y-125552800D02*
X157348038Y-125505180D01*
X157348038Y-125505180D02*
X157395657Y-125409942D01*
X157395657Y-125409942D02*
X157395657Y-125171847D01*
X157395657Y-125171847D02*
X157348038Y-125076609D01*
X157348038Y-125076609D02*
X157300419Y-125028990D01*
X157300419Y-125028990D02*
X157205181Y-124981371D01*
X157205181Y-124981371D02*
X157014705Y-124981371D01*
X157014705Y-124981371D02*
X156919467Y-125028990D01*
X156919467Y-125028990D02*
X156871848Y-125076609D01*
X156871848Y-125076609D02*
X156824229Y-125171847D01*
X140266895Y-118504419D02*
X140838323Y-118504419D01*
X140552609Y-119504419D02*
X140552609Y-118504419D01*
X141171657Y-119504419D02*
X141171657Y-118504419D01*
X141171657Y-118504419D02*
X141552609Y-118504419D01*
X141552609Y-118504419D02*
X141647847Y-118552038D01*
X141647847Y-118552038D02*
X141695466Y-118599657D01*
X141695466Y-118599657D02*
X141743085Y-118694895D01*
X141743085Y-118694895D02*
X141743085Y-118837752D01*
X141743085Y-118837752D02*
X141695466Y-118932990D01*
X141695466Y-118932990D02*
X141647847Y-118980609D01*
X141647847Y-118980609D02*
X141552609Y-119028228D01*
X141552609Y-119028228D02*
X141171657Y-119028228D01*
X142076419Y-118504419D02*
X142695466Y-118504419D01*
X142695466Y-118504419D02*
X142362133Y-118885371D01*
X142362133Y-118885371D02*
X142504990Y-118885371D01*
X142504990Y-118885371D02*
X142600228Y-118932990D01*
X142600228Y-118932990D02*
X142647847Y-118980609D01*
X142647847Y-118980609D02*
X142695466Y-119075847D01*
X142695466Y-119075847D02*
X142695466Y-119313942D01*
X142695466Y-119313942D02*
X142647847Y-119409180D01*
X142647847Y-119409180D02*
X142600228Y-119456800D01*
X142600228Y-119456800D02*
X142504990Y-119504419D01*
X142504990Y-119504419D02*
X142219276Y-119504419D01*
X142219276Y-119504419D02*
X142124038Y-119456800D01*
X142124038Y-119456800D02*
X142076419Y-119409180D01*
X147918705Y-118504419D02*
X148490133Y-118504419D01*
X148204419Y-119504419D02*
X148204419Y-118504419D01*
X148823467Y-119504419D02*
X148823467Y-118504419D01*
X148823467Y-118504419D02*
X149204419Y-118504419D01*
X149204419Y-118504419D02*
X149299657Y-118552038D01*
X149299657Y-118552038D02*
X149347276Y-118599657D01*
X149347276Y-118599657D02*
X149394895Y-118694895D01*
X149394895Y-118694895D02*
X149394895Y-118837752D01*
X149394895Y-118837752D02*
X149347276Y-118932990D01*
X149347276Y-118932990D02*
X149299657Y-118980609D01*
X149299657Y-118980609D02*
X149204419Y-119028228D01*
X149204419Y-119028228D02*
X148823467Y-119028228D01*
X149775848Y-118599657D02*
X149823467Y-118552038D01*
X149823467Y-118552038D02*
X149918705Y-118504419D01*
X149918705Y-118504419D02*
X150156800Y-118504419D01*
X150156800Y-118504419D02*
X150252038Y-118552038D01*
X150252038Y-118552038D02*
X150299657Y-118599657D01*
X150299657Y-118599657D02*
X150347276Y-118694895D01*
X150347276Y-118694895D02*
X150347276Y-118790133D01*
X150347276Y-118790133D02*
X150299657Y-118932990D01*
X150299657Y-118932990D02*
X149728229Y-119504419D01*
X149728229Y-119504419D02*
X150347276Y-119504419D01*
X151299657Y-119504419D02*
X150728229Y-119504419D01*
X151013943Y-119504419D02*
X151013943Y-118504419D01*
X151013943Y-118504419D02*
X150918705Y-118647276D01*
X150918705Y-118647276D02*
X150823467Y-118742514D01*
X150823467Y-118742514D02*
X150728229Y-118790133D01*
X143854705Y-118504419D02*
X144426133Y-118504419D01*
X144140419Y-119504419D02*
X144140419Y-118504419D01*
X144759467Y-119504419D02*
X144759467Y-118504419D01*
X144759467Y-118504419D02*
X145140419Y-118504419D01*
X145140419Y-118504419D02*
X145235657Y-118552038D01*
X145235657Y-118552038D02*
X145283276Y-118599657D01*
X145283276Y-118599657D02*
X145330895Y-118694895D01*
X145330895Y-118694895D02*
X145330895Y-118837752D01*
X145330895Y-118837752D02*
X145283276Y-118932990D01*
X145283276Y-118932990D02*
X145235657Y-118980609D01*
X145235657Y-118980609D02*
X145140419Y-119028228D01*
X145140419Y-119028228D02*
X144759467Y-119028228D01*
X146283276Y-119504419D02*
X145711848Y-119504419D01*
X145997562Y-119504419D02*
X145997562Y-118504419D01*
X145997562Y-118504419D02*
X145902324Y-118647276D01*
X145902324Y-118647276D02*
X145807086Y-118742514D01*
X145807086Y-118742514D02*
X145711848Y-118790133D01*
X146664229Y-118599657D02*
X146711848Y-118552038D01*
X146711848Y-118552038D02*
X146807086Y-118504419D01*
X146807086Y-118504419D02*
X147045181Y-118504419D01*
X147045181Y-118504419D02*
X147140419Y-118552038D01*
X147140419Y-118552038D02*
X147188038Y-118599657D01*
X147188038Y-118599657D02*
X147235657Y-118694895D01*
X147235657Y-118694895D02*
X147235657Y-118790133D01*
X147235657Y-118790133D02*
X147188038Y-118932990D01*
X147188038Y-118932990D02*
X146616610Y-119504419D01*
X146616610Y-119504419D02*
X147235657Y-119504419D01*
X141822705Y-122568419D02*
X142394133Y-122568419D01*
X142108419Y-123568419D02*
X142108419Y-122568419D01*
X142727467Y-123568419D02*
X142727467Y-122568419D01*
X142727467Y-122568419D02*
X143108419Y-122568419D01*
X143108419Y-122568419D02*
X143203657Y-122616038D01*
X143203657Y-122616038D02*
X143251276Y-122663657D01*
X143251276Y-122663657D02*
X143298895Y-122758895D01*
X143298895Y-122758895D02*
X143298895Y-122901752D01*
X143298895Y-122901752D02*
X143251276Y-122996990D01*
X143251276Y-122996990D02*
X143203657Y-123044609D01*
X143203657Y-123044609D02*
X143108419Y-123092228D01*
X143108419Y-123092228D02*
X142727467Y-123092228D01*
X144251276Y-123568419D02*
X143679848Y-123568419D01*
X143965562Y-123568419D02*
X143965562Y-122568419D01*
X143965562Y-122568419D02*
X143870324Y-122711276D01*
X143870324Y-122711276D02*
X143775086Y-122806514D01*
X143775086Y-122806514D02*
X143679848Y-122854133D01*
X144870324Y-122568419D02*
X144965562Y-122568419D01*
X144965562Y-122568419D02*
X145060800Y-122616038D01*
X145060800Y-122616038D02*
X145108419Y-122663657D01*
X145108419Y-122663657D02*
X145156038Y-122758895D01*
X145156038Y-122758895D02*
X145203657Y-122949371D01*
X145203657Y-122949371D02*
X145203657Y-123187466D01*
X145203657Y-123187466D02*
X145156038Y-123377942D01*
X145156038Y-123377942D02*
X145108419Y-123473180D01*
X145108419Y-123473180D02*
X145060800Y-123520800D01*
X145060800Y-123520800D02*
X144965562Y-123568419D01*
X144965562Y-123568419D02*
X144870324Y-123568419D01*
X144870324Y-123568419D02*
X144775086Y-123520800D01*
X144775086Y-123520800D02*
X144727467Y-123473180D01*
X144727467Y-123473180D02*
X144679848Y-123377942D01*
X144679848Y-123377942D02*
X144632229Y-123187466D01*
X144632229Y-123187466D02*
X144632229Y-122949371D01*
X144632229Y-122949371D02*
X144679848Y-122758895D01*
X144679848Y-122758895D02*
X144727467Y-122663657D01*
X144727467Y-122663657D02*
X144775086Y-122616038D01*
X144775086Y-122616038D02*
X144870324Y-122568419D01*
X141822705Y-130696419D02*
X142394133Y-130696419D01*
X142108419Y-131696419D02*
X142108419Y-130696419D01*
X142727467Y-131696419D02*
X142727467Y-130696419D01*
X142727467Y-130696419D02*
X143108419Y-130696419D01*
X143108419Y-130696419D02*
X143203657Y-130744038D01*
X143203657Y-130744038D02*
X143251276Y-130791657D01*
X143251276Y-130791657D02*
X143298895Y-130886895D01*
X143298895Y-130886895D02*
X143298895Y-131029752D01*
X143298895Y-131029752D02*
X143251276Y-131124990D01*
X143251276Y-131124990D02*
X143203657Y-131172609D01*
X143203657Y-131172609D02*
X143108419Y-131220228D01*
X143108419Y-131220228D02*
X142727467Y-131220228D01*
X144156038Y-130696419D02*
X143965562Y-130696419D01*
X143965562Y-130696419D02*
X143870324Y-130744038D01*
X143870324Y-130744038D02*
X143822705Y-130791657D01*
X143822705Y-130791657D02*
X143727467Y-130934514D01*
X143727467Y-130934514D02*
X143679848Y-131124990D01*
X143679848Y-131124990D02*
X143679848Y-131505942D01*
X143679848Y-131505942D02*
X143727467Y-131601180D01*
X143727467Y-131601180D02*
X143775086Y-131648800D01*
X143775086Y-131648800D02*
X143870324Y-131696419D01*
X143870324Y-131696419D02*
X144060800Y-131696419D01*
X144060800Y-131696419D02*
X144156038Y-131648800D01*
X144156038Y-131648800D02*
X144203657Y-131601180D01*
X144203657Y-131601180D02*
X144251276Y-131505942D01*
X144251276Y-131505942D02*
X144251276Y-131267847D01*
X144251276Y-131267847D02*
X144203657Y-131172609D01*
X144203657Y-131172609D02*
X144156038Y-131124990D01*
X144156038Y-131124990D02*
X144060800Y-131077371D01*
X144060800Y-131077371D02*
X143870324Y-131077371D01*
X143870324Y-131077371D02*
X143775086Y-131124990D01*
X143775086Y-131124990D02*
X143727467Y-131172609D01*
X143727467Y-131172609D02*
X143679848Y-131267847D01*
X144727467Y-131696419D02*
X144917943Y-131696419D01*
X144917943Y-131696419D02*
X145013181Y-131648800D01*
X145013181Y-131648800D02*
X145060800Y-131601180D01*
X145060800Y-131601180D02*
X145156038Y-131458323D01*
X145156038Y-131458323D02*
X145203657Y-131267847D01*
X145203657Y-131267847D02*
X145203657Y-130886895D01*
X145203657Y-130886895D02*
X145156038Y-130791657D01*
X145156038Y-130791657D02*
X145108419Y-130744038D01*
X145108419Y-130744038D02*
X145013181Y-130696419D01*
X145013181Y-130696419D02*
X144822705Y-130696419D01*
X144822705Y-130696419D02*
X144727467Y-130744038D01*
X144727467Y-130744038D02*
X144679848Y-130791657D01*
X144679848Y-130791657D02*
X144632229Y-130886895D01*
X144632229Y-130886895D02*
X144632229Y-131124990D01*
X144632229Y-131124990D02*
X144679848Y-131220228D01*
X144679848Y-131220228D02*
X144727467Y-131267847D01*
X144727467Y-131267847D02*
X144822705Y-131315466D01*
X144822705Y-131315466D02*
X145013181Y-131315466D01*
X145013181Y-131315466D02*
X145108419Y-131267847D01*
X145108419Y-131267847D02*
X145156038Y-131220228D01*
X145156038Y-131220228D02*
X145203657Y-131124990D01*
X151982705Y-128664419D02*
X152554133Y-128664419D01*
X152268419Y-129664419D02*
X152268419Y-128664419D01*
X152887467Y-129664419D02*
X152887467Y-128664419D01*
X152887467Y-128664419D02*
X153268419Y-128664419D01*
X153268419Y-128664419D02*
X153363657Y-128712038D01*
X153363657Y-128712038D02*
X153411276Y-128759657D01*
X153411276Y-128759657D02*
X153458895Y-128854895D01*
X153458895Y-128854895D02*
X153458895Y-128997752D01*
X153458895Y-128997752D02*
X153411276Y-129092990D01*
X153411276Y-129092990D02*
X153363657Y-129140609D01*
X153363657Y-129140609D02*
X153268419Y-129188228D01*
X153268419Y-129188228D02*
X152887467Y-129188228D01*
X153792229Y-128664419D02*
X154458895Y-128664419D01*
X154458895Y-128664419D02*
X154030324Y-129664419D01*
X155030324Y-128664419D02*
X155125562Y-128664419D01*
X155125562Y-128664419D02*
X155220800Y-128712038D01*
X155220800Y-128712038D02*
X155268419Y-128759657D01*
X155268419Y-128759657D02*
X155316038Y-128854895D01*
X155316038Y-128854895D02*
X155363657Y-129045371D01*
X155363657Y-129045371D02*
X155363657Y-129283466D01*
X155363657Y-129283466D02*
X155316038Y-129473942D01*
X155316038Y-129473942D02*
X155268419Y-129569180D01*
X155268419Y-129569180D02*
X155220800Y-129616800D01*
X155220800Y-129616800D02*
X155125562Y-129664419D01*
X155125562Y-129664419D02*
X155030324Y-129664419D01*
X155030324Y-129664419D02*
X154935086Y-129616800D01*
X154935086Y-129616800D02*
X154887467Y-129569180D01*
X154887467Y-129569180D02*
X154839848Y-129473942D01*
X154839848Y-129473942D02*
X154792229Y-129283466D01*
X154792229Y-129283466D02*
X154792229Y-129045371D01*
X154792229Y-129045371D02*
X154839848Y-128854895D01*
X154839848Y-128854895D02*
X154887467Y-128759657D01*
X154887467Y-128759657D02*
X154935086Y-128712038D01*
X154935086Y-128712038D02*
X155030324Y-128664419D01*
X142298895Y-118504419D02*
X142870323Y-118504419D01*
X142584609Y-119504419D02*
X142584609Y-118504419D01*
X143203657Y-119504419D02*
X143203657Y-118504419D01*
X143203657Y-118504419D02*
X143584609Y-118504419D01*
X143584609Y-118504419D02*
X143679847Y-118552038D01*
X143679847Y-118552038D02*
X143727466Y-118599657D01*
X143727466Y-118599657D02*
X143775085Y-118694895D01*
X143775085Y-118694895D02*
X143775085Y-118837752D01*
X143775085Y-118837752D02*
X143727466Y-118932990D01*
X143727466Y-118932990D02*
X143679847Y-118980609D01*
X143679847Y-118980609D02*
X143584609Y-119028228D01*
X143584609Y-119028228D02*
X143203657Y-119028228D01*
X144346514Y-118932990D02*
X144251276Y-118885371D01*
X144251276Y-118885371D02*
X144203657Y-118837752D01*
X144203657Y-118837752D02*
X144156038Y-118742514D01*
X144156038Y-118742514D02*
X144156038Y-118694895D01*
X144156038Y-118694895D02*
X144203657Y-118599657D01*
X144203657Y-118599657D02*
X144251276Y-118552038D01*
X144251276Y-118552038D02*
X144346514Y-118504419D01*
X144346514Y-118504419D02*
X144536990Y-118504419D01*
X144536990Y-118504419D02*
X144632228Y-118552038D01*
X144632228Y-118552038D02*
X144679847Y-118599657D01*
X144679847Y-118599657D02*
X144727466Y-118694895D01*
X144727466Y-118694895D02*
X144727466Y-118742514D01*
X144727466Y-118742514D02*
X144679847Y-118837752D01*
X144679847Y-118837752D02*
X144632228Y-118885371D01*
X144632228Y-118885371D02*
X144536990Y-118932990D01*
X144536990Y-118932990D02*
X144346514Y-118932990D01*
X144346514Y-118932990D02*
X144251276Y-118980609D01*
X144251276Y-118980609D02*
X144203657Y-119028228D01*
X144203657Y-119028228D02*
X144156038Y-119123466D01*
X144156038Y-119123466D02*
X144156038Y-119313942D01*
X144156038Y-119313942D02*
X144203657Y-119409180D01*
X144203657Y-119409180D02*
X144251276Y-119456800D01*
X144251276Y-119456800D02*
X144346514Y-119504419D01*
X144346514Y-119504419D02*
X144536990Y-119504419D01*
X144536990Y-119504419D02*
X144632228Y-119456800D01*
X144632228Y-119456800D02*
X144679847Y-119409180D01*
X144679847Y-119409180D02*
X144727466Y-119313942D01*
X144727466Y-119313942D02*
X144727466Y-119123466D01*
X144727466Y-119123466D02*
X144679847Y-119028228D01*
X144679847Y-119028228D02*
X144632228Y-118980609D01*
X144632228Y-118980609D02*
X144536990Y-118932990D01*
X139790705Y-126632419D02*
X140362133Y-126632419D01*
X140076419Y-127632419D02*
X140076419Y-126632419D01*
X140695467Y-127632419D02*
X140695467Y-126632419D01*
X140695467Y-126632419D02*
X141076419Y-126632419D01*
X141076419Y-126632419D02*
X141171657Y-126680038D01*
X141171657Y-126680038D02*
X141219276Y-126727657D01*
X141219276Y-126727657D02*
X141266895Y-126822895D01*
X141266895Y-126822895D02*
X141266895Y-126965752D01*
X141266895Y-126965752D02*
X141219276Y-127060990D01*
X141219276Y-127060990D02*
X141171657Y-127108609D01*
X141171657Y-127108609D02*
X141076419Y-127156228D01*
X141076419Y-127156228D02*
X140695467Y-127156228D01*
X142124038Y-126965752D02*
X142124038Y-127632419D01*
X141885943Y-126584800D02*
X141647848Y-127299085D01*
X141647848Y-127299085D02*
X142266895Y-127299085D01*
X143171657Y-127632419D02*
X142600229Y-127632419D01*
X142885943Y-127632419D02*
X142885943Y-126632419D01*
X142885943Y-126632419D02*
X142790705Y-126775276D01*
X142790705Y-126775276D02*
X142695467Y-126870514D01*
X142695467Y-126870514D02*
X142600229Y-126918133D01*
X151982705Y-122568419D02*
X152554133Y-122568419D01*
X152268419Y-123568419D02*
X152268419Y-122568419D01*
X152887467Y-123568419D02*
X152887467Y-122568419D01*
X152887467Y-122568419D02*
X153268419Y-122568419D01*
X153268419Y-122568419D02*
X153363657Y-122616038D01*
X153363657Y-122616038D02*
X153411276Y-122663657D01*
X153411276Y-122663657D02*
X153458895Y-122758895D01*
X153458895Y-122758895D02*
X153458895Y-122901752D01*
X153458895Y-122901752D02*
X153411276Y-122996990D01*
X153411276Y-122996990D02*
X153363657Y-123044609D01*
X153363657Y-123044609D02*
X153268419Y-123092228D01*
X153268419Y-123092228D02*
X152887467Y-123092228D01*
X153792229Y-122568419D02*
X154411276Y-122568419D01*
X154411276Y-122568419D02*
X154077943Y-122949371D01*
X154077943Y-122949371D02*
X154220800Y-122949371D01*
X154220800Y-122949371D02*
X154316038Y-122996990D01*
X154316038Y-122996990D02*
X154363657Y-123044609D01*
X154363657Y-123044609D02*
X154411276Y-123139847D01*
X154411276Y-123139847D02*
X154411276Y-123377942D01*
X154411276Y-123377942D02*
X154363657Y-123473180D01*
X154363657Y-123473180D02*
X154316038Y-123520800D01*
X154316038Y-123520800D02*
X154220800Y-123568419D01*
X154220800Y-123568419D02*
X153935086Y-123568419D01*
X153935086Y-123568419D02*
X153839848Y-123520800D01*
X153839848Y-123520800D02*
X153792229Y-123473180D01*
X155363657Y-123568419D02*
X154792229Y-123568419D01*
X155077943Y-123568419D02*
X155077943Y-122568419D01*
X155077943Y-122568419D02*
X154982705Y-122711276D01*
X154982705Y-122711276D02*
X154887467Y-122806514D01*
X154887467Y-122806514D02*
X154792229Y-122854133D01*
X143854705Y-124600419D02*
X144426133Y-124600419D01*
X144140419Y-125600419D02*
X144140419Y-124600419D01*
X144759467Y-125600419D02*
X144759467Y-124600419D01*
X144759467Y-124600419D02*
X145140419Y-124600419D01*
X145140419Y-124600419D02*
X145235657Y-124648038D01*
X145235657Y-124648038D02*
X145283276Y-124695657D01*
X145283276Y-124695657D02*
X145330895Y-124790895D01*
X145330895Y-124790895D02*
X145330895Y-124933752D01*
X145330895Y-124933752D02*
X145283276Y-125028990D01*
X145283276Y-125028990D02*
X145235657Y-125076609D01*
X145235657Y-125076609D02*
X145140419Y-125124228D01*
X145140419Y-125124228D02*
X144759467Y-125124228D01*
X146283276Y-125600419D02*
X145711848Y-125600419D01*
X145997562Y-125600419D02*
X145997562Y-124600419D01*
X145997562Y-124600419D02*
X145902324Y-124743276D01*
X145902324Y-124743276D02*
X145807086Y-124838514D01*
X145807086Y-124838514D02*
X145711848Y-124886133D01*
X147188038Y-124600419D02*
X146711848Y-124600419D01*
X146711848Y-124600419D02*
X146664229Y-125076609D01*
X146664229Y-125076609D02*
X146711848Y-125028990D01*
X146711848Y-125028990D02*
X146807086Y-124981371D01*
X146807086Y-124981371D02*
X147045181Y-124981371D01*
X147045181Y-124981371D02*
X147140419Y-125028990D01*
X147140419Y-125028990D02*
X147188038Y-125076609D01*
X147188038Y-125076609D02*
X147235657Y-125171847D01*
X147235657Y-125171847D02*
X147235657Y-125409942D01*
X147235657Y-125409942D02*
X147188038Y-125505180D01*
X147188038Y-125505180D02*
X147140419Y-125552800D01*
X147140419Y-125552800D02*
X147045181Y-125600419D01*
X147045181Y-125600419D02*
X146807086Y-125600419D01*
X146807086Y-125600419D02*
X146711848Y-125552800D01*
X146711848Y-125552800D02*
X146664229Y-125505180D01*
X149950705Y-130696419D02*
X150522133Y-130696419D01*
X150236419Y-131696419D02*
X150236419Y-130696419D01*
X150855467Y-131696419D02*
X150855467Y-130696419D01*
X150855467Y-130696419D02*
X151236419Y-130696419D01*
X151236419Y-130696419D02*
X151331657Y-130744038D01*
X151331657Y-130744038D02*
X151379276Y-130791657D01*
X151379276Y-130791657D02*
X151426895Y-130886895D01*
X151426895Y-130886895D02*
X151426895Y-131029752D01*
X151426895Y-131029752D02*
X151379276Y-131124990D01*
X151379276Y-131124990D02*
X151331657Y-131172609D01*
X151331657Y-131172609D02*
X151236419Y-131220228D01*
X151236419Y-131220228D02*
X150855467Y-131220228D01*
X152284038Y-131029752D02*
X152284038Y-131696419D01*
X152045943Y-130648800D02*
X151807848Y-131363085D01*
X151807848Y-131363085D02*
X152426895Y-131363085D01*
X152855467Y-131696419D02*
X153045943Y-131696419D01*
X153045943Y-131696419D02*
X153141181Y-131648800D01*
X153141181Y-131648800D02*
X153188800Y-131601180D01*
X153188800Y-131601180D02*
X153284038Y-131458323D01*
X153284038Y-131458323D02*
X153331657Y-131267847D01*
X153331657Y-131267847D02*
X153331657Y-130886895D01*
X153331657Y-130886895D02*
X153284038Y-130791657D01*
X153284038Y-130791657D02*
X153236419Y-130744038D01*
X153236419Y-130744038D02*
X153141181Y-130696419D01*
X153141181Y-130696419D02*
X152950705Y-130696419D01*
X152950705Y-130696419D02*
X152855467Y-130744038D01*
X152855467Y-130744038D02*
X152807848Y-130791657D01*
X152807848Y-130791657D02*
X152760229Y-130886895D01*
X152760229Y-130886895D02*
X152760229Y-131124990D01*
X152760229Y-131124990D02*
X152807848Y-131220228D01*
X152807848Y-131220228D02*
X152855467Y-131267847D01*
X152855467Y-131267847D02*
X152950705Y-131315466D01*
X152950705Y-131315466D02*
X153141181Y-131315466D01*
X153141181Y-131315466D02*
X153236419Y-131267847D01*
X153236419Y-131267847D02*
X153284038Y-131220228D01*
X153284038Y-131220228D02*
X153331657Y-131124990D01*
X143854705Y-128664419D02*
X144426133Y-128664419D01*
X144140419Y-129664419D02*
X144140419Y-128664419D01*
X144759467Y-129664419D02*
X144759467Y-128664419D01*
X144759467Y-128664419D02*
X145140419Y-128664419D01*
X145140419Y-128664419D02*
X145235657Y-128712038D01*
X145235657Y-128712038D02*
X145283276Y-128759657D01*
X145283276Y-128759657D02*
X145330895Y-128854895D01*
X145330895Y-128854895D02*
X145330895Y-128997752D01*
X145330895Y-128997752D02*
X145283276Y-129092990D01*
X145283276Y-129092990D02*
X145235657Y-129140609D01*
X145235657Y-129140609D02*
X145140419Y-129188228D01*
X145140419Y-129188228D02*
X144759467Y-129188228D01*
X146235657Y-128664419D02*
X145759467Y-128664419D01*
X145759467Y-128664419D02*
X145711848Y-129140609D01*
X145711848Y-129140609D02*
X145759467Y-129092990D01*
X145759467Y-129092990D02*
X145854705Y-129045371D01*
X145854705Y-129045371D02*
X146092800Y-129045371D01*
X146092800Y-129045371D02*
X146188038Y-129092990D01*
X146188038Y-129092990D02*
X146235657Y-129140609D01*
X146235657Y-129140609D02*
X146283276Y-129235847D01*
X146283276Y-129235847D02*
X146283276Y-129473942D01*
X146283276Y-129473942D02*
X146235657Y-129569180D01*
X146235657Y-129569180D02*
X146188038Y-129616800D01*
X146188038Y-129616800D02*
X146092800Y-129664419D01*
X146092800Y-129664419D02*
X145854705Y-129664419D01*
X145854705Y-129664419D02*
X145759467Y-129616800D01*
X145759467Y-129616800D02*
X145711848Y-129569180D01*
X146902324Y-128664419D02*
X146997562Y-128664419D01*
X146997562Y-128664419D02*
X147092800Y-128712038D01*
X147092800Y-128712038D02*
X147140419Y-128759657D01*
X147140419Y-128759657D02*
X147188038Y-128854895D01*
X147188038Y-128854895D02*
X147235657Y-129045371D01*
X147235657Y-129045371D02*
X147235657Y-129283466D01*
X147235657Y-129283466D02*
X147188038Y-129473942D01*
X147188038Y-129473942D02*
X147140419Y-129569180D01*
X147140419Y-129569180D02*
X147092800Y-129616800D01*
X147092800Y-129616800D02*
X146997562Y-129664419D01*
X146997562Y-129664419D02*
X146902324Y-129664419D01*
X146902324Y-129664419D02*
X146807086Y-129616800D01*
X146807086Y-129616800D02*
X146759467Y-129569180D01*
X146759467Y-129569180D02*
X146711848Y-129473942D01*
X146711848Y-129473942D02*
X146664229Y-129283466D01*
X146664229Y-129283466D02*
X146664229Y-129045371D01*
X146664229Y-129045371D02*
X146711848Y-128854895D01*
X146711848Y-128854895D02*
X146759467Y-128759657D01*
X146759467Y-128759657D02*
X146807086Y-128712038D01*
X146807086Y-128712038D02*
X146902324Y-128664419D01*
X154014705Y-128664419D02*
X154586133Y-128664419D01*
X154300419Y-129664419D02*
X154300419Y-128664419D01*
X154919467Y-129664419D02*
X154919467Y-128664419D01*
X154919467Y-128664419D02*
X155300419Y-128664419D01*
X155300419Y-128664419D02*
X155395657Y-128712038D01*
X155395657Y-128712038D02*
X155443276Y-128759657D01*
X155443276Y-128759657D02*
X155490895Y-128854895D01*
X155490895Y-128854895D02*
X155490895Y-128997752D01*
X155490895Y-128997752D02*
X155443276Y-129092990D01*
X155443276Y-129092990D02*
X155395657Y-129140609D01*
X155395657Y-129140609D02*
X155300419Y-129188228D01*
X155300419Y-129188228D02*
X154919467Y-129188228D01*
X155824229Y-128664419D02*
X156490895Y-128664419D01*
X156490895Y-128664419D02*
X156062324Y-129664419D01*
X157348038Y-128664419D02*
X156871848Y-128664419D01*
X156871848Y-128664419D02*
X156824229Y-129140609D01*
X156824229Y-129140609D02*
X156871848Y-129092990D01*
X156871848Y-129092990D02*
X156967086Y-129045371D01*
X156967086Y-129045371D02*
X157205181Y-129045371D01*
X157205181Y-129045371D02*
X157300419Y-129092990D01*
X157300419Y-129092990D02*
X157348038Y-129140609D01*
X157348038Y-129140609D02*
X157395657Y-129235847D01*
X157395657Y-129235847D02*
X157395657Y-129473942D01*
X157395657Y-129473942D02*
X157348038Y-129569180D01*
X157348038Y-129569180D02*
X157300419Y-129616800D01*
X157300419Y-129616800D02*
X157205181Y-129664419D01*
X157205181Y-129664419D02*
X156967086Y-129664419D01*
X156967086Y-129664419D02*
X156871848Y-129616800D01*
X156871848Y-129616800D02*
X156824229Y-129569180D01*
X147918705Y-132728419D02*
X148490133Y-132728419D01*
X148204419Y-133728419D02*
X148204419Y-132728419D01*
X148823467Y-133728419D02*
X148823467Y-132728419D01*
X148823467Y-132728419D02*
X149204419Y-132728419D01*
X149204419Y-132728419D02*
X149299657Y-132776038D01*
X149299657Y-132776038D02*
X149347276Y-132823657D01*
X149347276Y-132823657D02*
X149394895Y-132918895D01*
X149394895Y-132918895D02*
X149394895Y-133061752D01*
X149394895Y-133061752D02*
X149347276Y-133156990D01*
X149347276Y-133156990D02*
X149299657Y-133204609D01*
X149299657Y-133204609D02*
X149204419Y-133252228D01*
X149204419Y-133252228D02*
X148823467Y-133252228D01*
X150299657Y-132728419D02*
X149823467Y-132728419D01*
X149823467Y-132728419D02*
X149775848Y-133204609D01*
X149775848Y-133204609D02*
X149823467Y-133156990D01*
X149823467Y-133156990D02*
X149918705Y-133109371D01*
X149918705Y-133109371D02*
X150156800Y-133109371D01*
X150156800Y-133109371D02*
X150252038Y-133156990D01*
X150252038Y-133156990D02*
X150299657Y-133204609D01*
X150299657Y-133204609D02*
X150347276Y-133299847D01*
X150347276Y-133299847D02*
X150347276Y-133537942D01*
X150347276Y-133537942D02*
X150299657Y-133633180D01*
X150299657Y-133633180D02*
X150252038Y-133680800D01*
X150252038Y-133680800D02*
X150156800Y-133728419D01*
X150156800Y-133728419D02*
X149918705Y-133728419D01*
X149918705Y-133728419D02*
X149823467Y-133680800D01*
X149823467Y-133680800D02*
X149775848Y-133633180D01*
X150680610Y-132728419D02*
X151299657Y-132728419D01*
X151299657Y-132728419D02*
X150966324Y-133109371D01*
X150966324Y-133109371D02*
X151109181Y-133109371D01*
X151109181Y-133109371D02*
X151204419Y-133156990D01*
X151204419Y-133156990D02*
X151252038Y-133204609D01*
X151252038Y-133204609D02*
X151299657Y-133299847D01*
X151299657Y-133299847D02*
X151299657Y-133537942D01*
X151299657Y-133537942D02*
X151252038Y-133633180D01*
X151252038Y-133633180D02*
X151204419Y-133680800D01*
X151204419Y-133680800D02*
X151109181Y-133728419D01*
X151109181Y-133728419D02*
X150823467Y-133728419D01*
X150823467Y-133728419D02*
X150728229Y-133680800D01*
X150728229Y-133680800D02*
X150680610Y-133633180D01*
X151982705Y-118504419D02*
X152554133Y-118504419D01*
X152268419Y-119504419D02*
X152268419Y-118504419D01*
X152887467Y-119504419D02*
X152887467Y-118504419D01*
X152887467Y-118504419D02*
X153268419Y-118504419D01*
X153268419Y-118504419D02*
X153363657Y-118552038D01*
X153363657Y-118552038D02*
X153411276Y-118599657D01*
X153411276Y-118599657D02*
X153458895Y-118694895D01*
X153458895Y-118694895D02*
X153458895Y-118837752D01*
X153458895Y-118837752D02*
X153411276Y-118932990D01*
X153411276Y-118932990D02*
X153363657Y-118980609D01*
X153363657Y-118980609D02*
X153268419Y-119028228D01*
X153268419Y-119028228D02*
X152887467Y-119028228D01*
X153839848Y-118599657D02*
X153887467Y-118552038D01*
X153887467Y-118552038D02*
X153982705Y-118504419D01*
X153982705Y-118504419D02*
X154220800Y-118504419D01*
X154220800Y-118504419D02*
X154316038Y-118552038D01*
X154316038Y-118552038D02*
X154363657Y-118599657D01*
X154363657Y-118599657D02*
X154411276Y-118694895D01*
X154411276Y-118694895D02*
X154411276Y-118790133D01*
X154411276Y-118790133D02*
X154363657Y-118932990D01*
X154363657Y-118932990D02*
X153792229Y-119504419D01*
X153792229Y-119504419D02*
X154411276Y-119504419D01*
X154887467Y-119504419D02*
X155077943Y-119504419D01*
X155077943Y-119504419D02*
X155173181Y-119456800D01*
X155173181Y-119456800D02*
X155220800Y-119409180D01*
X155220800Y-119409180D02*
X155316038Y-119266323D01*
X155316038Y-119266323D02*
X155363657Y-119075847D01*
X155363657Y-119075847D02*
X155363657Y-118694895D01*
X155363657Y-118694895D02*
X155316038Y-118599657D01*
X155316038Y-118599657D02*
X155268419Y-118552038D01*
X155268419Y-118552038D02*
X155173181Y-118504419D01*
X155173181Y-118504419D02*
X154982705Y-118504419D01*
X154982705Y-118504419D02*
X154887467Y-118552038D01*
X154887467Y-118552038D02*
X154839848Y-118599657D01*
X154839848Y-118599657D02*
X154792229Y-118694895D01*
X154792229Y-118694895D02*
X154792229Y-118932990D01*
X154792229Y-118932990D02*
X154839848Y-119028228D01*
X154839848Y-119028228D02*
X154887467Y-119075847D01*
X154887467Y-119075847D02*
X154982705Y-119123466D01*
X154982705Y-119123466D02*
X155173181Y-119123466D01*
X155173181Y-119123466D02*
X155268419Y-119075847D01*
X155268419Y-119075847D02*
X155316038Y-119028228D01*
X155316038Y-119028228D02*
X155363657Y-118932990D01*
X145886705Y-124600419D02*
X146458133Y-124600419D01*
X146172419Y-125600419D02*
X146172419Y-124600419D01*
X146791467Y-125600419D02*
X146791467Y-124600419D01*
X146791467Y-124600419D02*
X147172419Y-124600419D01*
X147172419Y-124600419D02*
X147267657Y-124648038D01*
X147267657Y-124648038D02*
X147315276Y-124695657D01*
X147315276Y-124695657D02*
X147362895Y-124790895D01*
X147362895Y-124790895D02*
X147362895Y-124933752D01*
X147362895Y-124933752D02*
X147315276Y-125028990D01*
X147315276Y-125028990D02*
X147267657Y-125076609D01*
X147267657Y-125076609D02*
X147172419Y-125124228D01*
X147172419Y-125124228D02*
X146791467Y-125124228D01*
X148315276Y-125600419D02*
X147743848Y-125600419D01*
X148029562Y-125600419D02*
X148029562Y-124600419D01*
X148029562Y-124600419D02*
X147934324Y-124743276D01*
X147934324Y-124743276D02*
X147839086Y-124838514D01*
X147839086Y-124838514D02*
X147743848Y-124886133D01*
X148791467Y-125600419D02*
X148981943Y-125600419D01*
X148981943Y-125600419D02*
X149077181Y-125552800D01*
X149077181Y-125552800D02*
X149124800Y-125505180D01*
X149124800Y-125505180D02*
X149220038Y-125362323D01*
X149220038Y-125362323D02*
X149267657Y-125171847D01*
X149267657Y-125171847D02*
X149267657Y-124790895D01*
X149267657Y-124790895D02*
X149220038Y-124695657D01*
X149220038Y-124695657D02*
X149172419Y-124648038D01*
X149172419Y-124648038D02*
X149077181Y-124600419D01*
X149077181Y-124600419D02*
X148886705Y-124600419D01*
X148886705Y-124600419D02*
X148791467Y-124648038D01*
X148791467Y-124648038D02*
X148743848Y-124695657D01*
X148743848Y-124695657D02*
X148696229Y-124790895D01*
X148696229Y-124790895D02*
X148696229Y-125028990D01*
X148696229Y-125028990D02*
X148743848Y-125124228D01*
X148743848Y-125124228D02*
X148791467Y-125171847D01*
X148791467Y-125171847D02*
X148886705Y-125219466D01*
X148886705Y-125219466D02*
X149077181Y-125219466D01*
X149077181Y-125219466D02*
X149172419Y-125171847D01*
X149172419Y-125171847D02*
X149220038Y-125124228D01*
X149220038Y-125124228D02*
X149267657Y-125028990D01*
X138451619Y-82767466D02*
X137975428Y-83100799D01*
X138451619Y-83338894D02*
X137451619Y-83338894D01*
X137451619Y-83338894D02*
X137451619Y-82957942D01*
X137451619Y-82957942D02*
X137499238Y-82862704D01*
X137499238Y-82862704D02*
X137546857Y-82815085D01*
X137546857Y-82815085D02*
X137642095Y-82767466D01*
X137642095Y-82767466D02*
X137784952Y-82767466D01*
X137784952Y-82767466D02*
X137880190Y-82815085D01*
X137880190Y-82815085D02*
X137927809Y-82862704D01*
X137927809Y-82862704D02*
X137975428Y-82957942D01*
X137975428Y-82957942D02*
X137975428Y-83338894D01*
X137451619Y-81862704D02*
X137451619Y-82338894D01*
X137451619Y-82338894D02*
X137927809Y-82386513D01*
X137927809Y-82386513D02*
X137880190Y-82338894D01*
X137880190Y-82338894D02*
X137832571Y-82243656D01*
X137832571Y-82243656D02*
X137832571Y-82005561D01*
X137832571Y-82005561D02*
X137880190Y-81910323D01*
X137880190Y-81910323D02*
X137927809Y-81862704D01*
X137927809Y-81862704D02*
X138023047Y-81815085D01*
X138023047Y-81815085D02*
X138261142Y-81815085D01*
X138261142Y-81815085D02*
X138356380Y-81862704D01*
X138356380Y-81862704D02*
X138404000Y-81910323D01*
X138404000Y-81910323D02*
X138451619Y-82005561D01*
X138451619Y-82005561D02*
X138451619Y-82243656D01*
X138451619Y-82243656D02*
X138404000Y-82338894D01*
X138404000Y-82338894D02*
X138356380Y-82386513D01*
X159889219Y-79617866D02*
X159413028Y-79951199D01*
X159889219Y-80189294D02*
X158889219Y-80189294D01*
X158889219Y-80189294D02*
X158889219Y-79808342D01*
X158889219Y-79808342D02*
X158936838Y-79713104D01*
X158936838Y-79713104D02*
X158984457Y-79665485D01*
X158984457Y-79665485D02*
X159079695Y-79617866D01*
X159079695Y-79617866D02*
X159222552Y-79617866D01*
X159222552Y-79617866D02*
X159317790Y-79665485D01*
X159317790Y-79665485D02*
X159365409Y-79713104D01*
X159365409Y-79713104D02*
X159413028Y-79808342D01*
X159413028Y-79808342D02*
X159413028Y-80189294D01*
X159222552Y-78760723D02*
X159889219Y-78760723D01*
X158841600Y-78998818D02*
X159555885Y-79236913D01*
X159555885Y-79236913D02*
X159555885Y-78617866D01*
X139985580Y-85815466D02*
X140033200Y-85863085D01*
X140033200Y-85863085D02*
X140080819Y-86005942D01*
X140080819Y-86005942D02*
X140080819Y-86101180D01*
X140080819Y-86101180D02*
X140033200Y-86244037D01*
X140033200Y-86244037D02*
X139937961Y-86339275D01*
X139937961Y-86339275D02*
X139842723Y-86386894D01*
X139842723Y-86386894D02*
X139652247Y-86434513D01*
X139652247Y-86434513D02*
X139509390Y-86434513D01*
X139509390Y-86434513D02*
X139318914Y-86386894D01*
X139318914Y-86386894D02*
X139223676Y-86339275D01*
X139223676Y-86339275D02*
X139128438Y-86244037D01*
X139128438Y-86244037D02*
X139080819Y-86101180D01*
X139080819Y-86101180D02*
X139080819Y-86005942D01*
X139080819Y-86005942D02*
X139128438Y-85863085D01*
X139128438Y-85863085D02*
X139176057Y-85815466D01*
X139414152Y-84958323D02*
X140080819Y-84958323D01*
X139033200Y-85196418D02*
X139747485Y-85434513D01*
X139747485Y-85434513D02*
X139747485Y-84815466D01*
X162337580Y-73064666D02*
X162385200Y-73112285D01*
X162385200Y-73112285D02*
X162432819Y-73255142D01*
X162432819Y-73255142D02*
X162432819Y-73350380D01*
X162432819Y-73350380D02*
X162385200Y-73493237D01*
X162385200Y-73493237D02*
X162289961Y-73588475D01*
X162289961Y-73588475D02*
X162194723Y-73636094D01*
X162194723Y-73636094D02*
X162004247Y-73683713D01*
X162004247Y-73683713D02*
X161861390Y-73683713D01*
X161861390Y-73683713D02*
X161670914Y-73636094D01*
X161670914Y-73636094D02*
X161575676Y-73588475D01*
X161575676Y-73588475D02*
X161480438Y-73493237D01*
X161480438Y-73493237D02*
X161432819Y-73350380D01*
X161432819Y-73350380D02*
X161432819Y-73255142D01*
X161432819Y-73255142D02*
X161480438Y-73112285D01*
X161480438Y-73112285D02*
X161528057Y-73064666D01*
X161432819Y-72731332D02*
X161432819Y-72112285D01*
X161432819Y-72112285D02*
X161813771Y-72445618D01*
X161813771Y-72445618D02*
X161813771Y-72302761D01*
X161813771Y-72302761D02*
X161861390Y-72207523D01*
X161861390Y-72207523D02*
X161909009Y-72159904D01*
X161909009Y-72159904D02*
X162004247Y-72112285D01*
X162004247Y-72112285D02*
X162242342Y-72112285D01*
X162242342Y-72112285D02*
X162337580Y-72159904D01*
X162337580Y-72159904D02*
X162385200Y-72207523D01*
X162385200Y-72207523D02*
X162432819Y-72302761D01*
X162432819Y-72302761D02*
X162432819Y-72588475D01*
X162432819Y-72588475D02*
X162385200Y-72683713D01*
X162385200Y-72683713D02*
X162337580Y-72731332D01*
X156587866Y-59992791D02*
X156587866Y-60707076D01*
X156587866Y-60707076D02*
X156540247Y-60849933D01*
X156540247Y-60849933D02*
X156445009Y-60945172D01*
X156445009Y-60945172D02*
X156302152Y-60992791D01*
X156302152Y-60992791D02*
X156206914Y-60992791D01*
X157587866Y-60992791D02*
X157016438Y-60992791D01*
X157302152Y-60992791D02*
X157302152Y-59992791D01*
X157302152Y-59992791D02*
X157206914Y-60135648D01*
X157206914Y-60135648D02*
X157111676Y-60230886D01*
X157111676Y-60230886D02*
X157016438Y-60278505D01*
X139955805Y-66346319D02*
X139955805Y-67155842D01*
X139955805Y-67155842D02*
X140003424Y-67251080D01*
X140003424Y-67251080D02*
X140051043Y-67298700D01*
X140051043Y-67298700D02*
X140146281Y-67346319D01*
X140146281Y-67346319D02*
X140336757Y-67346319D01*
X140336757Y-67346319D02*
X140431995Y-67298700D01*
X140431995Y-67298700D02*
X140479614Y-67251080D01*
X140479614Y-67251080D02*
X140527233Y-67155842D01*
X140527233Y-67155842D02*
X140527233Y-66346319D01*
X140955805Y-67298700D02*
X141098662Y-67346319D01*
X141098662Y-67346319D02*
X141336757Y-67346319D01*
X141336757Y-67346319D02*
X141431995Y-67298700D01*
X141431995Y-67298700D02*
X141479614Y-67251080D01*
X141479614Y-67251080D02*
X141527233Y-67155842D01*
X141527233Y-67155842D02*
X141527233Y-67060604D01*
X141527233Y-67060604D02*
X141479614Y-66965366D01*
X141479614Y-66965366D02*
X141431995Y-66917747D01*
X141431995Y-66917747D02*
X141336757Y-66870128D01*
X141336757Y-66870128D02*
X141146281Y-66822509D01*
X141146281Y-66822509D02*
X141051043Y-66774890D01*
X141051043Y-66774890D02*
X141003424Y-66727271D01*
X141003424Y-66727271D02*
X140955805Y-66632033D01*
X140955805Y-66632033D02*
X140955805Y-66536795D01*
X140955805Y-66536795D02*
X141003424Y-66441557D01*
X141003424Y-66441557D02*
X141051043Y-66393938D01*
X141051043Y-66393938D02*
X141146281Y-66346319D01*
X141146281Y-66346319D02*
X141384376Y-66346319D01*
X141384376Y-66346319D02*
X141527233Y-66393938D01*
X142289138Y-66822509D02*
X142431995Y-66870128D01*
X142431995Y-66870128D02*
X142479614Y-66917747D01*
X142479614Y-66917747D02*
X142527233Y-67012985D01*
X142527233Y-67012985D02*
X142527233Y-67155842D01*
X142527233Y-67155842D02*
X142479614Y-67251080D01*
X142479614Y-67251080D02*
X142431995Y-67298700D01*
X142431995Y-67298700D02*
X142336757Y-67346319D01*
X142336757Y-67346319D02*
X141955805Y-67346319D01*
X141955805Y-67346319D02*
X141955805Y-66346319D01*
X141955805Y-66346319D02*
X142289138Y-66346319D01*
X142289138Y-66346319D02*
X142384376Y-66393938D01*
X142384376Y-66393938D02*
X142431995Y-66441557D01*
X142431995Y-66441557D02*
X142479614Y-66536795D01*
X142479614Y-66536795D02*
X142479614Y-66632033D01*
X142479614Y-66632033D02*
X142431995Y-66727271D01*
X142431995Y-66727271D02*
X142384376Y-66774890D01*
X142384376Y-66774890D02*
X142289138Y-66822509D01*
X142289138Y-66822509D02*
X141955805Y-66822509D01*
X143479614Y-67346319D02*
X142908186Y-67346319D01*
X143193900Y-67346319D02*
X143193900Y-66346319D01*
X143193900Y-66346319D02*
X143098662Y-66489176D01*
X143098662Y-66489176D02*
X143003424Y-66584414D01*
X143003424Y-66584414D02*
X142908186Y-66632033D01*
D12*
X150503466Y-74599385D02*
X150503466Y-75319052D01*
X150503466Y-75319052D02*
X150545800Y-75403718D01*
X150545800Y-75403718D02*
X150588133Y-75446052D01*
X150588133Y-75446052D02*
X150672800Y-75488385D01*
X150672800Y-75488385D02*
X150842133Y-75488385D01*
X150842133Y-75488385D02*
X150926800Y-75446052D01*
X150926800Y-75446052D02*
X150969133Y-75403718D01*
X150969133Y-75403718D02*
X151011466Y-75319052D01*
X151011466Y-75319052D02*
X151011466Y-74599385D01*
X151392466Y-74684052D02*
X151434799Y-74641718D01*
X151434799Y-74641718D02*
X151519466Y-74599385D01*
X151519466Y-74599385D02*
X151731133Y-74599385D01*
X151731133Y-74599385D02*
X151815799Y-74641718D01*
X151815799Y-74641718D02*
X151858133Y-74684052D01*
X151858133Y-74684052D02*
X151900466Y-74768718D01*
X151900466Y-74768718D02*
X151900466Y-74853385D01*
X151900466Y-74853385D02*
X151858133Y-74980385D01*
X151858133Y-74980385D02*
X151350133Y-75488385D01*
X151350133Y-75488385D02*
X151900466Y-75488385D01*
X154347050Y-73206738D02*
X155066717Y-73206738D01*
X155066717Y-73206738D02*
X155151383Y-73164405D01*
X155151383Y-73164405D02*
X155193717Y-73122071D01*
X155193717Y-73122071D02*
X155236050Y-73037405D01*
X155236050Y-73037405D02*
X155236050Y-72868071D01*
X155236050Y-72868071D02*
X155193717Y-72783405D01*
X155193717Y-72783405D02*
X155151383Y-72741071D01*
X155151383Y-72741071D02*
X155066717Y-72698738D01*
X155066717Y-72698738D02*
X154347050Y-72698738D01*
X154347050Y-72360072D02*
X154347050Y-71809738D01*
X154347050Y-71809738D02*
X154685717Y-72106072D01*
X154685717Y-72106072D02*
X154685717Y-71979072D01*
X154685717Y-71979072D02*
X154728050Y-71894405D01*
X154728050Y-71894405D02*
X154770383Y-71852072D01*
X154770383Y-71852072D02*
X154855050Y-71809738D01*
X154855050Y-71809738D02*
X155066717Y-71809738D01*
X155066717Y-71809738D02*
X155151383Y-71852072D01*
X155151383Y-71852072D02*
X155193717Y-71894405D01*
X155193717Y-71894405D02*
X155236050Y-71979072D01*
X155236050Y-71979072D02*
X155236050Y-72233072D01*
X155236050Y-72233072D02*
X155193717Y-72317738D01*
X155193717Y-72317738D02*
X155151383Y-72360072D01*
D10*
X147520819Y-73483694D02*
X146520819Y-73483694D01*
X146520819Y-73483694D02*
X146520819Y-73245599D01*
X146520819Y-73245599D02*
X146568438Y-73102742D01*
X146568438Y-73102742D02*
X146663676Y-73007504D01*
X146663676Y-73007504D02*
X146758914Y-72959885D01*
X146758914Y-72959885D02*
X146949390Y-72912266D01*
X146949390Y-72912266D02*
X147092247Y-72912266D01*
X147092247Y-72912266D02*
X147282723Y-72959885D01*
X147282723Y-72959885D02*
X147377961Y-73007504D01*
X147377961Y-73007504D02*
X147473200Y-73102742D01*
X147473200Y-73102742D02*
X147520819Y-73245599D01*
X147520819Y-73245599D02*
X147520819Y-73483694D01*
X146520819Y-72578932D02*
X146520819Y-71959885D01*
X146520819Y-71959885D02*
X146901771Y-72293218D01*
X146901771Y-72293218D02*
X146901771Y-72150361D01*
X146901771Y-72150361D02*
X146949390Y-72055123D01*
X146949390Y-72055123D02*
X146997009Y-72007504D01*
X146997009Y-72007504D02*
X147092247Y-71959885D01*
X147092247Y-71959885D02*
X147330342Y-71959885D01*
X147330342Y-71959885D02*
X147425580Y-72007504D01*
X147425580Y-72007504D02*
X147473200Y-72055123D01*
X147473200Y-72055123D02*
X147520819Y-72150361D01*
X147520819Y-72150361D02*
X147520819Y-72436075D01*
X147520819Y-72436075D02*
X147473200Y-72531313D01*
X147473200Y-72531313D02*
X147425580Y-72578932D01*
X144066419Y-73483694D02*
X143066419Y-73483694D01*
X143066419Y-73483694D02*
X143066419Y-73245599D01*
X143066419Y-73245599D02*
X143114038Y-73102742D01*
X143114038Y-73102742D02*
X143209276Y-73007504D01*
X143209276Y-73007504D02*
X143304514Y-72959885D01*
X143304514Y-72959885D02*
X143494990Y-72912266D01*
X143494990Y-72912266D02*
X143637847Y-72912266D01*
X143637847Y-72912266D02*
X143828323Y-72959885D01*
X143828323Y-72959885D02*
X143923561Y-73007504D01*
X143923561Y-73007504D02*
X144018800Y-73102742D01*
X144018800Y-73102742D02*
X144066419Y-73245599D01*
X144066419Y-73245599D02*
X144066419Y-73483694D01*
X143161657Y-72531313D02*
X143114038Y-72483694D01*
X143114038Y-72483694D02*
X143066419Y-72388456D01*
X143066419Y-72388456D02*
X143066419Y-72150361D01*
X143066419Y-72150361D02*
X143114038Y-72055123D01*
X143114038Y-72055123D02*
X143161657Y-72007504D01*
X143161657Y-72007504D02*
X143256895Y-71959885D01*
X143256895Y-71959885D02*
X143352133Y-71959885D01*
X143352133Y-71959885D02*
X143494990Y-72007504D01*
X143494990Y-72007504D02*
X144066419Y-72578932D01*
X144066419Y-72578932D02*
X144066419Y-71959885D01*
X140612019Y-73483694D02*
X139612019Y-73483694D01*
X139612019Y-73483694D02*
X139612019Y-73245599D01*
X139612019Y-73245599D02*
X139659638Y-73102742D01*
X139659638Y-73102742D02*
X139754876Y-73007504D01*
X139754876Y-73007504D02*
X139850114Y-72959885D01*
X139850114Y-72959885D02*
X140040590Y-72912266D01*
X140040590Y-72912266D02*
X140183447Y-72912266D01*
X140183447Y-72912266D02*
X140373923Y-72959885D01*
X140373923Y-72959885D02*
X140469161Y-73007504D01*
X140469161Y-73007504D02*
X140564400Y-73102742D01*
X140564400Y-73102742D02*
X140612019Y-73245599D01*
X140612019Y-73245599D02*
X140612019Y-73483694D01*
X140612019Y-71959885D02*
X140612019Y-72531313D01*
X140612019Y-72245599D02*
X139612019Y-72245599D01*
X139612019Y-72245599D02*
X139754876Y-72340837D01*
X139754876Y-72340837D02*
X139850114Y-72436075D01*
X139850114Y-72436075D02*
X139897733Y-72531313D01*
X145730933Y-70636419D02*
X145397600Y-70160228D01*
X145159505Y-70636419D02*
X145159505Y-69636419D01*
X145159505Y-69636419D02*
X145540457Y-69636419D01*
X145540457Y-69636419D02*
X145635695Y-69684038D01*
X145635695Y-69684038D02*
X145683314Y-69731657D01*
X145683314Y-69731657D02*
X145730933Y-69826895D01*
X145730933Y-69826895D02*
X145730933Y-69969752D01*
X145730933Y-69969752D02*
X145683314Y-70064990D01*
X145683314Y-70064990D02*
X145635695Y-70112609D01*
X145635695Y-70112609D02*
X145540457Y-70160228D01*
X145540457Y-70160228D02*
X145159505Y-70160228D01*
X146064267Y-69636419D02*
X146683314Y-69636419D01*
X146683314Y-69636419D02*
X146349981Y-70017371D01*
X146349981Y-70017371D02*
X146492838Y-70017371D01*
X146492838Y-70017371D02*
X146588076Y-70064990D01*
X146588076Y-70064990D02*
X146635695Y-70112609D01*
X146635695Y-70112609D02*
X146683314Y-70207847D01*
X146683314Y-70207847D02*
X146683314Y-70445942D01*
X146683314Y-70445942D02*
X146635695Y-70541180D01*
X146635695Y-70541180D02*
X146588076Y-70588800D01*
X146588076Y-70588800D02*
X146492838Y-70636419D01*
X146492838Y-70636419D02*
X146207124Y-70636419D01*
X146207124Y-70636419D02*
X146111886Y-70588800D01*
X146111886Y-70588800D02*
X146064267Y-70541180D01*
X145832533Y-72160419D02*
X145499200Y-71684228D01*
X145261105Y-72160419D02*
X145261105Y-71160419D01*
X145261105Y-71160419D02*
X145642057Y-71160419D01*
X145642057Y-71160419D02*
X145737295Y-71208038D01*
X145737295Y-71208038D02*
X145784914Y-71255657D01*
X145784914Y-71255657D02*
X145832533Y-71350895D01*
X145832533Y-71350895D02*
X145832533Y-71493752D01*
X145832533Y-71493752D02*
X145784914Y-71588990D01*
X145784914Y-71588990D02*
X145737295Y-71636609D01*
X145737295Y-71636609D02*
X145642057Y-71684228D01*
X145642057Y-71684228D02*
X145261105Y-71684228D01*
X146213486Y-71255657D02*
X146261105Y-71208038D01*
X146261105Y-71208038D02*
X146356343Y-71160419D01*
X146356343Y-71160419D02*
X146594438Y-71160419D01*
X146594438Y-71160419D02*
X146689676Y-71208038D01*
X146689676Y-71208038D02*
X146737295Y-71255657D01*
X146737295Y-71255657D02*
X146784914Y-71350895D01*
X146784914Y-71350895D02*
X146784914Y-71446133D01*
X146784914Y-71446133D02*
X146737295Y-71588990D01*
X146737295Y-71588990D02*
X146165867Y-72160419D01*
X146165867Y-72160419D02*
X146784914Y-72160419D01*
D13*
X155506822Y-74644199D02*
X154236822Y-74644199D01*
X155506822Y-71850199D02*
X155506822Y-74644199D01*
X154236822Y-71850199D02*
X155506822Y-71850199D01*
X154236822Y-74644199D02*
X154236822Y-71850199D01*
X144145000Y-77190600D02*
X144145000Y-75412600D01*
X144145000Y-75412600D02*
X147447000Y-75412600D01*
X147447000Y-75412600D02*
X147447000Y-77190600D01*
X147447000Y-77190600D02*
X144145000Y-77190600D01*
D14*
X141822900Y-81270800D02*
X140532900Y-81270800D01*
X156042900Y-94790800D02*
X156042900Y-94090800D01*
X155342900Y-94790800D02*
X156042900Y-94790800D01*
X141822900Y-94790800D02*
X141822900Y-94090800D01*
X142522900Y-94790800D02*
X141822900Y-94790800D01*
X156042900Y-80570800D02*
X156042900Y-81270800D01*
X155342900Y-80570800D02*
X156042900Y-80570800D01*
X141822900Y-80570800D02*
X141822900Y-81270800D01*
X142522900Y-80570800D02*
X141822900Y-80570800D01*
X144892800Y-117765600D02*
X146292800Y-117765600D01*
X146292800Y-117765600D02*
X146292800Y-119165600D01*
X146292800Y-119165600D02*
X144892800Y-119165600D01*
X144892800Y-119165600D02*
X144892800Y-117765600D01*
X148956800Y-117765600D02*
X150356800Y-117765600D01*
X150356800Y-117765600D02*
X150356800Y-119165600D01*
X150356800Y-119165600D02*
X148956800Y-119165600D01*
X148956800Y-119165600D02*
X148956800Y-117765600D01*
X146924800Y-117765600D02*
X148324800Y-117765600D01*
X148324800Y-117765600D02*
X148324800Y-119165600D01*
X148324800Y-119165600D02*
X146924800Y-119165600D01*
X146924800Y-119165600D02*
X146924800Y-117765600D01*
X150988800Y-117765600D02*
X152388800Y-117765600D01*
X152388800Y-117765600D02*
X152388800Y-119165600D01*
X152388800Y-119165600D02*
X150988800Y-119165600D01*
X150988800Y-119165600D02*
X150988800Y-117765600D01*
X150988800Y-134021600D02*
X152388800Y-134021600D01*
X152388800Y-134021600D02*
X152388800Y-135421600D01*
X152388800Y-135421600D02*
X150988800Y-135421600D01*
X150988800Y-135421600D02*
X150988800Y-134021600D01*
X155052800Y-134021600D02*
X156452800Y-134021600D01*
X156452800Y-134021600D02*
X156452800Y-135421600D01*
X156452800Y-135421600D02*
X155052800Y-135421600D01*
X155052800Y-135421600D02*
X155052800Y-134021600D01*
X153020800Y-131989600D02*
X154420800Y-131989600D01*
X154420800Y-131989600D02*
X154420800Y-133389600D01*
X154420800Y-133389600D02*
X153020800Y-133389600D01*
X153020800Y-133389600D02*
X153020800Y-131989600D01*
X142860800Y-129957600D02*
X144260800Y-129957600D01*
X144260800Y-129957600D02*
X144260800Y-131357600D01*
X144260800Y-131357600D02*
X142860800Y-131357600D01*
X142860800Y-131357600D02*
X142860800Y-129957600D01*
X146924800Y-134021600D02*
X148324800Y-134021600D01*
X148324800Y-134021600D02*
X148324800Y-135421600D01*
X148324800Y-135421600D02*
X146924800Y-135421600D01*
X146924800Y-135421600D02*
X146924800Y-134021600D01*
X146924800Y-131989600D02*
X148324800Y-131989600D01*
X148324800Y-131989600D02*
X148324800Y-133389600D01*
X148324800Y-133389600D02*
X146924800Y-133389600D01*
X146924800Y-133389600D02*
X146924800Y-131989600D01*
X153020800Y-125893600D02*
X154420800Y-125893600D01*
X154420800Y-125893600D02*
X154420800Y-127293600D01*
X154420800Y-127293600D02*
X153020800Y-127293600D01*
X153020800Y-127293600D02*
X153020800Y-125893600D01*
X140828800Y-123861600D02*
X142228800Y-123861600D01*
X142228800Y-123861600D02*
X142228800Y-125261600D01*
X142228800Y-125261600D02*
X140828800Y-125261600D01*
X140828800Y-125261600D02*
X140828800Y-123861600D01*
X146924800Y-119797600D02*
X148324800Y-119797600D01*
X148324800Y-119797600D02*
X148324800Y-121197600D01*
X148324800Y-121197600D02*
X146924800Y-121197600D01*
X146924800Y-121197600D02*
X146924800Y-119797600D01*
X150988800Y-123861600D02*
X152388800Y-123861600D01*
X152388800Y-123861600D02*
X152388800Y-125261600D01*
X152388800Y-125261600D02*
X150988800Y-125261600D01*
X150988800Y-125261600D02*
X150988800Y-123861600D01*
X148956800Y-125893600D02*
X150356800Y-125893600D01*
X150356800Y-125893600D02*
X150356800Y-127293600D01*
X150356800Y-127293600D02*
X148956800Y-127293600D01*
X148956800Y-127293600D02*
X148956800Y-125893600D01*
X144892800Y-123861600D02*
X146292800Y-123861600D01*
X146292800Y-123861600D02*
X146292800Y-125261600D01*
X146292800Y-125261600D02*
X144892800Y-125261600D01*
X144892800Y-125261600D02*
X144892800Y-123861600D01*
X146924800Y-123861600D02*
X148324800Y-123861600D01*
X148324800Y-123861600D02*
X148324800Y-125261600D01*
X148324800Y-125261600D02*
X146924800Y-125261600D01*
X146924800Y-125261600D02*
X146924800Y-123861600D01*
X148956800Y-131989600D02*
X150356800Y-131989600D01*
X150356800Y-131989600D02*
X150356800Y-133389600D01*
X150356800Y-133389600D02*
X148956800Y-133389600D01*
X148956800Y-133389600D02*
X148956800Y-131989600D01*
X142860800Y-125893600D02*
X144260800Y-125893600D01*
X144260800Y-125893600D02*
X144260800Y-127293600D01*
X144260800Y-127293600D02*
X142860800Y-127293600D01*
X142860800Y-127293600D02*
X142860800Y-125893600D01*
X153020800Y-136053600D02*
X154420800Y-136053600D01*
X154420800Y-136053600D02*
X154420800Y-137453600D01*
X154420800Y-137453600D02*
X153020800Y-137453600D01*
X153020800Y-137453600D02*
X153020800Y-136053600D01*
X155052800Y-119797600D02*
X156452800Y-119797600D01*
X156452800Y-119797600D02*
X156452800Y-121197600D01*
X156452800Y-121197600D02*
X155052800Y-121197600D01*
X155052800Y-121197600D02*
X155052800Y-119797600D01*
X146924800Y-121829600D02*
X148324800Y-121829600D01*
X148324800Y-121829600D02*
X148324800Y-123229600D01*
X148324800Y-123229600D02*
X146924800Y-123229600D01*
X146924800Y-123229600D02*
X146924800Y-121829600D01*
X148956800Y-121829600D02*
X150356800Y-121829600D01*
X150356800Y-121829600D02*
X150356800Y-123229600D01*
X150356800Y-123229600D02*
X148956800Y-123229600D01*
X148956800Y-123229600D02*
X148956800Y-121829600D01*
X146924800Y-127925600D02*
X148324800Y-127925600D01*
X148324800Y-127925600D02*
X148324800Y-129325600D01*
X148324800Y-129325600D02*
X146924800Y-129325600D01*
X146924800Y-129325600D02*
X146924800Y-127925600D01*
X144892800Y-136053600D02*
X146292800Y-136053600D01*
X146292800Y-136053600D02*
X146292800Y-137453600D01*
X146292800Y-137453600D02*
X144892800Y-137453600D01*
X144892800Y-137453600D02*
X144892800Y-136053600D01*
X155052800Y-131989600D02*
X156452800Y-131989600D01*
X156452800Y-131989600D02*
X156452800Y-133389600D01*
X156452800Y-133389600D02*
X155052800Y-133389600D01*
X155052800Y-133389600D02*
X155052800Y-131989600D01*
X148956800Y-129957600D02*
X150356800Y-129957600D01*
X150356800Y-129957600D02*
X150356800Y-131357600D01*
X150356800Y-131357600D02*
X148956800Y-131357600D01*
X148956800Y-131357600D02*
X148956800Y-129957600D01*
X148956800Y-127925600D02*
X150356800Y-127925600D01*
X150356800Y-127925600D02*
X150356800Y-129325600D01*
X150356800Y-129325600D02*
X148956800Y-129325600D01*
X148956800Y-129325600D02*
X148956800Y-127925600D01*
X140828800Y-131989600D02*
X142228800Y-131989600D01*
X142228800Y-131989600D02*
X142228800Y-133389600D01*
X142228800Y-133389600D02*
X140828800Y-133389600D01*
X140828800Y-133389600D02*
X140828800Y-131989600D01*
X155052800Y-127925600D02*
X156452800Y-127925600D01*
X156452800Y-127925600D02*
X156452800Y-129325600D01*
X156452800Y-129325600D02*
X155052800Y-129325600D01*
X155052800Y-129325600D02*
X155052800Y-127925600D01*
X142860800Y-127925600D02*
X144260800Y-127925600D01*
X144260800Y-127925600D02*
X144260800Y-129325600D01*
X144260800Y-129325600D02*
X142860800Y-129325600D01*
X142860800Y-129325600D02*
X142860800Y-127925600D01*
X153020800Y-121829600D02*
X154420800Y-121829600D01*
X154420800Y-121829600D02*
X154420800Y-123229600D01*
X154420800Y-123229600D02*
X153020800Y-123229600D01*
X153020800Y-123229600D02*
X153020800Y-121829600D01*
X144892800Y-121829600D02*
X146292800Y-121829600D01*
X146292800Y-121829600D02*
X146292800Y-123229600D01*
X146292800Y-123229600D02*
X144892800Y-123229600D01*
X144892800Y-123229600D02*
X144892800Y-121829600D01*
X150988800Y-136053600D02*
X152388800Y-136053600D01*
X152388800Y-136053600D02*
X152388800Y-137453600D01*
X152388800Y-137453600D02*
X150988800Y-137453600D01*
X150988800Y-137453600D02*
X150988800Y-136053600D01*
X142860800Y-136053600D02*
X144260800Y-136053600D01*
X144260800Y-136053600D02*
X144260800Y-137453600D01*
X144260800Y-137453600D02*
X142860800Y-137453600D01*
X142860800Y-137453600D02*
X142860800Y-136053600D01*
X144892800Y-134021600D02*
X146292800Y-134021600D01*
X146292800Y-134021600D02*
X146292800Y-135421600D01*
X146292800Y-135421600D02*
X144892800Y-135421600D01*
X144892800Y-135421600D02*
X144892800Y-134021600D01*
X150988800Y-127925600D02*
X152388800Y-127925600D01*
X152388800Y-127925600D02*
X152388800Y-129325600D01*
X152388800Y-129325600D02*
X150988800Y-129325600D01*
X150988800Y-129325600D02*
X150988800Y-127925600D01*
X140828800Y-136053600D02*
X142228800Y-136053600D01*
X142228800Y-136053600D02*
X142228800Y-137453600D01*
X142228800Y-137453600D02*
X140828800Y-137453600D01*
X140828800Y-137453600D02*
X140828800Y-136053600D01*
X142860800Y-134021600D02*
X144260800Y-134021600D01*
X144260800Y-134021600D02*
X144260800Y-135421600D01*
X144260800Y-135421600D02*
X142860800Y-135421600D01*
X142860800Y-135421600D02*
X142860800Y-134021600D01*
X140828800Y-129957600D02*
X142228800Y-129957600D01*
X142228800Y-129957600D02*
X142228800Y-131357600D01*
X142228800Y-131357600D02*
X140828800Y-131357600D01*
X140828800Y-131357600D02*
X140828800Y-129957600D01*
X140828800Y-121829600D02*
X142228800Y-121829600D01*
X142228800Y-121829600D02*
X142228800Y-123229600D01*
X142228800Y-123229600D02*
X140828800Y-123229600D01*
X140828800Y-123229600D02*
X140828800Y-121829600D01*
X148956800Y-123861600D02*
X150356800Y-123861600D01*
X150356800Y-123861600D02*
X150356800Y-125261600D01*
X150356800Y-125261600D02*
X148956800Y-125261600D01*
X148956800Y-125261600D02*
X148956800Y-123861600D01*
X140828800Y-125893600D02*
X142228800Y-125893600D01*
X142228800Y-125893600D02*
X142228800Y-127293600D01*
X142228800Y-127293600D02*
X140828800Y-127293600D01*
X140828800Y-127293600D02*
X140828800Y-125893600D01*
X153020800Y-127925600D02*
X154420800Y-127925600D01*
X154420800Y-127925600D02*
X154420800Y-129325600D01*
X154420800Y-129325600D02*
X153020800Y-129325600D01*
X153020800Y-129325600D02*
X153020800Y-127925600D01*
X140828800Y-134021600D02*
X142228800Y-134021600D01*
X142228800Y-134021600D02*
X142228800Y-135421600D01*
X142228800Y-135421600D02*
X140828800Y-135421600D01*
X140828800Y-135421600D02*
X140828800Y-134021600D01*
X146924800Y-129957600D02*
X148324800Y-129957600D01*
X148324800Y-129957600D02*
X148324800Y-131357600D01*
X148324800Y-131357600D02*
X146924800Y-131357600D01*
X146924800Y-131357600D02*
X146924800Y-129957600D01*
X153020800Y-134021600D02*
X154420800Y-134021600D01*
X154420800Y-134021600D02*
X154420800Y-135421600D01*
X154420800Y-135421600D02*
X153020800Y-135421600D01*
X153020800Y-135421600D02*
X153020800Y-134021600D01*
X144892800Y-127925600D02*
X146292800Y-127925600D01*
X146292800Y-127925600D02*
X146292800Y-129325600D01*
X146292800Y-129325600D02*
X144892800Y-129325600D01*
X144892800Y-129325600D02*
X144892800Y-127925600D01*
X147940800Y-136053600D02*
X149340800Y-136053600D01*
X149340800Y-136053600D02*
X149340800Y-137453600D01*
X149340800Y-137453600D02*
X147940800Y-137453600D01*
X147940800Y-137453600D02*
X147940800Y-136053600D01*
X155052800Y-123861600D02*
X156452800Y-123861600D01*
X156452800Y-123861600D02*
X156452800Y-125261600D01*
X156452800Y-125261600D02*
X155052800Y-125261600D01*
X155052800Y-125261600D02*
X155052800Y-123861600D01*
X155052800Y-121829600D02*
X156452800Y-121829600D01*
X156452800Y-121829600D02*
X156452800Y-123229600D01*
X156452800Y-123229600D02*
X155052800Y-123229600D01*
X155052800Y-123229600D02*
X155052800Y-121829600D01*
X142860800Y-121829600D02*
X144260800Y-121829600D01*
X144260800Y-121829600D02*
X144260800Y-123229600D01*
X144260800Y-123229600D02*
X142860800Y-123229600D01*
X142860800Y-123229600D02*
X142860800Y-121829600D01*
X155052800Y-136053600D02*
X156452800Y-136053600D01*
X156452800Y-136053600D02*
X156452800Y-137453600D01*
X156452800Y-137453600D02*
X155052800Y-137453600D01*
X155052800Y-137453600D02*
X155052800Y-136053600D01*
X150988800Y-121829600D02*
X152388800Y-121829600D01*
X152388800Y-121829600D02*
X152388800Y-123229600D01*
X152388800Y-123229600D02*
X150988800Y-123229600D01*
X150988800Y-123229600D02*
X150988800Y-121829600D01*
X150988800Y-119797600D02*
X152388800Y-119797600D01*
X152388800Y-119797600D02*
X152388800Y-121197600D01*
X152388800Y-121197600D02*
X150988800Y-121197600D01*
X150988800Y-121197600D02*
X150988800Y-119797600D01*
X150988800Y-125893600D02*
X152388800Y-125893600D01*
X152388800Y-125893600D02*
X152388800Y-127293600D01*
X152388800Y-127293600D02*
X150988800Y-127293600D01*
X150988800Y-127293600D02*
X150988800Y-125893600D01*
X144892800Y-131989600D02*
X146292800Y-131989600D01*
X146292800Y-131989600D02*
X146292800Y-133389600D01*
X146292800Y-133389600D02*
X144892800Y-133389600D01*
X144892800Y-133389600D02*
X144892800Y-131989600D01*
X150988800Y-129957600D02*
X152388800Y-129957600D01*
X152388800Y-129957600D02*
X152388800Y-131357600D01*
X152388800Y-131357600D02*
X150988800Y-131357600D01*
X150988800Y-131357600D02*
X150988800Y-129957600D01*
X155052800Y-125893600D02*
X156452800Y-125893600D01*
X156452800Y-125893600D02*
X156452800Y-127293600D01*
X156452800Y-127293600D02*
X155052800Y-127293600D01*
X155052800Y-127293600D02*
X155052800Y-125893600D01*
X140828800Y-119797600D02*
X142228800Y-119797600D01*
X142228800Y-119797600D02*
X142228800Y-121197600D01*
X142228800Y-121197600D02*
X140828800Y-121197600D01*
X140828800Y-121197600D02*
X140828800Y-119797600D01*
X148956800Y-119797600D02*
X150356800Y-119797600D01*
X150356800Y-119797600D02*
X150356800Y-121197600D01*
X150356800Y-121197600D02*
X148956800Y-121197600D01*
X148956800Y-121197600D02*
X148956800Y-119797600D01*
X144892800Y-119797600D02*
X146292800Y-119797600D01*
X146292800Y-119797600D02*
X146292800Y-121197600D01*
X146292800Y-121197600D02*
X144892800Y-121197600D01*
X144892800Y-121197600D02*
X144892800Y-119797600D01*
X142860800Y-123861600D02*
X144260800Y-123861600D01*
X144260800Y-123861600D02*
X144260800Y-125261600D01*
X144260800Y-125261600D02*
X142860800Y-125261600D01*
X142860800Y-125261600D02*
X142860800Y-123861600D01*
X142860800Y-131989600D02*
X144260800Y-131989600D01*
X144260800Y-131989600D02*
X144260800Y-133389600D01*
X144260800Y-133389600D02*
X142860800Y-133389600D01*
X142860800Y-133389600D02*
X142860800Y-131989600D01*
X153020800Y-129957600D02*
X154420800Y-129957600D01*
X154420800Y-129957600D02*
X154420800Y-131357600D01*
X154420800Y-131357600D02*
X153020800Y-131357600D01*
X153020800Y-131357600D02*
X153020800Y-129957600D01*
X142860800Y-119797600D02*
X144260800Y-119797600D01*
X144260800Y-119797600D02*
X144260800Y-121197600D01*
X144260800Y-121197600D02*
X142860800Y-121197600D01*
X142860800Y-121197600D02*
X142860800Y-119797600D01*
X140828800Y-127925600D02*
X142228800Y-127925600D01*
X142228800Y-127925600D02*
X142228800Y-129325600D01*
X142228800Y-129325600D02*
X140828800Y-129325600D01*
X140828800Y-129325600D02*
X140828800Y-127925600D01*
X153020800Y-123861600D02*
X154420800Y-123861600D01*
X154420800Y-123861600D02*
X154420800Y-125261600D01*
X154420800Y-125261600D02*
X153020800Y-125261600D01*
X153020800Y-125261600D02*
X153020800Y-123861600D01*
X144892800Y-125893600D02*
X146292800Y-125893600D01*
X146292800Y-125893600D02*
X146292800Y-127293600D01*
X146292800Y-127293600D02*
X144892800Y-127293600D01*
X144892800Y-127293600D02*
X144892800Y-125893600D01*
X150988800Y-131989600D02*
X152388800Y-131989600D01*
X152388800Y-131989600D02*
X152388800Y-133389600D01*
X152388800Y-133389600D02*
X150988800Y-133389600D01*
X150988800Y-133389600D02*
X150988800Y-131989600D01*
X144892800Y-129957600D02*
X146292800Y-129957600D01*
X146292800Y-129957600D02*
X146292800Y-131357600D01*
X146292800Y-131357600D02*
X144892800Y-131357600D01*
X144892800Y-131357600D02*
X144892800Y-129957600D01*
X155052800Y-129957600D02*
X156452800Y-129957600D01*
X156452800Y-129957600D02*
X156452800Y-131357600D01*
X156452800Y-131357600D02*
X155052800Y-131357600D01*
X155052800Y-131357600D02*
X155052800Y-129957600D01*
X148956800Y-134021600D02*
X150356800Y-134021600D01*
X150356800Y-134021600D02*
X150356800Y-135421600D01*
X150356800Y-135421600D02*
X148956800Y-135421600D01*
X148956800Y-135421600D02*
X148956800Y-134021600D01*
X153020800Y-119797600D02*
X154420800Y-119797600D01*
X154420800Y-119797600D02*
X154420800Y-121197600D01*
X154420800Y-121197600D02*
X153020800Y-121197600D01*
X153020800Y-121197600D02*
X153020800Y-119797600D01*
X146924800Y-125893600D02*
X148324800Y-125893600D01*
X148324800Y-125893600D02*
X148324800Y-127293600D01*
X148324800Y-127293600D02*
X146924800Y-127293600D01*
X146924800Y-127293600D02*
X146924800Y-125893600D01*
D13*
X140131800Y-83997800D02*
X138861800Y-83997800D01*
X140131800Y-81203800D02*
X140131800Y-83997800D01*
X138861800Y-81203800D02*
X140131800Y-81203800D01*
X138861800Y-83997800D02*
X138861800Y-81203800D01*
X161569400Y-80848200D02*
X160299400Y-80848200D01*
X161569400Y-78054200D02*
X161569400Y-80848200D01*
X160299400Y-78054200D02*
X161569400Y-78054200D01*
X160299400Y-80848200D02*
X160299400Y-78054200D01*
X137541000Y-84251800D02*
X138811000Y-84251800D01*
X137541000Y-87045800D02*
X137541000Y-84251800D01*
X138811000Y-87045800D02*
X137541000Y-87045800D01*
X138811000Y-84251800D02*
X138811000Y-87045800D01*
X159893000Y-71501000D02*
X161163000Y-71501000D01*
X159893000Y-74295000D02*
X159893000Y-71501000D01*
X161163000Y-74295000D02*
X159893000Y-74295000D01*
X161163000Y-71501000D02*
X161163000Y-74295000D01*
X162001200Y-61620400D02*
X162001200Y-64160400D01*
X162001200Y-64160400D02*
X151841200Y-64160400D01*
X151841200Y-64160400D02*
X151841200Y-61620400D01*
X151841200Y-61620400D02*
X162001200Y-61620400D01*
D15*
X138123900Y-60051500D02*
X137618900Y-59441500D01*
D13*
X145243900Y-63141500D02*
X145243900Y-63541220D01*
X145243900Y-60042620D02*
X145243900Y-61216500D01*
X138143900Y-61241500D02*
X138143900Y-60042620D01*
X138143900Y-63549200D02*
X138143900Y-63147880D01*
X140043900Y-65116500D02*
X139418900Y-65116500D01*
X143343900Y-65116500D02*
X144143900Y-65116500D01*
X145743900Y-59441500D02*
X137643900Y-59441500D01*
X145243900Y-60016500D02*
X138143900Y-60016500D01*
X145268900Y-60016500D02*
X145743900Y-59441500D01*
X152679400Y-73540620D02*
X152679400Y-73690480D01*
X149682200Y-74041000D02*
X149682200Y-73540620D01*
X149682200Y-71043800D02*
X149682200Y-71544180D01*
X152679400Y-71043800D02*
X152679400Y-71544180D01*
X152354280Y-74041000D02*
X149682200Y-74041000D01*
X152679400Y-73715880D02*
X152354280Y-74041000D01*
X149682200Y-71043800D02*
X152679400Y-71043800D01*
D16*
X152679400Y-71043800D02*
X149682200Y-71043800D01*
D13*
X153069461Y-74272400D02*
G75*
G02*
X152772139Y-74272400I-148661J0D01*
G01*
X152772139Y-74272400D02*
G75*
G02*
X153069461Y-74272400I148661J0D01*
G01*
X156572505Y-73989905D02*
X157624065Y-73989905D01*
X156572505Y-73227905D02*
X156572505Y-73989905D01*
X156572505Y-71068905D02*
X156572505Y-71830905D01*
X157624065Y-71068905D02*
X156572505Y-71068905D01*
X158167625Y-72719905D02*
X158167625Y-72338905D01*
D16*
X144399000Y-71158100D02*
X144399000Y-74333100D01*
X144399000Y-74333100D02*
X146177000Y-74333100D01*
X146177000Y-71158100D02*
X146177000Y-74333100D01*
X144399000Y-71158100D02*
X146177000Y-71158100D01*
D13*
X146177000Y-74333100D02*
X144399000Y-74333100D01*
X144399000Y-74333100D02*
X144399000Y-71158100D01*
X144399000Y-71158100D02*
X146177000Y-71158100D01*
X146177000Y-71158100D02*
X146177000Y-74333100D01*
X145796000Y-72555100D02*
X145542000Y-72555100D01*
X145542000Y-72555100D02*
X145288000Y-72555100D01*
X145288000Y-72555100D02*
X145034000Y-72555100D01*
X145034000Y-72555100D02*
X144780000Y-72555100D01*
X144780000Y-72555100D02*
X145034000Y-72745600D01*
X145034000Y-72745600D02*
X145288000Y-72936100D01*
X145288000Y-72936100D02*
X145796000Y-72555100D01*
X145796000Y-72555100D02*
X145224500Y-72872600D01*
X145224500Y-72872600D02*
X145542000Y-72555100D01*
X145542000Y-72555100D02*
X145161000Y-72809100D01*
X145161000Y-72809100D02*
X145288000Y-72555100D01*
X145288000Y-72555100D02*
X145034000Y-72745600D01*
X145034000Y-72745600D02*
X145034000Y-72555100D01*
D16*
X140944600Y-71158100D02*
X140944600Y-74333100D01*
X140944600Y-74333100D02*
X142722600Y-74333100D01*
X142722600Y-71158100D02*
X142722600Y-74333100D01*
X140944600Y-71158100D02*
X142722600Y-71158100D01*
D13*
X142722600Y-74333100D02*
X140944600Y-74333100D01*
X140944600Y-74333100D02*
X140944600Y-71158100D01*
X140944600Y-71158100D02*
X142722600Y-71158100D01*
X142722600Y-71158100D02*
X142722600Y-74333100D01*
X142341600Y-72555100D02*
X142087600Y-72555100D01*
X142087600Y-72555100D02*
X141833600Y-72555100D01*
X141833600Y-72555100D02*
X141579600Y-72555100D01*
X141579600Y-72555100D02*
X141325600Y-72555100D01*
X141325600Y-72555100D02*
X141579600Y-72745600D01*
X141579600Y-72745600D02*
X141833600Y-72936100D01*
X141833600Y-72936100D02*
X142341600Y-72555100D01*
X142341600Y-72555100D02*
X141770100Y-72872600D01*
X141770100Y-72872600D02*
X142087600Y-72555100D01*
X142087600Y-72555100D02*
X141706600Y-72809100D01*
X141706600Y-72809100D02*
X141833600Y-72555100D01*
X141833600Y-72555100D02*
X141579600Y-72745600D01*
X141579600Y-72745600D02*
X141579600Y-72555100D01*
D16*
X137490200Y-71158100D02*
X137490200Y-74333100D01*
X137490200Y-74333100D02*
X139268200Y-74333100D01*
X139268200Y-71158100D02*
X139268200Y-74333100D01*
X137490200Y-71158100D02*
X139268200Y-71158100D01*
D13*
X139268200Y-74333100D02*
X137490200Y-74333100D01*
X137490200Y-74333100D02*
X137490200Y-71158100D01*
X137490200Y-71158100D02*
X139268200Y-71158100D01*
X139268200Y-71158100D02*
X139268200Y-74333100D01*
X138887200Y-72555100D02*
X138633200Y-72555100D01*
X138633200Y-72555100D02*
X138379200Y-72555100D01*
X138379200Y-72555100D02*
X138125200Y-72555100D01*
X138125200Y-72555100D02*
X137871200Y-72555100D01*
X137871200Y-72555100D02*
X138125200Y-72745600D01*
X138125200Y-72745600D02*
X138379200Y-72936100D01*
X138379200Y-72936100D02*
X138887200Y-72555100D01*
X138887200Y-72555100D02*
X138315700Y-72872600D01*
X138315700Y-72872600D02*
X138633200Y-72555100D01*
X138633200Y-72555100D02*
X138252200Y-72809100D01*
X138252200Y-72809100D02*
X138379200Y-72555100D01*
X138379200Y-72555100D02*
X138125200Y-72745600D01*
X138125200Y-72745600D02*
X138125200Y-72555100D01*
X147294600Y-68046600D02*
X147294600Y-69316600D01*
X144500600Y-68046600D02*
X147294600Y-68046600D01*
X144500600Y-69316600D02*
X144500600Y-68046600D01*
X147294600Y-69316600D02*
X144500600Y-69316600D01*
X147396200Y-69570600D02*
X147396200Y-70840600D01*
X144602200Y-69570600D02*
X147396200Y-69570600D01*
X144602200Y-70840600D02*
X144602200Y-69570600D01*
X147396200Y-70840600D02*
X144602200Y-70840600D01*
M02*
