M48
; DRILL file {KiCad 5.1.8-db9833491~88~ubuntu16.04.1} date Wed Dec 23 08:27:55 2020
; FORMAT={2:4/ absolute / inch / suppress leading zeros}
; #@! TF.CreationDate,2020-12-23T08:27:55-07:00
; #@! TF.GenerationSoftware,Kicad,Pcbnew,5.1.8-db9833491~88~ubuntu16.04.1
; #@! TF.FileFunction,Plated,1,2,PTH
FMAT,2
INCH,TZ
T1C0.0118
T2C0.0197
T3C0.0350
T4C0.0450
T5C0.0610
%
G90
G05
T1
X54400Y-32880
X54480Y-34440
X54915Y-30555
X54960Y-31080
X55040Y-31520
X55200Y-26080
X55217Y-31735
X55235Y-31325
X55527Y-31223
X55560Y-40800
X55560Y-41120
X55562Y-41424
X55638Y-42958
X55649Y-43449
X55697Y-31777
X55720Y-49040
X55720Y-47440
X55720Y-48240
X55720Y-49840
X55720Y-50640
X55720Y-51440
X55720Y-52240
X55720Y-53040
X55720Y-53840
X55877Y-39894
X55880Y-31045
X56029Y-39451
X56080Y-36680
X56086Y-32766
X56120Y-32160
X56120Y-34920
X56160Y-39800
X56160Y-40680
X56320Y-41793
X56330Y-41279
X56440Y-28360
X56480Y-36680
X56520Y-32760
X56520Y-47440
X56520Y-48240
X56520Y-49032
X56520Y-49840
X56520Y-50640
X56520Y-51440
X56520Y-52240
X56520Y-53040
X56520Y-53840
X56525Y-39914
X56554Y-34926
X56605Y-40946
X56621Y-39242
X56630Y-41996
X56681Y-41403
X56914Y-32110
X56920Y-39320
X57048Y-39587
X57080Y-41093
X57166Y-40658
X57181Y-39860
X57223Y-42120
X57253Y-41686
X57280Y-25880
X57280Y-32000
X57294Y-32483
X57320Y-46640
X57320Y-47440
X57320Y-48240
X57320Y-49040
X57320Y-49840
X57320Y-50640
X57320Y-51440
X57320Y-52240
X57320Y-53040
X57320Y-53840
X57360Y-36360
X57454Y-30734
X57524Y-36723
X57600Y-40656
X57775Y-41822
X57830Y-37076
X57840Y-31983
X57840Y-36360
X57880Y-28880
X57880Y-29600
X58040Y-30960
X58120Y-46640
X58120Y-47440
X58120Y-48240
X58120Y-49040
X58120Y-49840
X58120Y-50640
X58120Y-51440
X58120Y-52240
X58120Y-53040
X58160Y-31983
X58237Y-41087
X58240Y-30083
X58243Y-39646
X58243Y-40011
X58244Y-39370
X58266Y-37010
X58280Y-27840
X58280Y-28120
X58320Y-39040
X58360Y-28440
X58421Y-41680
X58440Y-29360
X58440Y-31000
X58520Y-53840
X58560Y-35547
X58600Y-28160
X58600Y-35960
X58600Y-36304
X58640Y-28920
X58640Y-32005
X58640Y-32320
X58680Y-29360
X58680Y-29760
X58760Y-27160
X58840Y-42000
X58920Y-29760
X58920Y-46640
X58920Y-47440
X58920Y-48240
X58920Y-49040
X58920Y-49840
X58920Y-50640
X58920Y-51440
X58920Y-52240
X58920Y-53040
X59040Y-30977
X59120Y-27360
X59120Y-27760
X59160Y-29360
X59217Y-38597
X59240Y-27160
X59244Y-38323
X59271Y-39160
X59280Y-29560
X59303Y-32177
X59306Y-41301
X59322Y-38889
X59341Y-38065
X59352Y-39427
X59360Y-27760
X59386Y-40670
X59390Y-40946
X59391Y-39808
X59400Y-29360
X59440Y-41920
X59440Y-30280
X59480Y-27160
X59533Y-36860
X59570Y-39598
X59591Y-39998
X59600Y-26960
X59600Y-27760
X59603Y-38149
X59636Y-32404
X59640Y-29360
X59640Y-32000
X59642Y-38422
X59720Y-25160
X59720Y-25720
X59720Y-26320
X59720Y-27960
X59720Y-46640
X59720Y-47440
X59720Y-48240
X59720Y-49040
X59720Y-49840
X59720Y-50640
X59720Y-51440
X59720Y-52240
X59720Y-53040
X59720Y-53840
X59760Y-29160
X59760Y-29560
X59760Y-40920
X59823Y-41503
X59840Y-43480
X59840Y-27360
X59840Y-27760
X59840Y-36000
X59889Y-37113
X59916Y-38443
X59960Y-25440
X59960Y-26040
X59960Y-26600
X59960Y-27160
X59973Y-30677
X60028Y-40562
X60040Y-30280
X60056Y-41272
X60080Y-26960
X60080Y-27760
X60080Y-35453
X60099Y-32128
X60107Y-35835
X60120Y-29360
X60200Y-30976
X60207Y-36805
X60240Y-26280
X60274Y-40080
X60274Y-40435
X60280Y-25720
X60306Y-35096
X60310Y-43972
X60320Y-26960
X60320Y-36059
X60320Y-38080
X60360Y-31993
X60360Y-39360
X60373Y-39046
X60400Y-26600
X60400Y-28440
X60400Y-28920
X60419Y-39675
X60440Y-27560
X60441Y-41031
X60480Y-34160
X60485Y-35675
X60507Y-32955
X60510Y-44162
X60520Y-30760
X60520Y-47440
X60520Y-48240
X60520Y-49040
X60520Y-49840
X60520Y-50640
X60520Y-51440
X60520Y-52240
X60520Y-53040
X60520Y-53840
X60560Y-26960
X60562Y-43711
X60608Y-29985
X60640Y-26040
X60640Y-26400
X60640Y-28680
X60652Y-43433
X60673Y-33383
X60680Y-32279
X60680Y-26760
X60680Y-27160
X60705Y-28175
X60720Y-34800
X60722Y-34435
X60730Y-32792
X60732Y-39027
X60760Y-29520
X60760Y-31960
X60760Y-35200
X60790Y-43183
X60800Y-27360
X60800Y-27760
X60801Y-35601
X60808Y-36866
X60811Y-38440
X60876Y-29913
X60881Y-36511
X60943Y-34055
X60958Y-35840
X60959Y-33600
X60960Y-26480
X60960Y-26920
X60992Y-44643
X61000Y-26160
X61019Y-42976
X61070Y-33105
X61080Y-25880
X61086Y-35031
X61134Y-35586
X61145Y-43221
X61152Y-34234
X61157Y-34589
X61158Y-32205
X61160Y-36165
X61163Y-32845
X61173Y-32560
X61200Y-36847
X61236Y-37751
X61237Y-33324
X61320Y-47440
X61320Y-48240
X61320Y-49040
X61320Y-49840
X61320Y-50640
X61320Y-51440
X61320Y-52240
X61320Y-53040
X61320Y-53840
X61360Y-26040
X61360Y-28920
X61361Y-45012
X61400Y-26320
X61423Y-37548
X61505Y-44497
X61505Y-44772
X61519Y-31468
X61544Y-31823
X61585Y-44059
X61640Y-25880
X61760Y-26400
X61786Y-42889
X61817Y-43397
X61880Y-37120
X61960Y-31920
X62000Y-30640
X62000Y-38520
X62000Y-38840
X62258Y-34744
X62320Y-27640
X62320Y-29640
X62338Y-36760
X62383Y-31156
X62400Y-32800
X62498Y-35130
X62581Y-36272
X62618Y-33250
X62800Y-29040
X62814Y-35596
X62840Y-33720
X62841Y-28201
X62859Y-31381
X63121Y-33487
X63248Y-34358
X63248Y-34680
X63250Y-35035
X63266Y-35310
T3
X60280Y-24760
X61280Y-24760
X62280Y-24760
X63280Y-24760
T4
X54510Y-27344
X54510Y-29850
X56210Y-27344
X56210Y-29850
X61550Y-27424
X61550Y-29930
X63250Y-27424
X63250Y-29930
T5
X58800Y-26160
X58800Y-24720
T2
G00X54486Y-24337
M15
G01X54486Y-24613
M16
G05
G00X57084Y-24337
M15
G01X57084Y-24613
M16
G05
T0
M30
