G04 #@! TF.GenerationSoftware,KiCad,Pcbnew,5.1.8-db9833491~88~ubuntu16.04.1*
G04 #@! TF.CreationDate,2020-12-23T08:51:26-07:00*
G04 #@! TF.ProjectId,PoNS,506f4e53-2e6b-4696-9361-645f70636258,rev?*
G04 #@! TF.SameCoordinates,Original*
G04 #@! TF.FileFunction,Legend,Top*
G04 #@! TF.FilePolarity,Positive*
%FSLAX46Y46*%
G04 Gerber Fmt 4.6, Leading zero omitted, Abs format (unit mm)*
G04 Created by KiCad (PCBNEW 5.1.8-db9833491~88~ubuntu16.04.1) date 2020-12-23 08:51:26*
%MOMM*%
%LPD*%
G01*
G04 APERTURE LIST*
%ADD10C,0.150000*%
%ADD11C,0.300000*%
%ADD12C,0.127000*%
%ADD13C,0.120000*%
%ADD14C,0.100000*%
%ADD15C,0.066040*%
%ADD16C,0.101600*%
G04 APERTURE END LIST*
D10*
X157637219Y-64543276D02*
X158637219Y-64543276D01*
X158637219Y-64924228D01*
X158589600Y-65019466D01*
X158541980Y-65067085D01*
X158446742Y-65114704D01*
X158303885Y-65114704D01*
X158208647Y-65067085D01*
X158161028Y-65019466D01*
X158113409Y-64924228D01*
X158113409Y-64543276D01*
X157637219Y-65543276D02*
X158637219Y-65543276D01*
X158637219Y-65781371D01*
X158589600Y-65924228D01*
X158494361Y-66019466D01*
X158399123Y-66067085D01*
X158208647Y-66114704D01*
X158065790Y-66114704D01*
X157875314Y-66067085D01*
X157780076Y-66019466D01*
X157684838Y-65924228D01*
X157637219Y-65781371D01*
X157637219Y-65543276D01*
X157637219Y-66543276D02*
X158637219Y-66543276D01*
X157637219Y-67019466D02*
X158637219Y-67019466D01*
X158637219Y-67257561D01*
X158589600Y-67400419D01*
X158494361Y-67495657D01*
X158399123Y-67543276D01*
X158208647Y-67590895D01*
X158065790Y-67590895D01*
X157875314Y-67543276D01*
X157780076Y-67495657D01*
X157684838Y-67400419D01*
X157637219Y-67257561D01*
X157637219Y-67019466D01*
X157922933Y-67971847D02*
X157922933Y-68448038D01*
X157637219Y-67876609D02*
X158637219Y-68209942D01*
X157637219Y-68543276D01*
X158637219Y-68733752D02*
X158637219Y-69305180D01*
X157637219Y-69019466D02*
X158637219Y-69019466D01*
X154386019Y-64448038D02*
X155386019Y-64448038D01*
X155386019Y-64828990D01*
X155338400Y-64924228D01*
X155290780Y-64971847D01*
X155195542Y-65019466D01*
X155052685Y-65019466D01*
X154957447Y-64971847D01*
X154909828Y-64924228D01*
X154862209Y-64828990D01*
X154862209Y-64448038D01*
X154386019Y-65448038D02*
X155386019Y-65448038D01*
X155386019Y-65686133D01*
X155338400Y-65828990D01*
X155243161Y-65924228D01*
X155147923Y-65971847D01*
X154957447Y-66019466D01*
X154814590Y-66019466D01*
X154624114Y-65971847D01*
X154528876Y-65924228D01*
X154433638Y-65828990D01*
X154386019Y-65686133D01*
X154386019Y-65448038D01*
X154386019Y-66448038D02*
X155386019Y-66448038D01*
X154481257Y-67495657D02*
X154433638Y-67448038D01*
X154386019Y-67305180D01*
X154386019Y-67209942D01*
X154433638Y-67067085D01*
X154528876Y-66971847D01*
X154624114Y-66924228D01*
X154814590Y-66876609D01*
X154957447Y-66876609D01*
X155147923Y-66924228D01*
X155243161Y-66971847D01*
X155338400Y-67067085D01*
X155386019Y-67209942D01*
X155386019Y-67305180D01*
X155338400Y-67448038D01*
X155290780Y-67495657D01*
X154386019Y-68400419D02*
X154386019Y-67924228D01*
X155386019Y-67924228D01*
X154386019Y-68733752D02*
X155386019Y-68733752D01*
X154386019Y-69305180D02*
X154957447Y-68876609D01*
X155386019Y-69305180D02*
X154814590Y-68733752D01*
X161332800Y-65074895D02*
X161380419Y-64979657D01*
X161380419Y-64836800D01*
X161332800Y-64693942D01*
X161237561Y-64598704D01*
X161142323Y-64551085D01*
X160951847Y-64503466D01*
X160808990Y-64503466D01*
X160618514Y-64551085D01*
X160523276Y-64598704D01*
X160428038Y-64693942D01*
X160380419Y-64836800D01*
X160380419Y-64932038D01*
X160428038Y-65074895D01*
X160475657Y-65122514D01*
X160808990Y-65122514D01*
X160808990Y-64932038D01*
X160380419Y-65551085D02*
X161380419Y-65551085D01*
X160380419Y-66122514D01*
X161380419Y-66122514D01*
X160380419Y-66598704D02*
X161380419Y-66598704D01*
X161380419Y-66836800D01*
X161332800Y-66979657D01*
X161237561Y-67074895D01*
X161142323Y-67122514D01*
X160951847Y-67170133D01*
X160808990Y-67170133D01*
X160618514Y-67122514D01*
X160523276Y-67074895D01*
X160428038Y-66979657D01*
X160380419Y-66836800D01*
X160380419Y-66598704D01*
X153455619Y-64544723D02*
X153455619Y-65163771D01*
X153074666Y-64830438D01*
X153074666Y-64973295D01*
X153027047Y-65068533D01*
X152979428Y-65116152D01*
X152884190Y-65163771D01*
X152646095Y-65163771D01*
X152550857Y-65116152D01*
X152503238Y-65068533D01*
X152455619Y-64973295D01*
X152455619Y-64687580D01*
X152503238Y-64592342D01*
X152550857Y-64544723D01*
X153122285Y-65497104D02*
X152455619Y-65735200D01*
X153122285Y-65973295D01*
X153455619Y-66259009D02*
X153455619Y-66878057D01*
X153074666Y-66544723D01*
X153074666Y-66687580D01*
X153027047Y-66782819D01*
X152979428Y-66830438D01*
X152884190Y-66878057D01*
X152646095Y-66878057D01*
X152550857Y-66830438D01*
X152503238Y-66782819D01*
X152455619Y-66687580D01*
X152455619Y-66401866D01*
X152503238Y-66306628D01*
X152550857Y-66259009D01*
D11*
X147383428Y-66451942D02*
X146240571Y-66451942D01*
X146240571Y-62895942D02*
X147383428Y-62895942D01*
X146812000Y-63467371D02*
X146812000Y-62324514D01*
D12*
X147447000Y-77190600D02*
X144145000Y-77190600D01*
X147447000Y-75412600D02*
X147447000Y-77190600D01*
X144145000Y-75412600D02*
X147447000Y-75412600D01*
X144145000Y-77190600D02*
X144145000Y-75412600D01*
D13*
X142522900Y-80570800D02*
X141822900Y-80570800D01*
X141822900Y-80570800D02*
X141822900Y-81270800D01*
X155342900Y-80570800D02*
X156042900Y-80570800D01*
X156042900Y-80570800D02*
X156042900Y-81270800D01*
X142522900Y-94790800D02*
X141822900Y-94790800D01*
X141822900Y-94790800D02*
X141822900Y-94090800D01*
X155342900Y-94790800D02*
X156042900Y-94790800D01*
X156042900Y-94790800D02*
X156042900Y-94090800D01*
X141822900Y-81270800D02*
X140532900Y-81270800D01*
X144892800Y-119165600D02*
X144892800Y-117765600D01*
X146292800Y-119165600D02*
X144892800Y-119165600D01*
X146292800Y-117765600D02*
X146292800Y-119165600D01*
X144892800Y-117765600D02*
X146292800Y-117765600D01*
X148956800Y-119165600D02*
X148956800Y-117765600D01*
X150356800Y-119165600D02*
X148956800Y-119165600D01*
X150356800Y-117765600D02*
X150356800Y-119165600D01*
X148956800Y-117765600D02*
X150356800Y-117765600D01*
X146924800Y-119165600D02*
X146924800Y-117765600D01*
X148324800Y-119165600D02*
X146924800Y-119165600D01*
X148324800Y-117765600D02*
X148324800Y-119165600D01*
X146924800Y-117765600D02*
X148324800Y-117765600D01*
X150988800Y-119165600D02*
X150988800Y-117765600D01*
X152388800Y-119165600D02*
X150988800Y-119165600D01*
X152388800Y-117765600D02*
X152388800Y-119165600D01*
X150988800Y-117765600D02*
X152388800Y-117765600D01*
X150988800Y-135421600D02*
X150988800Y-134021600D01*
X152388800Y-135421600D02*
X150988800Y-135421600D01*
X152388800Y-134021600D02*
X152388800Y-135421600D01*
X150988800Y-134021600D02*
X152388800Y-134021600D01*
X155052800Y-135421600D02*
X155052800Y-134021600D01*
X156452800Y-135421600D02*
X155052800Y-135421600D01*
X156452800Y-134021600D02*
X156452800Y-135421600D01*
X155052800Y-134021600D02*
X156452800Y-134021600D01*
X153020800Y-133389600D02*
X153020800Y-131989600D01*
X154420800Y-133389600D02*
X153020800Y-133389600D01*
X154420800Y-131989600D02*
X154420800Y-133389600D01*
X153020800Y-131989600D02*
X154420800Y-131989600D01*
X142860800Y-131357600D02*
X142860800Y-129957600D01*
X144260800Y-131357600D02*
X142860800Y-131357600D01*
X144260800Y-129957600D02*
X144260800Y-131357600D01*
X142860800Y-129957600D02*
X144260800Y-129957600D01*
X146924800Y-135421600D02*
X146924800Y-134021600D01*
X148324800Y-135421600D02*
X146924800Y-135421600D01*
X148324800Y-134021600D02*
X148324800Y-135421600D01*
X146924800Y-134021600D02*
X148324800Y-134021600D01*
X146924800Y-133389600D02*
X146924800Y-131989600D01*
X148324800Y-133389600D02*
X146924800Y-133389600D01*
X148324800Y-131989600D02*
X148324800Y-133389600D01*
X146924800Y-131989600D02*
X148324800Y-131989600D01*
X153020800Y-127293600D02*
X153020800Y-125893600D01*
X154420800Y-127293600D02*
X153020800Y-127293600D01*
X154420800Y-125893600D02*
X154420800Y-127293600D01*
X153020800Y-125893600D02*
X154420800Y-125893600D01*
X140828800Y-125261600D02*
X140828800Y-123861600D01*
X142228800Y-125261600D02*
X140828800Y-125261600D01*
X142228800Y-123861600D02*
X142228800Y-125261600D01*
X140828800Y-123861600D02*
X142228800Y-123861600D01*
X146924800Y-121197600D02*
X146924800Y-119797600D01*
X148324800Y-121197600D02*
X146924800Y-121197600D01*
X148324800Y-119797600D02*
X148324800Y-121197600D01*
X146924800Y-119797600D02*
X148324800Y-119797600D01*
X150988800Y-125261600D02*
X150988800Y-123861600D01*
X152388800Y-125261600D02*
X150988800Y-125261600D01*
X152388800Y-123861600D02*
X152388800Y-125261600D01*
X150988800Y-123861600D02*
X152388800Y-123861600D01*
X148956800Y-127293600D02*
X148956800Y-125893600D01*
X150356800Y-127293600D02*
X148956800Y-127293600D01*
X150356800Y-125893600D02*
X150356800Y-127293600D01*
X148956800Y-125893600D02*
X150356800Y-125893600D01*
X144892800Y-125261600D02*
X144892800Y-123861600D01*
X146292800Y-125261600D02*
X144892800Y-125261600D01*
X146292800Y-123861600D02*
X146292800Y-125261600D01*
X144892800Y-123861600D02*
X146292800Y-123861600D01*
X146924800Y-125261600D02*
X146924800Y-123861600D01*
X148324800Y-125261600D02*
X146924800Y-125261600D01*
X148324800Y-123861600D02*
X148324800Y-125261600D01*
X146924800Y-123861600D02*
X148324800Y-123861600D01*
X148956800Y-133389600D02*
X148956800Y-131989600D01*
X150356800Y-133389600D02*
X148956800Y-133389600D01*
X150356800Y-131989600D02*
X150356800Y-133389600D01*
X148956800Y-131989600D02*
X150356800Y-131989600D01*
X142860800Y-127293600D02*
X142860800Y-125893600D01*
X144260800Y-127293600D02*
X142860800Y-127293600D01*
X144260800Y-125893600D02*
X144260800Y-127293600D01*
X142860800Y-125893600D02*
X144260800Y-125893600D01*
X153020800Y-137453600D02*
X153020800Y-136053600D01*
X154420800Y-137453600D02*
X153020800Y-137453600D01*
X154420800Y-136053600D02*
X154420800Y-137453600D01*
X153020800Y-136053600D02*
X154420800Y-136053600D01*
X155052800Y-121197600D02*
X155052800Y-119797600D01*
X156452800Y-121197600D02*
X155052800Y-121197600D01*
X156452800Y-119797600D02*
X156452800Y-121197600D01*
X155052800Y-119797600D02*
X156452800Y-119797600D01*
X146924800Y-123229600D02*
X146924800Y-121829600D01*
X148324800Y-123229600D02*
X146924800Y-123229600D01*
X148324800Y-121829600D02*
X148324800Y-123229600D01*
X146924800Y-121829600D02*
X148324800Y-121829600D01*
X148956800Y-123229600D02*
X148956800Y-121829600D01*
X150356800Y-123229600D02*
X148956800Y-123229600D01*
X150356800Y-121829600D02*
X150356800Y-123229600D01*
X148956800Y-121829600D02*
X150356800Y-121829600D01*
X146924800Y-129325600D02*
X146924800Y-127925600D01*
X148324800Y-129325600D02*
X146924800Y-129325600D01*
X148324800Y-127925600D02*
X148324800Y-129325600D01*
X146924800Y-127925600D02*
X148324800Y-127925600D01*
X144892800Y-137453600D02*
X144892800Y-136053600D01*
X146292800Y-137453600D02*
X144892800Y-137453600D01*
X146292800Y-136053600D02*
X146292800Y-137453600D01*
X144892800Y-136053600D02*
X146292800Y-136053600D01*
X155052800Y-133389600D02*
X155052800Y-131989600D01*
X156452800Y-133389600D02*
X155052800Y-133389600D01*
X156452800Y-131989600D02*
X156452800Y-133389600D01*
X155052800Y-131989600D02*
X156452800Y-131989600D01*
X148956800Y-131357600D02*
X148956800Y-129957600D01*
X150356800Y-131357600D02*
X148956800Y-131357600D01*
X150356800Y-129957600D02*
X150356800Y-131357600D01*
X148956800Y-129957600D02*
X150356800Y-129957600D01*
X148956800Y-129325600D02*
X148956800Y-127925600D01*
X150356800Y-129325600D02*
X148956800Y-129325600D01*
X150356800Y-127925600D02*
X150356800Y-129325600D01*
X148956800Y-127925600D02*
X150356800Y-127925600D01*
X140828800Y-133389600D02*
X140828800Y-131989600D01*
X142228800Y-133389600D02*
X140828800Y-133389600D01*
X142228800Y-131989600D02*
X142228800Y-133389600D01*
X140828800Y-131989600D02*
X142228800Y-131989600D01*
X155052800Y-129325600D02*
X155052800Y-127925600D01*
X156452800Y-129325600D02*
X155052800Y-129325600D01*
X156452800Y-127925600D02*
X156452800Y-129325600D01*
X155052800Y-127925600D02*
X156452800Y-127925600D01*
X142860800Y-129325600D02*
X142860800Y-127925600D01*
X144260800Y-129325600D02*
X142860800Y-129325600D01*
X144260800Y-127925600D02*
X144260800Y-129325600D01*
X142860800Y-127925600D02*
X144260800Y-127925600D01*
X153020800Y-123229600D02*
X153020800Y-121829600D01*
X154420800Y-123229600D02*
X153020800Y-123229600D01*
X154420800Y-121829600D02*
X154420800Y-123229600D01*
X153020800Y-121829600D02*
X154420800Y-121829600D01*
X144892800Y-123229600D02*
X144892800Y-121829600D01*
X146292800Y-123229600D02*
X144892800Y-123229600D01*
X146292800Y-121829600D02*
X146292800Y-123229600D01*
X144892800Y-121829600D02*
X146292800Y-121829600D01*
X150988800Y-137453600D02*
X150988800Y-136053600D01*
X152388800Y-137453600D02*
X150988800Y-137453600D01*
X152388800Y-136053600D02*
X152388800Y-137453600D01*
X150988800Y-136053600D02*
X152388800Y-136053600D01*
X142860800Y-137453600D02*
X142860800Y-136053600D01*
X144260800Y-137453600D02*
X142860800Y-137453600D01*
X144260800Y-136053600D02*
X144260800Y-137453600D01*
X142860800Y-136053600D02*
X144260800Y-136053600D01*
X144892800Y-135421600D02*
X144892800Y-134021600D01*
X146292800Y-135421600D02*
X144892800Y-135421600D01*
X146292800Y-134021600D02*
X146292800Y-135421600D01*
X144892800Y-134021600D02*
X146292800Y-134021600D01*
X150988800Y-129325600D02*
X150988800Y-127925600D01*
X152388800Y-129325600D02*
X150988800Y-129325600D01*
X152388800Y-127925600D02*
X152388800Y-129325600D01*
X150988800Y-127925600D02*
X152388800Y-127925600D01*
X140828800Y-137453600D02*
X140828800Y-136053600D01*
X142228800Y-137453600D02*
X140828800Y-137453600D01*
X142228800Y-136053600D02*
X142228800Y-137453600D01*
X140828800Y-136053600D02*
X142228800Y-136053600D01*
X142860800Y-135421600D02*
X142860800Y-134021600D01*
X144260800Y-135421600D02*
X142860800Y-135421600D01*
X144260800Y-134021600D02*
X144260800Y-135421600D01*
X142860800Y-134021600D02*
X144260800Y-134021600D01*
X140828800Y-131357600D02*
X140828800Y-129957600D01*
X142228800Y-131357600D02*
X140828800Y-131357600D01*
X142228800Y-129957600D02*
X142228800Y-131357600D01*
X140828800Y-129957600D02*
X142228800Y-129957600D01*
X140828800Y-123229600D02*
X140828800Y-121829600D01*
X142228800Y-123229600D02*
X140828800Y-123229600D01*
X142228800Y-121829600D02*
X142228800Y-123229600D01*
X140828800Y-121829600D02*
X142228800Y-121829600D01*
X148956800Y-125261600D02*
X148956800Y-123861600D01*
X150356800Y-125261600D02*
X148956800Y-125261600D01*
X150356800Y-123861600D02*
X150356800Y-125261600D01*
X148956800Y-123861600D02*
X150356800Y-123861600D01*
X140828800Y-127293600D02*
X140828800Y-125893600D01*
X142228800Y-127293600D02*
X140828800Y-127293600D01*
X142228800Y-125893600D02*
X142228800Y-127293600D01*
X140828800Y-125893600D02*
X142228800Y-125893600D01*
X153020800Y-129325600D02*
X153020800Y-127925600D01*
X154420800Y-129325600D02*
X153020800Y-129325600D01*
X154420800Y-127925600D02*
X154420800Y-129325600D01*
X153020800Y-127925600D02*
X154420800Y-127925600D01*
X140828800Y-135421600D02*
X140828800Y-134021600D01*
X142228800Y-135421600D02*
X140828800Y-135421600D01*
X142228800Y-134021600D02*
X142228800Y-135421600D01*
X140828800Y-134021600D02*
X142228800Y-134021600D01*
X146924800Y-131357600D02*
X146924800Y-129957600D01*
X148324800Y-131357600D02*
X146924800Y-131357600D01*
X148324800Y-129957600D02*
X148324800Y-131357600D01*
X146924800Y-129957600D02*
X148324800Y-129957600D01*
X153020800Y-135421600D02*
X153020800Y-134021600D01*
X154420800Y-135421600D02*
X153020800Y-135421600D01*
X154420800Y-134021600D02*
X154420800Y-135421600D01*
X153020800Y-134021600D02*
X154420800Y-134021600D01*
X144892800Y-129325600D02*
X144892800Y-127925600D01*
X146292800Y-129325600D02*
X144892800Y-129325600D01*
X146292800Y-127925600D02*
X146292800Y-129325600D01*
X144892800Y-127925600D02*
X146292800Y-127925600D01*
X147940800Y-137453600D02*
X147940800Y-136053600D01*
X149340800Y-137453600D02*
X147940800Y-137453600D01*
X149340800Y-136053600D02*
X149340800Y-137453600D01*
X147940800Y-136053600D02*
X149340800Y-136053600D01*
X155052800Y-125261600D02*
X155052800Y-123861600D01*
X156452800Y-125261600D02*
X155052800Y-125261600D01*
X156452800Y-123861600D02*
X156452800Y-125261600D01*
X155052800Y-123861600D02*
X156452800Y-123861600D01*
X155052800Y-123229600D02*
X155052800Y-121829600D01*
X156452800Y-123229600D02*
X155052800Y-123229600D01*
X156452800Y-121829600D02*
X156452800Y-123229600D01*
X155052800Y-121829600D02*
X156452800Y-121829600D01*
X142860800Y-123229600D02*
X142860800Y-121829600D01*
X144260800Y-123229600D02*
X142860800Y-123229600D01*
X144260800Y-121829600D02*
X144260800Y-123229600D01*
X142860800Y-121829600D02*
X144260800Y-121829600D01*
X155052800Y-137453600D02*
X155052800Y-136053600D01*
X156452800Y-137453600D02*
X155052800Y-137453600D01*
X156452800Y-136053600D02*
X156452800Y-137453600D01*
X155052800Y-136053600D02*
X156452800Y-136053600D01*
X150988800Y-123229600D02*
X150988800Y-121829600D01*
X152388800Y-123229600D02*
X150988800Y-123229600D01*
X152388800Y-121829600D02*
X152388800Y-123229600D01*
X150988800Y-121829600D02*
X152388800Y-121829600D01*
X150988800Y-121197600D02*
X150988800Y-119797600D01*
X152388800Y-121197600D02*
X150988800Y-121197600D01*
X152388800Y-119797600D02*
X152388800Y-121197600D01*
X150988800Y-119797600D02*
X152388800Y-119797600D01*
X150988800Y-127293600D02*
X150988800Y-125893600D01*
X152388800Y-127293600D02*
X150988800Y-127293600D01*
X152388800Y-125893600D02*
X152388800Y-127293600D01*
X150988800Y-125893600D02*
X152388800Y-125893600D01*
X144892800Y-133389600D02*
X144892800Y-131989600D01*
X146292800Y-133389600D02*
X144892800Y-133389600D01*
X146292800Y-131989600D02*
X146292800Y-133389600D01*
X144892800Y-131989600D02*
X146292800Y-131989600D01*
X150988800Y-131357600D02*
X150988800Y-129957600D01*
X152388800Y-131357600D02*
X150988800Y-131357600D01*
X152388800Y-129957600D02*
X152388800Y-131357600D01*
X150988800Y-129957600D02*
X152388800Y-129957600D01*
X155052800Y-127293600D02*
X155052800Y-125893600D01*
X156452800Y-127293600D02*
X155052800Y-127293600D01*
X156452800Y-125893600D02*
X156452800Y-127293600D01*
X155052800Y-125893600D02*
X156452800Y-125893600D01*
X140828800Y-121197600D02*
X140828800Y-119797600D01*
X142228800Y-121197600D02*
X140828800Y-121197600D01*
X142228800Y-119797600D02*
X142228800Y-121197600D01*
X140828800Y-119797600D02*
X142228800Y-119797600D01*
X148956800Y-121197600D02*
X148956800Y-119797600D01*
X150356800Y-121197600D02*
X148956800Y-121197600D01*
X150356800Y-119797600D02*
X150356800Y-121197600D01*
X148956800Y-119797600D02*
X150356800Y-119797600D01*
X144892800Y-121197600D02*
X144892800Y-119797600D01*
X146292800Y-121197600D02*
X144892800Y-121197600D01*
X146292800Y-119797600D02*
X146292800Y-121197600D01*
X144892800Y-119797600D02*
X146292800Y-119797600D01*
X142860800Y-125261600D02*
X142860800Y-123861600D01*
X144260800Y-125261600D02*
X142860800Y-125261600D01*
X144260800Y-123861600D02*
X144260800Y-125261600D01*
X142860800Y-123861600D02*
X144260800Y-123861600D01*
X142860800Y-133389600D02*
X142860800Y-131989600D01*
X144260800Y-133389600D02*
X142860800Y-133389600D01*
X144260800Y-131989600D02*
X144260800Y-133389600D01*
X142860800Y-131989600D02*
X144260800Y-131989600D01*
X153020800Y-131357600D02*
X153020800Y-129957600D01*
X154420800Y-131357600D02*
X153020800Y-131357600D01*
X154420800Y-129957600D02*
X154420800Y-131357600D01*
X153020800Y-129957600D02*
X154420800Y-129957600D01*
X142860800Y-121197600D02*
X142860800Y-119797600D01*
X144260800Y-121197600D02*
X142860800Y-121197600D01*
X144260800Y-119797600D02*
X144260800Y-121197600D01*
X142860800Y-119797600D02*
X144260800Y-119797600D01*
X140828800Y-129325600D02*
X140828800Y-127925600D01*
X142228800Y-129325600D02*
X140828800Y-129325600D01*
X142228800Y-127925600D02*
X142228800Y-129325600D01*
X140828800Y-127925600D02*
X142228800Y-127925600D01*
X153020800Y-125261600D02*
X153020800Y-123861600D01*
X154420800Y-125261600D02*
X153020800Y-125261600D01*
X154420800Y-123861600D02*
X154420800Y-125261600D01*
X153020800Y-123861600D02*
X154420800Y-123861600D01*
X144892800Y-127293600D02*
X144892800Y-125893600D01*
X146292800Y-127293600D02*
X144892800Y-127293600D01*
X146292800Y-125893600D02*
X146292800Y-127293600D01*
X144892800Y-125893600D02*
X146292800Y-125893600D01*
X150988800Y-133389600D02*
X150988800Y-131989600D01*
X152388800Y-133389600D02*
X150988800Y-133389600D01*
X152388800Y-131989600D02*
X152388800Y-133389600D01*
X150988800Y-131989600D02*
X152388800Y-131989600D01*
X144892800Y-131357600D02*
X144892800Y-129957600D01*
X146292800Y-131357600D02*
X144892800Y-131357600D01*
X146292800Y-129957600D02*
X146292800Y-131357600D01*
X144892800Y-129957600D02*
X146292800Y-129957600D01*
X155052800Y-131357600D02*
X155052800Y-129957600D01*
X156452800Y-131357600D02*
X155052800Y-131357600D01*
X156452800Y-129957600D02*
X156452800Y-131357600D01*
X155052800Y-129957600D02*
X156452800Y-129957600D01*
X148956800Y-135421600D02*
X148956800Y-134021600D01*
X150356800Y-135421600D02*
X148956800Y-135421600D01*
X150356800Y-134021600D02*
X150356800Y-135421600D01*
X148956800Y-134021600D02*
X150356800Y-134021600D01*
X153020800Y-121197600D02*
X153020800Y-119797600D01*
X154420800Y-121197600D02*
X153020800Y-121197600D01*
X154420800Y-119797600D02*
X154420800Y-121197600D01*
X153020800Y-119797600D02*
X154420800Y-119797600D01*
X146924800Y-127293600D02*
X146924800Y-125893600D01*
X148324800Y-127293600D02*
X146924800Y-127293600D01*
X148324800Y-125893600D02*
X148324800Y-127293600D01*
X146924800Y-125893600D02*
X148324800Y-125893600D01*
D12*
X138861800Y-83997800D02*
X138861800Y-81203800D01*
X138861800Y-81203800D02*
X140131800Y-81203800D01*
X140131800Y-81203800D02*
X140131800Y-83997800D01*
X140131800Y-83997800D02*
X138861800Y-83997800D01*
X160299400Y-80848200D02*
X160299400Y-78054200D01*
X160299400Y-78054200D02*
X161569400Y-78054200D01*
X161569400Y-78054200D02*
X161569400Y-80848200D01*
X161569400Y-80848200D02*
X160299400Y-80848200D01*
X138811000Y-84251800D02*
X138811000Y-87045800D01*
X138811000Y-87045800D02*
X137541000Y-87045800D01*
X137541000Y-87045800D02*
X137541000Y-84251800D01*
X137541000Y-84251800D02*
X138811000Y-84251800D01*
X161163000Y-71501000D02*
X161163000Y-74295000D01*
X161163000Y-74295000D02*
X159893000Y-74295000D01*
X159893000Y-74295000D02*
X159893000Y-71501000D01*
X159893000Y-71501000D02*
X161163000Y-71501000D01*
X151841200Y-61620400D02*
X162001200Y-61620400D01*
X151841200Y-64160400D02*
X151841200Y-61620400D01*
X162001200Y-64160400D02*
X151841200Y-64160400D01*
X162001200Y-61620400D02*
X162001200Y-64160400D01*
X145268900Y-60016500D02*
X145743900Y-59441500D01*
X145243900Y-60016500D02*
X138143900Y-60016500D01*
X145743900Y-59441500D02*
X137643900Y-59441500D01*
X143343900Y-65116500D02*
X144143900Y-65116500D01*
X140043900Y-65116500D02*
X139418900Y-65116500D01*
X138143900Y-63549200D02*
X138143900Y-63147880D01*
X138143900Y-61241500D02*
X138143900Y-60042620D01*
X145243900Y-60042620D02*
X145243900Y-61216500D01*
X145243900Y-63141500D02*
X145243900Y-63541220D01*
D14*
X138123900Y-60051500D02*
X137618900Y-59441500D01*
D12*
X153069461Y-74272400D02*
G75*
G03*
X153069461Y-74272400I-148661J0D01*
G01*
D15*
X152679400Y-71043800D02*
X149682200Y-71043800D01*
D12*
X149682200Y-71043800D02*
X152679400Y-71043800D01*
X152679400Y-73715880D02*
X152354280Y-74041000D01*
X152354280Y-74041000D02*
X149682200Y-74041000D01*
X152679400Y-71043800D02*
X152679400Y-71544180D01*
X149682200Y-71043800D02*
X149682200Y-71544180D01*
X149682200Y-74041000D02*
X149682200Y-73540620D01*
X152679400Y-73540620D02*
X152679400Y-73690480D01*
X157667960Y-72732900D02*
X157667960Y-72351900D01*
X157124400Y-71081900D02*
X156072840Y-71081900D01*
X156072840Y-71081900D02*
X156072840Y-71843900D01*
X156072840Y-73240900D02*
X156072840Y-74002900D01*
X156072840Y-74002900D02*
X157124400Y-74002900D01*
X145034000Y-72745600D02*
X145034000Y-72555100D01*
X145288000Y-72555100D02*
X145034000Y-72745600D01*
X145161000Y-72809100D02*
X145288000Y-72555100D01*
X145542000Y-72555100D02*
X145161000Y-72809100D01*
X145224500Y-72872600D02*
X145542000Y-72555100D01*
X145796000Y-72555100D02*
X145224500Y-72872600D01*
X145288000Y-72936100D02*
X145796000Y-72555100D01*
X145034000Y-72745600D02*
X145288000Y-72936100D01*
X144780000Y-72555100D02*
X145034000Y-72745600D01*
X145034000Y-72555100D02*
X144780000Y-72555100D01*
X145288000Y-72555100D02*
X145034000Y-72555100D01*
X145542000Y-72555100D02*
X145288000Y-72555100D01*
X145796000Y-72555100D02*
X145542000Y-72555100D01*
X146177000Y-71158100D02*
X146177000Y-74333100D01*
X144399000Y-71158100D02*
X146177000Y-71158100D01*
X144399000Y-74333100D02*
X144399000Y-71158100D01*
X146177000Y-74333100D02*
X144399000Y-74333100D01*
D15*
X144399000Y-71158100D02*
X146177000Y-71158100D01*
X146177000Y-71158100D02*
X146177000Y-74333100D01*
X144399000Y-74333100D02*
X146177000Y-74333100D01*
X144399000Y-71158100D02*
X144399000Y-74333100D01*
D12*
X141579600Y-72745600D02*
X141579600Y-72555100D01*
X141833600Y-72555100D02*
X141579600Y-72745600D01*
X141706600Y-72809100D02*
X141833600Y-72555100D01*
X142087600Y-72555100D02*
X141706600Y-72809100D01*
X141770100Y-72872600D02*
X142087600Y-72555100D01*
X142341600Y-72555100D02*
X141770100Y-72872600D01*
X141833600Y-72936100D02*
X142341600Y-72555100D01*
X141579600Y-72745600D02*
X141833600Y-72936100D01*
X141325600Y-72555100D02*
X141579600Y-72745600D01*
X141579600Y-72555100D02*
X141325600Y-72555100D01*
X141833600Y-72555100D02*
X141579600Y-72555100D01*
X142087600Y-72555100D02*
X141833600Y-72555100D01*
X142341600Y-72555100D02*
X142087600Y-72555100D01*
X142722600Y-71158100D02*
X142722600Y-74333100D01*
X140944600Y-71158100D02*
X142722600Y-71158100D01*
X140944600Y-74333100D02*
X140944600Y-71158100D01*
X142722600Y-74333100D02*
X140944600Y-74333100D01*
D15*
X140944600Y-71158100D02*
X142722600Y-71158100D01*
X142722600Y-71158100D02*
X142722600Y-74333100D01*
X140944600Y-74333100D02*
X142722600Y-74333100D01*
X140944600Y-71158100D02*
X140944600Y-74333100D01*
D12*
X138125200Y-72745600D02*
X138125200Y-72555100D01*
X138379200Y-72555100D02*
X138125200Y-72745600D01*
X138252200Y-72809100D02*
X138379200Y-72555100D01*
X138633200Y-72555100D02*
X138252200Y-72809100D01*
X138315700Y-72872600D02*
X138633200Y-72555100D01*
X138887200Y-72555100D02*
X138315700Y-72872600D01*
X138379200Y-72936100D02*
X138887200Y-72555100D01*
X138125200Y-72745600D02*
X138379200Y-72936100D01*
X137871200Y-72555100D02*
X138125200Y-72745600D01*
X138125200Y-72555100D02*
X137871200Y-72555100D01*
X138379200Y-72555100D02*
X138125200Y-72555100D01*
X138633200Y-72555100D02*
X138379200Y-72555100D01*
X138887200Y-72555100D02*
X138633200Y-72555100D01*
X139268200Y-71158100D02*
X139268200Y-74333100D01*
X137490200Y-71158100D02*
X139268200Y-71158100D01*
X137490200Y-74333100D02*
X137490200Y-71158100D01*
X139268200Y-74333100D02*
X137490200Y-74333100D01*
D15*
X137490200Y-71158100D02*
X139268200Y-71158100D01*
X139268200Y-71158100D02*
X139268200Y-74333100D01*
X137490200Y-74333100D02*
X139268200Y-74333100D01*
X137490200Y-71158100D02*
X137490200Y-74333100D01*
D12*
X147294600Y-69316600D02*
X144500600Y-69316600D01*
X144500600Y-69316600D02*
X144500600Y-68046600D01*
X144500600Y-68046600D02*
X147294600Y-68046600D01*
X147294600Y-68046600D02*
X147294600Y-69316600D01*
X147396200Y-70840600D02*
X144602200Y-70840600D01*
X144602200Y-70840600D02*
X144602200Y-69570600D01*
X144602200Y-69570600D02*
X147396200Y-69570600D01*
X147396200Y-69570600D02*
X147396200Y-70840600D01*
D10*
X147613904Y-63428780D02*
X148185333Y-63428780D01*
X147899619Y-64428780D02*
X147899619Y-63428780D01*
X148518666Y-64428780D02*
X148518666Y-63428780D01*
X148899619Y-63428780D01*
X148994857Y-63476400D01*
X149042476Y-63524019D01*
X149090095Y-63619257D01*
X149090095Y-63762114D01*
X149042476Y-63857352D01*
X148994857Y-63904971D01*
X148899619Y-63952590D01*
X148518666Y-63952590D01*
X149423428Y-63428780D02*
X150090095Y-63428780D01*
X149661523Y-64428780D01*
X150423428Y-63524019D02*
X150471047Y-63476400D01*
X150566285Y-63428780D01*
X150804380Y-63428780D01*
X150899619Y-63476400D01*
X150947238Y-63524019D01*
X150994857Y-63619257D01*
X150994857Y-63714495D01*
X150947238Y-63857352D01*
X150375809Y-64428780D01*
X150994857Y-64428780D01*
X148090095Y-59771180D02*
X148661523Y-59771180D01*
X148375809Y-60771180D02*
X148375809Y-59771180D01*
X148994857Y-60771180D02*
X148994857Y-59771180D01*
X149375809Y-59771180D01*
X149471047Y-59818800D01*
X149518666Y-59866419D01*
X149566285Y-59961657D01*
X149566285Y-60104514D01*
X149518666Y-60199752D01*
X149471047Y-60247371D01*
X149375809Y-60294990D01*
X148994857Y-60294990D01*
X149899619Y-59771180D02*
X150566285Y-59771180D01*
X150137714Y-60771180D01*
X145629333Y-78453980D02*
X145296000Y-77977790D01*
X145057904Y-78453980D02*
X145057904Y-77453980D01*
X145438857Y-77453980D01*
X145534095Y-77501600D01*
X145581714Y-77549219D01*
X145629333Y-77644457D01*
X145629333Y-77787314D01*
X145581714Y-77882552D01*
X145534095Y-77930171D01*
X145438857Y-77977790D01*
X145057904Y-77977790D01*
X146581714Y-78453980D02*
X146010285Y-78453980D01*
X146296000Y-78453980D02*
X146296000Y-77453980D01*
X146200761Y-77596838D01*
X146105523Y-77692076D01*
X146010285Y-77739695D01*
X148170995Y-77783180D02*
X148170995Y-78592704D01*
X148218614Y-78687942D01*
X148266233Y-78735561D01*
X148361471Y-78783180D01*
X148551947Y-78783180D01*
X148647185Y-78735561D01*
X148694804Y-78687942D01*
X148742423Y-78592704D01*
X148742423Y-77783180D01*
X149742423Y-78783180D02*
X149170995Y-78783180D01*
X149456709Y-78783180D02*
X149456709Y-77783180D01*
X149361471Y-77926038D01*
X149266233Y-78021276D01*
X149170995Y-78068895D01*
X143854704Y-116469980D02*
X144426133Y-116469980D01*
X144140419Y-117469980D02*
X144140419Y-116469980D01*
X144759466Y-117469980D02*
X144759466Y-116469980D01*
X145140419Y-116469980D01*
X145235657Y-116517600D01*
X145283276Y-116565219D01*
X145330895Y-116660457D01*
X145330895Y-116803314D01*
X145283276Y-116898552D01*
X145235657Y-116946171D01*
X145140419Y-116993790D01*
X144759466Y-116993790D01*
X145711847Y-116565219D02*
X145759466Y-116517600D01*
X145854704Y-116469980D01*
X146092800Y-116469980D01*
X146188038Y-116517600D01*
X146235657Y-116565219D01*
X146283276Y-116660457D01*
X146283276Y-116755695D01*
X146235657Y-116898552D01*
X145664228Y-117469980D01*
X146283276Y-117469980D01*
X146902323Y-116469980D02*
X146997561Y-116469980D01*
X147092800Y-116517600D01*
X147140419Y-116565219D01*
X147188038Y-116660457D01*
X147235657Y-116850933D01*
X147235657Y-117089028D01*
X147188038Y-117279504D01*
X147140419Y-117374742D01*
X147092800Y-117422361D01*
X146997561Y-117469980D01*
X146902323Y-117469980D01*
X146807085Y-117422361D01*
X146759466Y-117374742D01*
X146711847Y-117279504D01*
X146664228Y-117089028D01*
X146664228Y-116850933D01*
X146711847Y-116660457D01*
X146759466Y-116565219D01*
X146807085Y-116517600D01*
X146902323Y-116469980D01*
X148394895Y-116469980D02*
X148966323Y-116469980D01*
X148680609Y-117469980D02*
X148680609Y-116469980D01*
X149299657Y-117469980D02*
X149299657Y-116469980D01*
X149680609Y-116469980D01*
X149775847Y-116517600D01*
X149823466Y-116565219D01*
X149871085Y-116660457D01*
X149871085Y-116803314D01*
X149823466Y-116898552D01*
X149775847Y-116946171D01*
X149680609Y-116993790D01*
X149299657Y-116993790D01*
X150823466Y-117469980D02*
X150252038Y-117469980D01*
X150537752Y-117469980D02*
X150537752Y-116469980D01*
X150442514Y-116612838D01*
X150347276Y-116708076D01*
X150252038Y-116755695D01*
X145886704Y-116469980D02*
X146458133Y-116469980D01*
X146172419Y-117469980D02*
X146172419Y-116469980D01*
X146791466Y-117469980D02*
X146791466Y-116469980D01*
X147172419Y-116469980D01*
X147267657Y-116517600D01*
X147315276Y-116565219D01*
X147362895Y-116660457D01*
X147362895Y-116803314D01*
X147315276Y-116898552D01*
X147267657Y-116946171D01*
X147172419Y-116993790D01*
X146791466Y-116993790D01*
X147696228Y-116469980D02*
X148362895Y-116469980D01*
X147934323Y-117469980D01*
X148648609Y-116469980D02*
X149315276Y-116469980D01*
X148886704Y-117469980D01*
X150426895Y-116469980D02*
X150998323Y-116469980D01*
X150712609Y-117469980D02*
X150712609Y-116469980D01*
X151331657Y-117469980D02*
X151331657Y-116469980D01*
X151712609Y-116469980D01*
X151807847Y-116517600D01*
X151855466Y-116565219D01*
X151903085Y-116660457D01*
X151903085Y-116803314D01*
X151855466Y-116898552D01*
X151807847Y-116946171D01*
X151712609Y-116993790D01*
X151331657Y-116993790D01*
X152284038Y-116565219D02*
X152331657Y-116517600D01*
X152426895Y-116469980D01*
X152664990Y-116469980D01*
X152760228Y-116517600D01*
X152807847Y-116565219D01*
X152855466Y-116660457D01*
X152855466Y-116755695D01*
X152807847Y-116898552D01*
X152236419Y-117469980D01*
X152855466Y-117469980D01*
X149950704Y-132725980D02*
X150522133Y-132725980D01*
X150236419Y-133725980D02*
X150236419Y-132725980D01*
X150855466Y-133725980D02*
X150855466Y-132725980D01*
X151236419Y-132725980D01*
X151331657Y-132773600D01*
X151379276Y-132821219D01*
X151426895Y-132916457D01*
X151426895Y-133059314D01*
X151379276Y-133154552D01*
X151331657Y-133202171D01*
X151236419Y-133249790D01*
X150855466Y-133249790D01*
X152284038Y-133059314D02*
X152284038Y-133725980D01*
X152045942Y-132678361D02*
X151807847Y-133392647D01*
X152426895Y-133392647D01*
X152950704Y-133154552D02*
X152855466Y-133106933D01*
X152807847Y-133059314D01*
X152760228Y-132964076D01*
X152760228Y-132916457D01*
X152807847Y-132821219D01*
X152855466Y-132773600D01*
X152950704Y-132725980D01*
X153141180Y-132725980D01*
X153236419Y-132773600D01*
X153284038Y-132821219D01*
X153331657Y-132916457D01*
X153331657Y-132964076D01*
X153284038Y-133059314D01*
X153236419Y-133106933D01*
X153141180Y-133154552D01*
X152950704Y-133154552D01*
X152855466Y-133202171D01*
X152807847Y-133249790D01*
X152760228Y-133345028D01*
X152760228Y-133535504D01*
X152807847Y-133630742D01*
X152855466Y-133678361D01*
X152950704Y-133725980D01*
X153141180Y-133725980D01*
X153236419Y-133678361D01*
X153284038Y-133630742D01*
X153331657Y-133535504D01*
X153331657Y-133345028D01*
X153284038Y-133249790D01*
X153236419Y-133202171D01*
X153141180Y-133154552D01*
X154014704Y-132725980D02*
X154586133Y-132725980D01*
X154300419Y-133725980D02*
X154300419Y-132725980D01*
X154919466Y-133725980D02*
X154919466Y-132725980D01*
X155300419Y-132725980D01*
X155395657Y-132773600D01*
X155443276Y-132821219D01*
X155490895Y-132916457D01*
X155490895Y-133059314D01*
X155443276Y-133154552D01*
X155395657Y-133202171D01*
X155300419Y-133249790D01*
X154919466Y-133249790D01*
X155824228Y-132725980D02*
X156443276Y-132725980D01*
X156109942Y-133106933D01*
X156252800Y-133106933D01*
X156348038Y-133154552D01*
X156395657Y-133202171D01*
X156443276Y-133297409D01*
X156443276Y-133535504D01*
X156395657Y-133630742D01*
X156348038Y-133678361D01*
X156252800Y-133725980D01*
X155967085Y-133725980D01*
X155871847Y-133678361D01*
X155824228Y-133630742D01*
X157014704Y-133154552D02*
X156919466Y-133106933D01*
X156871847Y-133059314D01*
X156824228Y-132964076D01*
X156824228Y-132916457D01*
X156871847Y-132821219D01*
X156919466Y-132773600D01*
X157014704Y-132725980D01*
X157205180Y-132725980D01*
X157300419Y-132773600D01*
X157348038Y-132821219D01*
X157395657Y-132916457D01*
X157395657Y-132964076D01*
X157348038Y-133059314D01*
X157300419Y-133106933D01*
X157205180Y-133154552D01*
X157014704Y-133154552D01*
X156919466Y-133202171D01*
X156871847Y-133249790D01*
X156824228Y-133345028D01*
X156824228Y-133535504D01*
X156871847Y-133630742D01*
X156919466Y-133678361D01*
X157014704Y-133725980D01*
X157205180Y-133725980D01*
X157300419Y-133678361D01*
X157348038Y-133630742D01*
X157395657Y-133535504D01*
X157395657Y-133345028D01*
X157348038Y-133249790D01*
X157300419Y-133202171D01*
X157205180Y-133154552D01*
X151982704Y-130693980D02*
X152554133Y-130693980D01*
X152268419Y-131693980D02*
X152268419Y-130693980D01*
X152887466Y-131693980D02*
X152887466Y-130693980D01*
X153268419Y-130693980D01*
X153363657Y-130741600D01*
X153411276Y-130789219D01*
X153458895Y-130884457D01*
X153458895Y-131027314D01*
X153411276Y-131122552D01*
X153363657Y-131170171D01*
X153268419Y-131217790D01*
X152887466Y-131217790D01*
X154316038Y-131027314D02*
X154316038Y-131693980D01*
X154077942Y-130646361D02*
X153839847Y-131360647D01*
X154458895Y-131360647D01*
X155268419Y-131027314D02*
X155268419Y-131693980D01*
X155030323Y-130646361D02*
X154792228Y-131360647D01*
X155411276Y-131360647D01*
X141822704Y-128661980D02*
X142394133Y-128661980D01*
X142108419Y-129661980D02*
X142108419Y-128661980D01*
X142727466Y-129661980D02*
X142727466Y-128661980D01*
X143108419Y-128661980D01*
X143203657Y-128709600D01*
X143251276Y-128757219D01*
X143298895Y-128852457D01*
X143298895Y-128995314D01*
X143251276Y-129090552D01*
X143203657Y-129138171D01*
X143108419Y-129185790D01*
X142727466Y-129185790D01*
X144156038Y-128995314D02*
X144156038Y-129661980D01*
X143917942Y-128614361D02*
X143679847Y-129328647D01*
X144298895Y-129328647D01*
X145156038Y-128661980D02*
X144679847Y-128661980D01*
X144632228Y-129138171D01*
X144679847Y-129090552D01*
X144775085Y-129042933D01*
X145013180Y-129042933D01*
X145108419Y-129090552D01*
X145156038Y-129138171D01*
X145203657Y-129233409D01*
X145203657Y-129471504D01*
X145156038Y-129566742D01*
X145108419Y-129614361D01*
X145013180Y-129661980D01*
X144775085Y-129661980D01*
X144679847Y-129614361D01*
X144632228Y-129566742D01*
X145886704Y-132725980D02*
X146458133Y-132725980D01*
X146172419Y-133725980D02*
X146172419Y-132725980D01*
X146791466Y-133725980D02*
X146791466Y-132725980D01*
X147172419Y-132725980D01*
X147267657Y-132773600D01*
X147315276Y-132821219D01*
X147362895Y-132916457D01*
X147362895Y-133059314D01*
X147315276Y-133154552D01*
X147267657Y-133202171D01*
X147172419Y-133249790D01*
X146791466Y-133249790D01*
X148267657Y-132725980D02*
X147791466Y-132725980D01*
X147743847Y-133202171D01*
X147791466Y-133154552D01*
X147886704Y-133106933D01*
X148124800Y-133106933D01*
X148220038Y-133154552D01*
X148267657Y-133202171D01*
X148315276Y-133297409D01*
X148315276Y-133535504D01*
X148267657Y-133630742D01*
X148220038Y-133678361D01*
X148124800Y-133725980D01*
X147886704Y-133725980D01*
X147791466Y-133678361D01*
X147743847Y-133630742D01*
X148886704Y-133154552D02*
X148791466Y-133106933D01*
X148743847Y-133059314D01*
X148696228Y-132964076D01*
X148696228Y-132916457D01*
X148743847Y-132821219D01*
X148791466Y-132773600D01*
X148886704Y-132725980D01*
X149077180Y-132725980D01*
X149172419Y-132773600D01*
X149220038Y-132821219D01*
X149267657Y-132916457D01*
X149267657Y-132964076D01*
X149220038Y-133059314D01*
X149172419Y-133106933D01*
X149077180Y-133154552D01*
X148886704Y-133154552D01*
X148791466Y-133202171D01*
X148743847Y-133249790D01*
X148696228Y-133345028D01*
X148696228Y-133535504D01*
X148743847Y-133630742D01*
X148791466Y-133678361D01*
X148886704Y-133725980D01*
X149077180Y-133725980D01*
X149172419Y-133678361D01*
X149220038Y-133630742D01*
X149267657Y-133535504D01*
X149267657Y-133345028D01*
X149220038Y-133249790D01*
X149172419Y-133202171D01*
X149077180Y-133154552D01*
X145886704Y-130693980D02*
X146458133Y-130693980D01*
X146172419Y-131693980D02*
X146172419Y-130693980D01*
X146791466Y-131693980D02*
X146791466Y-130693980D01*
X147172419Y-130693980D01*
X147267657Y-130741600D01*
X147315276Y-130789219D01*
X147362895Y-130884457D01*
X147362895Y-131027314D01*
X147315276Y-131122552D01*
X147267657Y-131170171D01*
X147172419Y-131217790D01*
X146791466Y-131217790D01*
X148267657Y-130693980D02*
X147791466Y-130693980D01*
X147743847Y-131170171D01*
X147791466Y-131122552D01*
X147886704Y-131074933D01*
X148124800Y-131074933D01*
X148220038Y-131122552D01*
X148267657Y-131170171D01*
X148315276Y-131265409D01*
X148315276Y-131503504D01*
X148267657Y-131598742D01*
X148220038Y-131646361D01*
X148124800Y-131693980D01*
X147886704Y-131693980D01*
X147791466Y-131646361D01*
X147743847Y-131598742D01*
X148791466Y-131693980D02*
X148981942Y-131693980D01*
X149077180Y-131646361D01*
X149124800Y-131598742D01*
X149220038Y-131455885D01*
X149267657Y-131265409D01*
X149267657Y-130884457D01*
X149220038Y-130789219D01*
X149172419Y-130741600D01*
X149077180Y-130693980D01*
X148886704Y-130693980D01*
X148791466Y-130741600D01*
X148743847Y-130789219D01*
X148696228Y-130884457D01*
X148696228Y-131122552D01*
X148743847Y-131217790D01*
X148791466Y-131265409D01*
X148886704Y-131313028D01*
X149077180Y-131313028D01*
X149172419Y-131265409D01*
X149220038Y-131217790D01*
X149267657Y-131122552D01*
X151982704Y-124597980D02*
X152554133Y-124597980D01*
X152268419Y-125597980D02*
X152268419Y-124597980D01*
X152887466Y-125597980D02*
X152887466Y-124597980D01*
X153268419Y-124597980D01*
X153363657Y-124645600D01*
X153411276Y-124693219D01*
X153458895Y-124788457D01*
X153458895Y-124931314D01*
X153411276Y-125026552D01*
X153363657Y-125074171D01*
X153268419Y-125121790D01*
X152887466Y-125121790D01*
X153792228Y-124597980D02*
X154411276Y-124597980D01*
X154077942Y-124978933D01*
X154220800Y-124978933D01*
X154316038Y-125026552D01*
X154363657Y-125074171D01*
X154411276Y-125169409D01*
X154411276Y-125407504D01*
X154363657Y-125502742D01*
X154316038Y-125550361D01*
X154220800Y-125597980D01*
X153935085Y-125597980D01*
X153839847Y-125550361D01*
X153792228Y-125502742D01*
X154792228Y-124693219D02*
X154839847Y-124645600D01*
X154935085Y-124597980D01*
X155173180Y-124597980D01*
X155268419Y-124645600D01*
X155316038Y-124693219D01*
X155363657Y-124788457D01*
X155363657Y-124883695D01*
X155316038Y-125026552D01*
X154744609Y-125597980D01*
X155363657Y-125597980D01*
X140266895Y-122565980D02*
X140838323Y-122565980D01*
X140552609Y-123565980D02*
X140552609Y-122565980D01*
X141171657Y-123565980D02*
X141171657Y-122565980D01*
X141552609Y-122565980D01*
X141647847Y-122613600D01*
X141695466Y-122661219D01*
X141743085Y-122756457D01*
X141743085Y-122899314D01*
X141695466Y-122994552D01*
X141647847Y-123042171D01*
X141552609Y-123089790D01*
X141171657Y-123089790D01*
X142647847Y-122565980D02*
X142171657Y-122565980D01*
X142124038Y-123042171D01*
X142171657Y-122994552D01*
X142266895Y-122946933D01*
X142504990Y-122946933D01*
X142600228Y-122994552D01*
X142647847Y-123042171D01*
X142695466Y-123137409D01*
X142695466Y-123375504D01*
X142647847Y-123470742D01*
X142600228Y-123518361D01*
X142504990Y-123565980D01*
X142266895Y-123565980D01*
X142171657Y-123518361D01*
X142124038Y-123470742D01*
X145886704Y-118501980D02*
X146458133Y-118501980D01*
X146172419Y-119501980D02*
X146172419Y-118501980D01*
X146791466Y-119501980D02*
X146791466Y-118501980D01*
X147172419Y-118501980D01*
X147267657Y-118549600D01*
X147315276Y-118597219D01*
X147362895Y-118692457D01*
X147362895Y-118835314D01*
X147315276Y-118930552D01*
X147267657Y-118978171D01*
X147172419Y-119025790D01*
X146791466Y-119025790D01*
X148315276Y-119501980D02*
X147743847Y-119501980D01*
X148029561Y-119501980D02*
X148029561Y-118501980D01*
X147934323Y-118644838D01*
X147839085Y-118740076D01*
X147743847Y-118787695D01*
X149172419Y-118501980D02*
X148981942Y-118501980D01*
X148886704Y-118549600D01*
X148839085Y-118597219D01*
X148743847Y-118740076D01*
X148696228Y-118930552D01*
X148696228Y-119311504D01*
X148743847Y-119406742D01*
X148791466Y-119454361D01*
X148886704Y-119501980D01*
X149077180Y-119501980D01*
X149172419Y-119454361D01*
X149220038Y-119406742D01*
X149267657Y-119311504D01*
X149267657Y-119073409D01*
X149220038Y-118978171D01*
X149172419Y-118930552D01*
X149077180Y-118882933D01*
X148886704Y-118882933D01*
X148791466Y-118930552D01*
X148743847Y-118978171D01*
X148696228Y-119073409D01*
X149950704Y-122565980D02*
X150522133Y-122565980D01*
X150236419Y-123565980D02*
X150236419Y-122565980D01*
X150855466Y-123565980D02*
X150855466Y-122565980D01*
X151236419Y-122565980D01*
X151331657Y-122613600D01*
X151379276Y-122661219D01*
X151426895Y-122756457D01*
X151426895Y-122899314D01*
X151379276Y-122994552D01*
X151331657Y-123042171D01*
X151236419Y-123089790D01*
X150855466Y-123089790D01*
X151807847Y-122661219D02*
X151855466Y-122613600D01*
X151950704Y-122565980D01*
X152188800Y-122565980D01*
X152284038Y-122613600D01*
X152331657Y-122661219D01*
X152379276Y-122756457D01*
X152379276Y-122851695D01*
X152331657Y-122994552D01*
X151760228Y-123565980D01*
X152379276Y-123565980D01*
X152712609Y-122565980D02*
X153379276Y-122565980D01*
X152950704Y-123565980D01*
X147918704Y-124597980D02*
X148490133Y-124597980D01*
X148204419Y-125597980D02*
X148204419Y-124597980D01*
X148823466Y-125597980D02*
X148823466Y-124597980D01*
X149204419Y-124597980D01*
X149299657Y-124645600D01*
X149347276Y-124693219D01*
X149394895Y-124788457D01*
X149394895Y-124931314D01*
X149347276Y-125026552D01*
X149299657Y-125074171D01*
X149204419Y-125121790D01*
X148823466Y-125121790D01*
X149775847Y-124693219D02*
X149823466Y-124645600D01*
X149918704Y-124597980D01*
X150156800Y-124597980D01*
X150252038Y-124645600D01*
X150299657Y-124693219D01*
X150347276Y-124788457D01*
X150347276Y-124883695D01*
X150299657Y-125026552D01*
X149728228Y-125597980D01*
X150347276Y-125597980D01*
X151204419Y-124931314D02*
X151204419Y-125597980D01*
X150966323Y-124550361D02*
X150728228Y-125264647D01*
X151347276Y-125264647D01*
X143854704Y-122565980D02*
X144426133Y-122565980D01*
X144140419Y-123565980D02*
X144140419Y-122565980D01*
X144759466Y-123565980D02*
X144759466Y-122565980D01*
X145140419Y-122565980D01*
X145235657Y-122613600D01*
X145283276Y-122661219D01*
X145330895Y-122756457D01*
X145330895Y-122899314D01*
X145283276Y-122994552D01*
X145235657Y-123042171D01*
X145140419Y-123089790D01*
X144759466Y-123089790D01*
X146283276Y-123565980D02*
X145711847Y-123565980D01*
X145997561Y-123565980D02*
X145997561Y-122565980D01*
X145902323Y-122708838D01*
X145807085Y-122804076D01*
X145711847Y-122851695D01*
X147140419Y-122899314D02*
X147140419Y-123565980D01*
X146902323Y-122518361D02*
X146664228Y-123232647D01*
X147283276Y-123232647D01*
X145886704Y-122565980D02*
X146458133Y-122565980D01*
X146172419Y-123565980D02*
X146172419Y-122565980D01*
X146791466Y-123565980D02*
X146791466Y-122565980D01*
X147172419Y-122565980D01*
X147267657Y-122613600D01*
X147315276Y-122661219D01*
X147362895Y-122756457D01*
X147362895Y-122899314D01*
X147315276Y-122994552D01*
X147267657Y-123042171D01*
X147172419Y-123089790D01*
X146791466Y-123089790D01*
X148315276Y-123565980D02*
X147743847Y-123565980D01*
X148029561Y-123565980D02*
X148029561Y-122565980D01*
X147934323Y-122708838D01*
X147839085Y-122804076D01*
X147743847Y-122851695D01*
X148886704Y-122994552D02*
X148791466Y-122946933D01*
X148743847Y-122899314D01*
X148696228Y-122804076D01*
X148696228Y-122756457D01*
X148743847Y-122661219D01*
X148791466Y-122613600D01*
X148886704Y-122565980D01*
X149077180Y-122565980D01*
X149172419Y-122613600D01*
X149220038Y-122661219D01*
X149267657Y-122756457D01*
X149267657Y-122804076D01*
X149220038Y-122899314D01*
X149172419Y-122946933D01*
X149077180Y-122994552D01*
X148886704Y-122994552D01*
X148791466Y-123042171D01*
X148743847Y-123089790D01*
X148696228Y-123185028D01*
X148696228Y-123375504D01*
X148743847Y-123470742D01*
X148791466Y-123518361D01*
X148886704Y-123565980D01*
X149077180Y-123565980D01*
X149172419Y-123518361D01*
X149220038Y-123470742D01*
X149267657Y-123375504D01*
X149267657Y-123185028D01*
X149220038Y-123089790D01*
X149172419Y-123042171D01*
X149077180Y-122994552D01*
X147918704Y-130693980D02*
X148490133Y-130693980D01*
X148204419Y-131693980D02*
X148204419Y-130693980D01*
X148823466Y-131693980D02*
X148823466Y-130693980D01*
X149204419Y-130693980D01*
X149299657Y-130741600D01*
X149347276Y-130789219D01*
X149394895Y-130884457D01*
X149394895Y-131027314D01*
X149347276Y-131122552D01*
X149299657Y-131170171D01*
X149204419Y-131217790D01*
X148823466Y-131217790D01*
X150299657Y-130693980D02*
X149823466Y-130693980D01*
X149775847Y-131170171D01*
X149823466Y-131122552D01*
X149918704Y-131074933D01*
X150156800Y-131074933D01*
X150252038Y-131122552D01*
X150299657Y-131170171D01*
X150347276Y-131265409D01*
X150347276Y-131503504D01*
X150299657Y-131598742D01*
X150252038Y-131646361D01*
X150156800Y-131693980D01*
X149918704Y-131693980D01*
X149823466Y-131646361D01*
X149775847Y-131598742D01*
X151204419Y-131027314D02*
X151204419Y-131693980D01*
X150966323Y-130646361D02*
X150728228Y-131360647D01*
X151347276Y-131360647D01*
X141822704Y-124597980D02*
X142394133Y-124597980D01*
X142108419Y-125597980D02*
X142108419Y-124597980D01*
X142727466Y-125597980D02*
X142727466Y-124597980D01*
X143108419Y-124597980D01*
X143203657Y-124645600D01*
X143251276Y-124693219D01*
X143298895Y-124788457D01*
X143298895Y-124931314D01*
X143251276Y-125026552D01*
X143203657Y-125074171D01*
X143108419Y-125121790D01*
X142727466Y-125121790D01*
X144251276Y-125597980D02*
X143679847Y-125597980D01*
X143965561Y-125597980D02*
X143965561Y-124597980D01*
X143870323Y-124740838D01*
X143775085Y-124836076D01*
X143679847Y-124883695D01*
X145203657Y-125597980D02*
X144632228Y-125597980D01*
X144917942Y-125597980D02*
X144917942Y-124597980D01*
X144822704Y-124740838D01*
X144727466Y-124836076D01*
X144632228Y-124883695D01*
X151982704Y-134757980D02*
X152554133Y-134757980D01*
X152268419Y-135757980D02*
X152268419Y-134757980D01*
X152887466Y-135757980D02*
X152887466Y-134757980D01*
X153268419Y-134757980D01*
X153363657Y-134805600D01*
X153411276Y-134853219D01*
X153458895Y-134948457D01*
X153458895Y-135091314D01*
X153411276Y-135186552D01*
X153363657Y-135234171D01*
X153268419Y-135281790D01*
X152887466Y-135281790D01*
X154316038Y-135091314D02*
X154316038Y-135757980D01*
X154077942Y-134710361D02*
X153839847Y-135424647D01*
X154458895Y-135424647D01*
X154792228Y-134853219D02*
X154839847Y-134805600D01*
X154935085Y-134757980D01*
X155173180Y-134757980D01*
X155268419Y-134805600D01*
X155316038Y-134853219D01*
X155363657Y-134948457D01*
X155363657Y-135043695D01*
X155316038Y-135186552D01*
X154744609Y-135757980D01*
X155363657Y-135757980D01*
X154014704Y-118501980D02*
X154586133Y-118501980D01*
X154300419Y-119501980D02*
X154300419Y-118501980D01*
X154919466Y-119501980D02*
X154919466Y-118501980D01*
X155300419Y-118501980D01*
X155395657Y-118549600D01*
X155443276Y-118597219D01*
X155490895Y-118692457D01*
X155490895Y-118835314D01*
X155443276Y-118930552D01*
X155395657Y-118978171D01*
X155300419Y-119025790D01*
X154919466Y-119025790D01*
X155824228Y-118501980D02*
X156443276Y-118501980D01*
X156109942Y-118882933D01*
X156252800Y-118882933D01*
X156348038Y-118930552D01*
X156395657Y-118978171D01*
X156443276Y-119073409D01*
X156443276Y-119311504D01*
X156395657Y-119406742D01*
X156348038Y-119454361D01*
X156252800Y-119501980D01*
X155967085Y-119501980D01*
X155871847Y-119454361D01*
X155824228Y-119406742D01*
X156776609Y-118501980D02*
X157395657Y-118501980D01*
X157062323Y-118882933D01*
X157205180Y-118882933D01*
X157300419Y-118930552D01*
X157348038Y-118978171D01*
X157395657Y-119073409D01*
X157395657Y-119311504D01*
X157348038Y-119406742D01*
X157300419Y-119454361D01*
X157205180Y-119501980D01*
X156919466Y-119501980D01*
X156824228Y-119454361D01*
X156776609Y-119406742D01*
X145886704Y-120533980D02*
X146458133Y-120533980D01*
X146172419Y-121533980D02*
X146172419Y-120533980D01*
X146791466Y-121533980D02*
X146791466Y-120533980D01*
X147172419Y-120533980D01*
X147267657Y-120581600D01*
X147315276Y-120629219D01*
X147362895Y-120724457D01*
X147362895Y-120867314D01*
X147315276Y-120962552D01*
X147267657Y-121010171D01*
X147172419Y-121057790D01*
X146791466Y-121057790D01*
X148315276Y-121533980D02*
X147743847Y-121533980D01*
X148029561Y-121533980D02*
X148029561Y-120533980D01*
X147934323Y-120676838D01*
X147839085Y-120772076D01*
X147743847Y-120819695D01*
X148648609Y-120533980D02*
X149315276Y-120533980D01*
X148886704Y-121533980D01*
X147918704Y-120533980D02*
X148490133Y-120533980D01*
X148204419Y-121533980D02*
X148204419Y-120533980D01*
X148823466Y-121533980D02*
X148823466Y-120533980D01*
X149204419Y-120533980D01*
X149299657Y-120581600D01*
X149347276Y-120629219D01*
X149394895Y-120724457D01*
X149394895Y-120867314D01*
X149347276Y-120962552D01*
X149299657Y-121010171D01*
X149204419Y-121057790D01*
X148823466Y-121057790D01*
X149775847Y-120629219D02*
X149823466Y-120581600D01*
X149918704Y-120533980D01*
X150156800Y-120533980D01*
X150252038Y-120581600D01*
X150299657Y-120629219D01*
X150347276Y-120724457D01*
X150347276Y-120819695D01*
X150299657Y-120962552D01*
X149728228Y-121533980D01*
X150347276Y-121533980D01*
X150728228Y-120629219D02*
X150775847Y-120581600D01*
X150871085Y-120533980D01*
X151109180Y-120533980D01*
X151204419Y-120581600D01*
X151252038Y-120629219D01*
X151299657Y-120724457D01*
X151299657Y-120819695D01*
X151252038Y-120962552D01*
X150680609Y-121533980D01*
X151299657Y-121533980D01*
X145886704Y-126629980D02*
X146458133Y-126629980D01*
X146172419Y-127629980D02*
X146172419Y-126629980D01*
X146791466Y-127629980D02*
X146791466Y-126629980D01*
X147172419Y-126629980D01*
X147267657Y-126677600D01*
X147315276Y-126725219D01*
X147362895Y-126820457D01*
X147362895Y-126963314D01*
X147315276Y-127058552D01*
X147267657Y-127106171D01*
X147172419Y-127153790D01*
X146791466Y-127153790D01*
X148267657Y-126629980D02*
X147791466Y-126629980D01*
X147743847Y-127106171D01*
X147791466Y-127058552D01*
X147886704Y-127010933D01*
X148124800Y-127010933D01*
X148220038Y-127058552D01*
X148267657Y-127106171D01*
X148315276Y-127201409D01*
X148315276Y-127439504D01*
X148267657Y-127534742D01*
X148220038Y-127582361D01*
X148124800Y-127629980D01*
X147886704Y-127629980D01*
X147791466Y-127582361D01*
X147743847Y-127534742D01*
X149172419Y-126629980D02*
X148981942Y-126629980D01*
X148886704Y-126677600D01*
X148839085Y-126725219D01*
X148743847Y-126868076D01*
X148696228Y-127058552D01*
X148696228Y-127439504D01*
X148743847Y-127534742D01*
X148791466Y-127582361D01*
X148886704Y-127629980D01*
X149077180Y-127629980D01*
X149172419Y-127582361D01*
X149220038Y-127534742D01*
X149267657Y-127439504D01*
X149267657Y-127201409D01*
X149220038Y-127106171D01*
X149172419Y-127058552D01*
X149077180Y-127010933D01*
X148886704Y-127010933D01*
X148791466Y-127058552D01*
X148743847Y-127106171D01*
X148696228Y-127201409D01*
X143854704Y-134757980D02*
X144426133Y-134757980D01*
X144140419Y-135757980D02*
X144140419Y-134757980D01*
X144759466Y-135757980D02*
X144759466Y-134757980D01*
X145140419Y-134757980D01*
X145235657Y-134805600D01*
X145283276Y-134853219D01*
X145330895Y-134948457D01*
X145330895Y-135091314D01*
X145283276Y-135186552D01*
X145235657Y-135234171D01*
X145140419Y-135281790D01*
X144759466Y-135281790D01*
X146235657Y-134757980D02*
X145759466Y-134757980D01*
X145711847Y-135234171D01*
X145759466Y-135186552D01*
X145854704Y-135138933D01*
X146092800Y-135138933D01*
X146188038Y-135186552D01*
X146235657Y-135234171D01*
X146283276Y-135329409D01*
X146283276Y-135567504D01*
X146235657Y-135662742D01*
X146188038Y-135710361D01*
X146092800Y-135757980D01*
X145854704Y-135757980D01*
X145759466Y-135710361D01*
X145711847Y-135662742D01*
X146616609Y-134757980D02*
X147283276Y-134757980D01*
X146854704Y-135757980D01*
X154014704Y-130693980D02*
X154586133Y-130693980D01*
X154300419Y-131693980D02*
X154300419Y-130693980D01*
X154919466Y-131693980D02*
X154919466Y-130693980D01*
X155300419Y-130693980D01*
X155395657Y-130741600D01*
X155443276Y-130789219D01*
X155490895Y-130884457D01*
X155490895Y-131027314D01*
X155443276Y-131122552D01*
X155395657Y-131170171D01*
X155300419Y-131217790D01*
X154919466Y-131217790D01*
X155824228Y-130693980D02*
X156443276Y-130693980D01*
X156109942Y-131074933D01*
X156252800Y-131074933D01*
X156348038Y-131122552D01*
X156395657Y-131170171D01*
X156443276Y-131265409D01*
X156443276Y-131503504D01*
X156395657Y-131598742D01*
X156348038Y-131646361D01*
X156252800Y-131693980D01*
X155967085Y-131693980D01*
X155871847Y-131646361D01*
X155824228Y-131598742D01*
X156919466Y-131693980D02*
X157109942Y-131693980D01*
X157205180Y-131646361D01*
X157252800Y-131598742D01*
X157348038Y-131455885D01*
X157395657Y-131265409D01*
X157395657Y-130884457D01*
X157348038Y-130789219D01*
X157300419Y-130741600D01*
X157205180Y-130693980D01*
X157014704Y-130693980D01*
X156919466Y-130741600D01*
X156871847Y-130789219D01*
X156824228Y-130884457D01*
X156824228Y-131122552D01*
X156871847Y-131217790D01*
X156919466Y-131265409D01*
X157014704Y-131313028D01*
X157205180Y-131313028D01*
X157300419Y-131265409D01*
X157348038Y-131217790D01*
X157395657Y-131122552D01*
X147918704Y-128661980D02*
X148490133Y-128661980D01*
X148204419Y-129661980D02*
X148204419Y-128661980D01*
X148823466Y-129661980D02*
X148823466Y-128661980D01*
X149204419Y-128661980D01*
X149299657Y-128709600D01*
X149347276Y-128757219D01*
X149394895Y-128852457D01*
X149394895Y-128995314D01*
X149347276Y-129090552D01*
X149299657Y-129138171D01*
X149204419Y-129185790D01*
X148823466Y-129185790D01*
X150252038Y-128661980D02*
X150061561Y-128661980D01*
X149966323Y-128709600D01*
X149918704Y-128757219D01*
X149823466Y-128900076D01*
X149775847Y-129090552D01*
X149775847Y-129471504D01*
X149823466Y-129566742D01*
X149871085Y-129614361D01*
X149966323Y-129661980D01*
X150156800Y-129661980D01*
X150252038Y-129614361D01*
X150299657Y-129566742D01*
X150347276Y-129471504D01*
X150347276Y-129233409D01*
X150299657Y-129138171D01*
X150252038Y-129090552D01*
X150156800Y-129042933D01*
X149966323Y-129042933D01*
X149871085Y-129090552D01*
X149823466Y-129138171D01*
X149775847Y-129233409D01*
X150966323Y-128661980D02*
X151061561Y-128661980D01*
X151156800Y-128709600D01*
X151204419Y-128757219D01*
X151252038Y-128852457D01*
X151299657Y-129042933D01*
X151299657Y-129281028D01*
X151252038Y-129471504D01*
X151204419Y-129566742D01*
X151156800Y-129614361D01*
X151061561Y-129661980D01*
X150966323Y-129661980D01*
X150871085Y-129614361D01*
X150823466Y-129566742D01*
X150775847Y-129471504D01*
X150728228Y-129281028D01*
X150728228Y-129042933D01*
X150775847Y-128852457D01*
X150823466Y-128757219D01*
X150871085Y-128709600D01*
X150966323Y-128661980D01*
X147918704Y-126629980D02*
X148490133Y-126629980D01*
X148204419Y-127629980D02*
X148204419Y-126629980D01*
X148823466Y-127629980D02*
X148823466Y-126629980D01*
X149204419Y-126629980D01*
X149299657Y-126677600D01*
X149347276Y-126725219D01*
X149394895Y-126820457D01*
X149394895Y-126963314D01*
X149347276Y-127058552D01*
X149299657Y-127106171D01*
X149204419Y-127153790D01*
X148823466Y-127153790D01*
X150252038Y-126629980D02*
X150061561Y-126629980D01*
X149966323Y-126677600D01*
X149918704Y-126725219D01*
X149823466Y-126868076D01*
X149775847Y-127058552D01*
X149775847Y-127439504D01*
X149823466Y-127534742D01*
X149871085Y-127582361D01*
X149966323Y-127629980D01*
X150156800Y-127629980D01*
X150252038Y-127582361D01*
X150299657Y-127534742D01*
X150347276Y-127439504D01*
X150347276Y-127201409D01*
X150299657Y-127106171D01*
X150252038Y-127058552D01*
X150156800Y-127010933D01*
X149966323Y-127010933D01*
X149871085Y-127058552D01*
X149823466Y-127106171D01*
X149775847Y-127201409D01*
X151299657Y-127629980D02*
X150728228Y-127629980D01*
X151013942Y-127629980D02*
X151013942Y-126629980D01*
X150918704Y-126772838D01*
X150823466Y-126868076D01*
X150728228Y-126915695D01*
X139790704Y-130693980D02*
X140362133Y-130693980D01*
X140076419Y-131693980D02*
X140076419Y-130693980D01*
X140695466Y-131693980D02*
X140695466Y-130693980D01*
X141076419Y-130693980D01*
X141171657Y-130741600D01*
X141219276Y-130789219D01*
X141266895Y-130884457D01*
X141266895Y-131027314D01*
X141219276Y-131122552D01*
X141171657Y-131170171D01*
X141076419Y-131217790D01*
X140695466Y-131217790D01*
X141600228Y-130693980D02*
X142266895Y-130693980D01*
X141838323Y-131693980D01*
X143076419Y-131027314D02*
X143076419Y-131693980D01*
X142838323Y-130646361D02*
X142600228Y-131360647D01*
X143219276Y-131360647D01*
X154014704Y-126629980D02*
X154586133Y-126629980D01*
X154300419Y-127629980D02*
X154300419Y-126629980D01*
X154919466Y-127629980D02*
X154919466Y-126629980D01*
X155300419Y-126629980D01*
X155395657Y-126677600D01*
X155443276Y-126725219D01*
X155490895Y-126820457D01*
X155490895Y-126963314D01*
X155443276Y-127058552D01*
X155395657Y-127106171D01*
X155300419Y-127153790D01*
X154919466Y-127153790D01*
X155824228Y-126629980D02*
X156490895Y-126629980D01*
X156062323Y-127629980D01*
X157300419Y-126629980D02*
X157109942Y-126629980D01*
X157014704Y-126677600D01*
X156967085Y-126725219D01*
X156871847Y-126868076D01*
X156824228Y-127058552D01*
X156824228Y-127439504D01*
X156871847Y-127534742D01*
X156919466Y-127582361D01*
X157014704Y-127629980D01*
X157205180Y-127629980D01*
X157300419Y-127582361D01*
X157348038Y-127534742D01*
X157395657Y-127439504D01*
X157395657Y-127201409D01*
X157348038Y-127106171D01*
X157300419Y-127058552D01*
X157205180Y-127010933D01*
X157014704Y-127010933D01*
X156919466Y-127058552D01*
X156871847Y-127106171D01*
X156824228Y-127201409D01*
X141822704Y-126629980D02*
X142394133Y-126629980D01*
X142108419Y-127629980D02*
X142108419Y-126629980D01*
X142727466Y-127629980D02*
X142727466Y-126629980D01*
X143108419Y-126629980D01*
X143203657Y-126677600D01*
X143251276Y-126725219D01*
X143298895Y-126820457D01*
X143298895Y-126963314D01*
X143251276Y-127058552D01*
X143203657Y-127106171D01*
X143108419Y-127153790D01*
X142727466Y-127153790D01*
X144156038Y-126963314D02*
X144156038Y-127629980D01*
X143917942Y-126582361D02*
X143679847Y-127296647D01*
X144298895Y-127296647D01*
X145108419Y-126629980D02*
X144917942Y-126629980D01*
X144822704Y-126677600D01*
X144775085Y-126725219D01*
X144679847Y-126868076D01*
X144632228Y-127058552D01*
X144632228Y-127439504D01*
X144679847Y-127534742D01*
X144727466Y-127582361D01*
X144822704Y-127629980D01*
X145013180Y-127629980D01*
X145108419Y-127582361D01*
X145156038Y-127534742D01*
X145203657Y-127439504D01*
X145203657Y-127201409D01*
X145156038Y-127106171D01*
X145108419Y-127058552D01*
X145013180Y-127010933D01*
X144822704Y-127010933D01*
X144727466Y-127058552D01*
X144679847Y-127106171D01*
X144632228Y-127201409D01*
X151982704Y-120533980D02*
X152554133Y-120533980D01*
X152268419Y-121533980D02*
X152268419Y-120533980D01*
X152887466Y-121533980D02*
X152887466Y-120533980D01*
X153268419Y-120533980D01*
X153363657Y-120581600D01*
X153411276Y-120629219D01*
X153458895Y-120724457D01*
X153458895Y-120867314D01*
X153411276Y-120962552D01*
X153363657Y-121010171D01*
X153268419Y-121057790D01*
X152887466Y-121057790D01*
X153792228Y-120533980D02*
X154411276Y-120533980D01*
X154077942Y-120914933D01*
X154220800Y-120914933D01*
X154316038Y-120962552D01*
X154363657Y-121010171D01*
X154411276Y-121105409D01*
X154411276Y-121343504D01*
X154363657Y-121438742D01*
X154316038Y-121486361D01*
X154220800Y-121533980D01*
X153935085Y-121533980D01*
X153839847Y-121486361D01*
X153792228Y-121438742D01*
X155030323Y-120533980D02*
X155125561Y-120533980D01*
X155220800Y-120581600D01*
X155268419Y-120629219D01*
X155316038Y-120724457D01*
X155363657Y-120914933D01*
X155363657Y-121153028D01*
X155316038Y-121343504D01*
X155268419Y-121438742D01*
X155220800Y-121486361D01*
X155125561Y-121533980D01*
X155030323Y-121533980D01*
X154935085Y-121486361D01*
X154887466Y-121438742D01*
X154839847Y-121343504D01*
X154792228Y-121153028D01*
X154792228Y-120914933D01*
X154839847Y-120724457D01*
X154887466Y-120629219D01*
X154935085Y-120581600D01*
X155030323Y-120533980D01*
X143854704Y-120533980D02*
X144426133Y-120533980D01*
X144140419Y-121533980D02*
X144140419Y-120533980D01*
X144759466Y-121533980D02*
X144759466Y-120533980D01*
X145140419Y-120533980D01*
X145235657Y-120581600D01*
X145283276Y-120629219D01*
X145330895Y-120724457D01*
X145330895Y-120867314D01*
X145283276Y-120962552D01*
X145235657Y-121010171D01*
X145140419Y-121057790D01*
X144759466Y-121057790D01*
X146283276Y-121533980D02*
X145711847Y-121533980D01*
X145997561Y-121533980D02*
X145997561Y-120533980D01*
X145902323Y-120676838D01*
X145807085Y-120772076D01*
X145711847Y-120819695D01*
X146616609Y-120533980D02*
X147235657Y-120533980D01*
X146902323Y-120914933D01*
X147045180Y-120914933D01*
X147140419Y-120962552D01*
X147188038Y-121010171D01*
X147235657Y-121105409D01*
X147235657Y-121343504D01*
X147188038Y-121438742D01*
X147140419Y-121486361D01*
X147045180Y-121533980D01*
X146759466Y-121533980D01*
X146664228Y-121486361D01*
X146616609Y-121438742D01*
X149950704Y-134757980D02*
X150522133Y-134757980D01*
X150236419Y-135757980D02*
X150236419Y-134757980D01*
X150855466Y-135757980D02*
X150855466Y-134757980D01*
X151236419Y-134757980D01*
X151331657Y-134805600D01*
X151379276Y-134853219D01*
X151426895Y-134948457D01*
X151426895Y-135091314D01*
X151379276Y-135186552D01*
X151331657Y-135234171D01*
X151236419Y-135281790D01*
X150855466Y-135281790D01*
X152284038Y-135091314D02*
X152284038Y-135757980D01*
X152045942Y-134710361D02*
X151807847Y-135424647D01*
X152426895Y-135424647D01*
X152712609Y-134757980D02*
X153379276Y-134757980D01*
X152950704Y-135757980D01*
X141822704Y-134757980D02*
X142394133Y-134757980D01*
X142108419Y-135757980D02*
X142108419Y-134757980D01*
X142727466Y-135757980D02*
X142727466Y-134757980D01*
X143108419Y-134757980D01*
X143203657Y-134805600D01*
X143251276Y-134853219D01*
X143298895Y-134948457D01*
X143298895Y-135091314D01*
X143251276Y-135186552D01*
X143203657Y-135234171D01*
X143108419Y-135281790D01*
X142727466Y-135281790D01*
X144156038Y-134757980D02*
X143965561Y-134757980D01*
X143870323Y-134805600D01*
X143822704Y-134853219D01*
X143727466Y-134996076D01*
X143679847Y-135186552D01*
X143679847Y-135567504D01*
X143727466Y-135662742D01*
X143775085Y-135710361D01*
X143870323Y-135757980D01*
X144060800Y-135757980D01*
X144156038Y-135710361D01*
X144203657Y-135662742D01*
X144251276Y-135567504D01*
X144251276Y-135329409D01*
X144203657Y-135234171D01*
X144156038Y-135186552D01*
X144060800Y-135138933D01*
X143870323Y-135138933D01*
X143775085Y-135186552D01*
X143727466Y-135234171D01*
X143679847Y-135329409D01*
X144632228Y-134853219D02*
X144679847Y-134805600D01*
X144775085Y-134757980D01*
X145013180Y-134757980D01*
X145108419Y-134805600D01*
X145156038Y-134853219D01*
X145203657Y-134948457D01*
X145203657Y-135043695D01*
X145156038Y-135186552D01*
X144584609Y-135757980D01*
X145203657Y-135757980D01*
X143854704Y-132725980D02*
X144426133Y-132725980D01*
X144140419Y-133725980D02*
X144140419Y-132725980D01*
X144759466Y-133725980D02*
X144759466Y-132725980D01*
X145140419Y-132725980D01*
X145235657Y-132773600D01*
X145283276Y-132821219D01*
X145330895Y-132916457D01*
X145330895Y-133059314D01*
X145283276Y-133154552D01*
X145235657Y-133202171D01*
X145140419Y-133249790D01*
X144759466Y-133249790D01*
X146188038Y-132725980D02*
X145997561Y-132725980D01*
X145902323Y-132773600D01*
X145854704Y-132821219D01*
X145759466Y-132964076D01*
X145711847Y-133154552D01*
X145711847Y-133535504D01*
X145759466Y-133630742D01*
X145807085Y-133678361D01*
X145902323Y-133725980D01*
X146092800Y-133725980D01*
X146188038Y-133678361D01*
X146235657Y-133630742D01*
X146283276Y-133535504D01*
X146283276Y-133297409D01*
X146235657Y-133202171D01*
X146188038Y-133154552D01*
X146092800Y-133106933D01*
X145902323Y-133106933D01*
X145807085Y-133154552D01*
X145759466Y-133202171D01*
X145711847Y-133297409D01*
X146616609Y-132725980D02*
X147235657Y-132725980D01*
X146902323Y-133106933D01*
X147045180Y-133106933D01*
X147140419Y-133154552D01*
X147188038Y-133202171D01*
X147235657Y-133297409D01*
X147235657Y-133535504D01*
X147188038Y-133630742D01*
X147140419Y-133678361D01*
X147045180Y-133725980D01*
X146759466Y-133725980D01*
X146664228Y-133678361D01*
X146616609Y-133630742D01*
X149950704Y-126629980D02*
X150522133Y-126629980D01*
X150236419Y-127629980D02*
X150236419Y-126629980D01*
X150855466Y-127629980D02*
X150855466Y-126629980D01*
X151236419Y-126629980D01*
X151331657Y-126677600D01*
X151379276Y-126725219D01*
X151426895Y-126820457D01*
X151426895Y-126963314D01*
X151379276Y-127058552D01*
X151331657Y-127106171D01*
X151236419Y-127153790D01*
X150855466Y-127153790D01*
X152284038Y-126629980D02*
X152093561Y-126629980D01*
X151998323Y-126677600D01*
X151950704Y-126725219D01*
X151855466Y-126868076D01*
X151807847Y-127058552D01*
X151807847Y-127439504D01*
X151855466Y-127534742D01*
X151903085Y-127582361D01*
X151998323Y-127629980D01*
X152188800Y-127629980D01*
X152284038Y-127582361D01*
X152331657Y-127534742D01*
X152379276Y-127439504D01*
X152379276Y-127201409D01*
X152331657Y-127106171D01*
X152284038Y-127058552D01*
X152188800Y-127010933D01*
X151998323Y-127010933D01*
X151903085Y-127058552D01*
X151855466Y-127106171D01*
X151807847Y-127201409D01*
X153236419Y-126629980D02*
X153045942Y-126629980D01*
X152950704Y-126677600D01*
X152903085Y-126725219D01*
X152807847Y-126868076D01*
X152760228Y-127058552D01*
X152760228Y-127439504D01*
X152807847Y-127534742D01*
X152855466Y-127582361D01*
X152950704Y-127629980D01*
X153141180Y-127629980D01*
X153236419Y-127582361D01*
X153284038Y-127534742D01*
X153331657Y-127439504D01*
X153331657Y-127201409D01*
X153284038Y-127106171D01*
X153236419Y-127058552D01*
X153141180Y-127010933D01*
X152950704Y-127010933D01*
X152855466Y-127058552D01*
X152807847Y-127106171D01*
X152760228Y-127201409D01*
X139790704Y-134757980D02*
X140362133Y-134757980D01*
X140076419Y-135757980D02*
X140076419Y-134757980D01*
X140695466Y-135757980D02*
X140695466Y-134757980D01*
X141076419Y-134757980D01*
X141171657Y-134805600D01*
X141219276Y-134853219D01*
X141266895Y-134948457D01*
X141266895Y-135091314D01*
X141219276Y-135186552D01*
X141171657Y-135234171D01*
X141076419Y-135281790D01*
X140695466Y-135281790D01*
X142124038Y-134757980D02*
X141933561Y-134757980D01*
X141838323Y-134805600D01*
X141790704Y-134853219D01*
X141695466Y-134996076D01*
X141647847Y-135186552D01*
X141647847Y-135567504D01*
X141695466Y-135662742D01*
X141743085Y-135710361D01*
X141838323Y-135757980D01*
X142028800Y-135757980D01*
X142124038Y-135710361D01*
X142171657Y-135662742D01*
X142219276Y-135567504D01*
X142219276Y-135329409D01*
X142171657Y-135234171D01*
X142124038Y-135186552D01*
X142028800Y-135138933D01*
X141838323Y-135138933D01*
X141743085Y-135186552D01*
X141695466Y-135234171D01*
X141647847Y-135329409D01*
X142552609Y-134757980D02*
X143219276Y-134757980D01*
X142790704Y-135757980D01*
X141822704Y-132725980D02*
X142394133Y-132725980D01*
X142108419Y-133725980D02*
X142108419Y-132725980D01*
X142727466Y-133725980D02*
X142727466Y-132725980D01*
X143108419Y-132725980D01*
X143203657Y-132773600D01*
X143251276Y-132821219D01*
X143298895Y-132916457D01*
X143298895Y-133059314D01*
X143251276Y-133154552D01*
X143203657Y-133202171D01*
X143108419Y-133249790D01*
X142727466Y-133249790D01*
X144156038Y-132725980D02*
X143965561Y-132725980D01*
X143870323Y-132773600D01*
X143822704Y-132821219D01*
X143727466Y-132964076D01*
X143679847Y-133154552D01*
X143679847Y-133535504D01*
X143727466Y-133630742D01*
X143775085Y-133678361D01*
X143870323Y-133725980D01*
X144060800Y-133725980D01*
X144156038Y-133678361D01*
X144203657Y-133630742D01*
X144251276Y-133535504D01*
X144251276Y-133297409D01*
X144203657Y-133202171D01*
X144156038Y-133154552D01*
X144060800Y-133106933D01*
X143870323Y-133106933D01*
X143775085Y-133154552D01*
X143727466Y-133202171D01*
X143679847Y-133297409D01*
X144822704Y-133154552D02*
X144727466Y-133106933D01*
X144679847Y-133059314D01*
X144632228Y-132964076D01*
X144632228Y-132916457D01*
X144679847Y-132821219D01*
X144727466Y-132773600D01*
X144822704Y-132725980D01*
X145013180Y-132725980D01*
X145108419Y-132773600D01*
X145156038Y-132821219D01*
X145203657Y-132916457D01*
X145203657Y-132964076D01*
X145156038Y-133059314D01*
X145108419Y-133106933D01*
X145013180Y-133154552D01*
X144822704Y-133154552D01*
X144727466Y-133202171D01*
X144679847Y-133249790D01*
X144632228Y-133345028D01*
X144632228Y-133535504D01*
X144679847Y-133630742D01*
X144727466Y-133678361D01*
X144822704Y-133725980D01*
X145013180Y-133725980D01*
X145108419Y-133678361D01*
X145156038Y-133630742D01*
X145203657Y-133535504D01*
X145203657Y-133345028D01*
X145156038Y-133249790D01*
X145108419Y-133202171D01*
X145013180Y-133154552D01*
X139790704Y-128661980D02*
X140362133Y-128661980D01*
X140076419Y-129661980D02*
X140076419Y-128661980D01*
X140695466Y-129661980D02*
X140695466Y-128661980D01*
X141076419Y-128661980D01*
X141171657Y-128709600D01*
X141219276Y-128757219D01*
X141266895Y-128852457D01*
X141266895Y-128995314D01*
X141219276Y-129090552D01*
X141171657Y-129138171D01*
X141076419Y-129185790D01*
X140695466Y-129185790D01*
X142124038Y-128995314D02*
X142124038Y-129661980D01*
X141885942Y-128614361D02*
X141647847Y-129328647D01*
X142266895Y-129328647D01*
X142838323Y-128661980D02*
X142933561Y-128661980D01*
X143028800Y-128709600D01*
X143076419Y-128757219D01*
X143124038Y-128852457D01*
X143171657Y-129042933D01*
X143171657Y-129281028D01*
X143124038Y-129471504D01*
X143076419Y-129566742D01*
X143028800Y-129614361D01*
X142933561Y-129661980D01*
X142838323Y-129661980D01*
X142743085Y-129614361D01*
X142695466Y-129566742D01*
X142647847Y-129471504D01*
X142600228Y-129281028D01*
X142600228Y-129042933D01*
X142647847Y-128852457D01*
X142695466Y-128757219D01*
X142743085Y-128709600D01*
X142838323Y-128661980D01*
X140266895Y-120533980D02*
X140838323Y-120533980D01*
X140552609Y-121533980D02*
X140552609Y-120533980D01*
X141171657Y-121533980D02*
X141171657Y-120533980D01*
X141552609Y-120533980D01*
X141647847Y-120581600D01*
X141695466Y-120629219D01*
X141743085Y-120724457D01*
X141743085Y-120867314D01*
X141695466Y-120962552D01*
X141647847Y-121010171D01*
X141552609Y-121057790D01*
X141171657Y-121057790D01*
X142600228Y-120867314D02*
X142600228Y-121533980D01*
X142362133Y-120486361D02*
X142124038Y-121200647D01*
X142743085Y-121200647D01*
X147918704Y-122565980D02*
X148490133Y-122565980D01*
X148204419Y-123565980D02*
X148204419Y-122565980D01*
X148823466Y-123565980D02*
X148823466Y-122565980D01*
X149204419Y-122565980D01*
X149299657Y-122613600D01*
X149347276Y-122661219D01*
X149394895Y-122756457D01*
X149394895Y-122899314D01*
X149347276Y-122994552D01*
X149299657Y-123042171D01*
X149204419Y-123089790D01*
X148823466Y-123089790D01*
X149775847Y-122661219D02*
X149823466Y-122613600D01*
X149918704Y-122565980D01*
X150156800Y-122565980D01*
X150252038Y-122613600D01*
X150299657Y-122661219D01*
X150347276Y-122756457D01*
X150347276Y-122851695D01*
X150299657Y-122994552D01*
X149728228Y-123565980D01*
X150347276Y-123565980D01*
X150680609Y-122565980D02*
X151299657Y-122565980D01*
X150966323Y-122946933D01*
X151109180Y-122946933D01*
X151204419Y-122994552D01*
X151252038Y-123042171D01*
X151299657Y-123137409D01*
X151299657Y-123375504D01*
X151252038Y-123470742D01*
X151204419Y-123518361D01*
X151109180Y-123565980D01*
X150823466Y-123565980D01*
X150728228Y-123518361D01*
X150680609Y-123470742D01*
X140266895Y-124597980D02*
X140838323Y-124597980D01*
X140552609Y-125597980D02*
X140552609Y-124597980D01*
X141171657Y-125597980D02*
X141171657Y-124597980D01*
X141552609Y-124597980D01*
X141647847Y-124645600D01*
X141695466Y-124693219D01*
X141743085Y-124788457D01*
X141743085Y-124931314D01*
X141695466Y-125026552D01*
X141647847Y-125074171D01*
X141552609Y-125121790D01*
X141171657Y-125121790D01*
X142600228Y-124597980D02*
X142409752Y-124597980D01*
X142314514Y-124645600D01*
X142266895Y-124693219D01*
X142171657Y-124836076D01*
X142124038Y-125026552D01*
X142124038Y-125407504D01*
X142171657Y-125502742D01*
X142219276Y-125550361D01*
X142314514Y-125597980D01*
X142504990Y-125597980D01*
X142600228Y-125550361D01*
X142647847Y-125502742D01*
X142695466Y-125407504D01*
X142695466Y-125169409D01*
X142647847Y-125074171D01*
X142600228Y-125026552D01*
X142504990Y-124978933D01*
X142314514Y-124978933D01*
X142219276Y-125026552D01*
X142171657Y-125074171D01*
X142124038Y-125169409D01*
X151982704Y-126629980D02*
X152554133Y-126629980D01*
X152268419Y-127629980D02*
X152268419Y-126629980D01*
X152887466Y-127629980D02*
X152887466Y-126629980D01*
X153268419Y-126629980D01*
X153363657Y-126677600D01*
X153411276Y-126725219D01*
X153458895Y-126820457D01*
X153458895Y-126963314D01*
X153411276Y-127058552D01*
X153363657Y-127106171D01*
X153268419Y-127153790D01*
X152887466Y-127153790D01*
X153792228Y-126629980D02*
X154458895Y-126629980D01*
X154030323Y-127629980D01*
X155363657Y-127629980D02*
X154792228Y-127629980D01*
X155077942Y-127629980D02*
X155077942Y-126629980D01*
X154982704Y-126772838D01*
X154887466Y-126868076D01*
X154792228Y-126915695D01*
X139790704Y-132725980D02*
X140362133Y-132725980D01*
X140076419Y-133725980D02*
X140076419Y-132725980D01*
X140695466Y-133725980D02*
X140695466Y-132725980D01*
X141076419Y-132725980D01*
X141171657Y-132773600D01*
X141219276Y-132821219D01*
X141266895Y-132916457D01*
X141266895Y-133059314D01*
X141219276Y-133154552D01*
X141171657Y-133202171D01*
X141076419Y-133249790D01*
X140695466Y-133249790D01*
X141600228Y-132725980D02*
X142266895Y-132725980D01*
X141838323Y-133725980D01*
X142552609Y-132725980D02*
X143171657Y-132725980D01*
X142838323Y-133106933D01*
X142981180Y-133106933D01*
X143076419Y-133154552D01*
X143124038Y-133202171D01*
X143171657Y-133297409D01*
X143171657Y-133535504D01*
X143124038Y-133630742D01*
X143076419Y-133678361D01*
X142981180Y-133725980D01*
X142695466Y-133725980D01*
X142600228Y-133678361D01*
X142552609Y-133630742D01*
X145886704Y-128661980D02*
X146458133Y-128661980D01*
X146172419Y-129661980D02*
X146172419Y-128661980D01*
X146791466Y-129661980D02*
X146791466Y-128661980D01*
X147172419Y-128661980D01*
X147267657Y-128709600D01*
X147315276Y-128757219D01*
X147362895Y-128852457D01*
X147362895Y-128995314D01*
X147315276Y-129090552D01*
X147267657Y-129138171D01*
X147172419Y-129185790D01*
X146791466Y-129185790D01*
X148267657Y-128661980D02*
X147791466Y-128661980D01*
X147743847Y-129138171D01*
X147791466Y-129090552D01*
X147886704Y-129042933D01*
X148124800Y-129042933D01*
X148220038Y-129090552D01*
X148267657Y-129138171D01*
X148315276Y-129233409D01*
X148315276Y-129471504D01*
X148267657Y-129566742D01*
X148220038Y-129614361D01*
X148124800Y-129661980D01*
X147886704Y-129661980D01*
X147791466Y-129614361D01*
X147743847Y-129566742D01*
X149220038Y-128661980D02*
X148743847Y-128661980D01*
X148696228Y-129138171D01*
X148743847Y-129090552D01*
X148839085Y-129042933D01*
X149077180Y-129042933D01*
X149172419Y-129090552D01*
X149220038Y-129138171D01*
X149267657Y-129233409D01*
X149267657Y-129471504D01*
X149220038Y-129566742D01*
X149172419Y-129614361D01*
X149077180Y-129661980D01*
X148839085Y-129661980D01*
X148743847Y-129614361D01*
X148696228Y-129566742D01*
X151982704Y-132725980D02*
X152554133Y-132725980D01*
X152268419Y-133725980D02*
X152268419Y-132725980D01*
X152887466Y-133725980D02*
X152887466Y-132725980D01*
X153268419Y-132725980D01*
X153363657Y-132773600D01*
X153411276Y-132821219D01*
X153458895Y-132916457D01*
X153458895Y-133059314D01*
X153411276Y-133154552D01*
X153363657Y-133202171D01*
X153268419Y-133249790D01*
X152887466Y-133249790D01*
X154316038Y-133059314D02*
X154316038Y-133725980D01*
X154077942Y-132678361D02*
X153839847Y-133392647D01*
X154458895Y-133392647D01*
X154744609Y-132725980D02*
X155363657Y-132725980D01*
X155030323Y-133106933D01*
X155173180Y-133106933D01*
X155268419Y-133154552D01*
X155316038Y-133202171D01*
X155363657Y-133297409D01*
X155363657Y-133535504D01*
X155316038Y-133630742D01*
X155268419Y-133678361D01*
X155173180Y-133725980D01*
X154887466Y-133725980D01*
X154792228Y-133678361D01*
X154744609Y-133630742D01*
X143854704Y-126629980D02*
X144426133Y-126629980D01*
X144140419Y-127629980D02*
X144140419Y-126629980D01*
X144759466Y-127629980D02*
X144759466Y-126629980D01*
X145140419Y-126629980D01*
X145235657Y-126677600D01*
X145283276Y-126725219D01*
X145330895Y-126820457D01*
X145330895Y-126963314D01*
X145283276Y-127058552D01*
X145235657Y-127106171D01*
X145140419Y-127153790D01*
X144759466Y-127153790D01*
X146235657Y-126629980D02*
X145759466Y-126629980D01*
X145711847Y-127106171D01*
X145759466Y-127058552D01*
X145854704Y-127010933D01*
X146092800Y-127010933D01*
X146188038Y-127058552D01*
X146235657Y-127106171D01*
X146283276Y-127201409D01*
X146283276Y-127439504D01*
X146235657Y-127534742D01*
X146188038Y-127582361D01*
X146092800Y-127629980D01*
X145854704Y-127629980D01*
X145759466Y-127582361D01*
X145711847Y-127534742D01*
X147235657Y-127629980D02*
X146664228Y-127629980D01*
X146949942Y-127629980D02*
X146949942Y-126629980D01*
X146854704Y-126772838D01*
X146759466Y-126868076D01*
X146664228Y-126915695D01*
X146902704Y-134757980D02*
X147474133Y-134757980D01*
X147188419Y-135757980D02*
X147188419Y-134757980D01*
X147807466Y-135757980D02*
X147807466Y-134757980D01*
X148188419Y-134757980D01*
X148283657Y-134805600D01*
X148331276Y-134853219D01*
X148378895Y-134948457D01*
X148378895Y-135091314D01*
X148331276Y-135186552D01*
X148283657Y-135234171D01*
X148188419Y-135281790D01*
X147807466Y-135281790D01*
X149283657Y-134757980D02*
X148807466Y-134757980D01*
X148759847Y-135234171D01*
X148807466Y-135186552D01*
X148902704Y-135138933D01*
X149140800Y-135138933D01*
X149236038Y-135186552D01*
X149283657Y-135234171D01*
X149331276Y-135329409D01*
X149331276Y-135567504D01*
X149283657Y-135662742D01*
X149236038Y-135710361D01*
X149140800Y-135757980D01*
X148902704Y-135757980D01*
X148807466Y-135710361D01*
X148759847Y-135662742D01*
X149712228Y-134853219D02*
X149759847Y-134805600D01*
X149855085Y-134757980D01*
X150093180Y-134757980D01*
X150188419Y-134805600D01*
X150236038Y-134853219D01*
X150283657Y-134948457D01*
X150283657Y-135043695D01*
X150236038Y-135186552D01*
X149664609Y-135757980D01*
X150283657Y-135757980D01*
X154014704Y-122565980D02*
X154586133Y-122565980D01*
X154300419Y-123565980D02*
X154300419Y-122565980D01*
X154919466Y-123565980D02*
X154919466Y-122565980D01*
X155300419Y-122565980D01*
X155395657Y-122613600D01*
X155443276Y-122661219D01*
X155490895Y-122756457D01*
X155490895Y-122899314D01*
X155443276Y-122994552D01*
X155395657Y-123042171D01*
X155300419Y-123089790D01*
X154919466Y-123089790D01*
X155824228Y-122565980D02*
X156443276Y-122565980D01*
X156109942Y-122946933D01*
X156252800Y-122946933D01*
X156348038Y-122994552D01*
X156395657Y-123042171D01*
X156443276Y-123137409D01*
X156443276Y-123375504D01*
X156395657Y-123470742D01*
X156348038Y-123518361D01*
X156252800Y-123565980D01*
X155967085Y-123565980D01*
X155871847Y-123518361D01*
X155824228Y-123470742D01*
X157348038Y-122565980D02*
X156871847Y-122565980D01*
X156824228Y-123042171D01*
X156871847Y-122994552D01*
X156967085Y-122946933D01*
X157205180Y-122946933D01*
X157300419Y-122994552D01*
X157348038Y-123042171D01*
X157395657Y-123137409D01*
X157395657Y-123375504D01*
X157348038Y-123470742D01*
X157300419Y-123518361D01*
X157205180Y-123565980D01*
X156967085Y-123565980D01*
X156871847Y-123518361D01*
X156824228Y-123470742D01*
X154014704Y-120533980D02*
X154586133Y-120533980D01*
X154300419Y-121533980D02*
X154300419Y-120533980D01*
X154919466Y-121533980D02*
X154919466Y-120533980D01*
X155300419Y-120533980D01*
X155395657Y-120581600D01*
X155443276Y-120629219D01*
X155490895Y-120724457D01*
X155490895Y-120867314D01*
X155443276Y-120962552D01*
X155395657Y-121010171D01*
X155300419Y-121057790D01*
X154919466Y-121057790D01*
X155824228Y-120533980D02*
X156443276Y-120533980D01*
X156109942Y-120914933D01*
X156252800Y-120914933D01*
X156348038Y-120962552D01*
X156395657Y-121010171D01*
X156443276Y-121105409D01*
X156443276Y-121343504D01*
X156395657Y-121438742D01*
X156348038Y-121486361D01*
X156252800Y-121533980D01*
X155967085Y-121533980D01*
X155871847Y-121486361D01*
X155824228Y-121438742D01*
X157300419Y-120867314D02*
X157300419Y-121533980D01*
X157062323Y-120486361D02*
X156824228Y-121200647D01*
X157443276Y-121200647D01*
X142298895Y-120533980D02*
X142870323Y-120533980D01*
X142584609Y-121533980D02*
X142584609Y-120533980D01*
X143203657Y-121533980D02*
X143203657Y-120533980D01*
X143584609Y-120533980D01*
X143679847Y-120581600D01*
X143727466Y-120629219D01*
X143775085Y-120724457D01*
X143775085Y-120867314D01*
X143727466Y-120962552D01*
X143679847Y-121010171D01*
X143584609Y-121057790D01*
X143203657Y-121057790D01*
X144251276Y-121533980D02*
X144441752Y-121533980D01*
X144536990Y-121486361D01*
X144584609Y-121438742D01*
X144679847Y-121295885D01*
X144727466Y-121105409D01*
X144727466Y-120724457D01*
X144679847Y-120629219D01*
X144632228Y-120581600D01*
X144536990Y-120533980D01*
X144346514Y-120533980D01*
X144251276Y-120581600D01*
X144203657Y-120629219D01*
X144156038Y-120724457D01*
X144156038Y-120962552D01*
X144203657Y-121057790D01*
X144251276Y-121105409D01*
X144346514Y-121153028D01*
X144536990Y-121153028D01*
X144632228Y-121105409D01*
X144679847Y-121057790D01*
X144727466Y-120962552D01*
X154014704Y-134757980D02*
X154586133Y-134757980D01*
X154300419Y-135757980D02*
X154300419Y-134757980D01*
X154919466Y-135757980D02*
X154919466Y-134757980D01*
X155300419Y-134757980D01*
X155395657Y-134805600D01*
X155443276Y-134853219D01*
X155490895Y-134948457D01*
X155490895Y-135091314D01*
X155443276Y-135186552D01*
X155395657Y-135234171D01*
X155300419Y-135281790D01*
X154919466Y-135281790D01*
X155824228Y-134757980D02*
X156443276Y-134757980D01*
X156109942Y-135138933D01*
X156252800Y-135138933D01*
X156348038Y-135186552D01*
X156395657Y-135234171D01*
X156443276Y-135329409D01*
X156443276Y-135567504D01*
X156395657Y-135662742D01*
X156348038Y-135710361D01*
X156252800Y-135757980D01*
X155967085Y-135757980D01*
X155871847Y-135710361D01*
X155824228Y-135662742D01*
X156776609Y-134757980D02*
X157443276Y-134757980D01*
X157014704Y-135757980D01*
X149950704Y-120533980D02*
X150522133Y-120533980D01*
X150236419Y-121533980D02*
X150236419Y-120533980D01*
X150855466Y-121533980D02*
X150855466Y-120533980D01*
X151236419Y-120533980D01*
X151331657Y-120581600D01*
X151379276Y-120629219D01*
X151426895Y-120724457D01*
X151426895Y-120867314D01*
X151379276Y-120962552D01*
X151331657Y-121010171D01*
X151236419Y-121057790D01*
X150855466Y-121057790D01*
X151807847Y-120629219D02*
X151855466Y-120581600D01*
X151950704Y-120533980D01*
X152188800Y-120533980D01*
X152284038Y-120581600D01*
X152331657Y-120629219D01*
X152379276Y-120724457D01*
X152379276Y-120819695D01*
X152331657Y-120962552D01*
X151760228Y-121533980D01*
X152379276Y-121533980D01*
X153236419Y-120533980D02*
X153045942Y-120533980D01*
X152950704Y-120581600D01*
X152903085Y-120629219D01*
X152807847Y-120772076D01*
X152760228Y-120962552D01*
X152760228Y-121343504D01*
X152807847Y-121438742D01*
X152855466Y-121486361D01*
X152950704Y-121533980D01*
X153141180Y-121533980D01*
X153236419Y-121486361D01*
X153284038Y-121438742D01*
X153331657Y-121343504D01*
X153331657Y-121105409D01*
X153284038Y-121010171D01*
X153236419Y-120962552D01*
X153141180Y-120914933D01*
X152950704Y-120914933D01*
X152855466Y-120962552D01*
X152807847Y-121010171D01*
X152760228Y-121105409D01*
X149950704Y-118501980D02*
X150522133Y-118501980D01*
X150236419Y-119501980D02*
X150236419Y-118501980D01*
X150855466Y-119501980D02*
X150855466Y-118501980D01*
X151236419Y-118501980D01*
X151331657Y-118549600D01*
X151379276Y-118597219D01*
X151426895Y-118692457D01*
X151426895Y-118835314D01*
X151379276Y-118930552D01*
X151331657Y-118978171D01*
X151236419Y-119025790D01*
X150855466Y-119025790D01*
X151807847Y-118597219D02*
X151855466Y-118549600D01*
X151950704Y-118501980D01*
X152188800Y-118501980D01*
X152284038Y-118549600D01*
X152331657Y-118597219D01*
X152379276Y-118692457D01*
X152379276Y-118787695D01*
X152331657Y-118930552D01*
X151760228Y-119501980D01*
X152379276Y-119501980D01*
X153284038Y-118501980D02*
X152807847Y-118501980D01*
X152760228Y-118978171D01*
X152807847Y-118930552D01*
X152903085Y-118882933D01*
X153141180Y-118882933D01*
X153236419Y-118930552D01*
X153284038Y-118978171D01*
X153331657Y-119073409D01*
X153331657Y-119311504D01*
X153284038Y-119406742D01*
X153236419Y-119454361D01*
X153141180Y-119501980D01*
X152903085Y-119501980D01*
X152807847Y-119454361D01*
X152760228Y-119406742D01*
X149950704Y-124597980D02*
X150522133Y-124597980D01*
X150236419Y-125597980D02*
X150236419Y-124597980D01*
X150855466Y-125597980D02*
X150855466Y-124597980D01*
X151236419Y-124597980D01*
X151331657Y-124645600D01*
X151379276Y-124693219D01*
X151426895Y-124788457D01*
X151426895Y-124931314D01*
X151379276Y-125026552D01*
X151331657Y-125074171D01*
X151236419Y-125121790D01*
X150855466Y-125121790D01*
X151807847Y-124693219D02*
X151855466Y-124645600D01*
X151950704Y-124597980D01*
X152188800Y-124597980D01*
X152284038Y-124645600D01*
X152331657Y-124693219D01*
X152379276Y-124788457D01*
X152379276Y-124883695D01*
X152331657Y-125026552D01*
X151760228Y-125597980D01*
X152379276Y-125597980D01*
X152950704Y-125026552D02*
X152855466Y-124978933D01*
X152807847Y-124931314D01*
X152760228Y-124836076D01*
X152760228Y-124788457D01*
X152807847Y-124693219D01*
X152855466Y-124645600D01*
X152950704Y-124597980D01*
X153141180Y-124597980D01*
X153236419Y-124645600D01*
X153284038Y-124693219D01*
X153331657Y-124788457D01*
X153331657Y-124836076D01*
X153284038Y-124931314D01*
X153236419Y-124978933D01*
X153141180Y-125026552D01*
X152950704Y-125026552D01*
X152855466Y-125074171D01*
X152807847Y-125121790D01*
X152760228Y-125217028D01*
X152760228Y-125407504D01*
X152807847Y-125502742D01*
X152855466Y-125550361D01*
X152950704Y-125597980D01*
X153141180Y-125597980D01*
X153236419Y-125550361D01*
X153284038Y-125502742D01*
X153331657Y-125407504D01*
X153331657Y-125217028D01*
X153284038Y-125121790D01*
X153236419Y-125074171D01*
X153141180Y-125026552D01*
X143854704Y-130693980D02*
X144426133Y-130693980D01*
X144140419Y-131693980D02*
X144140419Y-130693980D01*
X144759466Y-131693980D02*
X144759466Y-130693980D01*
X145140419Y-130693980D01*
X145235657Y-130741600D01*
X145283276Y-130789219D01*
X145330895Y-130884457D01*
X145330895Y-131027314D01*
X145283276Y-131122552D01*
X145235657Y-131170171D01*
X145140419Y-131217790D01*
X144759466Y-131217790D01*
X146188038Y-130693980D02*
X145997561Y-130693980D01*
X145902323Y-130741600D01*
X145854704Y-130789219D01*
X145759466Y-130932076D01*
X145711847Y-131122552D01*
X145711847Y-131503504D01*
X145759466Y-131598742D01*
X145807085Y-131646361D01*
X145902323Y-131693980D01*
X146092800Y-131693980D01*
X146188038Y-131646361D01*
X146235657Y-131598742D01*
X146283276Y-131503504D01*
X146283276Y-131265409D01*
X146235657Y-131170171D01*
X146188038Y-131122552D01*
X146092800Y-131074933D01*
X145902323Y-131074933D01*
X145807085Y-131122552D01*
X145759466Y-131170171D01*
X145711847Y-131265409D01*
X147140419Y-131027314D02*
X147140419Y-131693980D01*
X146902323Y-130646361D02*
X146664228Y-131360647D01*
X147283276Y-131360647D01*
X149950704Y-128661980D02*
X150522133Y-128661980D01*
X150236419Y-129661980D02*
X150236419Y-128661980D01*
X150855466Y-129661980D02*
X150855466Y-128661980D01*
X151236419Y-128661980D01*
X151331657Y-128709600D01*
X151379276Y-128757219D01*
X151426895Y-128852457D01*
X151426895Y-128995314D01*
X151379276Y-129090552D01*
X151331657Y-129138171D01*
X151236419Y-129185790D01*
X150855466Y-129185790D01*
X152284038Y-128661980D02*
X152093561Y-128661980D01*
X151998323Y-128709600D01*
X151950704Y-128757219D01*
X151855466Y-128900076D01*
X151807847Y-129090552D01*
X151807847Y-129471504D01*
X151855466Y-129566742D01*
X151903085Y-129614361D01*
X151998323Y-129661980D01*
X152188800Y-129661980D01*
X152284038Y-129614361D01*
X152331657Y-129566742D01*
X152379276Y-129471504D01*
X152379276Y-129233409D01*
X152331657Y-129138171D01*
X152284038Y-129090552D01*
X152188800Y-129042933D01*
X151998323Y-129042933D01*
X151903085Y-129090552D01*
X151855466Y-129138171D01*
X151807847Y-129233409D01*
X153284038Y-128661980D02*
X152807847Y-128661980D01*
X152760228Y-129138171D01*
X152807847Y-129090552D01*
X152903085Y-129042933D01*
X153141180Y-129042933D01*
X153236419Y-129090552D01*
X153284038Y-129138171D01*
X153331657Y-129233409D01*
X153331657Y-129471504D01*
X153284038Y-129566742D01*
X153236419Y-129614361D01*
X153141180Y-129661980D01*
X152903085Y-129661980D01*
X152807847Y-129614361D01*
X152760228Y-129566742D01*
X154014704Y-124597980D02*
X154586133Y-124597980D01*
X154300419Y-125597980D02*
X154300419Y-124597980D01*
X154919466Y-125597980D02*
X154919466Y-124597980D01*
X155300419Y-124597980D01*
X155395657Y-124645600D01*
X155443276Y-124693219D01*
X155490895Y-124788457D01*
X155490895Y-124931314D01*
X155443276Y-125026552D01*
X155395657Y-125074171D01*
X155300419Y-125121790D01*
X154919466Y-125121790D01*
X155824228Y-124597980D02*
X156443276Y-124597980D01*
X156109942Y-124978933D01*
X156252800Y-124978933D01*
X156348038Y-125026552D01*
X156395657Y-125074171D01*
X156443276Y-125169409D01*
X156443276Y-125407504D01*
X156395657Y-125502742D01*
X156348038Y-125550361D01*
X156252800Y-125597980D01*
X155967085Y-125597980D01*
X155871847Y-125550361D01*
X155824228Y-125502742D01*
X157300419Y-124597980D02*
X157109942Y-124597980D01*
X157014704Y-124645600D01*
X156967085Y-124693219D01*
X156871847Y-124836076D01*
X156824228Y-125026552D01*
X156824228Y-125407504D01*
X156871847Y-125502742D01*
X156919466Y-125550361D01*
X157014704Y-125597980D01*
X157205180Y-125597980D01*
X157300419Y-125550361D01*
X157348038Y-125502742D01*
X157395657Y-125407504D01*
X157395657Y-125169409D01*
X157348038Y-125074171D01*
X157300419Y-125026552D01*
X157205180Y-124978933D01*
X157014704Y-124978933D01*
X156919466Y-125026552D01*
X156871847Y-125074171D01*
X156824228Y-125169409D01*
X140266895Y-118501980D02*
X140838323Y-118501980D01*
X140552609Y-119501980D02*
X140552609Y-118501980D01*
X141171657Y-119501980D02*
X141171657Y-118501980D01*
X141552609Y-118501980D01*
X141647847Y-118549600D01*
X141695466Y-118597219D01*
X141743085Y-118692457D01*
X141743085Y-118835314D01*
X141695466Y-118930552D01*
X141647847Y-118978171D01*
X141552609Y-119025790D01*
X141171657Y-119025790D01*
X142076419Y-118501980D02*
X142695466Y-118501980D01*
X142362133Y-118882933D01*
X142504990Y-118882933D01*
X142600228Y-118930552D01*
X142647847Y-118978171D01*
X142695466Y-119073409D01*
X142695466Y-119311504D01*
X142647847Y-119406742D01*
X142600228Y-119454361D01*
X142504990Y-119501980D01*
X142219276Y-119501980D01*
X142124038Y-119454361D01*
X142076419Y-119406742D01*
X147918704Y-118501980D02*
X148490133Y-118501980D01*
X148204419Y-119501980D02*
X148204419Y-118501980D01*
X148823466Y-119501980D02*
X148823466Y-118501980D01*
X149204419Y-118501980D01*
X149299657Y-118549600D01*
X149347276Y-118597219D01*
X149394895Y-118692457D01*
X149394895Y-118835314D01*
X149347276Y-118930552D01*
X149299657Y-118978171D01*
X149204419Y-119025790D01*
X148823466Y-119025790D01*
X149775847Y-118597219D02*
X149823466Y-118549600D01*
X149918704Y-118501980D01*
X150156800Y-118501980D01*
X150252038Y-118549600D01*
X150299657Y-118597219D01*
X150347276Y-118692457D01*
X150347276Y-118787695D01*
X150299657Y-118930552D01*
X149728228Y-119501980D01*
X150347276Y-119501980D01*
X151299657Y-119501980D02*
X150728228Y-119501980D01*
X151013942Y-119501980D02*
X151013942Y-118501980D01*
X150918704Y-118644838D01*
X150823466Y-118740076D01*
X150728228Y-118787695D01*
X143854704Y-118501980D02*
X144426133Y-118501980D01*
X144140419Y-119501980D02*
X144140419Y-118501980D01*
X144759466Y-119501980D02*
X144759466Y-118501980D01*
X145140419Y-118501980D01*
X145235657Y-118549600D01*
X145283276Y-118597219D01*
X145330895Y-118692457D01*
X145330895Y-118835314D01*
X145283276Y-118930552D01*
X145235657Y-118978171D01*
X145140419Y-119025790D01*
X144759466Y-119025790D01*
X146283276Y-119501980D02*
X145711847Y-119501980D01*
X145997561Y-119501980D02*
X145997561Y-118501980D01*
X145902323Y-118644838D01*
X145807085Y-118740076D01*
X145711847Y-118787695D01*
X146664228Y-118597219D02*
X146711847Y-118549600D01*
X146807085Y-118501980D01*
X147045180Y-118501980D01*
X147140419Y-118549600D01*
X147188038Y-118597219D01*
X147235657Y-118692457D01*
X147235657Y-118787695D01*
X147188038Y-118930552D01*
X146616609Y-119501980D01*
X147235657Y-119501980D01*
X141822704Y-122565980D02*
X142394133Y-122565980D01*
X142108419Y-123565980D02*
X142108419Y-122565980D01*
X142727466Y-123565980D02*
X142727466Y-122565980D01*
X143108419Y-122565980D01*
X143203657Y-122613600D01*
X143251276Y-122661219D01*
X143298895Y-122756457D01*
X143298895Y-122899314D01*
X143251276Y-122994552D01*
X143203657Y-123042171D01*
X143108419Y-123089790D01*
X142727466Y-123089790D01*
X144251276Y-123565980D02*
X143679847Y-123565980D01*
X143965561Y-123565980D02*
X143965561Y-122565980D01*
X143870323Y-122708838D01*
X143775085Y-122804076D01*
X143679847Y-122851695D01*
X144870323Y-122565980D02*
X144965561Y-122565980D01*
X145060800Y-122613600D01*
X145108419Y-122661219D01*
X145156038Y-122756457D01*
X145203657Y-122946933D01*
X145203657Y-123185028D01*
X145156038Y-123375504D01*
X145108419Y-123470742D01*
X145060800Y-123518361D01*
X144965561Y-123565980D01*
X144870323Y-123565980D01*
X144775085Y-123518361D01*
X144727466Y-123470742D01*
X144679847Y-123375504D01*
X144632228Y-123185028D01*
X144632228Y-122946933D01*
X144679847Y-122756457D01*
X144727466Y-122661219D01*
X144775085Y-122613600D01*
X144870323Y-122565980D01*
X141822704Y-130693980D02*
X142394133Y-130693980D01*
X142108419Y-131693980D02*
X142108419Y-130693980D01*
X142727466Y-131693980D02*
X142727466Y-130693980D01*
X143108419Y-130693980D01*
X143203657Y-130741600D01*
X143251276Y-130789219D01*
X143298895Y-130884457D01*
X143298895Y-131027314D01*
X143251276Y-131122552D01*
X143203657Y-131170171D01*
X143108419Y-131217790D01*
X142727466Y-131217790D01*
X144156038Y-130693980D02*
X143965561Y-130693980D01*
X143870323Y-130741600D01*
X143822704Y-130789219D01*
X143727466Y-130932076D01*
X143679847Y-131122552D01*
X143679847Y-131503504D01*
X143727466Y-131598742D01*
X143775085Y-131646361D01*
X143870323Y-131693980D01*
X144060800Y-131693980D01*
X144156038Y-131646361D01*
X144203657Y-131598742D01*
X144251276Y-131503504D01*
X144251276Y-131265409D01*
X144203657Y-131170171D01*
X144156038Y-131122552D01*
X144060800Y-131074933D01*
X143870323Y-131074933D01*
X143775085Y-131122552D01*
X143727466Y-131170171D01*
X143679847Y-131265409D01*
X144727466Y-131693980D02*
X144917942Y-131693980D01*
X145013180Y-131646361D01*
X145060800Y-131598742D01*
X145156038Y-131455885D01*
X145203657Y-131265409D01*
X145203657Y-130884457D01*
X145156038Y-130789219D01*
X145108419Y-130741600D01*
X145013180Y-130693980D01*
X144822704Y-130693980D01*
X144727466Y-130741600D01*
X144679847Y-130789219D01*
X144632228Y-130884457D01*
X144632228Y-131122552D01*
X144679847Y-131217790D01*
X144727466Y-131265409D01*
X144822704Y-131313028D01*
X145013180Y-131313028D01*
X145108419Y-131265409D01*
X145156038Y-131217790D01*
X145203657Y-131122552D01*
X151982704Y-128661980D02*
X152554133Y-128661980D01*
X152268419Y-129661980D02*
X152268419Y-128661980D01*
X152887466Y-129661980D02*
X152887466Y-128661980D01*
X153268419Y-128661980D01*
X153363657Y-128709600D01*
X153411276Y-128757219D01*
X153458895Y-128852457D01*
X153458895Y-128995314D01*
X153411276Y-129090552D01*
X153363657Y-129138171D01*
X153268419Y-129185790D01*
X152887466Y-129185790D01*
X153792228Y-128661980D02*
X154458895Y-128661980D01*
X154030323Y-129661980D01*
X155030323Y-128661980D02*
X155125561Y-128661980D01*
X155220800Y-128709600D01*
X155268419Y-128757219D01*
X155316038Y-128852457D01*
X155363657Y-129042933D01*
X155363657Y-129281028D01*
X155316038Y-129471504D01*
X155268419Y-129566742D01*
X155220800Y-129614361D01*
X155125561Y-129661980D01*
X155030323Y-129661980D01*
X154935085Y-129614361D01*
X154887466Y-129566742D01*
X154839847Y-129471504D01*
X154792228Y-129281028D01*
X154792228Y-129042933D01*
X154839847Y-128852457D01*
X154887466Y-128757219D01*
X154935085Y-128709600D01*
X155030323Y-128661980D01*
X142298895Y-118501980D02*
X142870323Y-118501980D01*
X142584609Y-119501980D02*
X142584609Y-118501980D01*
X143203657Y-119501980D02*
X143203657Y-118501980D01*
X143584609Y-118501980D01*
X143679847Y-118549600D01*
X143727466Y-118597219D01*
X143775085Y-118692457D01*
X143775085Y-118835314D01*
X143727466Y-118930552D01*
X143679847Y-118978171D01*
X143584609Y-119025790D01*
X143203657Y-119025790D01*
X144346514Y-118930552D02*
X144251276Y-118882933D01*
X144203657Y-118835314D01*
X144156038Y-118740076D01*
X144156038Y-118692457D01*
X144203657Y-118597219D01*
X144251276Y-118549600D01*
X144346514Y-118501980D01*
X144536990Y-118501980D01*
X144632228Y-118549600D01*
X144679847Y-118597219D01*
X144727466Y-118692457D01*
X144727466Y-118740076D01*
X144679847Y-118835314D01*
X144632228Y-118882933D01*
X144536990Y-118930552D01*
X144346514Y-118930552D01*
X144251276Y-118978171D01*
X144203657Y-119025790D01*
X144156038Y-119121028D01*
X144156038Y-119311504D01*
X144203657Y-119406742D01*
X144251276Y-119454361D01*
X144346514Y-119501980D01*
X144536990Y-119501980D01*
X144632228Y-119454361D01*
X144679847Y-119406742D01*
X144727466Y-119311504D01*
X144727466Y-119121028D01*
X144679847Y-119025790D01*
X144632228Y-118978171D01*
X144536990Y-118930552D01*
X139790704Y-126629980D02*
X140362133Y-126629980D01*
X140076419Y-127629980D02*
X140076419Y-126629980D01*
X140695466Y-127629980D02*
X140695466Y-126629980D01*
X141076419Y-126629980D01*
X141171657Y-126677600D01*
X141219276Y-126725219D01*
X141266895Y-126820457D01*
X141266895Y-126963314D01*
X141219276Y-127058552D01*
X141171657Y-127106171D01*
X141076419Y-127153790D01*
X140695466Y-127153790D01*
X142124038Y-126963314D02*
X142124038Y-127629980D01*
X141885942Y-126582361D02*
X141647847Y-127296647D01*
X142266895Y-127296647D01*
X143171657Y-127629980D02*
X142600228Y-127629980D01*
X142885942Y-127629980D02*
X142885942Y-126629980D01*
X142790704Y-126772838D01*
X142695466Y-126868076D01*
X142600228Y-126915695D01*
X151982704Y-122565980D02*
X152554133Y-122565980D01*
X152268419Y-123565980D02*
X152268419Y-122565980D01*
X152887466Y-123565980D02*
X152887466Y-122565980D01*
X153268419Y-122565980D01*
X153363657Y-122613600D01*
X153411276Y-122661219D01*
X153458895Y-122756457D01*
X153458895Y-122899314D01*
X153411276Y-122994552D01*
X153363657Y-123042171D01*
X153268419Y-123089790D01*
X152887466Y-123089790D01*
X153792228Y-122565980D02*
X154411276Y-122565980D01*
X154077942Y-122946933D01*
X154220800Y-122946933D01*
X154316038Y-122994552D01*
X154363657Y-123042171D01*
X154411276Y-123137409D01*
X154411276Y-123375504D01*
X154363657Y-123470742D01*
X154316038Y-123518361D01*
X154220800Y-123565980D01*
X153935085Y-123565980D01*
X153839847Y-123518361D01*
X153792228Y-123470742D01*
X155363657Y-123565980D02*
X154792228Y-123565980D01*
X155077942Y-123565980D02*
X155077942Y-122565980D01*
X154982704Y-122708838D01*
X154887466Y-122804076D01*
X154792228Y-122851695D01*
X143854704Y-124597980D02*
X144426133Y-124597980D01*
X144140419Y-125597980D02*
X144140419Y-124597980D01*
X144759466Y-125597980D02*
X144759466Y-124597980D01*
X145140419Y-124597980D01*
X145235657Y-124645600D01*
X145283276Y-124693219D01*
X145330895Y-124788457D01*
X145330895Y-124931314D01*
X145283276Y-125026552D01*
X145235657Y-125074171D01*
X145140419Y-125121790D01*
X144759466Y-125121790D01*
X146283276Y-125597980D02*
X145711847Y-125597980D01*
X145997561Y-125597980D02*
X145997561Y-124597980D01*
X145902323Y-124740838D01*
X145807085Y-124836076D01*
X145711847Y-124883695D01*
X147188038Y-124597980D02*
X146711847Y-124597980D01*
X146664228Y-125074171D01*
X146711847Y-125026552D01*
X146807085Y-124978933D01*
X147045180Y-124978933D01*
X147140419Y-125026552D01*
X147188038Y-125074171D01*
X147235657Y-125169409D01*
X147235657Y-125407504D01*
X147188038Y-125502742D01*
X147140419Y-125550361D01*
X147045180Y-125597980D01*
X146807085Y-125597980D01*
X146711847Y-125550361D01*
X146664228Y-125502742D01*
X149950704Y-130693980D02*
X150522133Y-130693980D01*
X150236419Y-131693980D02*
X150236419Y-130693980D01*
X150855466Y-131693980D02*
X150855466Y-130693980D01*
X151236419Y-130693980D01*
X151331657Y-130741600D01*
X151379276Y-130789219D01*
X151426895Y-130884457D01*
X151426895Y-131027314D01*
X151379276Y-131122552D01*
X151331657Y-131170171D01*
X151236419Y-131217790D01*
X150855466Y-131217790D01*
X152284038Y-131027314D02*
X152284038Y-131693980D01*
X152045942Y-130646361D02*
X151807847Y-131360647D01*
X152426895Y-131360647D01*
X152855466Y-131693980D02*
X153045942Y-131693980D01*
X153141180Y-131646361D01*
X153188800Y-131598742D01*
X153284038Y-131455885D01*
X153331657Y-131265409D01*
X153331657Y-130884457D01*
X153284038Y-130789219D01*
X153236419Y-130741600D01*
X153141180Y-130693980D01*
X152950704Y-130693980D01*
X152855466Y-130741600D01*
X152807847Y-130789219D01*
X152760228Y-130884457D01*
X152760228Y-131122552D01*
X152807847Y-131217790D01*
X152855466Y-131265409D01*
X152950704Y-131313028D01*
X153141180Y-131313028D01*
X153236419Y-131265409D01*
X153284038Y-131217790D01*
X153331657Y-131122552D01*
X143854704Y-128661980D02*
X144426133Y-128661980D01*
X144140419Y-129661980D02*
X144140419Y-128661980D01*
X144759466Y-129661980D02*
X144759466Y-128661980D01*
X145140419Y-128661980D01*
X145235657Y-128709600D01*
X145283276Y-128757219D01*
X145330895Y-128852457D01*
X145330895Y-128995314D01*
X145283276Y-129090552D01*
X145235657Y-129138171D01*
X145140419Y-129185790D01*
X144759466Y-129185790D01*
X146235657Y-128661980D02*
X145759466Y-128661980D01*
X145711847Y-129138171D01*
X145759466Y-129090552D01*
X145854704Y-129042933D01*
X146092800Y-129042933D01*
X146188038Y-129090552D01*
X146235657Y-129138171D01*
X146283276Y-129233409D01*
X146283276Y-129471504D01*
X146235657Y-129566742D01*
X146188038Y-129614361D01*
X146092800Y-129661980D01*
X145854704Y-129661980D01*
X145759466Y-129614361D01*
X145711847Y-129566742D01*
X146902323Y-128661980D02*
X146997561Y-128661980D01*
X147092800Y-128709600D01*
X147140419Y-128757219D01*
X147188038Y-128852457D01*
X147235657Y-129042933D01*
X147235657Y-129281028D01*
X147188038Y-129471504D01*
X147140419Y-129566742D01*
X147092800Y-129614361D01*
X146997561Y-129661980D01*
X146902323Y-129661980D01*
X146807085Y-129614361D01*
X146759466Y-129566742D01*
X146711847Y-129471504D01*
X146664228Y-129281028D01*
X146664228Y-129042933D01*
X146711847Y-128852457D01*
X146759466Y-128757219D01*
X146807085Y-128709600D01*
X146902323Y-128661980D01*
X154014704Y-128661980D02*
X154586133Y-128661980D01*
X154300419Y-129661980D02*
X154300419Y-128661980D01*
X154919466Y-129661980D02*
X154919466Y-128661980D01*
X155300419Y-128661980D01*
X155395657Y-128709600D01*
X155443276Y-128757219D01*
X155490895Y-128852457D01*
X155490895Y-128995314D01*
X155443276Y-129090552D01*
X155395657Y-129138171D01*
X155300419Y-129185790D01*
X154919466Y-129185790D01*
X155824228Y-128661980D02*
X156490895Y-128661980D01*
X156062323Y-129661980D01*
X157348038Y-128661980D02*
X156871847Y-128661980D01*
X156824228Y-129138171D01*
X156871847Y-129090552D01*
X156967085Y-129042933D01*
X157205180Y-129042933D01*
X157300419Y-129090552D01*
X157348038Y-129138171D01*
X157395657Y-129233409D01*
X157395657Y-129471504D01*
X157348038Y-129566742D01*
X157300419Y-129614361D01*
X157205180Y-129661980D01*
X156967085Y-129661980D01*
X156871847Y-129614361D01*
X156824228Y-129566742D01*
X147918704Y-132725980D02*
X148490133Y-132725980D01*
X148204419Y-133725980D02*
X148204419Y-132725980D01*
X148823466Y-133725980D02*
X148823466Y-132725980D01*
X149204419Y-132725980D01*
X149299657Y-132773600D01*
X149347276Y-132821219D01*
X149394895Y-132916457D01*
X149394895Y-133059314D01*
X149347276Y-133154552D01*
X149299657Y-133202171D01*
X149204419Y-133249790D01*
X148823466Y-133249790D01*
X150299657Y-132725980D02*
X149823466Y-132725980D01*
X149775847Y-133202171D01*
X149823466Y-133154552D01*
X149918704Y-133106933D01*
X150156800Y-133106933D01*
X150252038Y-133154552D01*
X150299657Y-133202171D01*
X150347276Y-133297409D01*
X150347276Y-133535504D01*
X150299657Y-133630742D01*
X150252038Y-133678361D01*
X150156800Y-133725980D01*
X149918704Y-133725980D01*
X149823466Y-133678361D01*
X149775847Y-133630742D01*
X150680609Y-132725980D02*
X151299657Y-132725980D01*
X150966323Y-133106933D01*
X151109180Y-133106933D01*
X151204419Y-133154552D01*
X151252038Y-133202171D01*
X151299657Y-133297409D01*
X151299657Y-133535504D01*
X151252038Y-133630742D01*
X151204419Y-133678361D01*
X151109180Y-133725980D01*
X150823466Y-133725980D01*
X150728228Y-133678361D01*
X150680609Y-133630742D01*
X151982704Y-118501980D02*
X152554133Y-118501980D01*
X152268419Y-119501980D02*
X152268419Y-118501980D01*
X152887466Y-119501980D02*
X152887466Y-118501980D01*
X153268419Y-118501980D01*
X153363657Y-118549600D01*
X153411276Y-118597219D01*
X153458895Y-118692457D01*
X153458895Y-118835314D01*
X153411276Y-118930552D01*
X153363657Y-118978171D01*
X153268419Y-119025790D01*
X152887466Y-119025790D01*
X153839847Y-118597219D02*
X153887466Y-118549600D01*
X153982704Y-118501980D01*
X154220800Y-118501980D01*
X154316038Y-118549600D01*
X154363657Y-118597219D01*
X154411276Y-118692457D01*
X154411276Y-118787695D01*
X154363657Y-118930552D01*
X153792228Y-119501980D01*
X154411276Y-119501980D01*
X154887466Y-119501980D02*
X155077942Y-119501980D01*
X155173180Y-119454361D01*
X155220800Y-119406742D01*
X155316038Y-119263885D01*
X155363657Y-119073409D01*
X155363657Y-118692457D01*
X155316038Y-118597219D01*
X155268419Y-118549600D01*
X155173180Y-118501980D01*
X154982704Y-118501980D01*
X154887466Y-118549600D01*
X154839847Y-118597219D01*
X154792228Y-118692457D01*
X154792228Y-118930552D01*
X154839847Y-119025790D01*
X154887466Y-119073409D01*
X154982704Y-119121028D01*
X155173180Y-119121028D01*
X155268419Y-119073409D01*
X155316038Y-119025790D01*
X155363657Y-118930552D01*
X145886704Y-124597980D02*
X146458133Y-124597980D01*
X146172419Y-125597980D02*
X146172419Y-124597980D01*
X146791466Y-125597980D02*
X146791466Y-124597980D01*
X147172419Y-124597980D01*
X147267657Y-124645600D01*
X147315276Y-124693219D01*
X147362895Y-124788457D01*
X147362895Y-124931314D01*
X147315276Y-125026552D01*
X147267657Y-125074171D01*
X147172419Y-125121790D01*
X146791466Y-125121790D01*
X148315276Y-125597980D02*
X147743847Y-125597980D01*
X148029561Y-125597980D02*
X148029561Y-124597980D01*
X147934323Y-124740838D01*
X147839085Y-124836076D01*
X147743847Y-124883695D01*
X148791466Y-125597980D02*
X148981942Y-125597980D01*
X149077180Y-125550361D01*
X149124800Y-125502742D01*
X149220038Y-125359885D01*
X149267657Y-125169409D01*
X149267657Y-124788457D01*
X149220038Y-124693219D01*
X149172419Y-124645600D01*
X149077180Y-124597980D01*
X148886704Y-124597980D01*
X148791466Y-124645600D01*
X148743847Y-124693219D01*
X148696228Y-124788457D01*
X148696228Y-125026552D01*
X148743847Y-125121790D01*
X148791466Y-125169409D01*
X148886704Y-125217028D01*
X149077180Y-125217028D01*
X149172419Y-125169409D01*
X149220038Y-125121790D01*
X149267657Y-125026552D01*
X138449180Y-82767466D02*
X137972990Y-83100800D01*
X138449180Y-83338895D02*
X137449180Y-83338895D01*
X137449180Y-82957942D01*
X137496800Y-82862704D01*
X137544419Y-82815085D01*
X137639657Y-82767466D01*
X137782514Y-82767466D01*
X137877752Y-82815085D01*
X137925371Y-82862704D01*
X137972990Y-82957942D01*
X137972990Y-83338895D01*
X137449180Y-81862704D02*
X137449180Y-82338895D01*
X137925371Y-82386514D01*
X137877752Y-82338895D01*
X137830133Y-82243657D01*
X137830133Y-82005561D01*
X137877752Y-81910323D01*
X137925371Y-81862704D01*
X138020609Y-81815085D01*
X138258704Y-81815085D01*
X138353942Y-81862704D01*
X138401561Y-81910323D01*
X138449180Y-82005561D01*
X138449180Y-82243657D01*
X138401561Y-82338895D01*
X138353942Y-82386514D01*
X159886780Y-79617866D02*
X159410590Y-79951200D01*
X159886780Y-80189295D02*
X158886780Y-80189295D01*
X158886780Y-79808342D01*
X158934400Y-79713104D01*
X158982019Y-79665485D01*
X159077257Y-79617866D01*
X159220114Y-79617866D01*
X159315352Y-79665485D01*
X159362971Y-79713104D01*
X159410590Y-79808342D01*
X159410590Y-80189295D01*
X159220114Y-78760723D02*
X159886780Y-78760723D01*
X158839161Y-78998819D02*
X159553447Y-79236914D01*
X159553447Y-78617866D01*
X139983142Y-85815466D02*
X140030761Y-85863085D01*
X140078380Y-86005942D01*
X140078380Y-86101180D01*
X140030761Y-86244038D01*
X139935523Y-86339276D01*
X139840285Y-86386895D01*
X139649809Y-86434514D01*
X139506952Y-86434514D01*
X139316476Y-86386895D01*
X139221238Y-86339276D01*
X139126000Y-86244038D01*
X139078380Y-86101180D01*
X139078380Y-86005942D01*
X139126000Y-85863085D01*
X139173619Y-85815466D01*
X139411714Y-84958323D02*
X140078380Y-84958323D01*
X139030761Y-85196419D02*
X139745047Y-85434514D01*
X139745047Y-84815466D01*
X162335142Y-73064666D02*
X162382761Y-73112285D01*
X162430380Y-73255142D01*
X162430380Y-73350380D01*
X162382761Y-73493238D01*
X162287523Y-73588476D01*
X162192285Y-73636095D01*
X162001809Y-73683714D01*
X161858952Y-73683714D01*
X161668476Y-73636095D01*
X161573238Y-73588476D01*
X161478000Y-73493238D01*
X161430380Y-73350380D01*
X161430380Y-73255142D01*
X161478000Y-73112285D01*
X161525619Y-73064666D01*
X161430380Y-72731333D02*
X161430380Y-72112285D01*
X161811333Y-72445619D01*
X161811333Y-72302761D01*
X161858952Y-72207523D01*
X161906571Y-72159904D01*
X162001809Y-72112285D01*
X162239904Y-72112285D01*
X162335142Y-72159904D01*
X162382761Y-72207523D01*
X162430380Y-72302761D01*
X162430380Y-72588476D01*
X162382761Y-72683714D01*
X162335142Y-72731333D01*
X156587866Y-59990352D02*
X156587866Y-60704638D01*
X156540247Y-60847495D01*
X156445009Y-60942733D01*
X156302152Y-60990352D01*
X156206914Y-60990352D01*
X157587866Y-60990352D02*
X157016438Y-60990352D01*
X157302152Y-60990352D02*
X157302152Y-59990352D01*
X157206914Y-60133210D01*
X157111676Y-60228448D01*
X157016438Y-60276067D01*
X139955804Y-66343880D02*
X139955804Y-67153404D01*
X140003423Y-67248642D01*
X140051042Y-67296261D01*
X140146280Y-67343880D01*
X140336757Y-67343880D01*
X140431995Y-67296261D01*
X140479614Y-67248642D01*
X140527233Y-67153404D01*
X140527233Y-66343880D01*
X140955804Y-67296261D02*
X141098661Y-67343880D01*
X141336757Y-67343880D01*
X141431995Y-67296261D01*
X141479614Y-67248642D01*
X141527233Y-67153404D01*
X141527233Y-67058166D01*
X141479614Y-66962928D01*
X141431995Y-66915309D01*
X141336757Y-66867690D01*
X141146280Y-66820071D01*
X141051042Y-66772452D01*
X141003423Y-66724833D01*
X140955804Y-66629595D01*
X140955804Y-66534357D01*
X141003423Y-66439119D01*
X141051042Y-66391500D01*
X141146280Y-66343880D01*
X141384376Y-66343880D01*
X141527233Y-66391500D01*
X142289138Y-66820071D02*
X142431995Y-66867690D01*
X142479614Y-66915309D01*
X142527233Y-67010547D01*
X142527233Y-67153404D01*
X142479614Y-67248642D01*
X142431995Y-67296261D01*
X142336757Y-67343880D01*
X141955804Y-67343880D01*
X141955804Y-66343880D01*
X142289138Y-66343880D01*
X142384376Y-66391500D01*
X142431995Y-66439119D01*
X142479614Y-66534357D01*
X142479614Y-66629595D01*
X142431995Y-66724833D01*
X142384376Y-66772452D01*
X142289138Y-66820071D01*
X141955804Y-66820071D01*
X143479614Y-67343880D02*
X142908185Y-67343880D01*
X143193900Y-67343880D02*
X143193900Y-66343880D01*
X143098661Y-66486738D01*
X143003423Y-66581976D01*
X142908185Y-66629595D01*
D16*
X150503466Y-74595566D02*
X150503466Y-75315233D01*
X150545800Y-75399900D01*
X150588133Y-75442233D01*
X150672800Y-75484566D01*
X150842133Y-75484566D01*
X150926800Y-75442233D01*
X150969133Y-75399900D01*
X151011466Y-75315233D01*
X151011466Y-74595566D01*
X151392466Y-74680233D02*
X151434800Y-74637900D01*
X151519466Y-74595566D01*
X151731133Y-74595566D01*
X151815800Y-74637900D01*
X151858133Y-74680233D01*
X151900466Y-74764900D01*
X151900466Y-74849566D01*
X151858133Y-74976566D01*
X151350133Y-75484566D01*
X151900466Y-75484566D01*
X153843566Y-73219733D02*
X154563233Y-73219733D01*
X154647900Y-73177400D01*
X154690233Y-73135066D01*
X154732566Y-73050400D01*
X154732566Y-72881066D01*
X154690233Y-72796400D01*
X154647900Y-72754066D01*
X154563233Y-72711733D01*
X153843566Y-72711733D01*
X153843566Y-72373066D02*
X153843566Y-71822733D01*
X154182233Y-72119066D01*
X154182233Y-71992066D01*
X154224566Y-71907400D01*
X154266900Y-71865066D01*
X154351566Y-71822733D01*
X154563233Y-71822733D01*
X154647900Y-71865066D01*
X154690233Y-71907400D01*
X154732566Y-71992066D01*
X154732566Y-72246066D01*
X154690233Y-72330733D01*
X154647900Y-72373066D01*
D10*
X147518380Y-73483695D02*
X146518380Y-73483695D01*
X146518380Y-73245600D01*
X146566000Y-73102742D01*
X146661238Y-73007504D01*
X146756476Y-72959885D01*
X146946952Y-72912266D01*
X147089809Y-72912266D01*
X147280285Y-72959885D01*
X147375523Y-73007504D01*
X147470761Y-73102742D01*
X147518380Y-73245600D01*
X147518380Y-73483695D01*
X146518380Y-72578933D02*
X146518380Y-71959885D01*
X146899333Y-72293219D01*
X146899333Y-72150361D01*
X146946952Y-72055123D01*
X146994571Y-72007504D01*
X147089809Y-71959885D01*
X147327904Y-71959885D01*
X147423142Y-72007504D01*
X147470761Y-72055123D01*
X147518380Y-72150361D01*
X147518380Y-72436076D01*
X147470761Y-72531314D01*
X147423142Y-72578933D01*
X144063980Y-73483695D02*
X143063980Y-73483695D01*
X143063980Y-73245600D01*
X143111600Y-73102742D01*
X143206838Y-73007504D01*
X143302076Y-72959885D01*
X143492552Y-72912266D01*
X143635409Y-72912266D01*
X143825885Y-72959885D01*
X143921123Y-73007504D01*
X144016361Y-73102742D01*
X144063980Y-73245600D01*
X144063980Y-73483695D01*
X143159219Y-72531314D02*
X143111600Y-72483695D01*
X143063980Y-72388457D01*
X143063980Y-72150361D01*
X143111600Y-72055123D01*
X143159219Y-72007504D01*
X143254457Y-71959885D01*
X143349695Y-71959885D01*
X143492552Y-72007504D01*
X144063980Y-72578933D01*
X144063980Y-71959885D01*
X140609580Y-73483695D02*
X139609580Y-73483695D01*
X139609580Y-73245600D01*
X139657200Y-73102742D01*
X139752438Y-73007504D01*
X139847676Y-72959885D01*
X140038152Y-72912266D01*
X140181009Y-72912266D01*
X140371485Y-72959885D01*
X140466723Y-73007504D01*
X140561961Y-73102742D01*
X140609580Y-73245600D01*
X140609580Y-73483695D01*
X140609580Y-71959885D02*
X140609580Y-72531314D01*
X140609580Y-72245600D02*
X139609580Y-72245600D01*
X139752438Y-72340838D01*
X139847676Y-72436076D01*
X139895295Y-72531314D01*
X145730933Y-70633980D02*
X145397600Y-70157790D01*
X145159504Y-70633980D02*
X145159504Y-69633980D01*
X145540457Y-69633980D01*
X145635695Y-69681600D01*
X145683314Y-69729219D01*
X145730933Y-69824457D01*
X145730933Y-69967314D01*
X145683314Y-70062552D01*
X145635695Y-70110171D01*
X145540457Y-70157790D01*
X145159504Y-70157790D01*
X146064266Y-69633980D02*
X146683314Y-69633980D01*
X146349980Y-70014933D01*
X146492838Y-70014933D01*
X146588076Y-70062552D01*
X146635695Y-70110171D01*
X146683314Y-70205409D01*
X146683314Y-70443504D01*
X146635695Y-70538742D01*
X146588076Y-70586361D01*
X146492838Y-70633980D01*
X146207123Y-70633980D01*
X146111885Y-70586361D01*
X146064266Y-70538742D01*
X145832533Y-72157980D02*
X145499200Y-71681790D01*
X145261104Y-72157980D02*
X145261104Y-71157980D01*
X145642057Y-71157980D01*
X145737295Y-71205600D01*
X145784914Y-71253219D01*
X145832533Y-71348457D01*
X145832533Y-71491314D01*
X145784914Y-71586552D01*
X145737295Y-71634171D01*
X145642057Y-71681790D01*
X145261104Y-71681790D01*
X146213485Y-71253219D02*
X146261104Y-71205600D01*
X146356342Y-71157980D01*
X146594438Y-71157980D01*
X146689676Y-71205600D01*
X146737295Y-71253219D01*
X146784914Y-71348457D01*
X146784914Y-71443695D01*
X146737295Y-71586552D01*
X146165866Y-72157980D01*
X146784914Y-72157980D01*
M02*
